<?xml version="1.0" encoding="utf-8"?>
<!-- Generator: Adobe Illustrator 16.0.0, SVG Export Plug-In . SVG Version: 6.00 Build 0)  -->
<!DOCTYPE svg PUBLIC "-//W3C//DTD SVG 1.1//EN" "http://www.w3.org/Graphics/SVG/1.1/DTD/svg11.dtd">
<svg version="1.1" id="Layer_1" xmlns="http://www.w3.org/2000/svg" xmlns:xlink="http://www.w3.org/1999/xlink" x="0px" y="0px"
	 width="946.459px" height="77.229px" viewBox="0 0 946.459 77.229" enable-background="new 0 0 946.459 77.229"
	 xml:space="preserve">
<g>
	<path d="M61.764,10.645V9.203H9.869v59.213h51.895v-1.885h7.43v11.089h-7.43H0V0h69.194v10.645H61.764z"/>
	<path d="M109.88,38.81H98.126V0h32.933V7.54h-24.505v22.842h24.617v6.099h16.3v7.874h-29.052v24.949h29.052v8.316h-37.59V38.81z"/>
	<path d="M188.159,38.81h-11.754V0h32.933V7.54h-24.506v22.842h24.617v6.099h16.3v7.874h-29.052v24.949h29.052v8.316h-37.591V38.81z
		"/>
	<path d="M332.962,38.81h-11.754V0h32.933V7.54h-24.505v22.842h24.617v6.099h16.3v7.874h-29.052v24.949h29.052v8.316h-37.591V38.81z
		"/>
	<path d="M399.487,77.621V0h9.647v49.013h18.074V0.221h9.869V77.51h-9.647V57.994h-18.074v19.627H399.487z"/>
	<path d="M466.012,77.51V0h8.872v77.51H466.012z M490.297,77.51V0h8.87v77.51H490.297z M523.452,0.11v77.511h-8.871V0.11H523.452z"
		/>
	<path d="M564.139,38.81h-11.754V0h32.933V7.54h-24.505v22.842h24.616v6.099h16.301v7.874h-29.053v24.949h29.053v8.316h-37.591
		V38.81z"/>
</g>
</svg>
