<?xml version="1.0" encoding="utf-8"?>
<!-- Generator: Adobe Illustrator 16.0.0, SVG Export Plug-In . SVG Version: 6.00 Build 0)  -->
<!DOCTYPE svg PUBLIC "-//W3C//DTD SVG 1.1//EN" "http://www.w3.org/Graphics/SVG/1.1/DTD/svg11.dtd">
<svg version="1.1" id="Layer_1" xmlns="http://www.w3.org/2000/svg" xmlns:xlink="http://www.w3.org/1999/xlink" x="0px" y="0px"
	 width="946.459px" height="77.229px" viewBox="0 0 946.459 77.229" enable-background="new 0 0 946.459 77.229"
	 xml:space="preserve">
<g>
	<path d="M69.808,50.641L0.248,74.944H0c-0.248,0-0.372-0.083-0.372-0.248c-0.083-0.331,0-0.579,0.248-0.744l13.515-4.712V6.499
		l20.707-0.496c9.175,0,16.181,2.583,21.017,7.75c4.836,5.167,7.254,12.544,7.254,22.133c0,6.53-0.951,12.275-2.852,17.235
		l9.919-3.472c0.413-0.165,0.62-0.083,0.62,0.248C70.139,50.227,70.056,50.475,69.808,50.641z M12.771,74.572
		c-0.083,0-0.124-0.042-0.124-0.124l0.124-0.124l0.124,0.124C12.896,74.53,12.854,74.572,12.771,74.572z M56.293,54.237
		c2.397-4.96,3.596-11.036,3.596-18.227c0-8.928-2.211-15.727-6.634-20.397S42.406,8.607,33.974,8.607
		c-0.496,0-1.529,0.021-3.1,0.062c-1.57,0.041-3.306,0.083-5.208,0.124c-1.901,0.042-3.761,0.104-5.58,0.186
		c-1.819,0.083-3.224,0.124-4.216,0.124v59.269L56.293,54.237z M19.095,74.572c-0.083,0-0.124-0.042-0.124-0.124l0.124-0.124
		l0.124,0.124C19.219,74.53,19.178,74.572,19.095,74.572z M25.418,74.572c-0.083,0-0.124-0.042-0.124-0.124l0.124-0.124l0.124,0.124
		C25.542,74.53,25.501,74.572,25.418,74.572z M31.866,68.371c0,0.166-0.042,0.248-0.124,0.248c-0.166,0-0.248-0.082-0.248-0.248
		c0-0.165,0.083-0.248,0.248-0.248C31.825,68.123,31.866,68.206,31.866,68.371z M31.742,74.572c-0.083,0-0.124-0.042-0.124-0.124
		l0.124-0.124l0.124,0.124C31.866,74.53,31.825,74.572,31.742,74.572z M38.19,68.371c0,0.166-0.042,0.248-0.124,0.248
		c-0.166,0-0.248-0.082-0.248-0.248c0-0.165,0.083-0.248,0.248-0.248C38.148,68.123,38.19,68.206,38.19,68.371z M38.066,74.572
		c-0.166,0-0.248-0.042-0.248-0.124l0.248-0.124l0.124,0.124C38.19,74.53,38.148,74.572,38.066,74.572z M44.514,68.371
		c0,0.166-0.042,0.248-0.124,0.248c-0.166,0-0.248-0.082-0.248-0.248c0-0.165,0.083-0.248,0.248-0.248
		C44.472,68.123,44.514,68.206,44.514,68.371z M44.39,74.572c-0.166,0-0.248-0.042-0.248-0.124l0.248-0.124l0.124,0.124
		C44.514,74.53,44.472,74.572,44.39,74.572z M50.961,62.296c0,0.248-0.083,0.372-0.248,0.372c-0.248,0-0.372-0.124-0.372-0.372
		s0.124-0.372,0.372-0.372C50.878,61.924,50.961,62.048,50.961,62.296z M50.837,68.371c0,0.166-0.041,0.248-0.124,0.248
		c-0.165,0-0.248-0.082-0.248-0.248c0-0.165,0.083-0.248,0.248-0.248C50.796,68.123,50.837,68.206,50.837,68.371z M50.713,74.572
		c-0.165,0-0.248-0.042-0.248-0.124l0.248-0.124l0.124,0.124C50.837,74.53,50.796,74.572,50.713,74.572z M57.285,62.296
		c0,0.248-0.083,0.372-0.248,0.372c-0.248,0-0.372-0.124-0.372-0.372s0.124-0.372,0.372-0.372
		C57.202,61.924,57.285,62.048,57.285,62.296z M57.161,68.371c0,0.166-0.041,0.248-0.124,0.248c-0.165,0-0.248-0.082-0.248-0.248
		c0-0.165,0.083-0.248,0.248-0.248C57.12,68.123,57.161,68.206,57.161,68.371z M57.037,74.572c-0.165,0-0.248-0.042-0.248-0.124
		l0.248-0.124l0.124,0.124C57.161,74.53,57.12,74.572,57.037,74.572z M63.732,56.22c0,0.248-0.124,0.372-0.372,0.372
		c-0.331,0-0.496-0.124-0.496-0.372s0.166-0.372,0.496-0.372C63.608,55.848,63.732,55.972,63.732,56.22z M63.608,62.296
		c0,0.248-0.083,0.372-0.248,0.372c-0.248,0-0.372-0.124-0.372-0.372s0.124-0.372,0.372-0.372
		C63.526,61.924,63.608,62.048,63.608,62.296z M63.484,68.371c0,0.083-0.042,0.166-0.124,0.248c-0.166,0-0.248-0.082-0.248-0.248
		c0-0.165,0.083-0.248,0.248-0.248L63.484,68.371z M63.36,74.572c-0.166,0-0.248-0.042-0.248-0.124l0.248-0.124l0.124,0.124
		C63.484,74.53,63.443,74.572,63.36,74.572z M70.056,56.22c0,0.248-0.166,0.372-0.496,0.372c-0.248,0-0.372-0.124-0.372-0.372
		s0.124-0.372,0.372-0.372C69.891,55.848,70.056,55.972,70.056,56.22z M69.932,62.296c0,0.248-0.124,0.372-0.372,0.372
		c-0.166,0-0.248-0.124-0.248-0.372s0.083-0.372,0.248-0.372C69.808,61.924,69.932,62.048,69.932,62.296z M69.808,68.371
		c0,0.166-0.083,0.248-0.248,0.248c-0.083,0-0.124-0.082-0.124-0.248c0-0.165,0.042-0.248,0.124-0.248
		C69.726,68.123,69.808,68.206,69.808,68.371z M69.808,74.448c0,0.082-0.083,0.124-0.248,0.124l-0.124-0.124l0.124-0.124
		C69.643,74.323,69.726,74.365,69.808,74.448z"/>
	<path d="M69.438,50.641c-0.331-0.166-0.413-0.414-0.248-0.744c0-0.331,0.207-0.413,0.62-0.248l8.06,3.224l-0.496,0.868
		L69.438,50.641z M73.778,69.24l25.667-62.74h2.604l16.739,44.266l6.82,18.475h-2.852l-1.24-4.464l-4.96-13.144H83.574
		l-5.456,13.144L76.63,69.24H73.778z M75.762,74.572c-0.083,0-0.124-0.042-0.124-0.124l0.124-0.124l0.124,0.124
		C75.886,74.53,75.845,74.572,75.762,74.572z M81.962,74.448c0,0.082-0.042,0.124-0.124,0.124l-0.124-0.124l0.124-0.124
		C81.92,74.323,81.962,74.365,81.962,74.448z M115.688,49.277l-14.879-38.934h-0.372L84.565,49.277H115.688z M131.311,74.696
		c0,0.165-0.166,0.248-0.496,0.248h-0.124L85.31,56.964l0.372-0.992l45.381,17.979C131.394,74.116,131.476,74.365,131.311,74.696z
		 M88.286,62.296c0,0.248-0.083,0.372-0.248,0.372c-0.248,0-0.372-0.124-0.372-0.372s0.124-0.372,0.372-0.372
		C88.203,61.924,88.286,62.048,88.286,62.296z M88.162,68.371c0,0.166-0.042,0.248-0.124,0.248c-0.166,0-0.248-0.082-0.248-0.248
		c0-0.165,0.083-0.248,0.248-0.248C88.12,68.123,88.162,68.206,88.162,68.371z M88.038,74.572c-0.166,0-0.248-0.042-0.248-0.124
		l0.248-0.124l0.124,0.124C88.162,74.53,88.12,74.572,88.038,74.572z M94.485,62.296c0,0.248-0.124,0.372-0.372,0.372
		s-0.372-0.124-0.372-0.372s0.124-0.372,0.372-0.372S94.485,62.048,94.485,62.296z M94.361,68.371c0,0.166-0.083,0.248-0.248,0.248
		c-0.166,0-0.248-0.082-0.248-0.248c0-0.165,0.083-0.248,0.248-0.248C94.278,68.123,94.361,68.206,94.361,68.371z M94.237,74.448
		c0,0.082-0.042,0.124-0.124,0.124c-0.083,0-0.124-0.042-0.124-0.124l0.124-0.124C94.196,74.323,94.237,74.365,94.237,74.448z
		 M100.437,68.371c0,0.166-0.083,0.248-0.248,0.248c-0.083,0-0.124-0.082-0.124-0.248c0-0.165,0.041-0.248,0.124-0.248
		C100.354,68.123,100.437,68.206,100.437,68.371z M100.437,74.448c0,0.082-0.083,0.124-0.248,0.124l-0.124-0.124l0.124-0.124
		C100.271,74.323,100.354,74.365,100.437,74.448z M106.636,68.371c0,0.166-0.083,0.248-0.248,0.248
		c-0.165,0-0.248-0.082-0.248-0.248c0-0.165,0.083-0.248,0.248-0.248C106.554,68.123,106.636,68.206,106.636,68.371z
		 M106.388,74.572c-0.083,0-0.124-0.042-0.124-0.124l0.124-0.124l0.124,0.124C106.512,74.53,106.471,74.572,106.388,74.572z
		 M112.588,74.448c0,0.082-0.041,0.124-0.124,0.124l-0.124-0.124l0.124-0.124C112.547,74.323,112.588,74.365,112.588,74.448z
		 M118.664,74.572c-0.083,0-0.124-0.042-0.124-0.124l0.124-0.124l0.124,0.124C118.788,74.53,118.747,74.572,118.664,74.572z"/>
	<path d="M184.382,1.787L131.313,74.82c-0.083,0.082-0.248,0.124-0.496,0.124h-0.248c-0.248-0.248-0.289-0.496-0.124-0.744
		l25.791-35.586V8.979h-9.175l-10.664,0.124l-0.372-0.496l0.372-2.108h43.149l3.968-5.456c0.248-0.248,0.496-0.289,0.744-0.124
		C184.506,1.167,184.547,1.457,184.382,1.787z M136.893,74.448c0,0.082-0.042,0.124-0.124,0.124s-0.124-0.042-0.124-0.124
		l0.124-0.124C136.851,74.323,136.893,74.365,136.893,74.448z M142.844,68.371c0,0.166-0.042,0.248-0.124,0.248
		c-0.166,0-0.248-0.082-0.248-0.248c0-0.165,0.083-0.248,0.248-0.248C142.803,68.123,142.844,68.206,142.844,68.371z M142.72,74.572
		c-0.166,0-0.248-0.042-0.248-0.124l0.248-0.124l0.124,0.124C142.844,74.53,142.803,74.572,142.72,74.572z M148.92,56.22
		c0,0.248-0.124,0.372-0.372,0.372s-0.372-0.124-0.372-0.372s0.124-0.372,0.372-0.372S148.92,55.972,148.92,56.22z M148.92,62.296
		c0,0.248-0.124,0.372-0.372,0.372c-0.166,0-0.248-0.124-0.248-0.372s0.083-0.372,0.248-0.372
		C148.796,61.924,148.92,62.048,148.92,62.296z M148.796,68.371c0,0.166-0.083,0.248-0.248,0.248s-0.248-0.082-0.248-0.248
		c0-0.165,0.083-0.248,0.248-0.248S148.796,68.206,148.796,68.371z M148.672,74.448c0,0.082-0.042,0.124-0.124,0.124l-0.124-0.124
		l0.124-0.124C148.63,74.323,148.672,74.365,148.672,74.448z M154.5,74.572c-0.083,0-0.124-0.042-0.124-0.124l0.124-0.124
		l0.124,0.124C154.624,74.53,154.582,74.572,154.5,74.572z M158.715,43.448V69.24h-2.48V46.921L158.715,43.448z M177.686,9.103
		l-9.547-0.124h-9.423v26.163L177.686,9.103z M160.451,74.448c0,0.082-0.042,0.124-0.124,0.124l-0.124-0.124l0.124-0.124
		C160.41,74.323,160.451,74.365,160.451,74.448z M167.023,31.918c0,0.496-0.248,0.744-0.744,0.744s-0.744-0.248-0.744-0.744
		c0-0.579,0.248-0.868,0.744-0.868S167.023,31.339,167.023,31.918z M166.899,37.993c0,0.413-0.207,0.62-0.62,0.62
		c-0.496,0-0.744-0.207-0.744-0.62c0-0.496,0.248-0.744,0.744-0.744C166.692,37.249,166.899,37.497,166.899,37.993z M166.899,44.07
		c0,0.33-0.207,0.495-0.62,0.495c-0.413,0-0.62-0.165-0.62-0.495c0-0.414,0.207-0.621,0.62-0.621
		C166.692,43.448,166.899,43.656,166.899,44.07z M166.775,50.145c0,0.33-0.166,0.496-0.496,0.496s-0.496-0.166-0.496-0.496
		c0-0.331,0.166-0.496,0.496-0.496S166.775,49.814,166.775,50.145z M166.651,56.22c0,0.248-0.124,0.372-0.372,0.372
		s-0.372-0.124-0.372-0.372s0.124-0.372,0.372-0.372S166.651,55.972,166.651,56.22z M166.527,62.296
		c0,0.248-0.083,0.372-0.248,0.372c-0.248,0-0.372-0.124-0.372-0.372s0.124-0.372,0.372-0.372
		C166.444,61.924,166.527,62.048,166.527,62.296z M166.527,68.371c0,0.166-0.083,0.248-0.248,0.248
		c-0.165,0-0.248-0.082-0.248-0.248c0-0.165,0.083-0.248,0.248-0.248C166.444,68.123,166.527,68.206,166.527,68.371z
		 M166.279,74.572c-0.083,0-0.124-0.042-0.124-0.124l0.124-0.124l0.124,0.124C166.403,74.53,166.361,74.572,166.279,74.572z
		 M172.975,25.718c0,0.579-0.29,0.868-0.868,0.868c-0.496,0-0.744-0.29-0.744-0.868c0-0.496,0.248-0.744,0.744-0.744
		C172.685,24.974,172.975,25.222,172.975,25.718z M172.851,31.918c0,0.496-0.248,0.744-0.744,0.744s-0.744-0.248-0.744-0.744
		c0-0.579,0.248-0.868,0.744-0.868S172.851,31.339,172.851,31.918z M172.851,37.993c0,0.413-0.248,0.62-0.744,0.62
		c-0.413,0-0.62-0.207-0.62-0.62c0-0.496,0.207-0.744,0.62-0.744C172.603,37.249,172.851,37.497,172.851,37.993z M172.727,44.07
		c0,0.33-0.207,0.495-0.62,0.495c-0.331,0-0.496-0.165-0.496-0.495c0-0.414,0.166-0.621,0.496-0.621
		C172.52,43.448,172.727,43.656,172.727,44.07z M172.603,50.145c0,0.33-0.166,0.496-0.496,0.496s-0.496-0.166-0.496-0.496
		c0-0.331,0.166-0.496,0.496-0.496S172.603,49.814,172.603,50.145z M172.603,56.22c0,0.248-0.166,0.372-0.496,0.372
		c-0.248,0-0.372-0.124-0.372-0.372s0.124-0.372,0.372-0.372C172.437,55.848,172.603,55.972,172.603,56.22z M172.479,62.296
		c0,0.248-0.124,0.372-0.372,0.372c-0.165,0-0.248-0.124-0.248-0.372s0.083-0.372,0.248-0.372
		C172.354,61.924,172.479,62.048,172.479,62.296z M172.354,68.371c0,0.166-0.083,0.248-0.248,0.248
		c-0.083,0-0.124-0.082-0.124-0.248c0-0.165,0.042-0.248,0.124-0.248C172.272,68.123,172.354,68.206,172.354,68.371z M172.23,74.448
		c0,0.082-0.042,0.124-0.124,0.124l-0.124-0.124l0.124-0.124C172.189,74.323,172.23,74.365,172.23,74.448z M178.926,19.642
		c0,0.661-0.29,0.992-0.868,0.992c-0.661,0-0.992-0.331-0.992-0.992c0-0.579,0.331-0.868,0.992-0.868
		C178.637,18.774,178.926,19.064,178.926,19.642z M178.926,25.718c0,0.579-0.29,0.868-0.868,0.868s-0.868-0.29-0.868-0.868
		c0-0.496,0.289-0.744,0.868-0.744S178.926,25.222,178.926,25.718z M178.802,31.918c0,0.496-0.248,0.744-0.744,0.744
		s-0.744-0.248-0.744-0.744c0-0.579,0.248-0.868,0.744-0.868S178.802,31.339,178.802,31.918z M178.678,37.993
		c0,0.413-0.207,0.62-0.62,0.62c-0.413,0-0.62-0.207-0.62-0.62c0-0.496,0.207-0.744,0.62-0.744
		C178.472,37.249,178.678,37.497,178.678,37.993z M178.678,44.07c0,0.33-0.207,0.495-0.62,0.495c-0.413,0-0.62-0.165-0.62-0.495
		c0-0.414,0.207-0.621,0.62-0.621C178.472,43.448,178.678,43.656,178.678,44.07z M178.554,50.145c0,0.33-0.166,0.496-0.496,0.496
		s-0.496-0.166-0.496-0.496c0-0.331,0.166-0.496,0.496-0.496S178.554,49.814,178.554,50.145z M178.43,56.22
		c0,0.248-0.124,0.372-0.372,0.372s-0.372-0.124-0.372-0.372s0.124-0.372,0.372-0.372S178.43,55.972,178.43,56.22z M178.306,62.296
		c0,0.248-0.083,0.372-0.248,0.372c-0.248,0-0.372-0.124-0.372-0.372s0.124-0.372,0.372-0.372
		C178.224,61.924,178.306,62.048,178.306,62.296z M178.306,68.371c0,0.166-0.083,0.248-0.248,0.248
		c-0.165,0-0.248-0.082-0.248-0.248c0-0.165,0.083-0.248,0.248-0.248C178.224,68.123,178.306,68.206,178.306,68.371z
		 M178.182,74.448c0,0.082-0.042,0.124-0.124,0.124s-0.124-0.042-0.124-0.124l0.124-0.124
		C178.141,74.323,178.182,74.365,178.182,74.448z M185.002,7.491c0,0.744-0.372,1.116-1.116,1.116c-0.661,0-0.992-0.372-0.992-1.116
		c0-0.744,0.331-1.116,0.992-1.116C184.63,6.375,185.002,6.747,185.002,7.491z M185.002,13.567c0,0.744-0.372,1.116-1.116,1.116
		c-0.661,0-0.992-0.372-0.992-1.116c0-0.661,0.331-0.992,0.992-0.992C184.63,12.575,185.002,12.906,185.002,13.567z M184.878,19.642
		c0,0.661-0.331,0.992-0.992,0.992c-0.579,0-0.868-0.331-0.868-0.992c0-0.579,0.289-0.868,0.868-0.868
		C184.547,18.774,184.878,19.064,184.878,19.642z M184.754,25.718c0,0.579-0.29,0.868-0.868,0.868c-0.496,0-0.744-0.29-0.744-0.868
		c0-0.496,0.248-0.744,0.744-0.744C184.464,24.974,184.754,25.222,184.754,25.718z M184.754,31.918c0,0.496-0.29,0.744-0.868,0.744
		c-0.496,0-0.744-0.248-0.744-0.744c0-0.579,0.248-0.868,0.744-0.868C184.464,31.05,184.754,31.339,184.754,31.918z M184.63,37.993
		c0,0.413-0.248,0.62-0.744,0.62c-0.413,0-0.62-0.207-0.62-0.62c0-0.496,0.207-0.744,0.62-0.744
		C184.382,37.249,184.63,37.497,184.63,37.993z M184.506,44.07c0,0.33-0.207,0.495-0.62,0.495c-0.331,0-0.496-0.165-0.496-0.495
		c0-0.414,0.166-0.621,0.496-0.621C184.299,43.448,184.506,43.656,184.506,44.07z M184.382,50.145c0,0.33-0.166,0.496-0.496,0.496
		s-0.496-0.166-0.496-0.496c0-0.331,0.166-0.496,0.496-0.496S184.382,49.814,184.382,50.145z M184.382,56.22
		c0,0.248-0.166,0.372-0.496,0.372c-0.248,0-0.372-0.124-0.372-0.372s0.124-0.372,0.372-0.372
		C184.216,55.848,184.382,55.972,184.382,56.22z M184.258,62.296c0,0.248-0.124,0.372-0.372,0.372c-0.165,0-0.248-0.124-0.248-0.372
		s0.083-0.372,0.248-0.372C184.134,61.924,184.258,62.048,184.258,62.296z M184.134,68.371c0,0.166-0.083,0.248-0.248,0.248
		c-0.083,0-0.124-0.082-0.124-0.248c0-0.165,0.042-0.248,0.124-0.248C184.051,68.123,184.134,68.206,184.134,68.371z
		 M184.134,74.448c0,0.082-0.083,0.124-0.248,0.124l-0.124-0.124l0.124-0.124C183.969,74.323,184.051,74.365,184.134,74.448z"/>
	<path d="M183.516,1.291c0-0.413,0.207-0.537,0.62-0.372l24.674,9.796l-0.496,0.992l-24.551-9.795
		C183.434,1.746,183.351,1.539,183.516,1.291z M239.933,69.24h-2.852l-1.24-4.464l-4.96-13.02h-32.982l-5.456,13.02l-1.488,4.464
		h-2.852l25.667-62.74h2.604L239.933,69.24z M191.204,7.491c0,0.744-0.372,1.116-1.116,1.116s-1.116-0.372-1.116-1.116
		c0-0.744,0.372-1.116,1.116-1.116S191.204,6.747,191.204,7.491z M191.08,13.567c0,0.744-0.331,1.116-0.992,1.116
		s-0.992-0.372-0.992-1.116c0-0.661,0.331-0.992,0.992-0.992S191.08,12.906,191.08,13.567z M190.956,19.642
		c0,0.661-0.289,0.992-0.868,0.992c-0.661,0-0.992-0.331-0.992-0.992c0-0.579,0.331-0.868,0.992-0.868
		C190.667,18.774,190.956,19.064,190.956,19.642z M190.956,25.718c0,0.579-0.289,0.868-0.868,0.868s-0.868-0.29-0.868-0.868
		c0-0.496,0.29-0.744,0.868-0.744S190.956,25.222,190.956,25.718z M190.832,31.918c0,0.496-0.248,0.744-0.744,0.744
		s-0.744-0.248-0.744-0.744c0-0.579,0.248-0.868,0.744-0.868S190.832,31.339,190.832,31.918z M190.708,37.993
		c0,0.413-0.207,0.62-0.62,0.62c-0.496,0-0.744-0.207-0.744-0.62c0-0.496,0.248-0.744,0.744-0.744
		C190.501,37.249,190.708,37.497,190.708,37.993z M190.708,44.07c0,0.33-0.207,0.495-0.62,0.495c-0.414,0-0.62-0.165-0.62-0.495
		c0-0.414,0.207-0.621,0.62-0.621C190.501,43.448,190.708,43.656,190.708,44.07z M190.584,50.145c0,0.33-0.166,0.496-0.496,0.496
		s-0.496-0.166-0.496-0.496c0-0.331,0.166-0.496,0.496-0.496S190.584,49.814,190.584,50.145z M190.088,74.572
		c-0.083,0-0.124-0.042-0.124-0.124l0.124-0.124l0.124,0.124C190.212,74.53,190.17,74.572,190.088,74.572z M197.155,13.567
		c0,0.744-0.331,1.116-0.992,1.116c-0.662,0-0.992-0.372-0.992-1.116c0-0.661,0.331-0.992,0.992-0.992
		C196.825,12.575,197.155,12.906,197.155,13.567z M197.155,19.642c0,0.661-0.331,0.992-0.992,0.992
		c-0.579,0-0.868-0.331-0.868-0.992c0-0.579,0.29-0.868,0.868-0.868C196.825,18.774,197.155,19.064,197.155,19.642z M197.031,25.718
		c0,0.579-0.289,0.868-0.868,0.868s-0.868-0.29-0.868-0.868c0-0.496,0.29-0.744,0.868-0.744S197.031,25.222,197.031,25.718z
		 M196.907,31.918c0,0.496-0.248,0.744-0.744,0.744s-0.744-0.248-0.744-0.744c0-0.579,0.248-0.868,0.744-0.868
		S196.907,31.339,196.907,31.918z M196.907,37.993c0,0.413-0.248,0.62-0.744,0.62c-0.414,0-0.62-0.207-0.62-0.62
		c0-0.496,0.207-0.744,0.62-0.744C196.66,37.249,196.907,37.497,196.907,37.993z M196.412,68.371c0,0.166-0.083,0.248-0.248,0.248
		c-0.166,0-0.248-0.082-0.248-0.248c0-0.165,0.083-0.248,0.248-0.248C196.329,68.123,196.412,68.206,196.412,68.371z
		 M196.288,74.448c0,0.082-0.042,0.124-0.124,0.124l-0.124-0.124l0.124-0.124C196.246,74.323,196.288,74.365,196.288,74.448z
		 M215.134,10.343h-0.372l-15.871,38.934h31.123L215.134,10.343z M203.355,13.567c0,0.744-0.331,1.116-0.992,1.116
		c-0.744,0-1.116-0.372-1.116-1.116c0-0.661,0.372-0.992,1.116-0.992C203.024,12.575,203.355,12.906,203.355,13.567z
		 M203.231,19.642c0,0.661-0.289,0.992-0.868,0.992c-0.662,0-0.992-0.331-0.992-0.992c0-0.579,0.331-0.868,0.992-0.868
		C202.942,18.774,203.231,19.064,203.231,19.642z M202.735,56.22c0,0.248-0.124,0.372-0.372,0.372c-0.331,0-0.496-0.124-0.496-0.372
		s0.166-0.372,0.496-0.372C202.611,55.848,202.735,55.972,202.735,56.22z M202.611,62.296c0,0.248-0.083,0.372-0.248,0.372
		c-0.248,0-0.372-0.124-0.372-0.372s0.124-0.372,0.372-0.372C202.528,61.924,202.611,62.048,202.611,62.296z M202.487,68.371
		c0,0.166-0.042,0.248-0.124,0.248c-0.166,0-0.248-0.082-0.248-0.248c0-0.165,0.083-0.248,0.248-0.248
		C202.446,68.123,202.487,68.206,202.487,68.371z M202.363,74.572c-0.166,0-0.248-0.042-0.248-0.124l0.248-0.124l0.124,0.124
		C202.487,74.53,202.446,74.572,202.363,74.572z M209.059,37.993c0,0.413-0.207,0.62-0.62,0.62c-0.414,0-0.62-0.207-0.62-0.62
		c0-0.496,0.207-0.744,0.62-0.744C208.852,37.249,209.059,37.497,209.059,37.993z M209.059,44.07c0,0.33-0.207,0.495-0.62,0.495
		c-0.414,0-0.62-0.165-0.62-0.495c0-0.414,0.207-0.621,0.62-0.621C208.852,43.448,209.059,43.656,209.059,44.07z M208.811,56.22
		c0,0.248-0.124,0.372-0.372,0.372c-0.248,0-0.372-0.124-0.372-0.372s0.124-0.372,0.372-0.372
		C208.687,55.848,208.811,55.972,208.811,56.22z M208.811,62.296c0,0.248-0.124,0.372-0.372,0.372c-0.248,0-0.372-0.124-0.372-0.372
		s0.124-0.372,0.372-0.372C208.687,61.924,208.811,62.048,208.811,62.296z M208.687,68.371c0,0.166-0.083,0.248-0.248,0.248
		c-0.166,0-0.248-0.082-0.248-0.248c0-0.165,0.083-0.248,0.248-0.248C208.604,68.123,208.687,68.206,208.687,68.371z
		 M208.563,74.448c0,0.082-0.042,0.124-0.124,0.124c-0.083,0-0.124-0.042-0.124-0.124l0.124-0.124
		C208.521,74.323,208.563,74.365,208.563,74.448z M215.382,25.718c0,0.579-0.289,0.868-0.868,0.868c-0.496,0-0.744-0.29-0.744-0.868
		c0-0.496,0.248-0.744,0.744-0.744C215.093,24.974,215.382,25.222,215.382,25.718z M215.382,31.918c0,0.496-0.289,0.744-0.868,0.744
		c-0.496,0-0.744-0.248-0.744-0.744c0-0.579,0.248-0.868,0.744-0.868C215.093,31.05,215.382,31.339,215.382,31.918z M215.258,37.993
		c0,0.413-0.248,0.62-0.744,0.62c-0.414,0-0.62-0.207-0.62-0.62c0-0.496,0.207-0.744,0.62-0.744
		C215.01,37.249,215.258,37.497,215.258,37.993z M215.134,44.07c0,0.33-0.207,0.495-0.62,0.495c-0.331,0-0.496-0.165-0.496-0.495
		c0-0.414,0.165-0.621,0.496-0.621C214.928,43.448,215.134,43.656,215.134,44.07z M215.01,56.22c0,0.248-0.165,0.372-0.496,0.372
		c-0.248,0-0.372-0.124-0.372-0.372s0.124-0.372,0.372-0.372C214.845,55.848,215.01,55.972,215.01,56.22z M214.886,62.296
		c0,0.248-0.124,0.372-0.372,0.372c-0.166,0-0.248-0.124-0.248-0.372s0.083-0.372,0.248-0.372
		C214.762,61.924,214.886,62.048,214.886,62.296z M214.762,68.371c0,0.166-0.083,0.248-0.248,0.248
		c-0.083,0-0.124-0.082-0.124-0.248c0-0.165,0.041-0.248,0.124-0.248C214.68,68.123,214.762,68.206,214.762,68.371z M214.762,74.448
		c0,0.082-0.083,0.124-0.248,0.124l-0.124-0.124l0.124-0.124C214.597,74.323,214.68,74.365,214.762,74.448z M221.334,37.993
		c0,0.413-0.207,0.62-0.62,0.62c-0.496,0-0.744-0.207-0.744-0.62c0-0.496,0.248-0.744,0.744-0.744
		C221.127,37.249,221.334,37.497,221.334,37.993z M221.334,44.07c0,0.33-0.207,0.495-0.62,0.495c-0.413,0-0.62-0.165-0.62-0.495
		c0-0.414,0.207-0.621,0.62-0.621C221.127,43.448,221.334,43.656,221.334,44.07z M221.086,56.22c0,0.248-0.124,0.372-0.372,0.372
		c-0.248,0-0.372-0.124-0.372-0.372s0.124-0.372,0.372-0.372C220.962,55.848,221.086,55.972,221.086,56.22z M220.962,62.296
		c0,0.248-0.083,0.372-0.248,0.372c-0.248,0-0.372-0.124-0.372-0.372s0.124-0.372,0.372-0.372
		C220.879,61.924,220.962,62.048,220.962,62.296z M220.962,68.371c0,0.166-0.083,0.248-0.248,0.248
		c-0.165,0-0.248-0.082-0.248-0.248c0-0.165,0.083-0.248,0.248-0.248C220.879,68.123,220.962,68.206,220.962,68.371z
		 M220.714,74.572c-0.083,0-0.124-0.042-0.124-0.124l0.124-0.124l0.124,0.124C220.838,74.53,220.797,74.572,220.714,74.572z
		 M245.637,25.966c0,0.248-0.166,0.372-0.496,0.372l-0.124-0.124l-20.955-8.308l-0.496-1.364l21.823,8.803
		C245.719,25.346,245.802,25.552,245.637,25.966z M227.162,56.22c0,0.248-0.124,0.372-0.372,0.372c-0.248,0-0.372-0.124-0.372-0.372
		s0.124-0.372,0.372-0.372C227.038,55.848,227.162,55.972,227.162,56.22z M227.162,62.296c0,0.248-0.124,0.372-0.372,0.372
		c-0.165,0-0.248-0.124-0.248-0.372s0.083-0.372,0.248-0.372C227.038,61.924,227.162,62.048,227.162,62.296z M227.038,68.371
		c0,0.166-0.083,0.248-0.248,0.248c-0.165,0-0.248-0.082-0.248-0.248c0-0.165,0.083-0.248,0.248-0.248
		C226.955,68.123,227.038,68.206,227.038,68.371z M226.914,74.448c0,0.082-0.041,0.124-0.124,0.124l-0.124-0.124l0.124-0.124
		C226.873,74.323,226.914,74.365,226.914,74.448z M233.733,25.718c0,0.579-0.248,0.868-0.744,0.868c-0.579,0-0.868-0.29-0.868-0.868
		c0-0.496,0.289-0.744,0.868-0.744C233.485,24.974,233.733,25.222,233.733,25.718z M233.733,31.918c0,0.496-0.248,0.744-0.744,0.744
		c-0.579,0-0.868-0.248-0.868-0.744c0-0.579,0.289-0.868,0.868-0.868C233.485,31.05,233.733,31.339,233.733,31.918z M233.609,37.993
		c0,0.413-0.207,0.62-0.62,0.62c-0.496,0-0.744-0.207-0.744-0.62c0-0.496,0.248-0.744,0.744-0.744
		C233.403,37.249,233.609,37.497,233.609,37.993z M233.113,68.371c0,0.166-0.041,0.248-0.124,0.248
		c-0.165,0-0.248-0.082-0.248-0.248c0-0.165,0.083-0.248,0.248-0.248C233.072,68.123,233.113,68.206,233.113,68.371z
		 M232.989,74.572c-0.083,0-0.124-0.042-0.124-0.124l0.124-0.124l0.124,0.124C233.113,74.53,233.072,74.572,232.989,74.572z
		 M239.809,31.918c0,0.496-0.248,0.744-0.744,0.744s-0.744-0.248-0.744-0.744c0-0.579,0.248-0.868,0.744-0.868
		S239.809,31.339,239.809,31.918z M239.685,37.993c0,0.413-0.207,0.62-0.62,0.62c-0.413,0-0.62-0.207-0.62-0.62
		c0-0.496,0.207-0.744,0.62-0.744C239.479,37.249,239.685,37.497,239.685,37.993z M239.685,44.07c0,0.33-0.207,0.495-0.62,0.495
		c-0.413,0-0.62-0.165-0.62-0.495c0-0.414,0.207-0.621,0.62-0.621C239.479,43.448,239.685,43.656,239.685,44.07z M239.561,50.145
		c0,0.33-0.166,0.496-0.496,0.496s-0.496-0.166-0.496-0.496c0-0.331,0.166-0.496,0.496-0.496S239.561,49.814,239.561,50.145z
		 M239.189,74.448c0,0.082-0.042,0.124-0.124,0.124s-0.124-0.042-0.124-0.124l0.124-0.124
		C239.147,74.323,239.189,74.365,239.189,74.448z M246.009,31.918c0,0.496-0.29,0.744-0.868,0.744c-0.496,0-0.744-0.248-0.744-0.744
		c0-0.579,0.248-0.868,0.744-0.868C245.719,31.05,246.009,31.339,246.009,31.918z M245.885,37.993c0,0.413-0.248,0.62-0.744,0.62
		c-0.413,0-0.62-0.207-0.62-0.62c0-0.496,0.207-0.744,0.62-0.744C245.637,37.249,245.885,37.497,245.885,37.993z M245.761,44.07
		c0,0.33-0.207,0.495-0.62,0.495c-0.331,0-0.496-0.165-0.496-0.495c0-0.414,0.166-0.621,0.496-0.621
		C245.554,43.448,245.761,43.656,245.761,44.07z M245.637,50.145c0,0.33-0.166,0.496-0.496,0.496s-0.496-0.166-0.496-0.496
		c0-0.331,0.166-0.496,0.496-0.496S245.637,49.814,245.637,50.145z M245.637,56.22c0,0.248-0.166,0.372-0.496,0.372
		c-0.248,0-0.372-0.124-0.372-0.372s0.124-0.372,0.372-0.372C245.471,55.848,245.637,55.972,245.637,56.22z M245.513,62.296
		c0,0.248-0.124,0.372-0.372,0.372c-0.165,0-0.248-0.124-0.248-0.372s0.083-0.372,0.248-0.372
		C245.389,61.924,245.513,62.048,245.513,62.296z M245.389,68.371c0,0.166-0.083,0.248-0.248,0.248
		c-0.083,0-0.124-0.082-0.124-0.248c0-0.165,0.042-0.248,0.124-0.248C245.306,68.123,245.389,68.206,245.389,68.371z
		 M245.389,74.448c0,0.082-0.083,0.124-0.248,0.124l-0.124-0.124l0.124-0.124C245.223,74.323,245.306,74.365,245.389,74.448z"/>
	<path d="M290.896,50.393c-0.166,0.165-0.331,0.248-0.496,0.248l-0.248-0.124l-45.257-24.303c-0.248-0.166-0.289-0.414-0.124-0.744
		c0.083-0.248,0.29-0.289,0.62-0.124l13.019,6.944V6.499h2.48v27.154l29.758,15.995C290.979,49.814,291.062,50.062,290.896,50.393z
		 M252.334,37.993c0,0.413-0.207,0.62-0.62,0.62c-0.496,0-0.744-0.207-0.744-0.62c0-0.496,0.248-0.744,0.744-0.744
		C252.127,37.249,252.334,37.497,252.334,37.993z M252.21,44.07c0,0.33-0.165,0.495-0.496,0.495c-0.414,0-0.62-0.165-0.62-0.495
		c0-0.414,0.207-0.621,0.62-0.621C252.045,43.448,252.21,43.656,252.21,44.07z M252.21,50.145c0,0.33-0.165,0.496-0.496,0.496
		s-0.496-0.166-0.496-0.496c0-0.331,0.166-0.496,0.496-0.496S252.21,49.814,252.21,50.145z M252.086,56.22
		c0,0.248-0.124,0.372-0.372,0.372c-0.331,0-0.496-0.124-0.496-0.372s0.166-0.372,0.496-0.372
		C251.962,55.848,252.086,55.972,252.086,56.22z M251.962,62.296c0,0.248-0.083,0.372-0.248,0.372c-0.248,0-0.372-0.124-0.372-0.372
		s0.124-0.372,0.372-0.372C251.879,61.924,251.962,62.048,251.962,62.296z M251.838,68.371c0,0.166-0.042,0.248-0.124,0.248
		c-0.166,0-0.248-0.082-0.248-0.248c0-0.165,0.083-0.248,0.248-0.248C251.797,68.123,251.838,68.206,251.838,68.371z
		 M251.714,74.572c-0.166,0-0.248-0.042-0.248-0.124l0.248-0.124l0.124,0.124C251.838,74.53,251.797,74.572,251.714,74.572z
		 M258.162,74.572c-0.083,0-0.124-0.042-0.124-0.124l0.124-0.124l0.124,0.124C258.286,74.53,258.245,74.572,258.162,74.572z
		 M286.928,67.255l-0.372,1.984H258.41v-31.37l2.48,1.24V66.76h25.791L286.928,67.255z M264.609,74.572
		c-0.083,0-0.124-0.042-0.124-0.124l0.124-0.124l0.124,0.124C264.733,74.53,264.692,74.572,264.609,74.572z M271.677,44.07
		c0,0.33-0.207,0.495-0.62,0.495c-0.414,0-0.62-0.165-0.62-0.495c0-0.414,0.207-0.621,0.62-0.621
		C271.47,43.448,271.677,43.656,271.677,44.07z M271.553,50.145c0,0.33-0.166,0.496-0.496,0.496s-0.496-0.166-0.496-0.496
		c0-0.331,0.166-0.496,0.496-0.496S271.553,49.814,271.553,50.145z M271.429,56.22c0,0.248-0.124,0.372-0.372,0.372
		s-0.372-0.124-0.372-0.372s0.124-0.372,0.372-0.372S271.429,55.972,271.429,56.22z M271.429,62.296
		c0,0.248-0.124,0.372-0.372,0.372s-0.372-0.124-0.372-0.372s0.124-0.372,0.372-0.372S271.429,62.048,271.429,62.296z
		 M271.181,74.448c0,0.082-0.042,0.124-0.124,0.124s-0.124-0.042-0.124-0.124l0.124-0.124
		C271.14,74.323,271.181,74.365,271.181,74.448z M278,50.145c0,0.33-0.165,0.496-0.496,0.496s-0.496-0.166-0.496-0.496
		c0-0.331,0.166-0.496,0.496-0.496S278,49.814,278,50.145z M277.877,56.22c0,0.248-0.124,0.372-0.372,0.372
		s-0.372-0.124-0.372-0.372s0.124-0.372,0.372-0.372S277.877,55.972,277.877,56.22z M277.877,62.296
		c0,0.248-0.124,0.372-0.372,0.372c-0.166,0-0.248-0.124-0.248-0.372s0.083-0.372,0.248-0.372
		C277.753,61.924,277.877,62.048,277.877,62.296z M277.629,74.448c0,0.082-0.042,0.124-0.124,0.124l-0.124-0.124l0.124-0.124
		C277.587,74.323,277.629,74.365,277.629,74.448z M284.448,56.22c0,0.248-0.165,0.372-0.496,0.372c-0.248,0-0.372-0.124-0.372-0.372
		s0.124-0.372,0.372-0.372C284.283,55.848,284.448,55.972,284.448,56.22z M284.324,62.296c0,0.248-0.124,0.372-0.372,0.372
		c-0.165,0-0.248-0.124-0.248-0.372s0.083-0.372,0.248-0.372C284.2,61.924,284.324,62.048,284.324,62.296z M284.076,74.448
		c0,0.082-0.041,0.124-0.124,0.124l-0.124-0.124l0.124-0.124C284.035,74.323,284.076,74.365,284.076,74.448z M290.896,56.22
		c0,0.248-0.166,0.372-0.496,0.372c-0.248,0-0.372-0.124-0.372-0.372s0.124-0.372,0.372-0.372
		C290.73,55.848,290.896,55.972,290.896,56.22z M290.772,62.296c0,0.248-0.124,0.372-0.372,0.372c-0.165,0-0.248-0.124-0.248-0.372
		s0.083-0.372,0.248-0.372C290.648,61.924,290.772,62.048,290.772,62.296z M290.648,74.448c0,0.082-0.083,0.124-0.248,0.124
		l-0.124-0.124l0.124-0.124C290.482,74.323,290.565,74.365,290.648,74.448z"/>
	<path d="M290.649,50.641h-0.248c-0.248,0-0.372-0.083-0.372-0.248c-0.083-0.331,0-0.579,0.248-0.744l10.416-4.96v1.116
		L290.649,50.641z M297.221,56.22c0,0.248-0.124,0.372-0.372,0.372s-0.372-0.124-0.372-0.372s0.124-0.372,0.372-0.372
		S297.221,55.972,297.221,56.22z M297.221,62.296c0,0.248-0.124,0.372-0.372,0.372s-0.372-0.124-0.372-0.372
		s0.124-0.372,0.372-0.372S297.221,62.048,297.221,62.296z M297.097,68.371c0,0.166-0.083,0.248-0.248,0.248
		c-0.166,0-0.248-0.082-0.248-0.248c0-0.165,0.083-0.248,0.248-0.248C297.014,68.123,297.097,68.206,297.097,68.371z
		 M296.973,74.448c0,0.082-0.042,0.124-0.124,0.124c-0.083,0-0.124-0.042-0.124-0.124l0.124-0.124
		C296.932,74.323,296.973,74.365,296.973,74.448z M303.42,74.448c0,0.082-0.083,0.124-0.248,0.124l-0.124-0.124l0.124-0.124
		C303.255,74.323,303.338,74.365,303.42,74.448z M335.907,7.119l-0.496,1.984l-29.138-0.124v27.65h24.179l0.248,0.496l-0.372,1.984
		h-24.055v27.775h29.634l0.372,0.371l-0.496,2.108h-31.99V6.623h31.742L335.907,7.119z M310.24,44.07c0,0.33-0.207,0.495-0.62,0.495
		c-0.413,0-0.62-0.165-0.62-0.495c0-0.414,0.207-0.621,0.62-0.621C310.034,43.448,310.24,43.656,310.24,44.07z M310.116,50.145
		c0,0.33-0.166,0.496-0.496,0.496s-0.496-0.166-0.496-0.496c0-0.331,0.165-0.496,0.496-0.496S310.116,49.814,310.116,50.145z
		 M309.992,56.22c0,0.248-0.124,0.372-0.372,0.372s-0.372-0.124-0.372-0.372s0.124-0.372,0.372-0.372S309.992,55.972,309.992,56.22z
		 M309.992,62.296c0,0.248-0.124,0.372-0.372,0.372s-0.372-0.124-0.372-0.372s0.124-0.372,0.372-0.372
		S309.992,62.048,309.992,62.296z M309.744,74.448c0,0.082-0.041,0.124-0.124,0.124c-0.083,0-0.124-0.042-0.124-0.124l0.124-0.124
		C309.703,74.323,309.744,74.365,309.744,74.448z M316.564,44.07c0,0.33-0.207,0.495-0.62,0.495c-0.331,0-0.496-0.165-0.496-0.495
		c0-0.414,0.166-0.621,0.496-0.621C316.357,43.448,316.564,43.656,316.564,44.07z M316.564,44.07c0,0.33-0.207,0.495-0.62,0.495
		c-0.331,0-0.496-0.165-0.496-0.495c0-0.414,0.166-0.621,0.496-0.621C316.357,43.448,316.564,43.656,316.564,44.07z M316.44,50.145
		c0,0.33-0.166,0.496-0.496,0.496s-0.496-0.166-0.496-0.496c0-0.331,0.166-0.496,0.496-0.496S316.44,49.814,316.44,50.145z
		 M316.44,50.145c0,0.33-0.166,0.496-0.496,0.496s-0.496-0.166-0.496-0.496c0-0.331,0.166-0.496,0.496-0.496
		S316.44,49.814,316.44,50.145z M316.44,56.22c0,0.248-0.166,0.372-0.496,0.372c-0.248,0-0.372-0.124-0.372-0.372
		s0.124-0.372,0.372-0.372C316.274,55.848,316.44,55.972,316.44,56.22z M316.44,56.22c0,0.248-0.166,0.372-0.496,0.372
		c-0.248,0-0.372-0.124-0.372-0.372s0.124-0.372,0.372-0.372C316.274,55.848,316.44,55.972,316.44,56.22z M316.316,62.296
		c0,0.248-0.124,0.372-0.372,0.372c-0.165,0-0.248-0.124-0.248-0.372s0.083-0.372,0.248-0.372
		C316.192,61.924,316.316,62.048,316.316,62.296z M316.316,62.296c0,0.248-0.124,0.372-0.372,0.372
		c-0.165,0-0.248-0.124-0.248-0.372s0.083-0.372,0.248-0.372C316.192,61.924,316.316,62.048,316.316,62.296z M316.192,74.448
		c0,0.082-0.083,0.124-0.248,0.124l-0.124-0.124l0.124-0.124C316.026,74.323,316.109,74.365,316.192,74.448z M323.012,44.07
		c0,0.33-0.207,0.495-0.62,0.495c-0.414,0-0.62-0.165-0.62-0.495c0-0.414,0.207-0.621,0.62-0.621
		C322.805,43.448,323.012,43.656,323.012,44.07z M323.012,44.07c0,0.33-0.207,0.495-0.62,0.495c-0.414,0-0.62-0.165-0.62-0.495
		c0-0.414,0.207-0.621,0.62-0.621C322.805,43.448,323.012,43.656,323.012,44.07z M322.888,50.145c0,0.33-0.166,0.496-0.496,0.496
		s-0.496-0.166-0.496-0.496c0-0.331,0.166-0.496,0.496-0.496S322.888,49.814,322.888,50.145z M322.888,50.145
		c0,0.33-0.166,0.496-0.496,0.496s-0.496-0.166-0.496-0.496c0-0.331,0.166-0.496,0.496-0.496S322.888,49.814,322.888,50.145z
		 M322.764,56.22c0,0.248-0.124,0.372-0.372,0.372s-0.372-0.124-0.372-0.372s0.124-0.372,0.372-0.372S322.764,55.972,322.764,56.22z
		 M322.764,56.22c0,0.248-0.124,0.372-0.372,0.372s-0.372-0.124-0.372-0.372s0.124-0.372,0.372-0.372S322.764,55.972,322.764,56.22z
		 M322.764,62.296c0,0.248-0.124,0.372-0.372,0.372s-0.372-0.124-0.372-0.372s0.124-0.372,0.372-0.372
		S322.764,62.048,322.764,62.296z M322.764,62.296c0,0.248-0.124,0.372-0.372,0.372s-0.372-0.124-0.372-0.372
		s0.124-0.372,0.372-0.372S322.764,62.048,322.764,62.296z M322.516,74.448c0,0.082-0.042,0.124-0.124,0.124
		s-0.124-0.042-0.124-0.124l0.124-0.124C322.474,74.323,322.516,74.365,322.516,74.448z M341.734,26.214l-15.251,7.315h-2.356
		l17.235-8.184c0.248-0.165,0.455-0.083,0.62,0.248C342.148,25.842,342.065,26.049,341.734,26.214z M329.335,44.07
		c0,0.33-0.207,0.495-0.62,0.495c-0.331,0-0.496-0.165-0.496-0.495c0-0.414,0.166-0.621,0.496-0.621
		C329.128,43.448,329.335,43.656,329.335,44.07z M329.211,50.145c0,0.33-0.165,0.496-0.496,0.496s-0.496-0.166-0.496-0.496
		c0-0.331,0.166-0.496,0.496-0.496S329.211,49.814,329.211,50.145z M329.211,56.22c0,0.248-0.165,0.372-0.496,0.372
		c-0.248,0-0.372-0.124-0.372-0.372s0.124-0.372,0.372-0.372C329.046,55.848,329.211,55.972,329.211,56.22z M329.087,62.296
		c0,0.248-0.124,0.372-0.372,0.372c-0.166,0-0.248-0.124-0.248-0.372s0.083-0.372,0.248-0.372
		C328.963,61.924,329.087,62.048,329.087,62.296z M328.963,74.448c0,0.082-0.083,0.124-0.248,0.124l-0.124-0.124l0.124-0.124
		C328.798,74.323,328.88,74.365,328.963,74.448z M335.907,31.918c0,0.496-0.248,0.744-0.744,0.744c-0.496,0-0.744-0.248-0.744-0.744
		c0-0.579,0.248-0.868,0.744-0.868C335.659,31.05,335.907,31.339,335.907,31.918z M335.783,37.993c0,0.413-0.207,0.62-0.62,0.62
		c-0.413,0-0.62-0.207-0.62-0.62c0-0.496,0.207-0.744,0.62-0.744C335.576,37.249,335.783,37.497,335.783,37.993z M335.783,44.07
		c0,0.33-0.207,0.495-0.62,0.495c-0.413,0-0.62-0.165-0.62-0.495c0-0.414,0.207-0.621,0.62-0.621
		C335.576,43.448,335.783,43.656,335.783,44.07z M335.659,50.145c0,0.33-0.165,0.496-0.496,0.496c-0.331,0-0.496-0.166-0.496-0.496
		c0-0.331,0.165-0.496,0.496-0.496C335.494,49.649,335.659,49.814,335.659,50.145z M335.535,56.22c0,0.248-0.124,0.372-0.372,0.372
		c-0.248,0-0.372-0.124-0.372-0.372s0.124-0.372,0.372-0.372C335.411,55.848,335.535,55.972,335.535,56.22z M335.535,62.296
		c0,0.248-0.124,0.372-0.372,0.372c-0.248,0-0.372-0.124-0.372-0.372s0.124-0.372,0.372-0.372
		C335.411,61.924,335.535,62.048,335.535,62.296z M335.287,74.448c0,0.082-0.041,0.124-0.124,0.124
		c-0.083,0-0.124-0.042-0.124-0.124l0.124-0.124C335.246,74.323,335.287,74.365,335.287,74.448z M342.354,31.918
		c0,0.496-0.29,0.744-0.868,0.744c-0.496,0-0.744-0.248-0.744-0.744c0-0.579,0.248-0.868,0.744-0.868
		C342.065,31.05,342.354,31.339,342.354,31.918z M342.23,37.993c0,0.413-0.248,0.62-0.744,0.62c-0.413,0-0.62-0.207-0.62-0.62
		c0-0.496,0.207-0.744,0.62-0.744C341.982,37.249,342.23,37.497,342.23,37.993z M342.106,44.07c0,0.33-0.207,0.495-0.62,0.495
		c-0.331,0-0.496-0.165-0.496-0.495c0-0.414,0.166-0.621,0.496-0.621C341.9,43.448,342.106,43.656,342.106,44.07z M341.982,50.145
		c0,0.33-0.166,0.496-0.496,0.496s-0.496-0.166-0.496-0.496c0-0.331,0.166-0.496,0.496-0.496S341.982,49.814,341.982,50.145z
		 M341.982,56.22c0,0.248-0.166,0.372-0.496,0.372c-0.248,0-0.372-0.124-0.372-0.372s0.124-0.372,0.372-0.372
		C341.817,55.848,341.982,55.972,341.982,56.22z M341.858,62.296c0,0.248-0.124,0.372-0.372,0.372c-0.165,0-0.248-0.124-0.248-0.372
		s0.083-0.372,0.248-0.372C341.734,61.924,341.858,62.048,341.858,62.296z M341.734,68.371c0,0.166-0.083,0.248-0.248,0.248
		c-0.083,0-0.124-0.082-0.124-0.248c0-0.165,0.042-0.248,0.124-0.248C341.652,68.123,341.734,68.206,341.734,68.371z
		 M341.734,74.448c0,0.082-0.083,0.124-0.248,0.124l-0.124-0.124l0.124-0.124C341.569,74.323,341.652,74.365,341.734,74.448z"/>
	<path d="M341.736,25.222l5.083,1.984c-0.083,0.166-0.124,0.331-0.124,0.496s-0.041,0.331-0.124,0.496l-5.208-1.984
		c-0.413,0-0.496-0.207-0.248-0.62C341.116,25.346,341.322,25.222,341.736,25.222z M347.936,56.22c0,0.248-0.124,0.372-0.372,0.372
		s-0.372-0.124-0.372-0.372s0.124-0.372,0.372-0.372S347.936,55.972,347.936,56.22z M347.812,62.296
		c0,0.248-0.083,0.372-0.248,0.372c-0.248,0-0.372-0.124-0.372-0.372s0.124-0.372,0.372-0.372
		C347.729,61.924,347.812,62.048,347.812,62.296z M347.812,68.371c0,0.166-0.083,0.248-0.248,0.248s-0.248-0.082-0.248-0.248
		c0-0.165,0.083-0.248,0.248-0.248S347.812,68.206,347.812,68.371z M347.563,74.572c-0.083,0-0.124-0.042-0.124-0.124l0.124-0.124
		l0.124,0.124C347.688,74.53,347.646,74.572,347.563,74.572z M396.541,50.765v15.499c-2.232,0.661-4.257,1.198-6.076,1.611
		c-1.818,0.414-3.534,0.744-5.146,0.992s-3.245,0.434-4.898,0.558c-1.653,0.124-3.389,0.187-5.208,0.187
		c-8.597,0-15.168-2.687-19.715-8.06s-6.82-13.061-6.82-23.063c0-10.499,2.583-18.517,7.75-24.055
		c5.167-5.539,12.627-8.308,22.381-8.308c2.893,0,5.931,0.455,9.114,1.364c3.182,0.909,6.261,2.19,9.237,3.844l-0.744,2.356h-0.62
		c-2.894-1.653-5.787-2.914-8.68-3.782c-2.893-0.868-5.662-1.302-8.308-1.302c-8.927,0-15.747,2.563-20.459,7.688
		c-4.711,5.125-7.067,12.564-7.067,22.318c0,9.258,2.046,16.368,6.138,21.327c4.092,4.96,10.023,7.439,17.793,7.439
		c1.571,0,3.059-0.041,4.464-0.124c1.405-0.082,2.811-0.247,4.216-0.495s2.934-0.559,4.587-0.931s3.513-0.806,5.58-1.302V49.773
		L396.541,50.765z M353.763,68.371c0,0.166-0.083,0.248-0.248,0.248s-0.248-0.082-0.248-0.248c0-0.165,0.083-0.248,0.248-0.248
		S353.763,68.206,353.763,68.371z M353.639,74.448c0,0.082-0.042,0.124-0.124,0.124l-0.124-0.124l0.124-0.124
		C353.598,74.323,353.639,74.365,353.639,74.448z M408.072,50.145l-0.124,0.124c0,0.082-0.083,0.206-0.248,0.372h-0.248h-0.124
		l-52.325-19.343c0.083-0.165,0.124-0.331,0.124-0.496c0-0.165,0.042-0.331,0.124-0.496L407.7,49.649l0.124,0.124
		C407.989,49.773,408.072,49.897,408.072,50.145z M360.211,37.993c0,0.413-0.207,0.62-0.62,0.62c-0.496,0-0.744-0.207-0.744-0.62
		c0-0.496,0.248-0.744,0.744-0.744C360.004,37.249,360.211,37.497,360.211,37.993z M360.087,44.07c0,0.33-0.166,0.495-0.496,0.495
		c-0.414,0-0.62-0.165-0.62-0.495c0-0.414,0.207-0.621,0.62-0.621C359.921,43.448,360.087,43.656,360.087,44.07z M360.087,50.145
		c0,0.33-0.166,0.496-0.496,0.496s-0.496-0.166-0.496-0.496c0-0.331,0.166-0.496,0.496-0.496S360.087,49.814,360.087,50.145z
		 M359.963,56.22c0,0.248-0.124,0.372-0.372,0.372c-0.331,0-0.496-0.124-0.496-0.372s0.166-0.372,0.496-0.372
		C359.839,55.848,359.963,55.972,359.963,56.22z M359.591,74.572c-0.166,0-0.248-0.042-0.248-0.124l0.248-0.124l0.124,0.124
		C359.715,74.53,359.673,74.572,359.591,74.572z M366.163,44.07c0,0.33-0.207,0.495-0.62,0.495c-0.414,0-0.62-0.165-0.62-0.495
		c0-0.414,0.207-0.621,0.62-0.621C365.956,43.448,366.163,43.656,366.163,44.07z M366.039,50.145c0,0.33-0.166,0.496-0.496,0.496
		s-0.496-0.166-0.496-0.496c0-0.331,0.166-0.496,0.496-0.496S366.039,49.814,366.039,50.145z M365.915,56.22
		c0,0.248-0.124,0.372-0.372,0.372s-0.372-0.124-0.372-0.372s0.124-0.372,0.372-0.372S365.915,55.972,365.915,56.22z
		 M365.667,74.448c0,0.082-0.042,0.124-0.124,0.124s-0.124-0.042-0.124-0.124l0.124-0.124
		C365.625,74.323,365.667,74.365,365.667,74.448z M372.114,44.07c0,0.33-0.207,0.495-0.62,0.495c-0.331,0-0.496-0.165-0.496-0.495
		c0-0.414,0.166-0.621,0.496-0.621C371.907,43.448,372.114,43.656,372.114,44.07z M371.99,50.145c0,0.33-0.166,0.496-0.496,0.496
		s-0.496-0.166-0.496-0.496c0-0.331,0.166-0.496,0.496-0.496S371.99,49.814,371.99,50.145z M371.99,56.22
		c0,0.248-0.166,0.372-0.496,0.372c-0.248,0-0.372-0.124-0.372-0.372s0.124-0.372,0.372-0.372
		C371.825,55.848,371.99,55.972,371.99,56.22z M371.866,62.296c0,0.248-0.124,0.372-0.372,0.372c-0.166,0-0.248-0.124-0.248-0.372
		s0.083-0.372,0.248-0.372C371.742,61.924,371.866,62.048,371.866,62.296z M371.618,74.448c0,0.082-0.042,0.124-0.124,0.124
		l-0.124-0.124l0.124-0.124C371.577,74.323,371.618,74.365,371.618,74.448z M378.066,44.07c0,0.33-0.166,0.495-0.496,0.495
		c-0.414,0-0.62-0.165-0.62-0.495c0-0.414,0.207-0.621,0.62-0.621C377.9,43.448,378.066,43.656,378.066,44.07z M378.066,50.145
		c0,0.33-0.166,0.496-0.496,0.496s-0.496-0.166-0.496-0.496c0-0.331,0.166-0.496,0.496-0.496S378.066,49.814,378.066,50.145z
		 M377.942,56.22c0,0.248-0.124,0.372-0.372,0.372c-0.331,0-0.496-0.124-0.496-0.372s0.166-0.372,0.496-0.372
		C377.818,55.848,377.942,55.972,377.942,56.22z M377.818,62.296c0,0.248-0.083,0.372-0.248,0.372c-0.248,0-0.372-0.124-0.372-0.372
		s0.124-0.372,0.372-0.372C377.735,61.924,377.818,62.048,377.818,62.296z M377.57,74.572c-0.083,0-0.124-0.042-0.124-0.124
		l0.124-0.124l0.124,0.124C377.694,74.53,377.652,74.572,377.57,74.572z M384.018,50.145c0,0.33-0.166,0.496-0.496,0.496
		s-0.496-0.166-0.496-0.496c0-0.331,0.166-0.496,0.496-0.496S384.018,49.814,384.018,50.145z M383.894,56.22
		c0,0.248-0.124,0.372-0.372,0.372s-0.372-0.124-0.372-0.372s0.124-0.372,0.372-0.372S383.894,55.972,383.894,56.22z
		 M383.894,62.296c0,0.248-0.124,0.372-0.372,0.372s-0.372-0.124-0.372-0.372s0.124-0.372,0.372-0.372
		S383.894,62.048,383.894,62.296z M383.646,74.448c0,0.082-0.042,0.124-0.124,0.124s-0.124-0.042-0.124-0.124l0.124-0.124
		C383.604,74.323,383.646,74.365,383.646,74.448z M389.969,50.145c0,0.33-0.166,0.496-0.496,0.496s-0.496-0.166-0.496-0.496
		c0-0.331,0.166-0.496,0.496-0.496S389.969,49.814,389.969,50.145z M389.969,56.22c0,0.248-0.166,0.372-0.496,0.372
		c-0.248,0-0.372-0.124-0.372-0.372s0.124-0.372,0.372-0.372C389.804,55.848,389.969,55.972,389.969,56.22z M389.597,74.448
		c0,0.082-0.042,0.124-0.124,0.124l-0.124-0.124l0.124-0.124C389.556,74.323,389.597,74.365,389.597,74.448z M395.549,74.572
		c-0.083,0-0.124-0.042-0.124-0.124l0.124-0.124l0.124,0.124C395.673,74.53,395.631,74.572,395.549,74.572z M401.873,56.22
		c0,0.248-0.124,0.372-0.372,0.372s-0.372-0.124-0.372-0.372s0.124-0.372,0.372-0.372S401.873,55.972,401.873,56.22z
		 M401.873,62.296c0,0.248-0.124,0.372-0.372,0.372c-0.166,0-0.248-0.124-0.248-0.372s0.083-0.372,0.248-0.372
		C401.749,61.924,401.873,62.048,401.873,62.296z M401.749,68.371c0,0.166-0.083,0.248-0.248,0.248
		c-0.166,0-0.248-0.082-0.248-0.248c0-0.165,0.083-0.248,0.248-0.248C401.666,68.123,401.749,68.206,401.749,68.371z
		 M401.625,74.448c0,0.082-0.042,0.124-0.124,0.124c-0.083,0-0.124-0.042-0.124-0.124l0.124-0.124
		C401.583,74.323,401.625,74.365,401.625,74.448z M407.948,56.22c0,0.248-0.166,0.372-0.496,0.372c-0.248,0-0.372-0.124-0.372-0.372
		s0.124-0.372,0.372-0.372C407.783,55.848,407.948,55.972,407.948,56.22z M407.824,62.296c0,0.248-0.124,0.372-0.372,0.372
		c-0.166,0-0.248-0.124-0.248-0.372s0.083-0.372,0.248-0.372C407.7,61.924,407.824,62.048,407.824,62.296z M407.7,68.371
		c0,0.166-0.083,0.248-0.248,0.248c-0.083,0-0.124-0.082-0.124-0.248c0-0.165,0.041-0.248,0.124-0.248
		C407.617,68.123,407.7,68.206,407.7,68.371z M407.7,74.448c0,0.082-0.083,0.124-0.248,0.124l-0.124-0.124l0.124-0.124
		C407.535,74.323,407.617,74.365,407.7,74.448z"/>
	<path d="M465.608,1.787l-57.781,48.729c-0.083,0.082-0.207,0.124-0.372,0.124c-0.083,0-0.207-0.083-0.372-0.248
		c-0.248-0.248-0.207-0.455,0.124-0.62l13.639-11.655V6.499l14.755-0.124c3.472,0,6.468,0.579,8.989,1.736
		c2.521,1.157,4.567,2.811,6.138,4.959l14.259-12.027c0.166-0.165,0.413-0.165,0.744,0C465.897,1.374,465.856,1.622,465.608,1.787z
		 M413.779,50.145c0,0.33-0.166,0.496-0.496,0.496s-0.496-0.166-0.496-0.496c0-0.331,0.166-0.496,0.496-0.496
		S413.779,49.814,413.779,50.145z M413.655,56.22c0,0.248-0.124,0.372-0.372,0.372s-0.372-0.124-0.372-0.372
		s0.124-0.372,0.372-0.372S413.655,55.972,413.655,56.22z M413.655,62.296c0,0.248-0.124,0.372-0.372,0.372
		s-0.372-0.124-0.372-0.372s0.124-0.372,0.372-0.372S413.655,62.048,413.655,62.296z M413.531,68.371
		c0,0.166-0.083,0.248-0.248,0.248s-0.248-0.082-0.248-0.248c0-0.165,0.083-0.248,0.248-0.248S413.531,68.206,413.531,68.371z
		 M413.407,74.448c0,0.082-0.042,0.124-0.124,0.124s-0.124-0.042-0.124-0.124l0.124-0.124
		C413.366,74.323,413.407,74.365,413.407,74.448z M419.111,74.572c-0.083,0-0.124-0.042-0.124-0.124l0.124-0.124l0.124,0.124
		C419.235,74.53,419.193,74.572,419.111,74.572z M423.327,42.457V69.24h-2.48V44.565L423.327,42.457z M448.621,14.806
		c-1.322-1.818-3.017-3.244-5.083-4.277c-2.066-1.034-4.546-1.633-7.439-1.798l-12.771,0.124V36.01L448.621,14.806z M424.938,74.448
		c0,0.082-0.041,0.124-0.124,0.124l-0.124-0.124l0.124-0.124C424.897,74.323,424.938,74.365,424.938,74.448z M431.262,37.993
		c0,0.413-0.207,0.62-0.62,0.62c-0.413,0-0.62-0.207-0.62-0.62c0-0.496,0.207-0.744,0.62-0.744
		C431.056,37.249,431.262,37.497,431.262,37.993z M431.262,44.07c0,0.33-0.207,0.495-0.62,0.495c-0.413,0-0.62-0.165-0.62-0.495
		c0-0.414,0.207-0.621,0.62-0.621C431.056,43.448,431.262,43.656,431.262,44.07z M431.138,50.145c0,0.33-0.166,0.496-0.496,0.496
		s-0.496-0.166-0.496-0.496c0-0.331,0.165-0.496,0.496-0.496S431.138,49.814,431.138,50.145z M431.014,56.22
		c0,0.248-0.124,0.372-0.372,0.372s-0.372-0.124-0.372-0.372s0.124-0.372,0.372-0.372S431.014,55.972,431.014,56.22z M430.89,62.296
		c0,0.248-0.083,0.372-0.248,0.372c-0.248,0-0.372-0.124-0.372-0.372s0.124-0.372,0.372-0.372
		C430.808,61.924,430.89,62.048,430.89,62.296z M430.89,68.371c0,0.166-0.083,0.248-0.248,0.248c-0.165,0-0.248-0.082-0.248-0.248
		c0-0.165,0.083-0.248,0.248-0.248C430.808,68.123,430.89,68.206,430.89,68.371z M430.642,74.572c-0.083,0-0.124-0.042-0.124-0.124
		l0.124-0.124l0.124,0.124C430.766,74.53,430.725,74.572,430.642,74.572z M437.214,31.918c0,0.496-0.29,0.744-0.868,0.744
		c-0.496,0-0.744-0.248-0.744-0.744c0-0.579,0.248-0.868,0.744-0.868C436.924,31.05,437.214,31.339,437.214,31.918z M437.09,37.993
		c0,0.413-0.248,0.62-0.744,0.62c-0.413,0-0.62-0.207-0.62-0.62c0-0.496,0.207-0.744,0.62-0.744
		C436.842,37.249,437.09,37.497,437.09,37.993z M436.842,56.22c0,0.248-0.165,0.372-0.496,0.372c-0.248,0-0.372-0.124-0.372-0.372
		s0.124-0.372,0.372-0.372C436.677,55.848,436.842,55.972,436.842,56.22z M443.724,52.004c1.364,1.901,2.769,3.741,4.216,5.518
		c1.446,1.777,2.955,3.555,4.525,5.332c1.571,1.777,3.265,3.616,5.084,5.518l0.124,0.496c-0.331,0.165-0.6,0.331-0.806,0.496
		s-0.475,0.331-0.806,0.496l-0.868-0.248c-3.72-3.638-7.109-7.522-10.167-11.655s-6.034-8.473-8.927-13.02l0.248-0.619
		c2.397-0.579,4.546-1.488,6.448-2.729s3.513-2.707,4.836-4.402c1.322-1.694,2.335-3.575,3.038-5.642s1.054-4.216,1.054-6.448
		s-0.29-4.174-0.868-5.828l2.232-1.86c0.827,2.149,1.24,4.67,1.24,7.563c0,4.712-1.281,8.99-3.844,12.833
		c-2.563,3.844-6.2,6.551-10.911,8.122C440.975,48.078,442.359,50.103,443.724,52.004z M436.718,62.296
		c0,0.248-0.124,0.372-0.372,0.372c-0.165,0-0.248-0.124-0.248-0.372s0.083-0.372,0.248-0.372
		C436.594,61.924,436.718,62.048,436.718,62.296z M436.594,68.371c0,0.166-0.083,0.248-0.248,0.248
		c-0.083,0-0.124-0.082-0.124-0.248c0-0.165,0.042-0.248,0.124-0.248C436.511,68.123,436.594,68.206,436.594,68.371z
		 M436.594,74.448c0,0.082-0.083,0.124-0.248,0.124l-0.124-0.124l0.124-0.124C436.429,74.323,436.511,74.365,436.594,74.448z
		 M443.042,25.718c0,0.579-0.289,0.868-0.868,0.868c-0.579,0-0.868-0.29-0.868-0.868c0-0.496,0.289-0.744,0.868-0.744
		C442.752,24.974,443.042,25.222,443.042,25.718z M442.917,31.918c0,0.496-0.248,0.744-0.744,0.744
		c-0.496,0-0.744-0.248-0.744-0.744c0-0.579,0.248-0.868,0.744-0.868C442.669,31.05,442.917,31.339,442.917,31.918z M442.793,37.993
		c0,0.413-0.207,0.62-0.62,0.62c-0.414,0-0.62-0.207-0.62-0.62c0-0.496,0.207-0.744,0.62-0.744
		C442.587,37.249,442.793,37.497,442.793,37.993z M442.545,62.296c0,0.248-0.124,0.372-0.372,0.372
		c-0.248,0-0.372-0.124-0.372-0.372s0.124-0.372,0.372-0.372C442.421,61.924,442.545,62.048,442.545,62.296z M442.421,68.371
		c0,0.166-0.083,0.248-0.248,0.248c-0.166,0-0.248-0.082-0.248-0.248c0-0.165,0.083-0.248,0.248-0.248
		C442.339,68.123,442.421,68.206,442.421,68.371z M442.297,74.448c0,0.082-0.041,0.124-0.124,0.124
		c-0.083,0-0.124-0.042-0.124-0.124l0.124-0.124C442.256,74.323,442.297,74.365,442.297,74.448z M448.745,25.718
		c0,0.579-0.248,0.868-0.744,0.868c-0.579,0-0.868-0.29-0.868-0.868c0-0.496,0.29-0.744,0.868-0.744
		C448.497,24.974,448.745,25.222,448.745,25.718z M448.497,50.145c0,0.33-0.165,0.496-0.496,0.496c-0.331,0-0.496-0.166-0.496-0.496
		c0-0.331,0.165-0.496,0.496-0.496C448.332,49.649,448.497,49.814,448.497,50.145z M448.125,68.371c0,0.166-0.041,0.248-0.124,0.248
		c-0.166,0-0.248-0.082-0.248-0.248c0-0.165,0.083-0.248,0.248-0.248C448.084,68.123,448.125,68.206,448.125,68.371z
		 M448.001,74.572c-0.083,0-0.124-0.042-0.124-0.124l0.124-0.124l0.124,0.124C448.125,74.53,448.084,74.572,448.001,74.572z
		 M454.449,37.993c0,0.413-0.248,0.62-0.744,0.62c-0.414,0-0.62-0.207-0.62-0.62c0-0.496,0.207-0.744,0.62-0.744
		C454.201,37.249,454.449,37.497,454.449,37.993z M454.325,44.07c0,0.33-0.207,0.495-0.62,0.495c-0.331,0-0.496-0.165-0.496-0.495
		c0-0.414,0.166-0.621,0.496-0.621C454.118,43.448,454.325,43.656,454.325,44.07z M454.201,50.145c0,0.33-0.165,0.496-0.496,0.496
		s-0.496-0.166-0.496-0.496c0-0.331,0.166-0.496,0.496-0.496S454.201,49.814,454.201,50.145z M454.201,56.22
		c0,0.248-0.165,0.372-0.496,0.372c-0.248,0-0.372-0.124-0.372-0.372s0.124-0.372,0.372-0.372
		C454.036,55.848,454.201,55.972,454.201,56.22z M453.829,74.448c0,0.082-0.042,0.124-0.124,0.124l-0.124-0.124l0.124-0.124
		C453.788,74.323,453.829,74.365,453.829,74.448z M460.524,13.567c0,0.744-0.331,1.116-0.992,1.116
		c-0.662,0-0.992-0.372-0.992-1.116c0-0.661,0.331-0.992,0.992-0.992C460.194,12.575,460.524,12.906,460.524,13.567z M460.4,19.642
		c0,0.661-0.289,0.992-0.868,0.992c-0.662,0-0.992-0.331-0.992-0.992c0-0.579,0.331-0.868,0.992-0.868
		C460.111,18.774,460.4,19.064,460.4,19.642z M460.4,25.718c0,0.579-0.289,0.868-0.868,0.868s-0.868-0.29-0.868-0.868
		c0-0.496,0.29-0.744,0.868-0.744S460.4,25.222,460.4,25.718z M460.276,31.918c0,0.496-0.248,0.744-0.744,0.744
		c-0.496,0-0.744-0.248-0.744-0.744c0-0.579,0.248-0.868,0.744-0.868C460.028,31.05,460.276,31.339,460.276,31.918z M460.152,37.993
		c0,0.413-0.207,0.62-0.62,0.62c-0.414,0-0.62-0.207-0.62-0.62c0-0.496,0.207-0.744,0.62-0.744
		C459.946,37.249,460.152,37.497,460.152,37.993z M460.152,44.07c0,0.33-0.207,0.495-0.62,0.495c-0.414,0-0.62-0.165-0.62-0.495
		c0-0.414,0.207-0.621,0.62-0.621C459.946,43.448,460.152,43.656,460.152,44.07z M460.028,50.145c0,0.33-0.165,0.496-0.496,0.496
		s-0.496-0.166-0.496-0.496c0-0.331,0.166-0.496,0.496-0.496S460.028,49.814,460.028,50.145z M459.905,56.22
		c0,0.248-0.124,0.372-0.372,0.372s-0.372-0.124-0.372-0.372s0.124-0.372,0.372-0.372S459.905,55.972,459.905,56.22z
		 M459.781,62.296c0,0.248-0.083,0.372-0.248,0.372c-0.248,0-0.372-0.124-0.372-0.372s0.124-0.372,0.372-0.372
		C459.698,61.924,459.781,62.048,459.781,62.296z M459.781,68.371c0,0.166-0.083,0.248-0.248,0.248
		c-0.166,0-0.248-0.082-0.248-0.248c0-0.165,0.083-0.248,0.248-0.248C459.698,68.123,459.781,68.206,459.781,68.371z
		 M459.533,74.572c-0.083,0-0.124-0.042-0.124-0.124l0.124-0.124l0.124,0.124C459.657,74.53,459.615,74.572,459.533,74.572z
		 M466.352,7.491c0,0.744-0.372,1.116-1.116,1.116c-0.248,0-0.496-0.104-0.744-0.31c-0.248-0.207-0.372-0.476-0.372-0.806
		s0.124-0.599,0.372-0.806c0.248-0.207,0.496-0.31,0.744-0.31C465.98,6.375,466.352,6.747,466.352,7.491z M466.352,13.567
		c0,0.744-0.372,1.116-1.116,1.116c-0.661,0-0.992-0.372-0.992-1.116c0-0.661,0.331-0.992,0.992-0.992
		C465.98,12.575,466.352,12.906,466.352,13.567z M466.228,19.642c0,0.661-0.331,0.992-0.992,0.992c-0.579,0-0.868-0.331-0.868-0.992
		c0-0.579,0.29-0.868,0.868-0.868C465.897,18.774,466.228,19.064,466.228,19.642z M466.104,25.718c0,0.579-0.289,0.868-0.868,0.868
		c-0.496,0-0.744-0.29-0.744-0.868c0-0.496,0.248-0.744,0.744-0.744C465.815,24.974,466.104,25.222,466.104,25.718z M466.104,31.918
		c0,0.496-0.289,0.744-0.868,0.744c-0.496,0-0.744-0.248-0.744-0.744c0-0.579,0.248-0.868,0.744-0.868
		C465.815,31.05,466.104,31.339,466.104,31.918z M465.98,37.993c0,0.413-0.248,0.62-0.744,0.62c-0.414,0-0.62-0.207-0.62-0.62
		c0-0.496,0.207-0.744,0.62-0.744C465.732,37.249,465.98,37.497,465.98,37.993z M465.856,44.07c0,0.33-0.207,0.495-0.62,0.495
		c-0.331,0-0.496-0.165-0.496-0.495c0-0.414,0.166-0.621,0.496-0.621C465.649,43.448,465.856,43.656,465.856,44.07z M465.732,50.145
		c0,0.33-0.166,0.496-0.496,0.496s-0.496-0.166-0.496-0.496c0-0.331,0.166-0.496,0.496-0.496S465.732,49.814,465.732,50.145z
		 M465.732,56.22c0,0.248-0.166,0.372-0.496,0.372c-0.248,0-0.372-0.124-0.372-0.372s0.124-0.372,0.372-0.372
		C465.567,55.848,465.732,55.972,465.732,56.22z M465.608,62.296c0,0.248-0.124,0.372-0.372,0.372c-0.166,0-0.248-0.124-0.248-0.372
		s0.083-0.372,0.248-0.372C465.484,61.924,465.608,62.048,465.608,62.296z M465.484,68.371c0,0.166-0.083,0.248-0.248,0.248
		c-0.083,0-0.124-0.082-0.124-0.248c0-0.165,0.042-0.248,0.124-0.248C465.401,68.123,465.484,68.206,465.484,68.371z
		 M465.484,74.448c0,0.082-0.083,0.124-0.248,0.124l-0.124-0.124l0.124-0.124C465.319,74.323,465.401,74.365,465.484,74.448z"/>
	<path d="M465.114,1.911c-0.331-0.166-0.413-0.414-0.248-0.744c0.166-0.331,0.372-0.413,0.62-0.248l10.043,4.836v1.116
		L465.114,1.911z M472.678,13.567c0,0.744-0.331,1.116-0.992,1.116c-0.662,0-0.992-0.372-0.992-1.116
		c0-0.661,0.331-0.992,0.992-0.992C472.347,12.575,472.678,12.906,472.678,13.567z M472.554,19.642c0,0.661-0.289,0.992-0.868,0.992
		c-0.662,0-0.992-0.331-0.992-0.992c0-0.579,0.331-0.868,0.992-0.868C472.265,18.774,472.554,19.064,472.554,19.642z
		 M472.554,25.718c0,0.579-0.289,0.868-0.868,0.868s-0.868-0.29-0.868-0.868c0-0.496,0.29-0.744,0.868-0.744
		S472.554,25.222,472.554,25.718z M472.43,31.918c0,0.496-0.248,0.744-0.744,0.744c-0.496,0-0.744-0.248-0.744-0.744
		c0-0.579,0.248-0.868,0.744-0.868C472.182,31.05,472.43,31.339,472.43,31.918z M472.306,37.993c0,0.413-0.207,0.62-0.62,0.62
		c-0.414,0-0.62-0.207-0.62-0.62c0-0.496,0.207-0.744,0.62-0.744C472.099,37.249,472.306,37.497,472.306,37.993z M472.306,44.07
		c0,0.33-0.207,0.495-0.62,0.495c-0.414,0-0.62-0.165-0.62-0.495c0-0.414,0.207-0.621,0.62-0.621
		C472.099,43.448,472.306,43.656,472.306,44.07z M472.182,50.145c0,0.33-0.165,0.496-0.496,0.496s-0.496-0.166-0.496-0.496
		c0-0.331,0.166-0.496,0.496-0.496S472.182,49.814,472.182,50.145z M472.058,56.22c0,0.248-0.124,0.372-0.372,0.372
		s-0.372-0.124-0.372-0.372s0.124-0.372,0.372-0.372S472.058,55.972,472.058,56.22z M472.058,62.296
		c0,0.248-0.124,0.372-0.372,0.372s-0.372-0.124-0.372-0.372s0.124-0.372,0.372-0.372S472.058,62.048,472.058,62.296z
		 M471.934,68.371c0,0.166-0.083,0.248-0.248,0.248c-0.166,0-0.248-0.082-0.248-0.248c0-0.165,0.083-0.248,0.248-0.248
		C471.851,68.123,471.934,68.206,471.934,68.371z M471.81,74.448c0,0.082-0.042,0.124-0.124,0.124c-0.083,0-0.124-0.042-0.124-0.124
		l0.124-0.124C471.769,74.323,471.81,74.365,471.81,74.448z M478.258,74.448c0,0.082-0.083,0.124-0.248,0.124l-0.124-0.124
		l0.124-0.124C478.092,74.323,478.175,74.365,478.258,74.448z M510.744,6.995l-0.496,2.108l-29.139-0.124v27.526h24.179l0.248,0.496
		l-0.372,2.108h-24.055V66.76h29.635l0.371,0.495l-0.495,1.984h-31.99V6.499h31.742L510.744,6.995z M485.201,19.642
		c0,0.661-0.289,0.992-0.868,0.992c-0.661,0-0.992-0.331-0.992-0.992c0-0.579,0.331-0.868,0.992-0.868
		C484.912,18.774,485.201,19.064,485.201,19.642z M485.201,25.718c0,0.579-0.289,0.868-0.868,0.868c-0.578,0-0.868-0.29-0.868-0.868
		c0-0.496,0.29-0.744,0.868-0.744C484.912,24.974,485.201,25.222,485.201,25.718z M485.077,31.918c0,0.496-0.248,0.744-0.744,0.744
		s-0.744-0.248-0.744-0.744c0-0.579,0.248-0.868,0.744-0.868S485.077,31.339,485.077,31.918z M484.953,44.07
		c0,0.33-0.207,0.495-0.62,0.495s-0.62-0.165-0.62-0.495c0-0.414,0.207-0.621,0.62-0.621S484.953,43.656,484.953,44.07z
		 M484.829,50.145c0,0.33-0.165,0.496-0.496,0.496c-0.33,0-0.496-0.166-0.496-0.496c0-0.331,0.166-0.496,0.496-0.496
		C484.664,49.649,484.829,49.814,484.829,50.145z M484.705,56.22c0,0.248-0.124,0.372-0.372,0.372s-0.372-0.124-0.372-0.372
		s0.124-0.372,0.372-0.372S484.705,55.972,484.705,56.22z M484.581,62.296c0,0.248-0.083,0.372-0.248,0.372
		c-0.248,0-0.372-0.124-0.372-0.372s0.124-0.372,0.372-0.372C484.498,61.924,484.581,62.048,484.581,62.296z M484.581,74.448
		c0,0.082-0.041,0.124-0.124,0.124c-0.082,0-0.124-0.042-0.124-0.124l0.124-0.124C484.54,74.323,484.581,74.365,484.581,74.448z
		 M516.819,25.966c0,0.248-0.165,0.372-0.496,0.372l-0.124-0.124l-29.758-14.135h2.479l27.65,13.267
		C516.902,25.511,516.984,25.718,516.819,25.966z M491.772,19.642c0,0.661-0.33,0.992-0.991,0.992c-0.579,0-0.868-0.331-0.868-0.992
		c0-0.579,0.289-0.868,0.868-0.868C491.442,18.774,491.772,19.064,491.772,19.642z M491.648,25.718c0,0.579-0.289,0.868-0.867,0.868
		c-0.496,0-0.744-0.29-0.744-0.868c0-0.496,0.248-0.744,0.744-0.744C491.359,24.974,491.648,25.222,491.648,25.718z M491.648,31.918
		c0,0.496-0.289,0.744-0.867,0.744c-0.496,0-0.744-0.248-0.744-0.744c0-0.579,0.248-0.868,0.744-0.868
		C491.359,31.05,491.648,31.339,491.648,31.918z M491.4,44.07c0,0.33-0.206,0.495-0.619,0.495c-0.331,0-0.496-0.165-0.496-0.495
		c0-0.414,0.165-0.621,0.496-0.621C491.194,43.448,491.4,43.656,491.4,44.07z M491.276,50.145c0,0.33-0.165,0.496-0.495,0.496
		c-0.331,0-0.496-0.166-0.496-0.496c0-0.331,0.165-0.496,0.496-0.496C491.111,49.649,491.276,49.814,491.276,50.145z M491.276,56.22
		c0,0.248-0.165,0.372-0.495,0.372c-0.248,0-0.372-0.124-0.372-0.372s0.124-0.372,0.372-0.372
		C491.111,55.848,491.276,55.972,491.276,56.22z M491.152,62.296c0,0.248-0.124,0.372-0.371,0.372c-0.166,0-0.248-0.124-0.248-0.372
		s0.082-0.372,0.248-0.372C491.028,61.924,491.152,62.048,491.152,62.296z M491.028,74.448c0,0.082-0.082,0.124-0.247,0.124
		l-0.124-0.124l0.124-0.124C490.863,74.323,490.946,74.365,491.028,74.448z M498.097,25.718c0,0.579-0.29,0.868-0.868,0.868
		c-0.579,0-0.868-0.29-0.868-0.868c0-0.496,0.289-0.744,0.868-0.744C497.807,24.974,498.097,25.222,498.097,25.718z M497.973,31.918
		c0,0.496-0.248,0.744-0.744,0.744s-0.744-0.248-0.744-0.744c0-0.579,0.248-0.868,0.744-0.868S497.973,31.339,497.973,31.918z
		 M497.849,44.07c0,0.33-0.207,0.495-0.62,0.495s-0.62-0.165-0.62-0.495c0-0.414,0.207-0.621,0.62-0.621
		S497.849,43.656,497.849,44.07z M497.725,50.145c0,0.33-0.165,0.496-0.496,0.496s-0.496-0.166-0.496-0.496
		c0-0.331,0.165-0.496,0.496-0.496S497.725,49.814,497.725,50.145z M497.601,56.22c0,0.248-0.124,0.372-0.372,0.372
		s-0.372-0.124-0.372-0.372s0.124-0.372,0.372-0.372S497.601,55.972,497.601,56.22z M497.601,62.296
		c0,0.248-0.124,0.372-0.372,0.372s-0.372-0.124-0.372-0.372s0.124-0.372,0.372-0.372S497.601,62.048,497.601,62.296z
		 M497.353,74.448c0,0.082-0.041,0.124-0.124,0.124s-0.124-0.042-0.124-0.124l0.124-0.124
		C497.312,74.323,497.353,74.365,497.353,74.448z M504.42,25.718c0,0.579-0.289,0.868-0.868,0.868c-0.496,0-0.743-0.29-0.743-0.868
		c0-0.496,0.247-0.744,0.743-0.744C504.131,24.974,504.42,25.222,504.42,25.718z M504.42,31.918c0,0.496-0.289,0.744-0.868,0.744
		c-0.496,0-0.743-0.248-0.743-0.744c0-0.579,0.247-0.868,0.743-0.868C504.131,31.05,504.42,31.339,504.42,31.918z M504.172,44.07
		c0,0.33-0.206,0.495-0.62,0.495c-0.33,0-0.496-0.165-0.496-0.495c0-0.414,0.166-0.621,0.496-0.621
		C503.966,43.448,504.172,43.656,504.172,44.07z M504.048,50.145c0,0.33-0.165,0.496-0.496,0.496c-0.33,0-0.496-0.166-0.496-0.496
		c0-0.331,0.166-0.496,0.496-0.496C503.883,49.649,504.048,49.814,504.048,50.145z M504.048,56.22c0,0.248-0.165,0.372-0.496,0.372
		c-0.248,0-0.372-0.124-0.372-0.372s0.124-0.372,0.372-0.372C503.883,55.848,504.048,55.972,504.048,56.22z M503.924,62.296
		c0,0.248-0.124,0.372-0.372,0.372c-0.165,0-0.248-0.124-0.248-0.372s0.083-0.372,0.248-0.372
		C503.8,61.924,503.924,62.048,503.924,62.296z M503.8,74.448c0,0.082-0.082,0.124-0.248,0.124l-0.124-0.124l0.124-0.124
		C503.635,74.323,503.718,74.365,503.8,74.448z M510.744,31.918c0,0.496-0.248,0.744-0.744,0.744s-0.744-0.248-0.744-0.744
		c0-0.579,0.248-0.868,0.744-0.868S510.744,31.339,510.744,31.918z M510.62,37.993c0,0.413-0.207,0.62-0.62,0.62
		c-0.414,0-0.62-0.207-0.62-0.62c0-0.496,0.206-0.744,0.62-0.744C510.413,37.249,510.62,37.497,510.62,37.993z M510.62,44.07
		c0,0.33-0.207,0.495-0.62,0.495c-0.414,0-0.62-0.165-0.62-0.495c0-0.414,0.206-0.621,0.62-0.621
		C510.413,43.448,510.62,43.656,510.62,44.07z M510.496,50.145c0,0.33-0.166,0.496-0.496,0.496c-0.331,0-0.496-0.166-0.496-0.496
		c0-0.331,0.165-0.496,0.496-0.496C510.33,49.649,510.496,49.814,510.496,50.145z M510.372,56.22c0,0.248-0.124,0.372-0.372,0.372
		s-0.372-0.124-0.372-0.372s0.124-0.372,0.372-0.372S510.372,55.972,510.372,56.22z M510.372,62.296
		c0,0.248-0.124,0.372-0.372,0.372s-0.372-0.124-0.372-0.372s0.124-0.372,0.372-0.372S510.372,62.048,510.372,62.296z
		 M510.124,74.448c0,0.082-0.042,0.124-0.124,0.124c-0.083,0-0.124-0.042-0.124-0.124L510,74.323
		C510.082,74.323,510.124,74.365,510.124,74.448z M517.191,31.918c0,0.496-0.289,0.744-0.868,0.744
		c-0.496,0-0.744-0.248-0.744-0.744c0-0.579,0.248-0.868,0.744-0.868C516.902,31.05,517.191,31.339,517.191,31.918z M517.067,37.993
		c0,0.413-0.248,0.62-0.744,0.62c-0.413,0-0.62-0.207-0.62-0.62c0-0.496,0.207-0.744,0.62-0.744
		C516.819,37.249,517.067,37.497,517.067,37.993z M516.943,44.07c0,0.33-0.207,0.495-0.62,0.495c-0.33,0-0.496-0.165-0.496-0.495
		c0-0.414,0.166-0.621,0.496-0.621C516.736,43.448,516.943,43.656,516.943,44.07z M516.819,50.145c0,0.33-0.165,0.496-0.496,0.496
		c-0.33,0-0.496-0.166-0.496-0.496c0-0.331,0.166-0.496,0.496-0.496C516.654,49.649,516.819,49.814,516.819,50.145z M516.819,56.22
		c0,0.248-0.165,0.372-0.496,0.372c-0.248,0-0.372-0.124-0.372-0.372s0.124-0.372,0.372-0.372
		C516.654,55.848,516.819,55.972,516.819,56.22z M516.695,62.296c0,0.248-0.124,0.372-0.372,0.372c-0.165,0-0.248-0.124-0.248-0.372
		s0.083-0.372,0.248-0.372C516.571,61.924,516.695,62.048,516.695,62.296z M516.571,68.371c0,0.166-0.083,0.248-0.248,0.248
		c-0.083,0-0.124-0.082-0.124-0.248c0-0.165,0.041-0.248,0.124-0.248C516.488,68.123,516.571,68.206,516.571,68.371z
		 M516.571,74.448c0,0.082-0.083,0.124-0.248,0.124l-0.124-0.124l0.124-0.124C516.406,74.323,516.488,74.365,516.571,74.448z"/>
	<path d="M531.7,33.033l-15.499-6.819c-0.331-0.166-0.413-0.372-0.248-0.62c0.165-0.331,0.372-0.413,0.62-0.248l14.259,6.2
		L531.7,33.033z M544.348,46.177V69.24h-2.479V46.053L521.285,6.499h3.1l1.116,2.728l17.358,32.982h0.496l18.847-32.982l1.24-2.728
		h3.1L544.348,46.177z M523.145,37.993c0,0.413-0.206,0.62-0.62,0.62c-0.413,0-0.619-0.207-0.619-0.62
		c0-0.496,0.206-0.744,0.619-0.744C522.938,37.249,523.145,37.497,523.145,37.993z M523.145,44.07c0,0.33-0.206,0.495-0.62,0.495
		c-0.413,0-0.619-0.165-0.619-0.495c0-0.414,0.206-0.621,0.619-0.621C522.938,43.448,523.145,43.656,523.145,44.07z M523.021,50.145
		c0,0.33-0.165,0.496-0.496,0.496c-0.33,0-0.495-0.166-0.495-0.496c0-0.331,0.165-0.496,0.495-0.496
		C522.855,49.649,523.021,49.814,523.021,50.145z M522.896,56.22c0,0.248-0.124,0.372-0.372,0.372s-0.371-0.124-0.371-0.372
		s0.123-0.372,0.371-0.372S522.896,55.972,522.896,56.22z M522.896,62.296c0,0.248-0.124,0.372-0.372,0.372
		c-0.165,0-0.248-0.124-0.248-0.372s0.083-0.372,0.248-0.372C522.772,61.924,522.896,62.048,522.896,62.296z M522.772,68.371
		c0,0.166-0.082,0.248-0.248,0.248c-0.165,0-0.248-0.082-0.248-0.248c0-0.165,0.083-0.248,0.248-0.248
		C522.69,68.123,522.772,68.206,522.772,68.371z M522.648,74.448c0,0.082-0.041,0.124-0.124,0.124c-0.082,0-0.124-0.042-0.124-0.124
		l0.124-0.124C522.607,74.323,522.648,74.365,522.648,74.448z M529.345,37.993c0,0.413-0.207,0.62-0.62,0.62
		c-0.496,0-0.744-0.207-0.744-0.62c0-0.496,0.248-0.744,0.744-0.744C529.138,37.249,529.345,37.497,529.345,37.993z M529.345,44.07
		c0,0.33-0.207,0.495-0.62,0.495s-0.62-0.165-0.62-0.495c0-0.414,0.207-0.621,0.62-0.621S529.345,43.656,529.345,44.07z
		 M529.221,50.145c0,0.33-0.166,0.496-0.496,0.496c-0.331,0-0.496-0.166-0.496-0.496c0-0.331,0.165-0.496,0.496-0.496
		C529.055,49.649,529.221,49.814,529.221,50.145z M529.097,56.22c0,0.248-0.124,0.372-0.372,0.372c-0.331,0-0.496-0.124-0.496-0.372
		s0.165-0.372,0.496-0.372C528.973,55.848,529.097,55.972,529.097,56.22z M528.973,62.296c0,0.248-0.083,0.372-0.248,0.372
		c-0.248,0-0.372-0.124-0.372-0.372s0.124-0.372,0.372-0.372C528.89,61.924,528.973,62.048,528.973,62.296z M528.973,68.371
		c0,0.166-0.083,0.248-0.248,0.248s-0.248-0.082-0.248-0.248c0-0.165,0.083-0.248,0.248-0.248S528.973,68.206,528.973,68.371z
		 M528.725,74.572c-0.083,0-0.124-0.042-0.124-0.124l0.124-0.124l0.124,0.124C528.849,74.53,528.808,74.572,528.725,74.572z
		 M535.42,44.07c0,0.33-0.206,0.495-0.62,0.495c-0.33,0-0.496-0.165-0.496-0.495c0-0.414,0.166-0.621,0.496-0.621
		C535.214,43.448,535.42,43.656,535.42,44.07z M535.296,50.145c0,0.33-0.165,0.496-0.496,0.496c-0.33,0-0.496-0.166-0.496-0.496
		c0-0.331,0.166-0.496,0.496-0.496C535.131,49.649,535.296,49.814,535.296,50.145z M535.296,56.22c0,0.248-0.165,0.372-0.496,0.372
		c-0.248,0-0.372-0.124-0.372-0.372s0.124-0.372,0.372-0.372C535.131,55.848,535.296,55.972,535.296,56.22z M535.172,62.296
		c0,0.248-0.124,0.372-0.372,0.372c-0.165,0-0.248-0.124-0.248-0.372s0.083-0.372,0.248-0.372
		C535.048,61.924,535.172,62.048,535.172,62.296z M535.048,68.371c0,0.166-0.082,0.248-0.248,0.248
		c-0.082,0-0.124-0.082-0.124-0.248c0-0.165,0.042-0.248,0.124-0.248C534.966,68.123,535.048,68.206,535.048,68.371z
		 M535.048,74.448c0,0.082-0.082,0.124-0.248,0.124l-0.124-0.124l0.124-0.124C534.883,74.323,534.966,74.365,535.048,74.448z
		 M541.124,74.448c0,0.082-0.042,0.124-0.124,0.124l-0.124-0.124L541,74.323C541.082,74.323,541.124,74.365,541.124,74.448z
		 M547.199,74.572c-0.082,0-0.124-0.042-0.124-0.124l0.124-0.124l0.124,0.124C547.323,74.53,547.282,74.572,547.199,74.572z
		 M572.246,50.269c0,0.248-0.165,0.372-0.496,0.372h-0.124l-20.955-9.3l0.496-0.868l20.831,9.176
		C572.329,49.814,572.411,50.021,572.246,50.269z M553.771,50.145c0,0.33-0.166,0.496-0.496,0.496c-0.331,0-0.496-0.166-0.496-0.496
		c0-0.331,0.165-0.496,0.496-0.496C553.605,49.649,553.771,49.814,553.771,50.145z M553.771,56.22c0,0.248-0.166,0.372-0.496,0.372
		c-0.248,0-0.372-0.124-0.372-0.372s0.124-0.372,0.372-0.372C553.605,55.848,553.771,55.972,553.771,56.22z M553.647,62.296
		c0,0.248-0.124,0.372-0.372,0.372c-0.166,0-0.248-0.124-0.248-0.372s0.082-0.372,0.248-0.372
		C553.523,61.924,553.647,62.048,553.647,62.296z M553.523,68.371c0,0.166-0.083,0.248-0.248,0.248
		c-0.083,0-0.124-0.082-0.124-0.248c0-0.165,0.041-0.248,0.124-0.248C553.44,68.123,553.523,68.206,553.523,68.371z M553.523,74.448
		c0,0.082-0.083,0.124-0.248,0.124l-0.124-0.124l0.124-0.124C553.357,74.323,553.44,74.365,553.523,74.448z M559.971,50.145
		c0,0.33-0.165,0.496-0.496,0.496c-0.33,0-0.496-0.166-0.496-0.496c0-0.331,0.166-0.496,0.496-0.496
		C559.806,49.649,559.971,49.814,559.971,50.145z M559.847,56.22c0,0.248-0.124,0.372-0.372,0.372s-0.372-0.124-0.372-0.372
		s0.124-0.372,0.372-0.372S559.847,55.972,559.847,56.22z M559.847,62.296c0,0.248-0.124,0.372-0.372,0.372
		c-0.165,0-0.248-0.124-0.248-0.372s0.083-0.372,0.248-0.372C559.723,61.924,559.847,62.048,559.847,62.296z M559.723,68.371
		c0,0.166-0.083,0.248-0.248,0.248s-0.248-0.082-0.248-0.248c0-0.165,0.083-0.248,0.248-0.248S559.723,68.206,559.723,68.371z
		 M559.599,74.448c0,0.082-0.041,0.124-0.124,0.124l-0.124-0.124l0.124-0.124C559.558,74.323,559.599,74.365,559.599,74.448z
		 M566.046,56.22c0,0.248-0.123,0.372-0.371,0.372s-0.372-0.124-0.372-0.372s0.124-0.372,0.372-0.372S566.046,55.972,566.046,56.22z
		 M565.923,62.296c0,0.248-0.083,0.372-0.248,0.372c-0.248,0-0.372-0.124-0.372-0.372s0.124-0.372,0.372-0.372
		C565.84,61.924,565.923,62.048,565.923,62.296z M565.923,68.371c0,0.166-0.083,0.248-0.248,0.248c-0.166,0-0.248-0.082-0.248-0.248
		c0-0.165,0.082-0.248,0.248-0.248C565.84,68.123,565.923,68.206,565.923,68.371z M565.675,74.572c-0.083,0-0.124-0.042-0.124-0.124
		l0.124-0.124l0.124,0.124C565.799,74.53,565.757,74.572,565.675,74.572z M572.246,56.22c0,0.248-0.165,0.372-0.496,0.372
		c-0.248,0-0.372-0.124-0.372-0.372s0.124-0.372,0.372-0.372C572.081,55.848,572.246,55.972,572.246,56.22z M572.122,62.296
		c0,0.248-0.124,0.372-0.372,0.372c-0.165,0-0.248-0.124-0.248-0.372s0.083-0.372,0.248-0.372
		C571.998,61.924,572.122,62.048,572.122,62.296z M571.998,68.371c0,0.166-0.083,0.248-0.248,0.248
		c-0.083,0-0.124-0.082-0.124-0.248c0-0.165,0.041-0.248,0.124-0.248C571.915,68.123,571.998,68.206,571.998,68.371z
		 M571.998,74.448c0,0.082-0.083,0.124-0.248,0.124l-0.124-0.124l0.124-0.124C571.833,74.323,571.915,74.365,571.998,74.448z"/>
	<path d="M604.238,6.499l23.559,62.74h-2.852l-1.24-4.464l-4.96-13.02h-32.982l-5.455,13.02l-1.488,4.464h-2.728v-0.248l8.06-19.715
		h33.726l-14.879-38.934h-0.372l-13.143,32.238l19.591-7.812l0.372,0.992L572,50.641h-0.248c-0.248,0-0.372-0.124-0.372-0.372
		c-0.165-0.248-0.083-0.455,0.248-0.62l14.879-5.952l15.127-37.197H604.238z M577.951,74.572c-0.082,0-0.124-0.042-0.124-0.124
		l0.124-0.124l0.124,0.124C578.075,74.53,578.034,74.572,577.951,74.572z M584.275,68.371c0,0.166-0.083,0.248-0.248,0.248
		s-0.248-0.082-0.248-0.248c0-0.165,0.083-0.248,0.248-0.248S584.275,68.206,584.275,68.371z M584.151,74.448
		c0,0.082-0.041,0.124-0.124,0.124l-0.124-0.124l0.124-0.124C584.11,74.323,584.151,74.365,584.151,74.448z M590.599,56.22
		c0,0.248-0.124,0.372-0.372,0.372c-0.33,0-0.496-0.124-0.496-0.372s0.166-0.372,0.496-0.372
		C590.475,55.848,590.599,55.972,590.599,56.22z M590.475,62.296c0,0.248-0.082,0.372-0.248,0.372c-0.248,0-0.372-0.124-0.372-0.372
		s0.124-0.372,0.372-0.372C590.393,61.924,590.475,62.048,590.475,62.296z M590.351,68.371c0,0.166-0.041,0.248-0.124,0.248
		c-0.165,0-0.248-0.082-0.248-0.248c0-0.165,0.083-0.248,0.248-0.248C590.31,68.123,590.351,68.206,590.351,68.371z M590.227,74.572
		c-0.165,0-0.248-0.042-0.248-0.124l0.248-0.124l0.124,0.124C590.351,74.53,590.31,74.572,590.227,74.572z M596.675,56.22
		c0,0.248-0.124,0.372-0.372,0.372s-0.372-0.124-0.372-0.372s0.124-0.372,0.372-0.372S596.675,55.972,596.675,56.22z
		 M596.675,62.296c0,0.248-0.124,0.372-0.372,0.372s-0.372-0.124-0.372-0.372s0.124-0.372,0.372-0.372
		S596.675,62.048,596.675,62.296z M596.551,68.371c0,0.166-0.083,0.248-0.248,0.248s-0.248-0.082-0.248-0.248
		c0-0.165,0.083-0.248,0.248-0.248S596.551,68.206,596.551,68.371z M596.427,74.448c0,0.082-0.042,0.124-0.124,0.124
		c-0.083,0-0.124-0.042-0.124-0.124l0.124-0.124C596.385,74.323,596.427,74.365,596.427,74.448z M602.998,44.07
		c0,0.33-0.206,0.495-0.62,0.495c-0.33,0-0.496-0.165-0.496-0.495c0-0.414,0.166-0.621,0.496-0.621
		C602.792,43.448,602.998,43.656,602.998,44.07z M602.874,56.22c0,0.248-0.165,0.372-0.496,0.372c-0.248,0-0.372-0.124-0.372-0.372
		s0.124-0.372,0.372-0.372C602.709,55.848,602.874,55.972,602.874,56.22z M602.75,62.296c0,0.248-0.124,0.372-0.372,0.372
		c-0.165,0-0.248-0.124-0.248-0.372s0.083-0.372,0.248-0.372C602.626,61.924,602.75,62.048,602.75,62.296z M602.626,68.371
		c0,0.166-0.082,0.248-0.248,0.248c-0.082,0-0.124-0.082-0.124-0.248c0-0.165,0.042-0.248,0.124-0.248
		C602.544,68.123,602.626,68.206,602.626,68.371z M602.626,74.448c0,0.082-0.082,0.124-0.248,0.124l-0.124-0.124l0.124-0.124
		C602.461,74.323,602.544,74.365,602.626,74.448z M609.198,44.07c0,0.33-0.207,0.495-0.62,0.495c-0.414,0-0.62-0.165-0.62-0.495
		c0-0.414,0.206-0.621,0.62-0.621C608.991,43.448,609.198,43.656,609.198,44.07z M608.95,56.22c0,0.248-0.124,0.372-0.372,0.372
		s-0.372-0.124-0.372-0.372s0.124-0.372,0.372-0.372S608.95,55.972,608.95,56.22z M608.826,62.296c0,0.248-0.083,0.372-0.248,0.372
		c-0.248,0-0.372-0.124-0.372-0.372s0.124-0.372,0.372-0.372C608.743,61.924,608.826,62.048,608.826,62.296z M608.826,68.371
		c0,0.166-0.083,0.248-0.248,0.248c-0.166,0-0.248-0.082-0.248-0.248c0-0.165,0.082-0.248,0.248-0.248
		C608.743,68.123,608.826,68.206,608.826,68.371z M608.578,74.572c-0.083,0-0.124-0.042-0.124-0.124l0.124-0.124l0.124,0.124
		C608.702,74.53,608.66,74.572,608.578,74.572z M615.025,56.22c0,0.248-0.124,0.372-0.372,0.372s-0.372-0.124-0.372-0.372
		s0.124-0.372,0.372-0.372S615.025,55.972,615.025,56.22z M615.025,62.296c0,0.248-0.124,0.372-0.372,0.372
		c-0.165,0-0.248-0.124-0.248-0.372s0.083-0.372,0.248-0.372C614.901,61.924,615.025,62.048,615.025,62.296z M614.901,68.371
		c0,0.166-0.083,0.248-0.248,0.248s-0.248-0.082-0.248-0.248c0-0.165,0.083-0.248,0.248-0.248S614.901,68.206,614.901,68.371z
		 M614.777,74.448c0,0.082-0.041,0.124-0.124,0.124l-0.124-0.124l0.124-0.124C614.736,74.323,614.777,74.365,614.777,74.448z
		 M633.253,26.214l-15.871,6.323l-0.372-0.992l15.871-6.2c0.248-0.165,0.454-0.083,0.619,0.248
		C633.666,25.842,633.583,26.049,633.253,26.214z M621.473,37.993c0,0.413-0.206,0.62-0.619,0.62c-0.496,0-0.744-0.207-0.744-0.62
		c0-0.496,0.248-0.744,0.744-0.744C621.267,37.249,621.473,37.497,621.473,37.993z M620.978,68.371c0,0.166-0.042,0.248-0.124,0.248
		c-0.166,0-0.248-0.082-0.248-0.248c0-0.165,0.082-0.248,0.248-0.248C620.936,68.123,620.978,68.206,620.978,68.371z
		 M620.854,74.572c-0.083,0-0.124-0.042-0.124-0.124l0.124-0.124l0.124,0.124C620.978,74.53,620.936,74.572,620.854,74.572z
		 M627.673,31.918c0,0.496-0.248,0.744-0.744,0.744s-0.744-0.248-0.744-0.744c0-0.579,0.248-0.868,0.744-0.868
		S627.673,31.339,627.673,31.918z M627.549,37.993c0,0.413-0.207,0.62-0.62,0.62s-0.62-0.207-0.62-0.62
		c0-0.496,0.207-0.744,0.62-0.744S627.549,37.497,627.549,37.993z M627.549,44.07c0,0.33-0.207,0.495-0.62,0.495
		s-0.62-0.165-0.62-0.495c0-0.414,0.207-0.621,0.62-0.621S627.549,43.656,627.549,44.07z M627.425,50.145
		c0,0.33-0.165,0.496-0.496,0.496c-0.33,0-0.496-0.166-0.496-0.496c0-0.331,0.166-0.496,0.496-0.496
		C627.26,49.649,627.425,49.814,627.425,50.145z M627.301,56.22c0,0.248-0.124,0.372-0.372,0.372s-0.372-0.124-0.372-0.372
		s0.124-0.372,0.372-0.372S627.301,55.972,627.301,56.22z M627.053,74.448c0,0.082-0.041,0.124-0.124,0.124
		s-0.124-0.042-0.124-0.124l0.124-0.124C627.012,74.323,627.053,74.365,627.053,74.448z M633.872,31.918
		c0,0.496-0.289,0.744-0.867,0.744c-0.496,0-0.744-0.248-0.744-0.744c0-0.579,0.248-0.868,0.744-0.868
		C633.583,31.05,633.872,31.339,633.872,31.918z M633.748,37.993c0,0.413-0.248,0.62-0.743,0.62c-0.414,0-0.62-0.207-0.62-0.62
		c0-0.496,0.206-0.744,0.62-0.744C633.5,37.249,633.748,37.497,633.748,37.993z M633.624,44.07c0,0.33-0.206,0.495-0.619,0.495
		c-0.331,0-0.496-0.165-0.496-0.495c0-0.414,0.165-0.621,0.496-0.621C633.418,43.448,633.624,43.656,633.624,44.07z M633.5,50.145
		c0,0.33-0.165,0.496-0.495,0.496c-0.331,0-0.496-0.166-0.496-0.496c0-0.331,0.165-0.496,0.496-0.496
		C633.335,49.649,633.5,49.814,633.5,50.145z M633.5,56.22c0,0.248-0.165,0.372-0.495,0.372c-0.248,0-0.372-0.124-0.372-0.372
		s0.124-0.372,0.372-0.372C633.335,55.848,633.5,55.972,633.5,56.22z M633.376,62.296c0,0.248-0.123,0.372-0.371,0.372
		c-0.166,0-0.248-0.124-0.248-0.372s0.082-0.372,0.248-0.372C633.253,61.924,633.376,62.048,633.376,62.296z M633.253,68.371
		c0,0.166-0.083,0.248-0.248,0.248c-0.083,0-0.124-0.082-0.124-0.248c0-0.165,0.041-0.248,0.124-0.248
		C633.17,68.123,633.253,68.206,633.253,68.371z M633.253,74.448c0,0.082-0.083,0.124-0.248,0.124l-0.124-0.124l0.124-0.124
		C633.087,74.323,633.17,74.365,633.253,74.448z"/>
</g>
</svg>
