<?xml version="1.0" encoding="utf-8"?>
<!-- Generator: Adobe Illustrator 16.0.0, SVG Export Plug-In . SVG Version: 6.00 Build 0)  -->
<!DOCTYPE svg PUBLIC "-//W3C//DTD SVG 1.1//EN" "http://www.w3.org/Graphics/SVG/1.1/DTD/svg11.dtd">
<svg version="1.1" id="Calque_1" xmlns="http://www.w3.org/2000/svg" xmlns:xlink="http://www.w3.org/1999/xlink" x="0px" y="0px"
	 width="708.96px" height="106.336px" viewBox="7.813 5.5 708.96 106.336" enable-background="new 7.813 5.5 708.96 106.336"
	 xml:space="preserve">
<g>
	<path d="M9.68,59.756l-1.867-45.92h15.493l-1.867,45.92l1.867,50.773H7.813L9.68,59.756z"/>
	<path d="M58.399,63.117l1.307,47.6H45.333l1.493-47.6l-2.24-16.613v-0.188h13.44l0.187,9.893l2.427-2.053
		c5.6-4.853,12.32-9.146,19.227-9.146c11.947,0,17.92,9.333,18.48,23.707l1.494,42H85.467l1.12-37.707
		c0.373-12.507-5.6-15.12-13.627-15.12C67.918,57.703,62.692,60.131,58.399,63.117z"/>
	<path d="M135.68,110.53h-14l1.68-55.813h-10.64v-9.894l10.267,1.307l-0.187-8.027c-0.374-10.453,3.546-26.693,26.506-26.693
		c5.227,0,13.067,0.748,16.987,2.24l2.613,14h-0.187c-5.973-3.173-14-5.227-19.227-5.227c-12.133,0-14.56,7.279-14.934,18.293v5.787
		l37.147-1.68l1.867,65.706h-14.374l1.68-55.813h-26.88L135.68,110.53z"/>
	<path d="M205.866,63.117l1.307,47.6H192.8l1.493-47.6l-2.24-16.613v-0.188h13.44l0.187,9.893l2.427-2.053
		c5.6-4.853,12.32-9.146,19.227-9.146c11.947,0,17.92,9.333,18.48,23.707l1.493,42h-14.374l1.12-37.707
		c0.373-12.507-5.6-15.12-13.627-15.12C215.386,57.703,210.16,60.131,205.866,63.117z"/>
	<path d="M281.652,26.53c0,4.853-3.546,7.841-8.026,7.841c-4.293,0-8.026-2.988-8.026-7.841c0-4.667,3.733-7.28,8.026-7.28
		C278.105,19.25,281.652,22.051,281.652,26.53z M279.227,46.131v0.373l1.867,64.213H266.72l1.492-47.6l-2.426-16.613v-0.188h13.439
		L279.227,46.131L279.227,46.131z"/>
	<path d="M343.253,63.863l1.307,46.667h-14.374l1.494-47.6l-2.427-16.427v-0.188h13.438l0.188,10.641l3.174-2.613
		c5.227-4.293,10.267-9.147,16.427-9.147c1.493,0,3.359,0,5.228,0.187l2.612,16.055h-0.187c-3.733-1.867-7.28-2.614-12.135-2.614
		C353.146,58.637,347.359,61.063,343.253,63.863z"/>
	<path d="M437.146,77.304c0,18.853-10.64,34.532-30.053,34.532s-30.054-15.68-30.054-34.532c0-17.733,10.826-32.479,30.054-32.479
		C426.319,44.824,437.146,59.756,437.146,77.304z M424.452,77.677c0-11.2-5.973-20.907-17.358-20.907
		c-11.387,0-17.36,9.707-17.36,20.907c0,13.627,5.601,24.454,17.36,24.454C418.853,102.131,424.452,91.304,424.452,77.677z"/>
	<path d="M466.452,62.744l1.308,47.786h-14.373l1.493-47.6l-2.239-16.427v-0.188h13.438l0.188,9.707l2.054-1.867
		c5.601-4.853,11.573-9.332,18.293-9.332c8.027,0,13.254,4.666,15.867,12.319l3.546-3.173c5.602-4.854,11.574-9.333,18.294-9.333
		c11.388,0,17.173,9.333,17.733,23.521l1.493,42.187h-14.374l1.12-37.894c0.373-12.32-4.854-14.748-13.067-14.748
		c-4.293,0-9.333,2.053-13.253,5.041c0.187,1.866,0.373,3.545,0.56,5.6l1.308,42.187h-14.373l1.307-37.894
		c0.373-12.32-4.854-14.747-13.065-14.747C475.226,57.891,470.373,59.756,466.452,62.744z"/>
	<path d="M595.065,104.557c-4.853,3.547-10.64,7.279-16.427,7.279c-12.319,0-19.228-8.213-19.228-18.106
		c0-16.24,15.494-19.974,29.867-19.974c1.866,0,4.293,0.188,6.72,0.188l0.188-3.359c0.374-12.508-5.6-14.748-13.066-14.748
		c-6.905,0-13.438,2.24-20.532,5.414h-0.188l2.427-15.121c4.854-0.56,14-1.493,20.16-1.493c15.119,0,22.586,9.333,23.146,23.707
		l1.492,42h-14.373L595.065,104.557z M595.253,96.717l0.373-11.2c-3.175-1.681-7.653-2.613-10.827-2.613
		c-7.84,0-12.693,3.548-12.693,9.707c0,5.787,4.107,9.707,10.454,9.707C586.853,102.504,591.146,100.076,595.253,96.717z"/>
	<path d="M643.226,26.53c0,4.853-3.546,7.841-8.026,7.841c-4.293,0-8.025-2.988-8.025-7.841c0-4.667,3.732-7.28,8.025-7.28
		C639.68,19.25,643.226,22.051,643.226,26.53z M640.799,46.131v0.373l1.867,64.213h-14.373l1.492-47.6l-2.239-16.613v-0.188h13.253
		V46.131z"/>
	<path d="M675.332,63.117l1.307,47.6h-14.373l1.493-47.6l-2.239-16.613v-0.188h13.439l0.187,9.893l2.427-2.053
		c5.602-4.853,12.32-9.146,19.228-9.146c11.946,0,17.92,9.333,18.479,23.707l1.493,42h-14.373l1.12-37.707
		c0.373-12.507-5.601-15.12-13.627-15.12C684.853,57.703,679.626,60.131,675.332,63.117z"/>
</g>
</svg>
