<?xml version="1.0" encoding="utf-8"?>
<!-- Generator: Adobe Illustrator 16.0.0, SVG Export Plug-In . SVG Version: 6.00 Build 0)  -->
<!DOCTYPE svg PUBLIC "-//W3C//DTD SVG 1.1//EN" "http://www.w3.org/Graphics/SVG/1.1/DTD/svg11.dtd">
<svg version="1.1" id="Layer_1" xmlns="http://www.w3.org/2000/svg" xmlns:xlink="http://www.w3.org/1999/xlink" x="0px" y="0px"
	 width="540.729px" height="88.114px" viewBox="0 0 540.729 88.114" enable-background="new 0 0 540.729 88.114"
	 xml:space="preserve">
<g>
	<path d="M33.516,1.703c3.931,0,7.609,0.756,11.037,2.268c3.428,1.512,6.413,3.672,8.953,6.48c2.54,2.808,4.554,6.181,6.04,10.116
		c1.486,3.937,2.229,8.352,2.229,13.248s-0.744,9.313-2.229,13.248c-1.486,3.937-3.5,7.309-6.04,10.116
		c-2.541,2.809-5.525,4.968-8.953,6.48c-3.428,1.512-7.106,2.268-11.037,2.268s-7.611-0.756-11.039-2.268
		c-3.428-1.513-6.424-3.66-8.989-6.444c-2.565-2.783-4.578-6.156-6.04-10.116s-2.193-8.388-2.193-13.284s0.73-9.312,2.193-13.248
		c1.462-3.935,3.475-7.308,6.04-10.116c2.565-2.808,5.561-4.968,8.989-6.48C25.905,2.459,29.585,1.703,33.516,1.703z M33.552,8.47
		c-3.024,0-5.76,0.588-8.208,1.764c-2.448,1.177-4.536,2.856-6.264,5.04c-1.728,2.185-3.06,4.849-3.996,7.992
		c-0.936,3.144-1.404,6.66-1.404,10.548c0,3.216,0.468,5.868,1.404,7.956c0.936,2.089,2.268,3.744,3.996,4.969
		c1.728,1.224,3.816,2.076,6.264,2.556c2.448,0.48,5.184,0.72,8.208,0.72c3.024,0,5.76-0.239,8.208-0.72
		c2.448-0.479,4.536-1.332,6.264-2.556c1.728-1.225,3.048-2.88,3.96-4.969c0.911-2.088,1.368-4.739,1.368-7.956
		c0-3.888-0.457-7.404-1.368-10.548c-0.912-3.144-2.232-5.808-3.96-7.992c-1.728-2.184-3.816-3.863-6.264-5.04
		C39.312,9.059,36.576,8.47,33.552,8.47z"/>
	<path d="M80.496,78.167c-0.097,1.152-0.696,1.728-1.8,1.728h-4.608c-1.249,0-1.8-0.624-1.656-1.872l2.808-21.96l0.072-28.151
		c0-1.199,0.6-1.8,1.8-1.8h2.736c1.343,0,1.872,0.648,1.584,1.944v0.216c-0.385,1.681,0.047,1.872,1.296,0.576
		c2.543-2.832,6.072-4.248,10.584-4.248c2.351,0,4.56,0.493,6.624,1.476c2.063,0.984,3.852,2.389,5.364,4.212
		c1.512,1.825,2.7,4.008,3.564,6.552c0.864,2.545,1.296,5.354,1.296,8.424c0,3.697-0.409,6.853-1.224,9.468
		c-0.817,2.617-1.969,4.753-3.456,6.408c-1.488,1.656-3.265,2.869-5.328,3.637c-2.064,0.767-4.345,1.151-6.84,1.151
		c-0.48,0-1.152-0.012-2.016-0.036c-0.864-0.024-1.776-0.12-2.736-0.288c-0.961-0.168-1.92-0.456-2.88-0.863
		c-0.961-0.407-1.776-0.973-2.448-1.692c-0.529-0.623-0.96-0.888-1.296-0.792c-0.336,0.097-0.529,0.553-0.576,1.368L80.496,78.167z
		 M105.335,45.005c0-4.785-0.984-8.507-2.952-11.164c-1.969-2.657-4.68-3.986-8.136-3.986s-6.145,1.329-8.064,3.986
		c-1.92,2.657-2.88,6.379-2.88,11.164c0,2.395,0.263,4.31,0.792,5.745c0.527,1.437,1.283,2.549,2.268,3.339
		c0.983,0.789,2.171,1.316,3.564,1.579c1.392,0.264,2.952,0.395,4.68,0.395s3.251-0.131,4.572-0.395
		c1.319-0.263,2.436-0.79,3.348-1.579c0.912-0.79,1.608-1.902,2.088-3.339C105.095,49.314,105.335,47.399,105.335,45.005z"/>
	<path d="M155.519,42.598c0,1.201-0.576,1.801-1.728,1.801h-24.264c-1.152,0-1.728,0.601-1.728,1.8c0,2.112,0.228,3.805,0.684,5.076
		c0.456,1.271,1.188,2.268,2.196,2.987c1.008,0.721,2.315,1.2,3.924,1.44c1.607,0.24,3.587,0.359,5.94,0.359
		c2.16,0,4.367-0.047,6.624-0.144c2.256-0.096,4.127-0.335,5.616-0.72c0.576-0.145,1.055-0.132,1.44,0.036
		c0.383,0.168,0.576,0.588,0.576,1.26l0.072,5.256c0,1.008-0.432,1.681-1.296,2.016c-1.008,0.529-1.98,0.948-2.916,1.261
		c-0.936,0.312-1.92,0.54-2.952,0.684c-1.033,0.144-2.149,0.228-3.348,0.252c-1.2,0.023-2.544,0.012-4.032-0.036
		c-6.816-0.192-11.82-1.908-15.012-5.147c-3.193-3.24-4.741-8.028-4.644-14.364c0.047-3.216,0.504-6.168,1.368-8.856
		c0.864-2.688,2.099-4.992,3.708-6.912c1.607-1.919,3.564-3.408,5.868-4.464c2.304-1.055,4.943-1.584,7.92-1.584
		c1.967,0,3.912,0.372,5.832,1.116c1.919,0.745,3.636,1.849,5.148,3.312c1.512,1.465,2.724,3.276,3.636,5.436
		c0.912,2.16,1.368,4.656,1.368,7.488V42.598z M148.895,39.071c0.623,0,1.055-0.18,1.296-0.54c0.24-0.36,0.312-0.828,0.216-1.404
		c-0.48-2.736-1.692-4.907-3.636-6.516c-1.944-1.607-4.356-2.412-7.236-2.412c-1.584,0-3.049,0.229-4.392,0.684
		c-1.344,0.457-2.532,1.092-3.564,1.908c-1.033,0.817-1.872,1.776-2.52,2.88c-0.648,1.105-1.044,2.304-1.188,3.6
		c-0.144,1.249,0.407,1.873,1.656,1.873L148.895,39.071z"/>
	<path d="M202.75,63.119c0.144,1.2-0.432,1.8-1.728,1.8h-7.056c-1.2,0-1.776-0.6-1.728-1.8l1.296-22.104
		c0.432-7.439-2.232-11.16-7.992-11.16c-4.032,0-7.068,1.104-9.108,3.312c-2.041,2.208-2.893,5.256-2.556,9.145l1.728,20.808
		c0.047,1.2-0.529,1.8-1.728,1.8h-6.12c-1.152,0-1.728-0.6-1.728-1.8l1.008-36.216c0-1.152,0.593-1.728,1.78-1.728h2.991
		c1.139,0,1.709,0.601,1.709,1.8v0.288c0,0.768,0.204,1.249,0.612,1.44c0.407,0.192,0.9,0.072,1.476-0.36
		c1.392-0.959,2.976-1.823,4.752-2.592c1.775-0.767,3.744-1.152,5.904-1.152c4.511,0,7.848,1.38,10.008,4.14
		c2.16,2.761,3.528,6.901,4.104,12.42L202.75,63.119z"/>
	<path d="M213.262,5.015c0-1.343,0.672-2.016,2.016-2.016h15.192c4.943,0,9.54,0.612,13.788,1.836s7.931,3.108,11.052,5.652
		c3.12,2.545,5.567,5.749,7.344,9.612c1.775,3.864,2.664,8.46,2.664,13.788c0,5.328-0.889,9.937-2.664,13.824
		c-1.776,3.888-4.237,7.117-7.38,9.684c-3.145,2.568-6.84,4.465-11.088,5.688s-8.82,1.836-13.716,1.836h-15.192
		c-1.344,0-2.016-0.672-2.016-2.016V5.015z M224.134,9.839c-1.344,0-2.016,0.696-2.016,2.088v36.288
		c0,1.345,0.672,2.016,2.016,2.016h8.064c3.071,0,6.072-0.18,9-0.539c2.927-0.36,5.532-1.116,7.812-2.269
		c2.279-1.152,4.115-2.796,5.508-4.932c1.392-2.136,2.088-5.004,2.088-8.604c0-3.647-0.48-6.959-1.44-9.936
		c-0.961-2.976-2.437-5.508-4.428-7.596c-1.992-2.088-4.525-3.696-7.596-4.824c-3.073-1.127-6.721-1.692-10.944-1.692H224.134z"/>
	<path d="M298.797,68.447c-1.393,3.6-2.797,6.516-4.212,8.748c-1.417,2.231-2.833,3.971-4.248,5.22
		c-1.417,1.247-2.856,2.088-4.32,2.52c-1.464,0.433-2.916,0.648-4.356,0.648h-4.104c-1.152,0-1.728-0.576-1.728-1.729v-5.399
		c0-1.152,0.576-1.729,1.728-1.729h2.736c1.248,0,2.52-0.432,3.816-1.296c1.296-0.863,2.52-1.969,3.672-3.312
		c1.152-1.345,2.196-2.833,3.132-4.464c0.936-1.633,1.667-3.24,2.196-4.824c0.096-0.335,0.18-0.708,0.252-1.116
		c0.072-0.407-0.013-0.828-0.252-1.26l-15.336-32.832c-0.288-0.624-0.301-1.127-0.036-1.512c0.263-0.383,0.731-0.576,1.404-0.576
		h3.168c0.864,0,1.56,0.408,2.088,1.224l11.88,19.512c0.383,0.625,0.803,0.925,1.26,0.9c0.456-0.023,0.852-0.371,1.188-1.044
		l9-19.296c0.432-0.864,1.104-1.296,2.016-1.296h3.384c0.672,0,1.14,0.18,1.404,0.54c0.263,0.36,0.275,0.853,0.036,1.476
		L298.797,68.447z"/>
	<path d="M353.229,29.927c0,0.673-0.18,1.116-0.54,1.332c-0.36,0.216-0.853,0.205-1.476-0.036c-3.024-1.248-6.289-1.872-9.792-1.872
		c-3.312,0-5.809,0.54-7.488,1.62c-1.681,1.08-2.52,2.628-2.52,4.644c0,0.864,0.144,1.62,0.432,2.268s0.78,1.224,1.476,1.728
		c0.695,0.504,1.62,0.961,2.772,1.369s2.592,0.804,4.32,1.188l2.232,0.504c2.304,0.528,4.259,1.116,5.868,1.764
		c1.608,0.648,2.916,1.429,3.924,2.341c1.008,0.912,1.739,1.969,2.196,3.168c0.456,1.2,0.684,2.616,0.684,4.248
		c0,3.743-1.44,6.636-4.32,8.676c-2.88,2.04-6.865,3.06-11.952,3.06c-3.888,0-7.992-0.673-12.312-2.016
		c-1.008-0.288-1.512-0.937-1.512-1.944v-7.056c0-0.672,0.191-1.127,0.576-1.368c0.384-0.239,0.888-0.216,1.512,0.072
		c4.176,1.824,8.136,2.735,11.88,2.735c2.111,0,3.672-0.383,4.68-1.151c1.008-0.768,1.536-1.644,1.584-2.628
		c0.047-0.983-0.36-1.944-1.224-2.88c-0.864-0.937-2.113-1.596-3.744-1.98l-3.6-0.792c-4.032-0.911-6.937-2.16-8.712-3.744
		c-1.776-1.584-2.664-3.912-2.664-6.984c0-3.744,1.296-6.612,3.888-8.604c2.592-1.991,6.336-2.988,11.232-2.988
		c4.32,0,8.039,0.529,11.16,1.584c0.959,0.385,1.44,1.056,1.44,2.016V29.927z"/>
	<path d="M367.268,63.119c-0.385-4.752-0.493-9.407-0.324-13.968c0.167-4.56,0.335-8.939,0.504-13.141
		c0.167-4.199,0.191-8.195,0.072-11.988c-0.121-3.791-0.661-7.295-1.62-10.512c-0.192-0.576-0.072-1.008,0.36-1.296
		s0.911-0.432,1.44-0.432h3.744c0.576,0,0.972,0.157,1.188,0.468c0.216,0.313,0.371,0.756,0.468,1.332
		c0.335,2.592,0.516,5.592,0.54,9c0.024,3.409,0.011,6.937-0.036,10.584c-0.049,3.648-0.013,7.309,0.108,10.979
		c0.119,3.673,0.468,7.093,1.044,10.261c0.096,0.624,0.263,1.08,0.504,1.368c0.24,0.287,0.648,0.432,1.224,0.432h4.392
		c1.199,0,1.8,0.601,1.8,1.8v5.185c0,1.151-0.601,1.728-1.8,1.728h-11.88C367.892,64.919,367.315,64.319,367.268,63.119z"/>
	<path d="M428.036,42.598c0,1.201-0.576,1.801-1.728,1.801h-24.264c-1.152,0-1.728,0.601-1.728,1.8c0,2.112,0.228,3.805,0.684,5.076
		c0.456,1.271,1.188,2.268,2.196,2.987c1.008,0.721,2.315,1.2,3.924,1.44c1.607,0.24,3.587,0.359,5.94,0.359
		c2.16,0,4.367-0.047,6.624-0.144c2.256-0.096,4.127-0.335,5.616-0.72c0.576-0.145,1.055-0.132,1.44,0.036
		c0.383,0.168,0.576,0.588,0.576,1.26l0.072,5.256c0,1.008-0.432,1.681-1.296,2.016c-1.008,0.529-1.98,0.948-2.916,1.261
		c-0.936,0.312-1.92,0.54-2.952,0.684c-1.033,0.144-2.149,0.228-3.348,0.252c-1.2,0.023-2.544,0.012-4.032-0.036
		c-6.816-0.192-11.82-1.908-15.012-5.147c-3.193-3.24-4.741-8.028-4.644-14.364c0.047-3.216,0.504-6.168,1.368-8.856
		c0.864-2.688,2.099-4.992,3.708-6.912c1.607-1.919,3.564-3.408,5.868-4.464c2.304-1.055,4.943-1.584,7.92-1.584
		c1.967,0,3.912,0.372,5.832,1.116c1.919,0.745,3.636,1.849,5.148,3.312c1.512,1.465,2.724,3.276,3.636,5.436
		c0.912,2.16,1.368,4.656,1.368,7.488V42.598z M421.412,39.071c0.623,0,1.055-0.18,1.296-0.54c0.24-0.36,0.312-0.828,0.216-1.404
		c-0.48-2.736-1.692-4.907-3.636-6.516c-1.944-1.607-4.356-2.412-7.236-2.412c-1.584,0-3.049,0.229-4.392,0.684
		c-1.344,0.457-2.532,1.092-3.564,1.908c-1.033,0.817-1.872,1.776-2.52,2.88c-0.648,1.105-1.044,2.304-1.188,3.6
		c-0.144,1.249,0.407,1.873,1.656,1.873L421.412,39.071z"/>
	<path d="M473.539,25.535c0.72,0,1.199,0.216,1.44,0.648c0.239,0.432,0.167,0.936-0.217,1.512l-11.664,17.497
		c-0.576,0.816-0.529,1.632,0.144,2.447l13.248,15.12c0.527,0.576,0.684,1.08,0.468,1.512c-0.216,0.433-0.709,0.648-1.476,0.648
		h-6.984c-0.864,0-1.584-0.384-2.16-1.152l-6.984-9.288c-0.769-1.055-1.584-1.079-2.448-0.071l-7.632,9.432
		c-0.576,0.72-1.296,1.08-2.16,1.08h-6.984c-0.768,0-1.272-0.216-1.512-0.648c-0.241-0.432-0.097-0.936,0.432-1.512l13.608-15.479
		c0.671-0.768,0.72-1.584,0.144-2.448l-11.376-17.136c-0.385-0.623-0.468-1.14-0.252-1.548c0.216-0.407,0.684-0.612,1.404-0.612
		h2.952c0.864,0,1.584,0.385,2.16,1.152l8.856,13.175c0.384,0.529,0.792,0.805,1.224,0.828c0.432,0.025,0.839-0.227,1.224-0.756
		l9.792-13.32c0.479-0.72,1.175-1.08,2.088-1.08H473.539z"/>
	<path d="M487.507,63.478c0.433-2.976,0.828-5.843,1.188-8.604c0.359-2.76,0.647-5.556,0.863-8.388
		c0.217-2.832,0.348-5.784,0.396-8.856c0.047-3.071-0.024-6.455-0.216-10.152c-0.049-0.479,0.096-0.864,0.432-1.152
		c0.335-0.288,0.792-0.432,1.368-0.432h3.023c0.576,0,1.032,0.156,1.368,0.468c0.336,0.313,0.456,0.756,0.36,1.332
		c-0.288,2.736-0.517,5.677-0.684,8.82c-0.169,3.144-0.217,6.3-0.145,9.468s0.275,6.252,0.612,9.252
		c0.335,3,0.839,5.724,1.512,8.172c0.191,0.624,0.108,1.092-0.252,1.403c-0.36,0.313-0.828,0.469-1.404,0.469h-6.695
		C487.939,65.279,487.363,64.679,487.507,63.478z M489.379,11.423c0-0.72,0.36-1.08,1.08-1.08l4.752-0.072
		c0.72,0,1.08,0.36,1.08,1.08l0.144,5.328c0,0.72-0.359,1.08-1.08,1.08h-5.039c-0.721,0-1.08-0.36-1.08-1.08L489.379,11.423z"/>
	<path d="M539.346,30.431c0,0.672-0.192,1.116-0.575,1.332c-0.385,0.216-0.89,0.18-1.513-0.108c-2.977-1.296-5.976-1.944-9-1.944
		c-4.225,0-7.428,1.393-9.611,4.176c-2.186,2.785-3.276,6.577-3.276,11.376c0.335,3.456,1.464,6.073,3.384,7.849
		c1.919,1.776,4.992,2.761,9.216,2.951c1.536,0.098,3.071-0.071,4.608-0.504c1.535-0.432,3.071-0.911,4.608-1.439
		c1.343-0.479,2.016-0.048,2.016,1.296l0.072,6.479c0,1.057-0.433,1.753-1.296,2.089c-3.266,1.296-6.745,1.943-10.44,1.943
		c-2.977,0-5.652-0.48-8.028-1.439c-2.376-0.96-4.404-2.341-6.084-4.141c-1.681-1.8-2.977-3.971-3.888-6.516
		c-0.912-2.544-1.368-5.4-1.368-8.568c0-3.215,0.456-6.096,1.368-8.64c0.911-2.544,2.22-4.704,3.924-6.48
		c1.703-1.775,3.78-3.144,6.229-4.104c2.447-0.96,5.207-1.44,8.279-1.44c3.647,0,6.984,0.601,10.009,1.8
		c0.911,0.336,1.367,1.008,1.367,2.016V30.431z"/>
</g>
</svg>
