<?xml version="1.0" encoding="utf-8"?>
<!-- Generator: Adobe Illustrator 16.0.0, SVG Export Plug-In . SVG Version: 6.00 Build 0)  -->
<!DOCTYPE svg PUBLIC "-//W3C//DTD SVG 1.1//EN" "http://www.w3.org/Graphics/SVG/1.1/DTD/svg11.dtd">
<svg version="1.1" id="Layer_1" xmlns="http://www.w3.org/2000/svg" xmlns:xlink="http://www.w3.org/1999/xlink" x="0px" y="0px"
	 width="946.459px" height="77.229px" viewBox="0 0 946.459 77.229" enable-background="new 0 0 946.459 77.229"
	 xml:space="preserve">
<g>
	<path d="M0,67.083c0-1.404,0.972-2.376,2.376-2.376c1.404,0,2.376,0.972,2.376,2.376c0,1.403-0.972,2.376-2.376,2.376
		C0.972,69.459,0,68.487,0,67.083z M10.692,18.05c0,1.404-0.972,2.376-2.376,2.376c-1.404,0-2.376-0.972-2.376-2.376
		c0-1.404,0.972-2.376,2.376-2.376C9.72,15.674,10.692,16.646,10.692,18.05z M9.288,73.671c0-1.404,0.972-2.376,2.376-2.376
		c1.404,0,2.376,0.972,2.376,2.376s-0.972,2.376-2.376,2.376C10.26,76.047,9.288,75.075,9.288,73.671z M11.125,28.958
		c0-1.404,0.972-2.376,2.376-2.376c1.404,0,2.376,0.972,2.376,2.376c0,1.404-0.972,2.376-2.376,2.376
		C12.096,31.334,11.125,30.363,11.125,28.958z M11.448,7.466c0-1.404,0.972-2.376,2.376-2.376c1.404,0,2.376,0.972,2.376,2.376
		c0,1.404-0.972,2.376-2.376,2.376C12.42,9.842,11.448,8.87,11.448,7.466z M20.736,37.166c0-1.404,0.972-2.376,2.376-2.376
		c1.404,0,2.376,0.972,2.376,2.376c0,1.404-0.972,2.376-2.376,2.376C21.708,39.542,20.736,38.571,20.736,37.166z M20.953,74.751
		c0-1.404,0.972-2.376,2.376-2.376c1.404,0,2.376,0.972,2.376,2.376s-0.972,2.376-2.376,2.376
		C21.924,77.127,20.953,76.156,20.953,74.751z M26.785,2.822c0,1.404-0.972,2.376-2.376,2.376c-1.404,0-2.376-0.972-2.376-2.376
		c0-1.404,0.972-2.376,2.376-2.376C25.813,0.446,26.785,1.418,26.785,2.822z M35.641,45.051c0,1.403-0.972,2.376-2.376,2.376
		c-1.404,0-2.376-0.973-2.376-2.376c0-1.404,0.972-2.376,2.376-2.376C34.669,42.675,35.641,43.647,35.641,45.051z M31.213,68.595
		c0-1.404,0.972-2.376,2.376-2.376c1.404,0,2.376,0.972,2.376,2.376s-0.972,2.376-2.376,2.376
		C32.185,70.971,31.213,69.999,31.213,68.595z M35.641,56.715c0-1.404,0.972-2.376,2.376-2.376c1.404,0,2.376,0.972,2.376,2.376
		c0,1.403-0.972,2.376-2.376,2.376C36.613,59.091,35.641,58.118,35.641,56.715z"/>
	<path d="M60.048,3.686c0,1.404-0.972,2.376-2.376,2.376c-1.404,0-2.376-0.972-2.376-2.376c0-1.404,0.972-2.376,2.376-2.376
		C59.076,1.31,60.048,2.282,60.048,3.686z M60.048,15.35c0,1.404-0.972,2.376-2.376,2.376c-1.404,0-2.376-0.972-2.376-2.376
		c0-1.404,0.972-2.376,2.376-2.376C59.076,12.974,60.048,13.946,60.048,15.35z M60.048,27.014c0,1.404-0.972,2.376-2.376,2.376
		c-1.404,0-2.376-0.972-2.376-2.376c0-1.404,0.972-2.376,2.376-2.376C59.076,24.638,60.048,25.61,60.048,27.014z M55.296,38.678
		c0-1.404,0.972-2.376,2.376-2.376c1.404,0,2.376,0.972,2.376,2.376c0,1.405-0.972,2.376-2.376,2.376
		C56.268,41.055,55.296,40.083,55.296,38.678z M55.296,50.343c0-1.404,0.972-2.376,2.376-2.376c1.404,0,2.376,0.972,2.376,2.376
		c0,1.403-0.972,2.376-2.376,2.376C56.268,52.719,55.296,51.746,55.296,50.343z M55.296,62.007c0-1.404,0.972-2.376,2.376-2.376
		c1.404,0,2.376,0.972,2.376,2.376s-0.972,2.376-2.376,2.376C56.268,64.383,55.296,63.411,55.296,62.007z M55.296,73.671
		c0-1.404,0.972-2.376,2.376-2.376c1.404,0,2.376,0.972,2.376,2.376s-0.972,2.376-2.376,2.376
		C56.268,76.047,55.296,75.075,55.296,73.671z M71.604,3.686c0,1.404-0.972,2.376-2.376,2.376c-1.404,0-2.376-0.972-2.376-2.376
		c0-1.404,0.972-2.376,2.376-2.376C70.632,1.31,71.604,2.282,71.604,3.686z M66.852,38.678c0-1.404,0.972-2.376,2.376-2.376
		c1.404,0,2.376,0.972,2.376,2.376c0,1.405-0.972,2.376-2.376,2.376C67.824,41.055,66.852,40.083,66.852,38.678z M66.96,73.671
		c0-1.404,0.972-2.376,2.376-2.376c1.404,0,2.376,0.972,2.376,2.376s-0.972,2.376-2.376,2.376
		C67.932,76.047,66.96,75.075,66.96,73.671z M83.269,3.686c0,1.404-0.972,2.376-2.376,2.376c-1.404,0-2.376-0.972-2.376-2.376
		c0-1.404,0.972-2.376,2.376-2.376C82.296,1.31,83.269,2.282,83.269,3.686z M78.516,38.678c0-1.404,0.972-2.376,2.376-2.376
		c1.404,0,2.376,0.972,2.376,2.376c0,1.405-0.972,2.376-2.376,2.376C79.488,41.055,78.516,40.083,78.516,38.678z M78.624,73.671
		c0-1.404,0.972-2.376,2.376-2.376c1.404,0,2.376,0.972,2.376,2.376S82.404,76.047,81,76.047
		C79.596,76.047,78.624,75.075,78.624,73.671z M90.289,73.671c0-1.404,0.972-2.376,2.376-2.376c1.404,0,2.376,0.972,2.376,2.376
		s-0.972,2.376-2.376,2.376C91.26,76.047,90.289,75.075,90.289,73.671z"/>
	<path d="M111.456,3.686c0,1.404-0.972,2.376-2.376,2.376c-1.404,0-2.376-0.972-2.376-2.376c0-1.404,0.972-2.376,2.376-2.376
		C110.484,1.31,111.456,2.282,111.456,3.686z M106.704,15.35c0-1.404,0.972-2.376,2.376-2.376c1.404,0,2.376,0.972,2.376,2.376
		c0,1.404-0.972,2.376-2.376,2.376C107.676,17.726,106.704,16.754,106.704,15.35z M106.704,27.014c0-1.404,0.972-2.376,2.376-2.376
		c1.404,0,2.376,0.972,2.376,2.376c0,1.404-0.972,2.376-2.376,2.376C107.676,29.39,106.704,28.418,106.704,27.014z M111.456,38.678
		c0,1.405-0.972,2.376-2.376,2.376c-1.404,0-2.376-0.972-2.376-2.376c0-1.404,0.972-2.376,2.376-2.376
		C110.484,36.302,111.456,37.275,111.456,38.678z M106.704,50.343c0-1.404,0.972-2.376,2.376-2.376c1.404,0,2.376,0.972,2.376,2.376
		c0,1.403-0.972,2.376-2.376,2.376C107.676,52.719,106.704,51.746,106.704,50.343z M106.704,62.007c0-1.404,0.972-2.376,2.376-2.376
		c1.404,0,2.376,0.972,2.376,2.376s-0.972,2.376-2.376,2.376C107.676,64.383,106.704,63.411,106.704,62.007z M111.456,73.671
		c0,1.404-0.972,2.376-2.376,2.376c-1.404,0-2.376-0.972-2.376-2.376s0.972-2.376,2.376-2.376
		C110.484,71.295,111.456,72.267,111.456,73.671z M118.368,73.671c0-1.404,0.972-2.376,2.376-2.376c1.404,0,2.376,0.972,2.376,2.376
		s-0.972,2.376-2.376,2.376C119.34,76.047,118.368,75.075,118.368,73.671z M130.032,73.671c0-1.404,0.972-2.376,2.376-2.376
		c1.404,0,2.376,0.972,2.376,2.376s-0.972,2.376-2.376,2.376C131.004,76.047,130.032,75.075,130.032,73.671z M146.448,73.671
		c0,1.404-0.972,2.376-2.376,2.376c-1.404,0-2.376-0.972-2.376-2.376s0.972-2.376,2.376-2.376
		C145.476,71.295,146.448,72.267,146.448,73.671z"/>
	<path d="M153.358,73.671c0-1.404,0.972-2.376,2.376-2.376c1.404,0,2.376,0.972,2.376,2.376s-0.972,2.376-2.376,2.376
		C154.331,76.047,153.358,75.075,153.358,73.671z M157.247,62.007c0-1.404,0.972-2.376,2.376-2.376c1.404,0,2.376,0.972,2.376,2.376
		s-0.972,2.376-2.376,2.376C158.219,64.383,157.247,63.411,157.247,62.007z M160.811,50.343c0-1.404,0.972-2.376,2.376-2.376
		c1.404,0,2.376,0.972,2.376,2.376c0,1.403-0.972,2.376-2.376,2.376C161.783,52.719,160.811,51.746,160.811,50.343z M169.235,38.678
		c0,1.405-0.972,2.376-2.376,2.376s-2.376-0.972-2.376-2.376c0-1.404,0.972-2.376,2.376-2.376S169.235,37.275,169.235,38.678z
		 M172.907,27.014c0,1.404-0.972,2.376-2.376,2.376c-1.404,0-2.376-0.972-2.376-2.376c0-1.404,0.972-2.376,2.376-2.376
		C171.935,24.638,172.907,25.61,172.907,27.014z M176.579,15.35c0,1.404-0.972,2.376-2.376,2.376c-1.404,0-2.376-0.972-2.376-2.376
		c0-1.404,0.972-2.376,2.376-2.376C175.607,12.974,176.579,13.946,176.579,15.35z M181.331,3.686c0,1.404-0.972,2.376-2.376,2.376
		c-1.404,0-2.376-0.972-2.376-2.376c0-1.404,0.972-2.376,2.376-2.376C180.359,1.31,181.331,2.282,181.331,3.686z M181.331,39.866
		c0,1.404-0.972,2.376-2.376,2.376c-1.404,0-2.376-0.972-2.376-2.376c0-1.404,0.972-2.376,2.376-2.376
		C180.359,37.49,181.331,38.463,181.331,39.866z M181.331,15.35c0-1.404,0.972-2.376,2.376-2.376c1.404,0,2.376,0.972,2.376,2.376
		c0,1.404-0.972,2.376-2.376,2.376C182.303,17.726,181.331,16.754,181.331,15.35z M185.003,27.014c0-1.404,0.972-2.376,2.376-2.376
		c1.404,0,2.376,0.972,2.376,2.376c0,1.404-0.972,2.376-2.376,2.376C185.975,29.39,185.003,28.418,185.003,27.014z M188.675,38.678
		c0-1.404,0.972-2.376,2.376-2.376s2.376,0.972,2.376,2.376c0,1.405-0.972,2.376-2.376,2.376S188.675,40.083,188.675,38.678z
		 M192.347,50.343c0-1.404,0.972-2.376,2.376-2.376c1.404,0,2.376,0.972,2.376,2.376c0,1.403-0.972,2.376-2.376,2.376
		C193.319,52.719,192.347,51.746,192.347,50.343z M195.911,62.007c0-1.404,0.972-2.376,2.376-2.376c1.404,0,2.376,0.972,2.376,2.376
		s-0.972,2.376-2.376,2.376C196.883,64.383,195.911,63.411,195.911,62.007z M199.799,73.671c0-1.404,0.972-2.376,2.376-2.376
		c1.404,0,2.376,0.972,2.376,2.376s-0.972,2.376-2.376,2.376C200.771,76.047,199.799,75.075,199.799,73.671z"/>
	<path d="M212.543,3.686c0,1.404-0.972,2.376-2.376,2.376c-1.404,0-2.376-0.972-2.376-2.376c0-1.404,0.972-2.376,2.376-2.376
		C211.571,1.31,212.543,2.282,212.543,3.686z M211.679,15.35c0-1.404,0.972-2.376,2.376-2.376c1.404,0,2.376,0.972,2.376,2.376
		c0,1.404-0.972,2.376-2.376,2.376C212.651,17.726,211.679,16.754,211.679,15.35z M215.567,27.014c0-1.404,0.972-2.376,2.376-2.376
		c1.404,0,2.376,0.972,2.376,2.376c0,1.404-0.972,2.376-2.376,2.376C216.539,29.39,215.567,28.418,215.567,27.014z M219.455,38.678
		c0-1.404,0.972-2.376,2.376-2.376c1.404,0,2.376,0.972,2.376,2.376c0,1.405-0.972,2.376-2.376,2.376
		C220.427,41.055,219.455,40.083,219.455,38.678z M223.343,50.343c0-1.404,0.972-2.376,2.376-2.376c1.404,0,2.376,0.972,2.376,2.376
		c0,1.403-0.972,2.376-2.376,2.376C224.315,52.719,223.343,51.746,223.343,50.343z M227.015,62.007c0-1.404,0.972-2.376,2.376-2.376
		s2.376,0.972,2.376,2.376s-0.972,2.376-2.376,2.376S227.015,63.411,227.015,62.007z M231.335,73.671
		c0-1.404,0.972-2.376,2.376-2.376c1.404,0,2.376,0.972,2.376,2.376s-0.972,2.376-2.376,2.376
		C232.307,76.047,231.335,75.075,231.335,73.671z M235.547,62.007c0-1.404,0.972-2.376,2.376-2.376c1.404,0,2.376,0.972,2.376,2.376
		s-0.972,2.376-2.376,2.376C236.519,64.383,235.547,63.411,235.547,62.007z M239.003,50.343c0-1.404,0.972-2.376,2.376-2.376
		c1.404,0,2.376,0.972,2.376,2.376c0,1.403-0.972,2.376-2.376,2.376C239.975,52.719,239.003,51.746,239.003,50.343z M242.783,38.678
		c0-1.404,0.972-2.376,2.376-2.376c1.404,0,2.376,0.972,2.376,2.376c0,1.405-0.972,2.376-2.376,2.376
		C243.755,41.055,242.783,40.083,242.783,38.678z M246.563,27.014c0-1.404,0.972-2.376,2.376-2.376c1.404,0,2.376,0.972,2.376,2.376
		c0,1.404-0.972,2.376-2.376,2.376C247.535,29.39,246.563,28.418,246.563,27.014z M250.343,15.35c0-1.404,0.972-2.376,2.376-2.376
		c1.404,0,2.376,0.972,2.376,2.376c0,1.404-0.972,2.376-2.376,2.376C251.315,17.726,250.343,16.754,250.343,15.35z M258.875,3.686
		c0,1.404-0.972,2.376-2.376,2.376s-2.376-0.972-2.376-2.376c0-1.404,0.972-2.376,2.376-2.376S258.875,2.282,258.875,3.686z"/>
	<path d="M272.266,3.686c0,1.404-0.972,2.376-2.376,2.376c-1.404,0-2.376-0.972-2.376-2.376c0-1.404,0.972-2.376,2.376-2.376
		C271.293,1.31,272.266,2.282,272.266,3.686z M274.965,15.35c0-1.404,0.972-2.376,2.376-2.376c1.404,0,2.376,0.972,2.376,2.376
		c0,1.404-0.972,2.376-2.376,2.376C275.938,17.726,274.965,16.754,274.965,15.35z M286.846,27.014c0,1.404-0.972,2.376-2.376,2.376
		c-1.404,0-2.376-0.972-2.376-2.376c0-1.404,0.972-2.376,2.376-2.376C285.874,24.638,286.846,25.61,286.846,27.014z M288.898,38.678
		c0-1.404,0.972-2.376,2.376-2.376c1.404,0,2.376,0.972,2.376,2.376c0,1.405-0.972,2.376-2.376,2.376
		C289.87,41.055,288.898,40.083,288.898,38.678z M288.898,50.343c0-1.404,0.972-2.376,2.376-2.376c1.404,0,2.376,0.972,2.376,2.376
		c0,1.403-0.972,2.376-2.376,2.376C289.87,52.719,288.898,51.746,288.898,50.343z M288.898,62.007c0-1.404,0.972-2.376,2.376-2.376
		c1.404,0,2.376,0.972,2.376,2.376s-0.972,2.376-2.376,2.376C289.87,64.383,288.898,63.411,288.898,62.007z M288.898,73.671
		c0-1.404,0.972-2.376,2.376-2.376c1.404,0,2.376,0.972,2.376,2.376s-0.972,2.376-2.376,2.376
		C289.87,76.047,288.898,75.075,288.898,73.671z M300.454,27.014c0,1.404-0.972,2.376-2.376,2.376c-1.404,0-2.376-0.972-2.376-2.376
		c0-1.404,0.972-2.376,2.376-2.376C299.482,24.638,300.454,25.61,300.454,27.014z M303.046,15.35c0-1.404,0.972-2.376,2.376-2.376
		c1.404,0,2.376,0.972,2.376,2.376c0,1.404-0.972,2.376-2.376,2.376C304.018,17.726,303.046,16.754,303.046,15.35z M315.034,3.686
		c0,1.404-0.972,2.376-2.376,2.376c-1.404,0-2.376-0.972-2.376-2.376c0-1.404,0.972-2.376,2.376-2.376
		C314.062,1.31,315.034,2.282,315.034,3.686z"/>
</g>
</svg>
