<?xml version="1.0" encoding="utf-8"?>
<!-- Generator: Adobe Illustrator 16.0.0, SVG Export Plug-In . SVG Version: 6.00 Build 0)  -->
<!DOCTYPE svg PUBLIC "-//W3C//DTD SVG 1.1//EN" "http://www.w3.org/Graphics/SVG/1.1/DTD/svg11.dtd">
<svg version="1.1" id="Your_Design" xmlns="http://www.w3.org/2000/svg" xmlns:xlink="http://www.w3.org/1999/xlink" x="0px"
	 y="0px" width="499.032px" height="56.131px" viewBox="0 0 499.032 56.131" enable-background="new 0 0 499.032 56.131"
	 xml:space="preserve">
<g>
	<line fill="none" stroke="#000000" stroke-width="0.5" x1="109.666" y1="27.878" x2="132.506" y2="27.878"/>
	<polyline fill="none" stroke="#000000" stroke-width="0.5" points="109.666,56.217 109.666,5.114 132.506,5.114 132.506,56.217 	
		"/>
</g>
<g>
	<line fill="none" stroke="#000000" stroke-width="0.5" x1="470.616" y1="28.435" x2="499.032" y2="28.435"/>
	<polyline fill="none" stroke="#000000" stroke-width="0.5" points="499.032,5.595 470.616,5.595 470.616,51.103 499.032,51.103 	
		"/>
</g>
<g>
	<polyline fill="none" stroke="#000000" stroke-width="0.5" points="189.146,0 189.146,50.93 217.582,50.93 	"/>
</g>
<g>
	<polyline fill="none" stroke="#000000" stroke-width="0.5" points="149.464,0.086 149.464,51.017 177.899,51.017 	"/>
</g>
<g>
	<polyline fill="none" stroke="#000000" stroke-width="0.5" points="46.662,56.179 46.662,5.152 64.062,5.152 69.464,11.036 
		69.464,44.95 	"/>
	<polyline fill="none" stroke="#000000" stroke-width="0.5" points="92.016,56.179 92.016,5.152 75.328,5.152 69.464,11.036 	"/>
</g>
<g>
	<rect x="393.02" y="5.152" fill="none" stroke="#000000" stroke-width="0.5" width="22.841" height="45.45"/>
</g>
<g>
	<polyline fill="none" stroke="#000000" stroke-width="0.5" points="34.011,5.191 5.729,5.191 5.729,27.801 28.262,27.801 
		28.262,50.564 0,50.564 	"/>
</g>
<g>
	<polyline fill="none" stroke="#000000" stroke-width="0.5" points="301.014,5.191 272.731,5.191 272.731,27.801 295.265,27.801 
		295.265,50.564 267.002,50.564 	"/>
</g>
<g>
	<line fill="none" stroke="#000000" stroke-width="0.5" x1="328.189" y1="5.2" x2="328.189" y2="56.131"/>
	<line fill="none" stroke="#000000" stroke-width="0.5" x1="311.271" y1="5.2" x2="345.301" y2="5.2"/>
</g>
<g>
	<line fill="none" stroke="#000000" stroke-width="0.5" x1="432.164" y1="0" x2="432.164" y2="56.697"/>
	<polyline fill="none" stroke="#000000" stroke-width="0.5" points="455.14,56.697 455.14,34.011 449.563,28.281 455.14,22.667 
		455.14,0 	"/>
	<line fill="none" stroke="#000000" stroke-width="0.5" x1="449.563" y1="28.281" x2="432.164" y2="28.281"/>
</g>
<g>
	<polyline fill="none" stroke="#000000" stroke-width="0.5" points="354.337,56.217 354.337,5.114 377.004,5.114 377.004,22.071 
		371.409,27.896 377.004,33.55 377.004,56.217 	"/>
	<line fill="none" stroke="#000000" stroke-width="0.5" x1="371.409" y1="27.896" x2="354.337" y2="27.896"/>
</g>
</svg>
