<?xml version="1.0" encoding="utf-8"?>
<!-- Generator: Adobe Illustrator 16.0.0, SVG Export Plug-In . SVG Version: 6.00 Build 0)  -->
<!DOCTYPE svg PUBLIC "-//W3C//DTD SVG 1.1//EN" "http://www.w3.org/Graphics/SVG/1.1/DTD/svg11.dtd">
<svg version="1.1" id="Layer_1" xmlns="http://www.w3.org/2000/svg" xmlns:xlink="http://www.w3.org/1999/xlink" x="0px" y="0px"
	 width="946.459px" height="77.228px" viewBox="7.147 231.236 946.459 77.228"
	 enable-background="new 7.147 231.236 946.459 77.228" xml:space="preserve">
<g>
	<path d="M12.48,291.93c2.634,2.634,5.687,4.747,9.174,6.348c3.48,1.593,7.146,2.393,10.987,2.393c4.98,0,8.813-1.047,11.52-3.146
		c2.7-2.094,4.053-4.854,4.053-8.267c0-1.78-0.32-3.286-0.96-4.534c-0.64-1.246-1.526-2.313-2.667-3.199s-2.474-1.68-4-2.394
		c-1.534-0.707-3.187-1.453-4.96-2.24l-10.026-4.374c-1.78-0.707-3.554-1.56-5.333-2.56c-1.78-1-3.4-2.2-4.854-3.627
		c-1.46-1.42-2.647-3.113-3.573-5.066c-0.927-1.954-1.387-4.213-1.387-6.773c0-2.633,0.566-5.087,1.707-7.36
		c1.133-2.273,2.72-4.247,4.747-5.92c2.027-1.667,4.447-2.967,7.253-3.894s5.88-1.387,9.227-1.387c4.413,0,8.467,0.8,12.16,2.4
		c3.7,1.6,6.827,3.68,9.387,6.24l-4.693,5.76c-2.28-2.06-4.787-3.68-7.52-4.854c-2.74-1.173-5.854-1.76-9.333-1.76
		c-4.267,0-7.64,0.907-10.134,2.72c-2.493,1.813-3.733,4.32-3.733,7.52c0,1.707,0.373,3.147,1.12,4.32s1.707,2.207,2.88,3.093
		c1.173,0.894,2.506,1.653,4,2.293c1.493,0.64,2.987,1.28,4.48,1.92l9.813,4.267c2.133,0.854,4.14,1.833,6.027,2.934
		c1.887,1.106,3.52,2.38,4.907,3.84s2.486,3.167,3.307,5.12c0.813,1.96,1.227,4.214,1.227,6.78c0,2.773-0.566,5.367-1.707,7.787
		c-1.14,2.413-2.773,4.526-4.907,6.34s-4.727,3.24-7.787,4.273c-3.06,1.026-6.506,1.54-10.347,1.54
		c-5.12,0-9.833-0.927-14.133-2.773c-4.3-1.847-8.054-4.374-11.253-7.573L12.48,291.93z"/>
	<path d="M70.401,281.37c0-4.333,0.693-8.193,2.08-11.574c1.387-3.374,3.253-6.24,5.6-8.587c2.347-2.347,5.067-4.126,8.16-5.333
		c3.093-1.207,6.347-1.813,9.76-1.813c3.413,0,6.667,0.6,9.76,1.813c3.094,1.207,5.813,2.986,8.16,5.333
		c2.347,2.347,4.213,5.213,5.6,8.587c1.387,3.38,2.08,7.233,2.08,11.574c0,4.267-0.693,8.087-2.08,11.467s-3.253,6.227-5.6,8.533
		c-2.347,2.313-5.066,4.066-8.16,5.28c-3.093,1.207-6.347,1.807-9.76,1.807c-3.414,0-6.667-0.606-9.76-1.807
		c-3.093-1.214-5.813-2.967-8.16-5.28s-4.213-5.153-5.6-8.533S70.401,285.637,70.401,281.37z M79.468,281.37
		c0,2.986,0.394,5.693,1.173,8.106c0.78,2.414,1.9,4.5,3.36,6.24c1.454,1.746,3.2,3.1,5.227,4.053
		c2.026,0.967,4.28,1.441,6.773,1.441c2.493,0,4.747-0.475,6.773-1.441c2.026-0.959,3.767-2.313,5.227-4.053
		c1.454-1.74,2.573-3.82,3.36-6.24c0.78-2.413,1.173-5.12,1.173-8.106c0-2.987-0.393-5.707-1.173-8.16
		c-0.787-2.454-1.906-4.567-3.36-6.347c-1.46-1.78-3.2-3.147-5.227-4.107c-2.027-0.96-4.287-1.44-6.773-1.44s-4.747,0.48-6.773,1.44
		c-2.027,0.96-3.773,2.333-5.227,4.107c-1.46,1.78-2.58,3.893-3.36,6.347C79.861,275.663,79.468,278.383,79.468,281.37z"/>
	<path d="M181.869,307.184h-7.146l-0.747-9.066h-0.426c-2.634,3.06-5.494,5.547-8.587,7.467s-6.667,2.88-10.72,2.88
		c-6.26,0-10.827-1.76-13.707-5.28c-2.88-3.514-4.32-8.727-4.32-15.627v-32.214h8.854v31.04c0,4.907,0.907,8.547,2.72,10.934
		c1.813,2.381,4.887,3.574,9.227,3.574c2.987,0,5.687-0.76,8.106-2.294c2.42-1.533,5.087-3.966,8-7.307v-35.947h8.747V307.184z"/>
	<path d="M207.569,255.343h7.253l0.747,12.267h0.32c2.7-4.193,6.027-7.5,9.974-9.92c3.946-2.42,8.333-3.626,13.173-3.626
		c1.92,0,3.693,0.16,5.333,0.48c1.633,0.32,3.273,0.874,4.907,1.653l-2.027,7.573c-1.847-0.64-3.4-1.1-4.64-1.387
		c-1.247-0.28-2.9-0.426-4.96-0.426c-3.914,0-7.66,1.12-11.253,3.36s-6.954,6.06-10.08,11.467v30.4h-8.747V255.343L207.569,255.343z
		"/>
	<path d="M264.53,281.37c0-4.333,0.767-8.193,2.293-11.574c1.527-3.374,3.607-6.24,6.24-8.587c2.633-2.347,5.707-4.126,9.227-5.333
		c3.52-1.213,7.233-1.813,11.147-1.813c4.267,0,7.947,0.747,11.04,2.24c3.093,1.494,5.707,3.273,7.84,5.333l-4.374,5.654
		c-2.133-1.847-4.354-3.307-6.667-4.374c-2.313-1.067-4.82-1.6-7.52-1.6c-2.987,0-5.727,0.48-8.213,1.44
		c-2.493,0.96-4.606,2.333-6.347,4.107c-1.747,1.78-3.113,3.893-4.107,6.347c-0.993,2.453-1.486,5.173-1.486,8.16
		c0,2.986,0.48,5.693,1.44,8.106c0.96,2.414,2.313,4.5,4.053,6.24c1.74,1.746,3.84,3.1,6.293,4.053
		c2.453,0.967,5.173,1.441,8.16,1.441c3.2,0,6.133-0.621,8.8-1.861c2.667-1.246,5.1-2.793,7.307-4.64l3.84,5.653
		c-2.847,2.561-6.027,4.554-9.547,5.974s-7.2,2.127-11.04,2.127c-4.053,0-7.807-0.606-11.253-1.807
		c-3.453-1.214-6.453-2.967-9.014-5.28c-2.56-2.313-4.553-5.153-5.973-8.533C265.25,289.463,264.53,285.637,264.53,281.37z"/>
	<path d="M327.365,281.37c0-4.267,0.747-8.087,2.24-11.467c1.493-3.38,3.467-6.24,5.92-8.587c2.454-2.347,5.26-4.147,8.427-5.387
		c3.167-1.24,6.42-1.867,9.76-1.867c3.693,0,7,0.586,9.92,1.76c2.913,1.173,5.387,2.827,7.407,4.96
		c2.026,2.133,3.573,4.693,4.64,7.68c1.066,2.987,1.6,6.293,1.6,9.92c0,0.927-0.013,1.827-0.053,2.72
		c-0.033,0.893-0.126,1.653-0.267,2.293h-40.534c0.073,2.773,0.62,5.268,1.653,7.467c1.033,2.207,2.42,4.087,4.16,5.653
		c1.74,1.567,3.807,2.773,6.187,3.627s4.994,1.28,7.84,1.28c3.053,0,5.847-0.427,8.373-1.28c2.527-0.854,5-2.026,7.414-3.513
		l3.093,5.753c-2.56,1.64-5.473,3.06-8.747,4.273c-3.273,1.206-7.007,1.807-11.2,1.807c-3.84,0-7.447-0.62-10.827-1.86
		c-3.374-1.246-6.327-3.02-8.854-5.34c-2.527-2.307-4.52-5.141-5.974-8.474C328.091,289.443,327.365,285.637,327.365,281.37z
		 M369.172,277.103c0-5.187-1.354-9.173-4.054-11.947c-2.707-2.773-6.473-4.16-11.307-4.16c-2.133,0-4.173,0.36-6.133,1.066
		c-1.954,0.713-3.713,1.76-5.28,3.147c-1.56,1.387-2.88,3.073-3.947,5.066c-1.066,1.994-1.78,4.267-2.133,6.827H369.172z"/>
	<path d="M455.04,272.196c0-5.613,0.76-10.667,2.293-15.146c1.533-4.48,3.68-8.287,6.453-11.414c2.773-3.127,6.08-5.527,9.92-7.2
		c3.841-1.667,8.034-2.507,12.587-2.507c4.268,0,8.001,0.854,11.2,2.56c3.2,1.707,5.834,3.7,7.894,5.974l-5.013,5.653
		c-1.847-1.92-3.914-3.467-6.188-4.64c-2.279-1.173-4.906-1.76-7.894-1.76c-3.34,0-6.387,0.66-9.12,1.973
		c-2.739,1.32-5.066,3.2-6.986,5.653c-1.92,2.454-3.4,5.42-4.427,8.907c-1.033,3.487-1.547,7.4-1.547,11.734
		c0,4.407,0.514,8.373,1.547,11.894c1.026,3.52,2.507,6.526,4.427,9.014c1.92,2.492,4.247,4.413,6.986,5.76
		c2.74,1.354,5.78,2.026,9.12,2.026c3.2,0,6.04-0.673,8.534-2.026c2.493-1.347,4.866-3.268,7.146-5.76l5.12,5.439
		c-2.773,3.193-5.9,5.693-9.387,7.467c-3.487,1.78-7.467,2.66-11.947,2.66c-4.413,0-8.479-0.813-12.213-2.446
		c-3.733-1.641-6.967-4.007-9.707-7.094s-4.887-6.894-6.454-11.413C455.819,282.983,455.04,277.89,455.04,272.196z"/>
	<path d="M518.4,281.37c0-4.333,0.693-8.193,2.08-11.574c1.387-3.374,3.247-6.24,5.601-8.587c2.346-2.347,5.066-4.126,8.16-5.333
		c3.093-1.213,6.347-1.813,9.76-1.813s6.667,0.6,9.76,1.813c3.094,1.207,5.813,2.986,8.167,5.333c2.347,2.347,4.214,5.213,5.6,8.587
		c1.387,3.38,2.08,7.233,2.08,11.574c0,4.267-0.693,8.087-2.08,11.467s-3.253,6.227-5.6,8.533c-2.354,2.313-5.073,4.066-8.167,5.28
		c-3.093,1.207-6.347,1.807-9.76,1.807s-6.667-0.606-9.76-1.807c-3.094-1.214-5.814-2.967-8.16-5.28
		c-2.354-2.313-4.214-5.153-5.601-8.533S518.4,285.637,518.4,281.37z M527.474,281.37c0,2.986,0.394,5.693,1.174,8.106
		c0.78,2.414,1.9,4.5,3.36,6.24c1.46,1.746,3.199,3.1,5.227,4.053c2.026,0.967,4.286,1.441,6.773,1.441
		c2.486,0,4.746-0.475,6.78-1.441c2.026-0.959,3.76-2.313,5.22-4.053s2.58-3.82,3.36-6.24c0.786-2.413,1.18-5.12,1.18-8.106
		c0-2.987-0.394-5.707-1.18-8.16c-0.78-2.454-1.9-4.567-3.36-6.347c-1.46-1.78-3.193-3.147-5.22-4.107
		c-2.041-0.96-4.301-1.44-6.787-1.44s-4.747,0.48-6.773,1.44s-3.767,2.333-5.227,4.107s-2.58,3.893-3.36,6.347
		C527.86,275.663,527.474,278.383,527.474,281.37z"/>
	<path d="M582.401,281.37c0-4.193,0.66-7.98,1.974-11.36c1.313-3.374,3.06-6.24,5.227-8.587s4.673-4.16,7.521-5.44
		c2.846-1.28,5.793-1.92,8.853-1.92c3.193,0,6.007,0.6,8.427,1.813c2.414,1.207,4.841,2.847,7.254,4.907l-0.32-9.6v-19.947h8.747
		v75.948h-7.253l-0.747-6.826h-0.32c-2.133,2.206-4.68,4.106-7.633,5.706c-2.947,1.594-6.021,2.394-9.228,2.394
		c-3.413,0-6.493-0.606-9.227-1.807c-2.74-1.214-5.106-2.967-7.094-5.28c-1.986-2.313-3.513-5.14-4.586-8.479
		C582.935,289.551,582.401,285.71,582.401,281.37z M591.468,281.264c0,6.26,1.327,11.133,4,14.613
		c2.674,3.48,6.421,5.227,11.254,5.227c5.12,0,9.987-2.6,14.607-7.787v-25.813c-2.348-2.207-4.641-3.767-6.881-4.693
		c-2.239-0.927-4.5-1.387-6.773-1.387c-2.279,0-4.393,0.48-6.347,1.44c-1.953,0.96-3.653,2.313-5.113,4.053
		c-1.46,1.747-2.62,3.827-3.474,6.24C591.895,275.577,591.468,278.276,591.468,281.264z"/>
	<path d="M647.355,281.37c0-4.267,0.747-8.087,2.247-11.467c1.493-3.38,3.467-6.24,5.92-8.587s5.26-4.147,8.427-5.387
		c3.167-1.24,6.42-1.867,9.76-1.867c3.7,0,7.007,0.586,9.921,1.76c2.913,1.173,5.38,2.827,7.413,4.96
		c2.026,2.133,3.573,4.693,4.634,7.68c1.066,2.987,1.6,6.293,1.6,9.92c0,0.927-0.021,1.827-0.054,2.72
		c-0.04,0.893-0.126,1.653-0.267,2.293h-40.533c0.073,2.773,0.626,5.268,1.653,7.467c1.026,2.207,2.413,4.087,4.159,5.653
		c1.747,1.567,3.801,2.773,6.188,3.627s5,1.28,7.847,1.28c3.053,0,5.847-0.427,8.373-1.28c2.521-0.854,4.993-2.026,7.407-3.513
		l3.1,5.753c-2.566,1.64-5.479,3.06-8.747,4.273c-3.267,1.206-7.007,1.807-11.2,1.807c-3.84,0-7.453-0.62-10.826-1.86
		c-3.38-1.246-6.334-3.02-8.854-5.34c-2.526-2.307-4.521-5.141-5.974-8.474S647.355,285.637,647.355,281.37z M689.176,277.103
		c0-5.187-1.353-9.173-4.053-11.947s-6.474-4.16-11.301-4.16c-2.133,0-4.18,0.36-6.133,1.066c-1.96,0.713-3.72,1.76-5.28,3.147
		c-1.566,1.387-2.887,3.073-3.953,5.066c-1.061,1.994-1.78,4.267-2.127,6.827H689.176z"/>
	<path d="M778.878,237.209h21.439c3.841,0,7.36,0.36,10.561,1.066c3.2,0.707,5.927,1.867,8.167,3.467s3.979,3.72,5.227,6.347
		c1.247,2.633,1.86,5.867,1.86,9.707c0,3.7-0.62,6.9-1.86,9.6c-1.253,2.7-3.007,4.94-5.28,6.72c-2.28,1.78-5,3.113-8.167,4
		c-3.166,0.887-6.666,1.333-10.507,1.333h-12.586v27.733h-8.854V237.209z M799.145,272.196c6.187,0,10.753-1.153,13.707-3.466
		c2.953-2.307,4.427-5.954,4.427-10.934c0-5.047-1.514-8.547-4.533-10.507c-3.021-1.96-7.561-2.934-13.601-2.934h-11.413v27.84
		H799.145z"/>
	<path d="M847.571,255.343h7.254l0.747,12.267h0.319c2.7-4.193,6.027-7.5,9.974-9.92c3.947-2.42,8.334-3.626,13.174-3.626
		c1.92,0,3.7,0.16,5.34,0.48c1.634,0.32,3.267,0.874,4.9,1.653l-2.027,7.573c-1.847-0.64-3.399-1.1-4.64-1.387
		c-1.247-0.28-2.9-0.426-4.96-0.426c-3.907,0-7.66,1.12-11.254,3.36c-3.593,2.24-6.953,6.06-10.08,11.467v30.4h-8.747V255.343z"/>
	<path d="M902.399,281.37c0-4.333,0.693-8.193,2.08-11.574c1.387-3.374,3.246-6.24,5.6-8.587c2.347-2.347,5.066-4.126,8.16-5.333
		c3.094-1.213,6.347-1.813,9.76-1.813c3.414,0,6.667,0.6,9.761,1.813c3.094,1.207,5.813,2.986,8.167,5.333
		c2.347,2.347,4.213,5.213,5.6,8.587c1.387,3.38,2.08,7.233,2.08,11.574c0,4.267-0.693,8.087-2.08,11.467s-3.253,6.227-5.6,8.533
		c-2.354,2.313-5.073,4.066-8.167,5.28c-3.094,1.207-6.347,1.807-9.761,1.807c-3.413,0-6.666-0.606-9.76-1.807
		c-3.094-1.214-5.813-2.967-8.16-5.28c-2.354-2.313-4.213-5.153-5.6-8.533S902.399,285.637,902.399,281.37z M911.466,281.37
		c0,2.986,0.394,5.693,1.174,8.106c0.779,2.414,1.899,4.5,3.359,6.24c1.46,1.746,3.2,3.1,5.227,4.053
		c2.027,0.967,4.287,1.441,6.773,1.441c2.487,0,4.747-0.475,6.78-1.441c2.027-0.959,3.761-2.313,5.221-4.053s2.58-3.82,3.359-6.24
		c0.787-2.413,1.181-5.12,1.181-8.106c0-2.987-0.394-5.707-1.181-8.16c-0.779-2.454-1.899-4.567-3.359-6.347
		c-1.46-1.78-3.193-3.147-5.221-4.107c-2.033-0.96-4.293-1.44-6.78-1.44c-2.486,0-4.746,0.48-6.773,1.44
		c-2.026,0.96-3.767,2.333-5.227,4.107s-2.58,3.893-3.359,6.347C911.859,275.663,911.466,278.383,911.466,281.37z"/>
</g>
</svg>
