<svg xmlns="http://www.w3.org/2000/svg" width="960" height="174.684"><path fill="#999" d="M106.233 148.192c-3.41 0-6.732-.636-9.972-1.908-3.24-1.27-6.15-3.204-8.74-5.796-2.49-2.544-4.4-5.41-5.72-8.604-1.32-3.192-1.98-6.563-1.98-10.116 0-3.6.66-6.995 1.98-10.188 1.32-3.19 3.23-6.036 5.73-8.532 2.59-2.592 5.52-4.536 8.79-5.832 3.27-1.296 6.59-1.944 9.98-1.944 3.38 0 6.7.648 9.94 1.944 3.24 1.296 6.16 3.24 8.75 5.832l-8.56 8.568c-1.39-1.392-2.98-2.436-4.75-3.132-1.77-.695-3.57-1.044-5.4-1.044-1.82 0-3.61.35-5.36 1.044-1.75.696-3.32 1.74-4.71 3.132-1.34 1.393-2.37 2.952-3.09 4.68-.72 1.728-1.08 3.553-1.08 5.472 0 1.92.36 3.733 1.08 5.436.72 1.705 1.75 3.252 3.1 4.644 1.39 1.393 2.96 2.437 4.72 3.132 1.75.697 3.538 1.044 5.36 1.044 1.827 0 3.627-.347 5.4-1.044 1.778-.695 3.36-1.74 4.755-3.132l8.564 8.64c-2.595 2.592-5.5 4.524-8.715 5.796-3.217 1.272-6.55 1.908-10.01 1.908zm45.11-52.848c3.642 0 7.07.696 10.28 2.088 3.212 1.393 6.017 3.276 8.413 5.652 2.396 2.376 4.29 5.173 5.68 8.388 1.39 3.216 2.086 6.65 2.086 10.296 0 3.648-.695 7.08-2.086 10.296-1.39 3.217-3.284 6.012-5.68 8.388-2.396 2.376-5.2 4.26-8.413 5.652-3.212 1.393-6.64 2.088-10.28 2.088-3.644 0-7.072-.695-10.284-2.088-3.22-1.392-6.01-3.276-8.38-5.652-2.38-2.376-4.26-5.17-5.65-8.388-1.39-3.215-2.09-6.647-2.09-10.296 0-3.647.69-7.08 2.08-10.296 1.39-3.215 3.27-6.012 5.64-8.388 2.37-2.376 5.16-4.26 8.37-5.652 3.21-1.392 6.64-2.088 10.28-2.088zm.034 40.68c1.968 0 3.816-.372 5.544-1.117 1.73-.744 3.24-1.764 4.54-3.06s2.32-2.808 3.06-4.536c.75-1.72 1.12-3.57 1.12-5.54 0-1.97-.37-3.81-1.11-5.54-.74-1.73-1.76-3.24-3.06-4.53-1.29-1.29-2.81-2.31-4.53-3.06-1.72-.74-3.57-1.11-5.54-1.11-1.97 0-3.81.38-5.54 1.12-1.73.75-3.24 1.77-4.53 3.06-1.3 1.3-2.32 2.81-3.06 4.54-.75 1.73-1.12 3.58-1.12 5.55 0 1.97.37 3.81 1.12 5.54.75 1.73 1.77 3.24 3.06 4.54 1.3 1.3 2.81 2.32 4.54 3.06 1.73.75 3.58 1.12 5.55 1.12zm61.56 12.24h-31.464v-52.92h12.168v40.752h19.3v12.168zm27.755-52.92c3.643 0 7.07.696 10.28 2.088 3.213 1.393 6.018 3.276 8.414 5.652 2.396 2.376 4.29 5.173 5.68 8.388 1.39 3.216 2.086 6.65 2.086 10.296 0 3.648-.695 7.08-2.086 10.296-1.39 3.217-3.284 6.012-5.68 8.388-2.396 2.376-5.2 4.26-8.413 5.652-3.212 1.393-6.64 2.088-10.28 2.088-3.644 0-7.072-.695-10.284-2.088-3.22-1.392-6.01-3.276-8.38-5.652-2.38-2.376-4.26-5.17-5.65-8.388-1.39-3.215-2.09-6.647-2.09-10.296 0-3.647.69-7.08 2.08-10.296 1.39-3.215 3.27-6.012 5.64-8.388 2.37-2.376 5.16-4.26 8.37-5.652 3.21-1.392 6.64-2.088 10.28-2.088zm.036 40.68c1.968 0 3.816-.372 5.544-1.117 1.728-.744 3.24-1.764 4.536-3.06s2.315-2.808 3.06-4.536c.744-1.72 1.116-3.57 1.116-5.54 0-1.97-.373-3.81-1.116-5.54-.745-1.73-1.764-3.24-3.06-4.53s-2.808-2.31-4.536-3.06c-1.728-.74-3.576-1.11-5.544-1.11-1.97 0-3.816.38-5.544 1.12-1.728.75-3.24 1.77-4.536 3.06-1.296 1.3-2.316 2.81-3.06 4.54-.745 1.73-1.116 3.58-1.116 5.55 0 1.97.37 3.81 1.116 5.54.744 1.73 1.764 3.24 3.06 4.54s2.808 2.32 4.536 3.06c1.728.75 3.575 1.12 5.544 1.12zm65.375-40.68h12.528l3.1 52.92h-12.17l-1.29-21.6-7.34 21.6h-12.17l-7.78-22.464-1.44 22.464H267.3l3.383-52.92h12.528l11.6 33.12 11.3-33.12zm47.737 21.096c2.254 1.68 4.03 3.707 5.327 6.083 1.296 2.376 1.944 4.957 1.944 7.74 0 2.497-.52 4.836-1.58 7.02-1.05 2.185-2.51 4.093-4.35 5.724-1.85 1.632-3.99 2.916-6.44 3.852-2.45.93-5.06 1.4-7.85 1.4H325.4V95.2l14.04.072c2.206 0 4.294.385 6.263 1.152 1.968.768 3.696 1.812 5.184 3.132 1.487 1.32 2.652 2.856 3.492 4.608.83 1.753 1.26 3.636 1.26 5.652 0 2.4-.61 4.608-1.8 6.623zm-16.273-9.072v4.896h1.944c1.2-.048 2.16-.34 2.88-.876.72-.536 1.08-1.072 1.08-1.607 0-.48-.36-1.01-1.08-1.57-.72-.56-1.7-.84-2.95-.84h-1.87zm3.312 28.728c1.05 0 2.07-.156 3.06-.47.98-.314 1.84-.737 2.59-1.268.74-.53 1.33-1.147 1.76-1.847s.65-1.43.65-2.21c0-.77-.22-1.52-.65-2.24s-1.02-1.35-1.77-1.88c-.75-.53-1.61-.95-2.59-1.27-.99-.31-2.01-.47-3.06-.47h-3.32v11.66h3.31zm54.86 12.168l-2.09-6.408h-16.63l-2.16 6.408h-12.89l18-52.848h11.52l17.06 52.848h-12.81zm-14.55-18.576h8.57l-4.18-12.816-4.4 12.816zm46.94 4.895c-.63.097-1.25.17-1.87.216-.63.04-1.28.09-1.95.14v13.32h-12.16V95.63h12.16c3.02.048 5.86.6 8.5 1.654 2.64 1.055 4.96 2.47 6.95 4.242 1.99 1.774 3.55 3.835 4.68 6.184s1.69 4.866 1.69 7.55c0 2.828-.6 5.453-1.8 7.874-1.2 2.42-2.88 4.518-5.04 6.29l11.66 18.84h-14.32l-8.5-13.682zm-3.82-11.88c1.29-.046 2.53-.274 3.71-.683 1.17-.407 2.2-.947 3.09-1.62.88-.672 1.58-1.452 2.08-2.34.5-.888.75-1.836.75-2.844 0-1.008-.26-1.944-.76-2.808-.51-.864-1.2-1.63-2.09-2.304-.89-.67-1.92-1.21-3.1-1.62-1.18-.407-2.41-.636-3.71-.684v14.904z"/><path fill="#FFF" d="M479.08 95.344c3.644 0 7.07.696 10.282 2.088 3.212 1.393 6.017 3.276 8.413 5.652s4.29 5.173 5.68 8.388c1.39 3.216 2.086 6.65 2.086 10.296 0 3.648-.69 7.08-2.08 10.296-1.39 3.217-3.28 6.012-5.68 8.388s-5.2 4.26-8.41 5.652c-3.21 1.393-6.64 2.088-10.28 2.088s-7.07-.695-10.28-2.088c-3.21-1.392-6-3.276-8.37-5.652-2.37-2.376-4.25-5.17-5.64-8.388-1.39-3.215-2.08-6.647-2.08-10.296 0-3.647.7-7.08 2.09-10.296 1.39-3.215 3.27-6.012 5.64-8.388 2.38-2.376 5.17-4.26 8.38-5.652 3.21-1.392 6.64-2.088 10.28-2.088zm.037 40.68c1.968 0 3.816-.372 5.544-1.117 1.73-.744 3.24-1.764 4.54-3.06s2.32-2.808 3.06-4.536c.75-1.72 1.12-3.57 1.12-5.54 0-1.97-.37-3.81-1.11-5.54-.74-1.73-1.76-3.24-3.06-4.53-1.29-1.29-2.81-2.31-4.53-3.06-1.72-.74-3.57-1.11-5.54-1.11-1.97 0-3.81.38-5.54 1.12-1.73.75-3.24 1.77-4.53 3.06-1.29 1.3-2.31 2.81-3.06 4.54-.74 1.73-1.11 3.58-1.11 5.55 0 1.97.38 3.81 1.12 5.54.75 1.73 1.77 3.24 3.06 4.54s2.81 2.32 4.54 3.06c1.73.75 3.58 1.12 5.55 1.12z"/><path fill="#999" d="M320.99 79.19c-3.41 0-6.732-.636-9.972-1.908-3.24-1.27-6.156-3.204-8.748-5.796-2.497-2.544-4.404-5.41-5.724-8.604-1.32-3.192-1.98-6.563-1.98-10.116 0-3.6.66-6.995 1.98-10.188 1.32-3.19 3.228-6.036 5.724-8.532 2.592-2.592 5.52-4.536 8.784-5.832 3.264-1.296 6.588-1.944 9.972-1.944 3.384 0 6.696.648 9.936 1.944 3.24 1.296 6.156 3.24 8.748 5.832l-8.568 8.568c-1.393-1.392-2.977-2.436-4.752-3.132-1.776-.695-3.577-1.044-5.4-1.044-1.825 0-3.612.35-5.364 1.044-1.753.696-3.324 1.74-4.716 3.132-1.345 1.393-2.376 2.952-3.096 4.68-.72 1.728-1.08 3.553-1.08 5.472 0 1.92.36 3.733 1.08 5.436.72 1.705 1.75 3.252 3.096 4.644 1.392 1.393 2.963 2.437 4.716 3.132 1.75.697 3.54 1.044 5.364 1.044 1.824 0 3.624-.347 5.4-1.044 1.775-.695 3.36-1.74 4.752-3.132l8.568 8.64c-2.592 2.592-5.497 4.524-8.712 5.796-3.216 1.272-6.552 1.908-10.008 1.908zm38.304-13.608c-.625.097-1.25.17-1.872.216-.625.048-1.272.097-1.944.144v13.32H343.31V26.63h12.168c3.024.048 5.855.6 8.496 1.654 2.64 1.055 4.956 2.47 6.948 4.242 1.99 1.774 3.552 3.835 4.68 6.184 1.127 2.35 1.692 4.865 1.692 7.55 0 2.827-.6 5.452-1.8 7.873-1.2 2.42-2.88 4.518-5.04 6.29l11.664 18.84H367.79l-8.496-13.68zm-3.815-11.88c1.29-.047 2.53-.275 3.7-.684 1.17-.407 2.2-.947 3.09-1.62.89-.672 1.58-1.452 2.09-2.34.5-.888.75-1.836.75-2.844 0-1.008-.25-1.944-.76-2.808-.51-.864-1.2-1.63-2.09-2.304-.89-.67-1.92-1.21-3.1-1.62-1.18-.407-2.41-.636-3.71-.684v14.904zm64.94-15.12h-21.75v7.992h17.64v12.168h-17.64v8.352h21.74v12.168H386.5V26.414h33.91v12.168zm-22.68-16.56l5.83-12.17h10.94l-5.91 12.17h-10.87zm59.11 57.24l-2.09-6.408h-16.63l-2.16 6.408h-12.89l18-52.848h11.52l17.06 52.848h-12.81zm-14.54-18.576h8.56L446.7 47.87l-4.39 12.816zm61.27-34.488v12.168h-10.15v40.896h-12.17V38.366h-10.08V26.198h32.4zm17.35 53.064h-12.17v-52.92h12.16v52.92zm29.98-52.92c3.64 0 7.07.696 10.28 2.088 3.21 1.393 6.02 3.276 8.41 5.652 2.39 2.376 4.29 5.173 5.68 8.388 1.39 3.216 2.08 6.65 2.08 10.296 0 3.648-.69 7.08-2.09 10.296-1.39 3.217-3.29 6.012-5.68 8.388-2.4 2.376-5.2 4.26-8.42 5.652-3.21 1.393-6.64 2.088-10.28 2.088s-7.07-.695-10.28-2.088c-3.21-1.392-6-3.276-8.38-5.652-2.37-2.376-4.25-5.17-5.65-8.388-1.39-3.215-2.09-6.647-2.09-10.296 0-3.647.69-7.08 2.08-10.296 1.39-3.215 3.27-6.012 5.64-8.388 2.37-2.376 5.16-4.26 8.37-5.652 3.21-1.392 6.64-2.088 10.28-2.088zm.03 40.68c1.97 0 3.81-.372 5.54-1.117 1.73-.744 3.24-1.764 4.53-3.06s2.31-2.808 3.06-4.536 1.11-3.58 1.11-5.55-.38-3.82-1.12-5.55-1.77-3.24-3.06-4.54c-1.3-1.3-2.81-2.32-4.54-3.06-1.73-.75-3.58-1.12-5.55-1.12-1.97 0-3.82.37-5.55 1.11-1.73.74-3.24 1.76-4.54 3.06-1.3 1.29-2.32 2.8-3.06 4.53-.75 1.73-1.12 3.57-1.12 5.54 0 1.97.37 3.81 1.12 5.54.74 1.72 1.76 3.24 3.06 4.53s2.81 2.31 4.53 3.06c1.73.74 3.57 1.11 5.54 1.11zm60.56-40.608h12.16v52.848H610.5l-17.28-30.816v30.816h-12.17V26.558h13.25l17.208 30.744V26.414zm34.56 53.856c-1.68 0-3.35-.228-5.01-.684-1.66-.456-3.23-1.164-4.72-2.124-2.6-1.68-4.61-3.852-6.05-6.516s-2.16-5.58-2.16-8.748h12.17c0 1.44.31 2.556.93 3.348.62.792 1.17 1.332 1.65 1.62.86.576 1.8.89 2.81.936 1 .048 1.99-.144 2.95-.576.67-.288 1.21-.648 1.62-1.08.4-.432.72-.852.93-1.26.21-.407.34-.803.39-1.188.05-.383.07-.695.07-.936 0-.24-.03-.55-.07-.936-.05-.383-.18-.792-.4-1.224-.217-.432-.53-.852-.937-1.26-.41-.407-.95-.78-1.62-1.116-.53-.24-1.093-.456-1.69-.648-.6-.19-1.24-.407-1.91-.648-1.2-.383-2.45-.815-3.745-1.296-1.298-.48-2.59-1.127-3.89-1.944-1.68-1.055-3.1-2.376-4.25-3.96s-1.98-3.287-2.485-5.112c-.5-1.823-.67-3.708-.5-5.652.17-1.944.71-3.804 1.62-5.58.87-1.63 1.95-3.047 3.24-4.248 1.3-1.2 2.74-2.147 4.32-2.844 1.59-.695 3.29-1.116 5.11-1.26 1.83-.144 3.68.025 5.55.504 1.82.432 3.47 1.116 4.95 2.052 1.48.936 2.756 2.064 3.83 3.384 1.07 1.32 1.896 2.796 2.47 4.428.57 1.632.858 3.337.858 5.112H650c0-1.104-.35-1.872-1.044-2.304s-1.3-.72-1.83-.864c-.09 0-.32-.036-.68-.108-.36-.072-.77-.072-1.224 0-.46.072-.93.24-1.41.504-.48.265-.86.684-1.15 1.26-.385.77-.46 1.573-.22 2.412.24.84.72 1.5 1.44 1.98.67.385 1.42.732 2.23 1.044.82.313 1.68.612 2.596.9.817.24 1.64.504 2.48.792.84.288 1.69.625 2.55 1.008 3.15 1.44 5.62 3.553 7.41 6.336 1.79 2.784 2.686 5.88 2.686 9.288 0 3.36-.9 6.433-2.69 9.216-1.79 2.784-4.26 4.896-7.406 6.336-1.24.576-2.51.996-3.806 1.26-1.29.263-2.59.396-3.886.396z"/></svg>