<svg xmlns="http://www.w3.org/2000/svg" width="946.459" height="77.229"><path d="M61.764 10.645V9.203H9.87v59.213h51.894V66.53h7.43v11.09H0V0h69.194v10.645h-7.43zM109.88 38.81H98.126V0h32.933v7.54h-24.51v22.842h24.616v6.1h16.3v7.873h-29.05v24.95h29.05v8.315h-37.59V38.81zm78.28 0h-11.755V0h32.933v7.54h-24.506v22.842h24.617v6.1h16.3v7.873h-29.057v24.95h29.052v8.315h-37.592V38.81zm144.802 0h-11.754V0h32.933v7.54h-24.5v22.842h24.618v6.1h16.3v7.873H341.5v24.95h29.053v8.315h-37.59V38.81zm66.525 38.81V0h9.647v49.013h18.074V.22h9.87v77.29h-9.648V57.994h-18.074V77.62h-9.87zm66.525-.11V0h8.872v77.51h-8.872zm24.285 0V0h8.87v77.51h-8.87zM523.452.11v77.51h-8.87V.11h8.87zm40.688 38.7h-11.755V0h32.933v7.54h-24.505v22.842h24.616v6.1h16.3v7.873h-29.057v24.95h29.053v8.315h-37.59V38.81z"/></svg>