<svg xmlns="http://www.w3.org/2000/svg" viewBox="7.813 5.5 708.96 106.336"><path d="M9.68 59.756l-1.867-45.92h15.493l-1.867 45.92 1.866 50.773H7.813L9.68 59.755zM58.4 63.117l1.306 47.6H45.333l1.493-47.6-2.24-16.613v-.188h13.44l.187 9.893 2.427-2.054c5.6-4.853 12.32-9.146 19.227-9.146 11.947 0 17.92 9.333 18.48 23.707l1.494 42H85.468l1.12-37.707c.373-12.507-5.6-15.12-13.627-15.12-5.042-.187-10.268 2.24-14.56 5.227zM135.68 110.53h-14l1.68-55.813h-10.64v-9.894l10.267 1.307-.187-8.027c-.374-10.453 3.546-26.693 26.506-26.693 5.227 0 13.067.748 16.987 2.24l2.613 14h-.187c-5.974-3.173-14-5.227-19.228-5.227-12.133 0-14.56 7.28-14.934 18.293v5.787l37.147-1.68 1.867 65.706h-14.374l1.68-55.814h-26.88l1.682 55.814zM205.866 63.117l1.307 47.6H192.8l1.493-47.6-2.24-16.613v-.188h13.44l.187 9.893 2.427-2.054c5.6-4.853 12.32-9.146 19.227-9.146 11.947 0 17.92 9.333 18.48 23.707l1.493 42h-14.374l1.12-37.707c.373-12.507-5.6-15.12-13.627-15.12-5.04-.187-10.266 2.24-14.56 5.227zM281.652 26.53c0 4.853-3.546 7.84-8.026 7.84-4.293 0-8.026-2.987-8.026-7.84 0-4.667 3.733-7.28 8.026-7.28 4.48 0 8.026 2.8 8.026 7.28zm-2.425 19.6v.374l1.867 64.213H266.72l1.492-47.6-2.426-16.613v-.188h13.44v-.185zM343.253 63.863l1.307 46.667h-14.374l1.494-47.6-2.427-16.427v-.188h13.438l.19 10.64 3.173-2.612c5.227-4.293 10.267-9.147 16.427-9.147 1.493 0 3.36 0 5.228.187l2.612 16.055h-.187c-3.733-1.867-7.28-2.614-12.135-2.614-4.852-.187-10.64 2.24-14.745 5.04zM437.146 77.304c0 18.853-10.64 34.532-30.053 34.532s-30.054-15.68-30.054-34.532c0-17.733 10.825-32.48 30.053-32.48 19.226 0 30.053 14.932 30.053 32.48zm-12.694.373c0-11.2-5.973-20.907-17.358-20.907-11.387 0-17.36 9.707-17.36 20.907 0 13.627 5.6 24.454 17.36 24.454s17.358-10.826 17.358-24.453zM466.452 62.744l1.308 47.786h-14.373l1.493-47.6-2.24-16.427v-.188h13.44l.187 9.707 2.054-1.867c5.602-4.853 11.574-9.332 18.294-9.332 8.027 0 13.254 4.666 15.867 12.32l3.547-3.174c5.602-4.855 11.574-9.334 18.294-9.334 11.39 0 17.174 9.333 17.734 23.52l1.493 42.188h-14.374l1.12-37.894c.373-12.32-4.854-14.748-13.067-14.748-4.293 0-9.333 2.053-13.253 5.04.187 1.867.373 3.546.56 5.6l1.308 42.188H491.47l1.307-37.894c.373-12.32-4.854-14.747-13.065-14.747-4.484 0-9.337 1.866-13.258 4.854zM595.065 104.557c-4.853 3.547-10.64 7.28-16.427 7.28-12.32 0-19.228-8.214-19.228-18.107 0-16.24 15.494-19.974 29.867-19.974 1.866 0 4.293.188 6.72.188l.188-3.36c.374-12.507-5.6-14.747-13.066-14.747-6.906 0-13.44 2.24-20.533 5.414h-.188l2.426-15.12c4.854-.56 14-1.493 20.16-1.493 15.12 0 22.586 9.333 23.146 23.707l1.492 42H595.25l-.185-5.787zm.188-7.84l.373-11.2c-3.175-1.68-7.653-2.613-10.827-2.613-7.84 0-12.694 3.548-12.694 9.707 0 5.788 4.107 9.708 10.454 9.708 4.293.186 8.586-2.242 12.693-5.6zM643.226 26.53c0 4.853-3.546 7.84-8.026 7.84-4.293 0-8.025-2.987-8.025-7.84 0-4.667 3.732-7.28 8.025-7.28 4.48 0 8.026 2.8 8.026 7.28zm-2.427 19.6v.374l1.866 64.213h-14.373l1.492-47.6-2.24-16.613v-.188H640.8v-.185zM675.332 63.117l1.307 47.6h-14.374l1.493-47.6-2.24-16.613v-.188h13.44l.186 9.893 2.427-2.054c5.602-4.853 12.32-9.146 19.228-9.146 11.947 0 17.92 9.333 18.48 23.707l1.493 42H702.4l1.12-37.707c.373-12.507-5.6-15.12-13.627-15.12-5.04-.187-10.267 2.24-14.56 5.227z"/></svg>