<svg xmlns="http://www.w3.org/2000/svg" width="540.729" height="88.114"><path d="M33.516 1.703c3.93 0 7.61.756 11.037 2.268 3.428 1.52 6.413 3.68 8.953 6.48 2.54 2.81 4.554 6.19 6.04 10.12 1.486 3.94 2.23 8.35 2.23 13.25s-.745 9.32-2.23 13.25c-1.486 3.94-3.5 7.31-6.04 10.12-2.54 2.81-5.525 4.97-8.953 6.48-3.428 1.51-7.106 2.27-11.037 2.27s-7.61-.75-11.04-2.26c-3.427-1.51-6.423-3.66-8.988-6.44-2.565-2.78-4.578-6.15-6.04-10.11s-2.193-8.39-2.193-13.28.73-9.31 2.193-13.25c1.462-3.93 3.475-7.31 6.04-10.11s5.56-4.97 8.99-6.48c3.427-1.51 7.107-2.27 11.038-2.27zm.036 6.767c-3.024 0-5.76.588-8.208 1.764-2.448 1.177-4.536 2.856-6.264 5.04-1.728 2.185-3.06 4.85-3.996 7.992-.936 3.144-1.404 6.66-1.404 10.548 0 3.216.468 5.868 1.404 7.956.936 2.09 2.268 3.744 3.996 4.97 1.728 1.223 3.816 2.075 6.264 2.555 2.448.48 5.184.72 8.208.72s5.76-.24 8.208-.72c2.448-.48 4.536-1.332 6.264-2.556 1.728-1.23 3.048-2.88 3.96-4.97.91-2.09 1.368-4.74 1.368-7.96 0-3.89-.457-7.41-1.368-10.55-.912-3.15-2.232-5.81-3.96-7.99-1.728-2.19-3.816-3.87-6.264-5.04-2.448-1.18-5.184-1.77-8.208-1.77zm46.944 69.697c-.097 1.152-.696 1.728-1.8 1.728h-4.608c-1.25 0-1.8-.624-1.656-1.872l2.808-21.96.072-28.15c0-1.2.6-1.8 1.8-1.8h2.736c1.343 0 1.872.647 1.584 1.943v.216c-.385 1.68.047 1.872 1.296.576C85.27 26.016 88.8 24.6 93.312 24.6c2.35 0 4.56.493 6.624 1.476 2.063.984 3.852 2.39 5.364 4.212 1.512 1.825 2.7 4.008 3.564 6.552.864 2.545 1.296 5.354 1.296 8.424 0 3.697-.41 6.853-1.224 9.468-.817 2.617-1.97 4.753-3.456 6.408-1.488 1.656-3.265 2.87-5.328 3.637-2.064.767-4.345 1.15-6.84 1.15-.48 0-1.152-.01-2.016-.035-.864-.024-1.776-.12-2.736-.288-.96-.168-1.92-.456-2.88-.863-.96-.4-1.776-.97-2.448-1.69-.53-.62-.96-.89-1.296-.79-.336.1-.53.56-.576 1.37l-.864 14.54zm24.84-33.162c0-4.785-.985-8.507-2.953-11.164-1.97-2.65-4.68-3.98-8.136-3.98s-6.145 1.33-8.064 3.99c-1.92 2.66-2.88 6.38-2.88 11.17 0 2.4.263 4.31.792 5.75.527 1.44 1.283 2.55 2.268 3.34.983.79 2.17 1.32 3.564 1.58 1.392.27 2.952.4 4.68.4s3.25-.13 4.572-.39c1.31-.26 2.43-.79 3.34-1.58.91-.79 1.61-1.9 2.09-3.33.48-1.43.72-3.35.72-5.74zm50.184-2.407c0 1.2-.577 1.8-1.73 1.8h-24.263c-1.152 0-1.728.602-1.728 1.8 0 2.113.22 3.806.68 5.077.45 1.27 1.19 2.268 2.19 2.987 1 .72 2.31 1.2 3.92 1.44s3.58.36 5.94.36c2.16 0 4.36-.048 6.62-.145 2.25-.096 4.12-.335 5.61-.72.58-.145 1.05-.132 1.44.036.38.168.58.588.58 1.26l.07 5.256c0 1-.43 1.68-1.3 2.01-1.01.53-1.98.95-2.92 1.26-.94.31-1.92.54-2.96.68-1.03.14-2.15.22-3.35.25-1.2.02-2.55.01-4.03-.04-6.82-.19-11.82-1.91-15.01-5.15-3.19-3.24-4.74-8.03-4.64-14.37.04-3.22.5-6.17 1.37-8.86.86-2.69 2.09-5 3.7-6.92 1.61-1.92 3.56-3.41 5.87-4.47 2.3-1.06 4.94-1.59 7.92-1.59 1.96 0 3.91.37 5.83 1.11s3.64 1.85 5.15 3.31c1.51 1.47 2.72 3.28 3.64 5.44.91 2.16 1.37 4.65 1.37 7.48v.642zm-6.625-3.527c.623 0 1.055-.18 1.296-.54.24-.36.32-.82.22-1.4-.48-2.73-1.69-4.9-3.63-6.51-1.94-1.6-4.35-2.41-7.23-2.41-1.58 0-3.05.23-4.39.69-1.34.46-2.53 1.09-3.56 1.91-1.03.82-1.87 1.78-2.52 2.88-.65 1.11-1.04 2.31-1.19 3.6-.14 1.25.41 1.88 1.66 1.88l19.37-.07zm53.855 24.05c.144 1.2-.432 1.8-1.728 1.8h-7.056c-1.2 0-1.776-.6-1.728-1.8l1.296-22.1c.432-7.44-2.232-11.16-7.992-11.16-4.032 0-7.068 1.11-9.108 3.31-2.04 2.21-2.893 5.26-2.556 9.15l1.728 20.81c.047 1.2-.53 1.8-1.728 1.8h-6.12c-1.152 0-1.728-.6-1.728-1.8l1.008-36.21c0-1.15.593-1.73 1.78-1.73h2.99c1.14 0 1.71.6 1.71 1.8v.29c0 .77.204 1.25.612 1.44.407.2.9.08 1.476-.36 1.392-.96 2.976-1.82 4.752-2.59 1.775-.77 3.744-1.15 5.904-1.15 4.51 0 7.848 1.38 10.008 4.14 2.16 2.76 3.528 6.9 4.104 12.42l2.376 21.96zm10.512-58.1c0-1.34.672-2.01 2.016-2.01h15.192c4.943 0 9.54.61 13.788 1.84s7.93 3.11 11.052 5.65c3.12 2.55 5.567 5.75 7.344 9.61 1.775 3.87 2.664 8.46 2.664 13.79 0 5.33-.89 9.94-2.664 13.83-1.776 3.89-4.237 7.12-7.38 9.69-3.145 2.57-6.84 4.47-11.088 5.69s-8.82 1.84-13.716 1.84h-15.192c-1.344 0-2.016-.67-2.016-2.01V5.02zm10.872 4.83c-1.344 0-2.016.7-2.016 2.09v36.28c0 1.35.672 2.02 2.016 2.02h8.064c3.07 0 6.072-.18 9-.53 2.927-.36 5.532-1.12 7.812-2.27 2.28-1.15 4.115-2.8 5.508-4.93 1.392-2.14 2.088-5.01 2.088-8.61 0-3.65-.48-6.96-1.44-9.93-.96-2.97-2.437-5.5-4.428-7.59-1.992-2.09-4.525-3.69-7.596-4.82-3.073-1.12-6.72-1.69-10.944-1.69h-8.064zm74.663 58.61c-1.393 3.6-2.797 6.52-4.212 8.75-1.417 2.23-2.833 3.97-4.248 5.22-1.417 1.25-2.856 2.09-4.32 2.52-1.464.44-2.916.65-4.356.65h-4.1c-1.15 0-1.73-.57-1.73-1.73v-5.4c0-1.15.58-1.73 1.73-1.73h2.74c1.25 0 2.52-.43 3.82-1.29 1.3-.86 2.52-1.97 3.67-3.31 1.16-1.34 2.2-2.83 3.14-4.46s1.67-3.24 2.2-4.82c.1-.33.18-.7.25-1.11.08-.4-.01-.83-.25-1.26l-15.34-32.84c-.28-.62-.3-1.12-.03-1.51.27-.38.73-.57 1.41-.57h3.17c.86 0 1.56.41 2.09 1.23l11.87 19.5c.39.63.81.93 1.26.9.46-.02.85-.37 1.19-1.04l9-19.3c.44-.86 1.11-1.29 2.02-1.29h3.39c.67 0 1.14.18 1.41.54.26.36.27.85.03 1.476L298.8 68.46zm54.433-38.52c0 .68-.18 1.12-.54 1.33-.36.22-.854.2-1.477-.04-3.024-1.24-6.29-1.87-9.792-1.87-3.31 0-5.8.54-7.48 1.62-1.68 1.08-2.52 2.63-2.52 4.65 0 .87.15 1.62.43 2.27s.78 1.23 1.48 1.73c.7.51 1.62.97 2.78 1.37s2.59.81 4.32 1.19l2.23.51c2.31.53 4.26 1.12 5.87 1.77 1.61.65 2.92 1.43 3.93 2.34 1.01.92 1.74 1.97 2.2 3.17.46 1.2.69 2.62.69 4.25 0 3.74-1.44 6.64-4.32 8.68-2.88 2.04-6.86 3.06-11.95 3.06-3.89 0-7.99-.67-12.31-2.01-1.01-.29-1.51-.94-1.51-1.94v-7.06c0-.67.19-1.13.58-1.37.38-.24.89-.21 1.51.078 4.18 1.82 8.14 2.734 11.88 2.734 2.11 0 3.67-.385 4.68-1.15 1.01-.77 1.54-1.647 1.58-2.63.05-.98-.36-1.945-1.22-2.88-.86-.94-2.11-1.597-3.74-1.98l-3.6-.79c-4.03-.91-6.93-2.16-8.71-3.747-1.77-1.59-2.66-3.91-2.66-6.99 0-3.74 1.3-6.61 3.89-8.6 2.6-1.99 6.34-2.99 11.24-2.99 4.32 0 8.038.53 11.16 1.59.958.39 1.44 1.06 1.44 2.02v1.727zm14.038 33.2c-.385-4.75-.493-9.4-.324-13.97.167-4.56.335-8.93.504-13.14.167-4.2.19-8.19.072-11.98-.12-3.79-.66-7.29-1.62-10.51-.192-.57-.072-1 .36-1.29s.91-.43 1.44-.43h3.744c.576 0 .972.16 1.188.47.216.32.37.76.468 1.34.335 2.59.516 5.59.54 9 .024 3.41.01 6.94-.036 10.59-.05 3.65-.013 7.31.108 10.98.12 3.68.468 7.1 1.044 10.26.096.63.263 1.08.504 1.37.24.29.648.43 1.224.43h4.392c1.2 0 1.8.6 1.8 1.8v5.18c0 1.16-.6 1.73-1.8 1.73h-11.88c-1.104 0-1.68-.6-1.728-1.8zm60.768-20.52c0 1.2-.576 1.8-1.728 1.8h-24.264c-1.152 0-1.728.6-1.728 1.8 0 2.11.228 3.81.684 5.08.456 1.27 1.188 2.27 2.196 2.99 1.008.72 2.315 1.2 3.924 1.44 1.607.24 3.587.36 5.94.36 2.16 0 4.367-.05 6.624-.14 2.256-.09 4.127-.33 5.616-.72.576-.14 1.055-.13 1.44.04.383.17.576.59.576 1.26l.072 5.26c0 1.01-.432 1.68-1.296 2.02-1.008.53-1.98.95-2.916 1.26-.936.31-1.92.54-2.952.69-1.033.15-2.15.23-3.348.25-1.2.03-2.544.02-4.032-.03-6.816-.19-11.82-1.91-15.012-5.15-3.193-3.24-4.74-8.03-4.644-14.36.047-3.216.504-6.17 1.368-8.856.864-2.69 2.1-4.995 3.708-6.915 1.607-1.92 3.564-3.41 5.868-4.46 2.304-1.057 4.943-1.586 7.92-1.586 1.967 0 3.912.37 5.832 1.114s3.636 1.85 5.148 3.31c1.512 1.47 2.724 3.28 3.636 5.44.912 2.16 1.368 4.658 1.368 7.49v.65zm-6.624-3.53c.623 0 1.055-.18 1.296-.54.24-.36.312-.82.216-1.4-.48-2.73-1.692-4.91-3.636-6.51-1.944-1.6-4.356-2.41-7.236-2.41-1.584 0-3.05.23-4.392.69-1.344.46-2.532 1.1-3.564 1.91-1.033.82-1.872 1.78-2.52 2.88-.648 1.11-1.044 2.31-1.188 3.6-.144 1.25.407 1.88 1.656 1.88l19.368-.07zm52.128-13.54c.72 0 1.198.22 1.44.65.238.43.166.94-.218 1.51l-11.664 17.5c-.576.82-.53 1.64.144 2.45l13.248 15.12c.527.58.684 1.08.468 1.51-.216.43-.71.65-1.476.65h-6.984c-.864 0-1.584-.38-2.16-1.15l-6.984-9.28c-.77-1.05-1.584-1.08-2.448-.07l-7.632 9.43c-.576.72-1.296 1.08-2.16 1.08h-6.984c-.768 0-1.272-.21-1.512-.65-.24-.43-.097-.94.432-1.51l13.608-15.48c.67-.76.72-1.58.144-2.44L441.426 27.7c-.385-.624-.468-1.14-.252-1.55.216-.407.684-.612 1.404-.612h2.952c.864 0 1.584.385 2.16 1.152l8.856 13.174c.384.53.792.806 1.224.83.432.024.84-.228 1.224-.757l9.792-13.32c.48-.72 1.175-1.08 2.088-1.08h2.665zm13.967 37.95c.433-2.97.828-5.84 1.188-8.6s.647-5.55.863-8.38c.217-2.83.348-5.78.396-8.85.047-3.07-.024-6.45-.216-10.15-.05-.48.096-.86.432-1.15.335-.29.792-.43 1.368-.43h3.023c.58 0 1.04.16 1.37.47.34.32.46.76.36 1.33-.29 2.74-.51 5.68-.68 8.82-.17 3.15-.21 6.3-.14 9.47s.28 6.25.62 9.25c.34 3 .84 5.73 1.51 8.18.19.62.11 1.09-.25 1.4-.36.31-.83.467-1.4.467h-6.69c-1.29 0-1.87-.6-1.73-1.8zm1.872-52.05c0-.72.36-1.08 1.08-1.08l4.75-.07c.72 0 1.08.36 1.08 1.08l.14 5.33c0 .72-.36 1.08-1.08 1.08h-5.04c-.72 0-1.08-.36-1.08-1.08l.14-5.25zm49.96 19.01c0 .68-.19 1.12-.58 1.34-.39.22-.89.18-1.51-.11-2.98-1.29-5.98-1.94-9-1.94-4.23 0-7.43 1.4-9.61 4.18-2.19 2.79-3.28 6.58-3.28 11.38.33 3.46 1.46 6.07 3.38 7.85 1.92 1.78 4.99 2.76 9.21 2.95 1.53.1 3.07-.07 4.61-.5 1.53-.43 3.07-.91 4.6-1.44 1.34-.48 2.01-.05 2.01 1.3l.07 6.48c0 1.06-.44 1.75-1.3 2.09-3.27 1.3-6.75 1.95-10.44 1.95-2.98 0-5.66-.48-8.03-1.44-2.38-.96-4.41-2.34-6.09-4.14-1.68-1.8-2.98-3.97-3.89-6.514-.91-2.543-1.37-5.4-1.37-8.567 0-3.213.46-6.094 1.37-8.64.91-2.54 2.22-4.7 3.92-6.48 1.7-1.773 3.78-3.14 6.23-4.1 2.44-.96 5.2-1.44 8.28-1.44 3.65 0 6.98.6 10.01 1.8.91.334 1.36 1.006 1.36 2.014v2.02z"/></svg>