<?xml version="1.0" encoding="utf-8"?>
<!-- Generator: Adobe Illustrator 16.0.0, SVG Export Plug-In . SVG Version: 6.00 Build 0)  -->
<!DOCTYPE svg PUBLIC "-//W3C//DTD SVG 1.1//EN" "http://www.w3.org/Graphics/SVG/1.1/DTD/svg11.dtd">
<svg version="1.1" id="Calque_1" xmlns="http://www.w3.org/2000/svg" xmlns:xlink="http://www.w3.org/1999/xlink" x="0px" y="0px"
	 width="960px" height="174.684px" viewBox="0 0 960 174.684" enable-background="new 0 0 960 174.684" xml:space="preserve">
<g>
	<path fill="#999999" d="M106.233,148.192c-3.409,0-6.732-0.636-9.972-1.908c-3.24-1.271-6.156-3.204-8.748-5.796
		c-2.497-2.544-4.404-5.411-5.724-8.604c-1.321-3.192-1.98-6.563-1.98-10.116c0-3.6,0.659-6.995,1.98-10.188
		c1.32-3.191,3.228-6.036,5.724-8.532c2.592-2.592,5.519-4.536,8.784-5.832c3.264-1.296,6.588-1.944,9.972-1.944
		c3.384,0,6.696,0.648,9.936,1.944c3.24,1.296,6.156,3.24,8.748,5.832l-8.568,8.568c-1.393-1.392-2.977-2.436-4.752-3.132
		c-1.776-0.695-3.577-1.044-5.4-1.044c-1.825,0-3.612,0.349-5.364,1.044c-1.753,0.696-3.324,1.74-4.716,3.132
		c-1.345,1.393-2.376,2.952-3.096,4.68c-0.72,1.728-1.08,3.553-1.08,5.472c0,1.92,0.36,3.733,1.08,5.436
		c0.72,1.705,1.751,3.252,3.096,4.644c1.392,1.393,2.963,2.437,4.716,3.132c1.751,0.697,3.539,1.044,5.364,1.044
		c1.824,0,3.624-0.347,5.4-1.044c1.775-0.695,3.359-1.739,4.752-3.132l8.568,8.64c-2.592,2.592-5.497,4.524-8.712,5.796
		C113.025,147.556,109.689,148.192,106.233,148.192z"/>
	<path fill="#999999" d="M151.342,95.344c3.643,0,7.069,0.696,10.281,2.088c3.212,1.393,6.017,3.276,8.413,5.652
		c2.396,2.376,4.29,5.173,5.68,8.388c1.391,3.216,2.086,6.649,2.086,10.296c0,3.648-0.695,7.081-2.086,10.296
		c-1.391,3.217-3.284,6.012-5.68,8.388c-2.396,2.376-5.201,4.26-8.413,5.652c-3.212,1.393-6.639,2.088-10.281,2.088
		c-3.643,0-7.071-0.695-10.283-2.088c-3.212-1.392-6.004-3.276-8.377-5.652c-2.373-2.376-4.253-5.171-5.644-8.388
		c-1.39-3.215-2.084-6.647-2.084-10.296c0-3.647,0.694-7.08,2.084-10.296c1.391-3.215,3.271-6.012,5.644-8.388
		c2.373-2.376,5.165-4.259,8.377-5.652C144.271,96.04,147.699,95.344,151.342,95.344z M151.377,136.023
		c1.968,0,3.816-0.371,5.544-1.116c1.728-0.744,3.24-1.764,4.536-3.06s2.315-2.808,3.06-4.536c0.744-1.728,1.116-3.575,1.116-5.544
		c0-1.968-0.373-3.816-1.116-5.544c-0.745-1.728-1.764-3.24-3.06-4.536c-1.296-1.296-2.808-2.315-4.536-3.06
		c-1.728-0.743-3.576-1.116-5.544-1.116c-1.969,0-3.816,0.373-5.544,1.116c-1.728,0.745-3.24,1.764-4.536,3.06
		c-1.296,1.296-2.316,2.808-3.06,4.536c-0.745,1.728-1.116,3.576-1.116,5.544c0,1.969,0.371,3.816,1.116,5.544
		c0.744,1.728,1.764,3.24,3.06,4.536c1.296,1.296,2.808,2.316,4.536,3.06C147.562,135.652,149.409,136.023,151.377,136.023z"/>
	<path fill="#999999" d="M212.937,148.264h-31.464v-52.92h12.168v40.752h19.296V148.264z"/>
	<path fill="#999999" d="M240.692,95.344c3.643,0,7.069,0.696,10.281,2.088c3.212,1.393,6.017,3.276,8.413,5.652
		c2.396,2.376,4.29,5.173,5.68,8.388c1.391,3.216,2.086,6.649,2.086,10.296c0,3.648-0.695,7.081-2.086,10.296
		c-1.391,3.217-3.284,6.012-5.68,8.388c-2.396,2.376-5.201,4.26-8.413,5.652c-3.212,1.393-6.639,2.088-10.281,2.088
		c-3.643,0-7.071-0.695-10.283-2.088c-3.212-1.392-6.004-3.276-8.377-5.652c-2.373-2.376-4.253-5.171-5.644-8.388
		c-1.39-3.215-2.084-6.647-2.084-10.296c0-3.647,0.694-7.08,2.084-10.296c1.391-3.215,3.271-6.012,5.644-8.388
		c2.373-2.376,5.165-4.259,8.377-5.652C233.622,96.04,237.049,95.344,240.692,95.344z M240.728,136.023
		c1.968,0,3.816-0.371,5.544-1.116c1.728-0.744,3.24-1.764,4.536-3.06s2.315-2.808,3.06-4.536c0.744-1.728,1.116-3.575,1.116-5.544
		c0-1.968-0.373-3.816-1.116-5.544c-0.745-1.728-1.764-3.24-3.06-4.536c-1.296-1.296-2.808-2.315-4.536-3.06
		c-1.728-0.743-3.576-1.116-5.544-1.116c-1.969,0-3.816,0.373-5.544,1.116c-1.728,0.745-3.24,1.764-4.536,3.06
		c-1.296,1.296-2.316,2.808-3.06,4.536c-0.745,1.728-1.116,3.576-1.116,5.544c0,1.969,0.371,3.816,1.116,5.544
		c0.744,1.728,1.764,3.24,3.06,4.536c1.296,1.296,2.808,2.316,4.536,3.06C236.912,135.652,238.759,136.023,240.728,136.023z"/>
	<path fill="#999999" d="M306.103,95.344h12.528l3.096,52.92h-12.168l-1.296-21.6l-7.344,21.6h-12.168l-7.776-22.464l-1.44,22.464
		h-12.24l3.384-52.92h12.528l11.592,33.12L306.103,95.344z"/>
	<path fill="#999999" d="M353.839,116.439c2.255,1.681,4.032,3.708,5.328,6.084c1.296,2.376,1.944,4.957,1.944,7.74
		c0,2.497-0.529,4.836-1.584,7.02c-1.057,2.185-2.509,4.093-4.356,5.724c-1.849,1.632-3.996,2.916-6.444,3.852
		c-2.448,0.936-5.065,1.404-7.848,1.404h-15.48V95.2l14.04,0.072c2.207,0,4.295,0.385,6.264,1.152
		c1.968,0.768,3.696,1.812,5.184,3.132c1.487,1.321,2.652,2.856,3.492,4.608c0.839,1.753,1.26,3.636,1.26,5.652
		C355.639,112.216,355.038,114.424,353.839,116.439z M337.567,107.368v4.896h1.944c1.199-0.048,2.16-0.341,2.88-0.876
		c0.72-0.536,1.08-1.072,1.08-1.607c0-0.487-0.36-1.012-1.08-1.572c-0.72-0.56-1.704-0.84-2.952-0.84H337.567z M340.879,136.096
		c1.055,0,2.076-0.156,3.06-0.47c0.983-0.314,1.847-0.737,2.592-1.268c0.744-0.531,1.332-1.147,1.764-1.847s0.648-1.437,0.648-2.21
		c0-0.772-0.216-1.521-0.648-2.246s-1.021-1.352-1.764-1.883c-0.745-0.531-1.609-0.954-2.592-1.268
		c-0.984-0.313-2.005-0.471-3.06-0.471h-1.296h-0.144h-1.872v11.664H340.879z"/>
	<path fill="#999999" d="M395.742,148.264l-2.088-6.408h-16.632l-2.16,6.408h-12.888l18-52.848h11.52l17.064,52.848H395.742z
		 M381.198,129.688h8.568l-4.176-12.816L381.198,129.688z"/>
	<path fill="#999999" d="M428.141,134.583c-0.624,0.097-1.249,0.169-1.872,0.216c-0.624,0.048-1.272,0.097-1.944,0.144v13.32
		h-12.168V95.632h12.168c3.024,0.048,5.856,0.6,8.496,1.654c2.64,1.055,4.956,2.469,6.948,4.242c1.991,1.774,3.552,3.835,4.68,6.184
		s1.692,4.865,1.692,7.549c0,2.828-0.601,5.453-1.8,7.874c-1.2,2.421-2.88,4.518-5.04,6.291l11.664,18.838h-14.328L428.141,134.583z
		 M424.325,122.704c1.297-0.047,2.531-0.275,3.708-0.684c1.176-0.407,2.208-0.947,3.097-1.62c0.888-0.672,1.584-1.452,2.088-2.34
		c0.504-0.888,0.756-1.836,0.756-2.844c0-1.008-0.252-1.944-0.756-2.808c-0.504-0.864-1.2-1.631-2.088-2.304
		c-0.889-0.671-1.921-1.211-3.097-1.62c-1.177-0.407-2.411-0.636-3.708-0.684V122.704z"/>
	<path fill="#FFFFFF" d="M479.081,95.344c3.643,0,7.069,0.696,10.281,2.088c3.212,1.393,6.017,3.276,8.413,5.652
		s4.29,5.173,5.68,8.388c1.391,3.216,2.086,6.649,2.086,10.296c0,3.648-0.695,7.081-2.086,10.296
		c-1.39,3.217-3.284,6.012-5.68,8.388s-5.201,4.26-8.413,5.652c-3.212,1.393-6.639,2.088-10.281,2.088s-7.07-0.695-10.282-2.088
		c-3.212-1.392-6.004-3.276-8.377-5.652c-2.372-2.376-4.253-5.171-5.644-8.388c-1.391-3.215-2.085-6.647-2.085-10.296
		c0-3.647,0.694-7.08,2.085-10.296c1.391-3.215,3.271-6.012,5.644-8.388c2.373-2.376,5.165-4.259,8.377-5.652
		C472.01,96.04,475.438,95.344,479.081,95.344z M479.117,136.023c1.968,0,3.816-0.371,5.544-1.116
		c1.729-0.744,3.24-1.764,4.536-3.06s2.315-2.808,3.061-4.536c0.743-1.728,1.115-3.575,1.115-5.544c0-1.968-0.372-3.816-1.115-5.544
		c-0.745-1.728-1.765-3.24-3.061-4.536c-1.296-1.296-2.808-2.315-4.536-3.06c-1.728-0.743-3.576-1.116-5.544-1.116
		c-1.969,0-3.815,0.373-5.544,1.116c-1.728,0.745-3.24,1.764-4.536,3.06c-1.296,1.296-2.316,2.808-3.06,4.536
		c-0.745,1.728-1.116,3.576-1.116,5.544c0,1.969,0.371,3.816,1.116,5.544c0.743,1.728,1.764,3.24,3.06,4.536s2.809,2.316,4.536,3.06
		C475.301,135.652,477.148,136.023,479.117,136.023z"/>
</g>
<g>
	<path fill="#999999" d="M320.99,79.19c-3.409,0-6.732-0.636-9.972-1.908c-3.24-1.271-6.156-3.204-8.748-5.796
		c-2.497-2.544-4.404-5.411-5.724-8.604c-1.321-3.192-1.98-6.563-1.98-10.116c0-3.6,0.659-6.995,1.98-10.188
		c1.32-3.191,3.228-6.036,5.724-8.532c2.592-2.592,5.519-4.536,8.784-5.832c3.264-1.296,6.588-1.944,9.972-1.944
		c3.384,0,6.696,0.648,9.936,1.944c3.24,1.296,6.156,3.24,8.748,5.832l-8.568,8.568c-1.393-1.392-2.977-2.436-4.752-3.132
		c-1.776-0.695-3.577-1.044-5.4-1.044c-1.825,0-3.612,0.349-5.364,1.044c-1.753,0.696-3.324,1.74-4.716,3.132
		c-1.345,1.393-2.376,2.952-3.096,4.68c-0.72,1.728-1.08,3.553-1.08,5.472c0,1.92,0.36,3.733,1.08,5.436
		c0.72,1.705,1.751,3.252,3.096,4.644c1.392,1.393,2.963,2.437,4.716,3.132c1.751,0.697,3.539,1.044,5.364,1.044
		c1.824,0,3.624-0.347,5.4-1.044c1.775-0.695,3.359-1.739,4.752-3.132l8.568,8.64c-2.592,2.592-5.497,4.524-8.712,5.796
		C327.782,78.554,324.446,79.19,320.99,79.19z"/>
	<path fill="#999999" d="M359.294,65.582c-0.625,0.097-1.249,0.169-1.872,0.216c-0.625,0.048-1.272,0.097-1.944,0.144v13.32h-12.168
		V26.63h12.168c3.024,0.048,5.855,0.6,8.496,1.654c2.639,1.055,4.956,2.469,6.948,4.242c1.991,1.774,3.552,3.835,4.68,6.184
		c1.127,2.349,1.692,4.865,1.692,7.549c0,2.828-0.601,5.453-1.8,7.874c-1.201,2.421-2.88,4.518-5.04,6.291l11.664,18.838h-14.328
		L359.294,65.582z M355.479,53.702c1.296-0.047,2.531-0.275,3.708-0.684c1.176-0.407,2.207-0.947,3.096-1.62
		c0.888-0.672,1.584-1.452,2.088-2.34c0.504-0.888,0.756-1.836,0.756-2.844c0-1.008-0.252-1.944-0.756-2.808
		c-0.504-0.864-1.201-1.631-2.088-2.304c-0.889-0.671-1.92-1.211-3.096-1.62c-1.177-0.407-2.412-0.636-3.708-0.684V53.702z"/>
	<path fill="#999999" d="M420.422,38.582h-21.744v7.992h17.64v12.168h-17.64v8.352h21.744v12.168H386.51V26.414h33.912V38.582z
		 M397.742,22.021l5.832-12.168h10.944l-5.904,12.168H397.742z"/>
	<path fill="#999999" d="M456.853,79.262l-2.088-6.408h-16.632l-2.16,6.408h-12.888l18-52.848h11.52l17.064,52.848H456.853z
		 M442.309,60.686h8.568l-4.176-12.816L442.309,60.686z"/>
	<path fill="#999999" d="M503.581,26.198v12.168h-10.152v40.896h-12.168V38.366h-10.08V26.198H503.581z"/>
	<path fill="#999999" d="M520.933,79.262h-12.168v-52.92h12.168V79.262z"/>
	<path fill="#999999" d="M550.92,26.342c3.643,0,7.07,0.696,10.281,2.088c3.213,1.393,6.018,3.276,8.413,5.652
		c2.396,2.376,4.29,5.173,5.681,8.388c1.391,3.216,2.086,6.649,2.086,10.296c0,3.648-0.695,7.081-2.086,10.296
		c-1.391,3.217-3.284,6.012-5.681,8.388c-2.396,2.376-5.2,4.26-8.413,5.652c-3.211,1.393-6.639,2.088-10.281,2.088
		s-7.07-0.695-10.282-2.088c-3.212-1.392-6.004-3.276-8.377-5.652c-2.372-2.376-4.253-5.171-5.644-8.388
		c-1.391-3.215-2.085-6.647-2.085-10.296c0-3.647,0.694-7.08,2.085-10.296c1.391-3.215,3.271-6.012,5.644-8.388
		c2.373-2.376,5.165-4.259,8.377-5.652C543.85,27.038,547.277,26.342,550.92,26.342z M550.956,67.021
		c1.968,0,3.816-0.371,5.544-1.116c1.729-0.744,3.24-1.764,4.536-3.06s2.315-2.808,3.06-4.536s1.117-3.575,1.117-5.544
		c0-1.968-0.373-3.816-1.117-5.544s-1.764-3.24-3.06-4.536c-1.296-1.296-2.808-2.315-4.536-3.06
		c-1.728-0.743-3.576-1.116-5.544-1.116c-1.969,0-3.815,0.373-5.544,1.116c-1.729,0.745-3.24,1.764-4.535,3.06
		c-1.297,1.296-2.316,2.808-3.061,4.536c-0.745,1.728-1.116,3.576-1.116,5.544c0,1.969,0.371,3.816,1.116,5.544
		c0.744,1.728,1.764,3.24,3.061,4.536c1.295,1.296,2.807,2.316,4.535,3.06C547.141,66.65,548.987,67.021,550.956,67.021z"/>
	<path fill="#999999" d="M611.508,26.414h12.168v52.848h-13.177l-17.28-30.816v30.816h-12.168V26.558h13.248l17.209,30.744V26.414z"
		/>
	<path fill="#999999" d="M646.066,80.27c-1.68,0-3.348-0.228-5.004-0.684c-1.655-0.456-3.229-1.164-4.715-2.124
		c-2.593-1.68-4.609-3.852-6.049-6.516s-2.16-5.58-2.16-8.748h12.168c0,1.44,0.313,2.556,0.937,3.348
		c0.623,0.792,1.175,1.332,1.655,1.62c0.865,0.576,1.801,0.889,2.809,0.936c1.008,0.048,1.991-0.144,2.952-0.576
		c0.671-0.288,1.212-0.648,1.62-1.08c0.406-0.432,0.72-0.852,0.936-1.26c0.217-0.407,0.348-0.803,0.396-1.188
		c0.047-0.383,0.072-0.695,0.072-0.936c0-0.239-0.025-0.551-0.072-0.936c-0.049-0.383-0.18-0.792-0.396-1.224
		c-0.216-0.432-0.529-0.852-0.936-1.26c-0.408-0.407-0.949-0.779-1.62-1.116c-0.528-0.24-1.093-0.456-1.692-0.648
		c-0.601-0.191-1.236-0.407-1.908-0.648c-1.2-0.383-2.447-0.815-3.744-1.296c-1.295-0.479-2.592-1.127-3.888-1.944
		c-1.681-1.055-3.096-2.376-4.247-3.96c-1.152-1.584-1.98-3.287-2.484-5.112c-0.504-1.823-0.673-3.708-0.504-5.652
		c0.167-1.944,0.707-3.804,1.619-5.58c0.864-1.631,1.944-3.047,3.24-4.248c1.297-1.199,2.736-2.147,4.32-2.844
		c1.584-0.695,3.287-1.116,5.111-1.26c1.824-0.144,3.672,0.025,5.545,0.504c1.818,0.432,3.469,1.116,4.947,2.052
		c1.479,0.936,2.756,2.064,3.83,3.384c1.072,1.32,1.896,2.796,2.469,4.428c0.572,1.632,0.859,3.337,0.859,5.112h-12.105
		c0-1.104-0.35-1.872-1.045-2.304s-1.308-0.72-1.836-0.864c-0.096,0-0.324-0.036-0.684-0.108c-0.359-0.072-0.768-0.072-1.225,0
		c-0.456,0.072-0.924,0.241-1.403,0.504c-0.48,0.265-0.864,0.684-1.151,1.26c-0.385,0.769-0.457,1.573-0.217,2.412
		c0.24,0.84,0.721,1.5,1.44,1.98c0.671,0.385,1.415,0.732,2.231,1.044c0.816,0.313,1.68,0.612,2.592,0.9
		c0.816,0.241,1.643,0.504,2.482,0.792c0.838,0.288,1.686,0.625,2.546,1.008c3.149,1.44,5.618,3.553,7.407,6.336
		c1.789,2.784,2.686,5.88,2.686,9.288c0,3.36-0.896,6.433-2.686,9.216c-1.789,2.784-4.258,4.896-7.407,6.336
		c-1.241,0.576-2.509,0.996-3.805,1.26C648.658,80.137,647.363,80.27,646.066,80.27z"/>
</g>
<g>
</g>
<g>
</g>
<g>
</g>
<g>
</g>
<g>
</g>
<g>
</g>
<g>
</g>
<g>
</g>
<g>
</g>
<g>
</g>
<g>
</g>
<g>
</g>
<g>
</g>
<g>
</g>
<g>
</g>
</svg>
