<?xml version="1.0" standalone="no"?>
<!DOCTYPE svg PUBLIC "-//W3C//DTD SVG 20010904//EN"
 "http://www.w3.org/TR/2001/REC-SVG-20010904/DTD/svg10.dtd">
<svg version="1.0" xmlns="http://www.w3.org/2000/svg"
 width="700.000000pt" height="700.000000pt" viewBox="0 0 700.000000 700.000000"
 preserveAspectRatio="xMidYMid meet">
<metadata>
Created by potrace 1.11, written by Peter Selinger 2001-2013
</metadata>
<g transform="translate(0.000000,700.000000) scale(0.100000,-0.100000)"
fill="#000000" stroke="none">
<path d="M3427 6634 c-1 -1 -60 -4 -132 -8 -71 -3 -140 -8 -152 -10 -12 -3
-48 -7 -80 -11 -32 -3 -67 -8 -78 -10 -11 -3 -31 -7 -45 -9 -14 -2 -36 -7 -50
-10 -14 -3 -36 -8 -50 -10 -210 -39 -555 -161 -760 -270 -239 -127 -460 -274
-630 -420 -87 -75 -323 -320 -392 -406 -83 -104 -258 -357 -258 -373 0 -6 -6
-18 -14 -26 -20 -22 -145 -268 -186 -366 -87 -208 -173 -506 -200 -690 -7 -44
-14 -88 -16 -98 -4 -22 -12 -104 -20 -207 -11 -144 -4 -470 11 -560 2 -14 7
-50 10 -80 3 -30 10 -77 15 -105 5 -27 12 -66 15 -85 11 -64 65 -273 94 -360
131 -388 347 -773 607 -1078 59 -70 249 -261 324 -326 295 -257 723 -498 1095
-617 50 -16 92 -28 95 -28 3 0 18 -4 33 -10 31 -12 221 -56 277 -65 19 -3 53
-8 75 -11 22 -4 50 -8 62 -10 166 -27 690 -27 831 0 11 2 43 6 73 10 54 6 257
48 314 65 249 72 377 121 578 221 178 88 203 102 357 204 269 177 526 408 706
634 10 13 31 38 45 55 147 180 338 511 438 763 69 175 98 265 140 442 32 133
32 131 55 296 32 229 37 598 11 775 -6 46 -15 105 -20 150 -41 313 -221 812
-389 1078 -14 23 -26 44 -26 46 0 4 -86 133 -148 223 -114 163 -331 396 -512
549 -387 327 -892 577 -1370 678 -115 24 -132 27 -268 46 -107 14 -454 33
-465 24z m259 -1458 c32 -4 70 -9 84 -11 14 -3 41 -7 60 -10 122 -20 305 -86
450 -161 97 -51 278 -171 326 -219 11 -11 36 -34 55 -51 51 -47 150 -155 182
-199 104 -145 207 -327 237 -422 7 -21 17 -44 23 -50 5 -7 6 -13 3 -13 -4 0
-2 -9 4 -21 6 -11 13 -28 15 -37 2 -9 12 -55 23 -102 26 -109 31 -141 38 -220
36 -448 -65 -813 -326 -1180 -106 -147 -301 -325 -482 -438 -119 -74 -365
-177 -469 -196 -13 -2 -24 -5 -24 -6 0 -4 -138 -27 -215 -36 -69 -7 -284 -7
-342 1 -194 26 -334 60 -458 112 -8 3 -17 7 -20 8 -30 9 -175 84 -241 126
-422 264 -705 691 -785 1184 -19 120 -21 380 -4 486 65 406 232 730 515 999
229 219 559 389 845 436 14 2 34 6 45 9 11 2 54 7 95 11 41 3 76 7 78 9 5 4
230 -3 288 -9z"/>
</g>
</svg>
