<svg xmlns="http://www.w3.org/2000/svg" width="946.459" height="77.229"><path d="M69.808 50.64L.248 74.945H0c-.248 0-.372-.083-.372-.248-.083-.33 0-.58.248-.744L13.39 69.24V6.5l20.71-.498c9.175 0 16.18 2.583 21.017 7.75 4.836 5.167 7.254 12.544 7.254 22.133 0 6.53-.95 12.275-2.85 17.235l9.92-3.47c.41-.166.62-.084.62.247.08.33 0 .578-.25.744zM12.77 74.573c-.082 0-.123-.042-.123-.124l.124-.13.13.12c0 .08-.04.12-.12.12zm43.523-20.335C58.69 49.278 59.89 43.2 59.89 36.01c0-8.928-2.212-15.727-6.635-20.397s-10.85-7.006-19.28-7.006c-.497 0-1.53.02-3.1.062-1.57.04-3.307.08-5.21.12-1.9.04-3.76.1-5.58.18-1.818.08-3.223.12-4.215.12v59.27l40.423-14.13zM19.095 74.572c-.083 0-.124-.042-.124-.124l.13-.124.13.124c0 .082-.04.124-.12.124zm6.323 0c-.083 0-.124-.042-.124-.124l.124-.124.124.124c0 .082-.04.124-.124.124zm6.448-6.2c0 .165-.042.247-.124.247-.166 0-.248-.09-.248-.25 0-.17.083-.25.248-.25.083 0 .124.08.124.25zm-.124 6.2c-.083 0-.124-.042-.124-.124l.124-.124.124.124c0 .082-.04.124-.124.124zm6.448-6.2c0 .165-.042.247-.124.247-.166 0-.248-.09-.248-.25 0-.17.083-.25.248-.25.082 0 .124.08.124.25zm-.124 6.2c-.166 0-.248-.042-.248-.124l.248-.124.124.124c0 .082-.042.124-.124.124zm6.448-6.2c0 .165-.042.247-.124.247-.166 0-.248-.09-.248-.25 0-.17.083-.25.248-.25.082 0 .124.08.124.25zm-.124 6.2c-.166 0-.248-.042-.248-.124l.248-.124.124.124c0 .082-.042.124-.124.124zm6.57-12.276c0 .248-.082.372-.247.372-.248 0-.372-.124-.372-.372s.13-.372.38-.372c.17 0 .25.124.25.372zm-.123 6.075c0 .17-.04.25-.124.25-.165 0-.248-.08-.248-.25 0-.16.083-.24.248-.24.083 0 .124.09.124.25zm-.124 6.21c-.165 0-.248-.04-.248-.12l.248-.12.124.13c0 .08-.04.12-.124.12zm6.572-12.28c0 .25-.083.37-.248.37-.248 0-.372-.12-.372-.37s.124-.37.372-.37c.165 0 .248.13.248.37zm-.124 6.08c0 .17-.04.25-.12.25-.16 0-.25-.08-.25-.25 0-.16.09-.24.25-.24.09 0 .13.09.13.25zm-.12 6.2c-.16 0-.25-.04-.25-.12l.25-.12.13.12c0 .09-.04.13-.12.13zm6.7-18.35c0 .25-.12.37-.37.37-.33 0-.49-.12-.49-.37s.17-.37.5-.37c.25 0 .38.13.38.38zm-.13 6.08c0 .25-.08.37-.25.37-.24 0-.37-.12-.37-.37s.13-.37.37-.37c.17 0 .25.13.25.38zm-.12 6.08c0 .09-.04.17-.12.25-.16 0-.24-.08-.24-.25 0-.16.08-.24.25-.24l.13.25zm-.12 6.2c-.16 0-.24-.04-.24-.12l.25-.12.13.12c0 .08-.04.13-.12.13zm6.7-18.35c0 .25-.16.37-.49.37-.24 0-.37-.12-.37-.37s.13-.37.37-.37c.33 0 .5.13.5.38zm-.12 6.08c0 .25-.12.37-.37.37-.16 0-.24-.12-.24-.37s.09-.37.25-.37c.25 0 .38.13.38.38zm-.12 6.08c0 .17-.08.25-.25.25-.08 0-.12-.08-.12-.25 0-.16.05-.25.13-.25.17 0 .25.09.25.25zm0 6.08c0 .08-.08.13-.25.13l-.12-.12.13-.12c.09 0 .17.04.25.13z"/><path d="M69.438 50.64c-.33-.165-.413-.413-.248-.743 0-.33.207-.413.62-.248l8.06 3.22-.496.87-7.936-3.1zm4.34 18.6L99.445 6.5h2.604l16.73 44.266 6.82 18.475h-2.85l-1.24-4.46-4.96-13.14H83.57l-5.452 13.14-1.487 4.46h-2.85zm1.984 5.332c-.083 0-.124-.042-.124-.124l.124-.124.124.124c0 .082-.04.124-.124.124zm6.2-.124c0 .082-.042.124-.124.124l-.124-.124.124-.124c.082 0 .124.04.124.124zm33.726-25.17l-14.88-38.935h-.37L84.564 49.277h31.123zm15.623 25.418c0 .165-.16.248-.49.248h-.12l-45.38-17.98.37-.992 45.38 17.98c.33.164.42.413.25.744zm-43.02-12.4c0 .248-.08.372-.25.372-.25 0-.37-.124-.37-.372s.13-.372.37-.372c.17 0 .25.124.25.372zm-.12 6.075c0 .17-.04.25-.12.25-.16 0-.25-.08-.25-.25 0-.16.09-.24.25-.24.08 0 .13.09.13.25zm-.12 6.21c-.16 0-.25-.04-.25-.12l.25-.12.13.13c0 .08-.04.12-.12.12zm6.44-12.28c0 .25-.12.37-.37.37s-.37-.12-.37-.37.13-.37.38-.37.37.13.37.37zm-.12 6.08c0 .17-.08.25-.24.25-.16 0-.25-.08-.25-.25 0-.16.08-.24.25-.24.17 0 .25.09.25.25zm-.12 6.08c0 .09-.04.13-.12.13-.08 0-.12-.04-.12-.12l.13-.12c.09 0 .13.04.13.13zm6.2-6.07c0 .17-.08.25-.25.25-.08 0-.12-.08-.12-.25 0-.16.04-.24.13-.24.17 0 .25.08.25.25zm0 6.08c0 .09-.08.13-.25.13l-.12-.13.13-.12c.08 0 .17.04.25.13zm6.2-6.07c0 .17-.08.25-.25.25-.16 0-.25-.08-.25-.25 0-.16.09-.25.25-.25.17 0 .25.09.25.25zm-.25 6.2c-.08 0-.12-.04-.12-.12l.13-.12.13.13c0 .08-.04.12-.12.12zm6.2-.12c0 .09-.04.13-.12.13l-.12-.12.13-.12c.09 0 .13.04.13.13zm6.08.13c-.08 0-.12-.04-.12-.12l.13-.12.13.13c0 .08-.04.13-.12.13z"/><path d="M184.382 1.787l-53.07 73.033c-.082.082-.247.124-.495.124h-.248c-.25-.248-.29-.496-.13-.744l25.79-35.586V8.98h-9.18l-10.67.123-.37-.496.37-2.108h43.15l3.97-5.46c.25-.25.49-.29.74-.13.25.24.29.53.12.86zm-47.49 72.66c0 .083-.04.125-.123.125s-.13-.042-.13-.124l.12-.124c.08 0 .12.04.12.124zm5.952-6.076c0 .17-.042.25-.124.25-.166 0-.248-.08-.248-.25 0-.16.083-.24.248-.24.083 0 .124.09.124.25zm-.124 6.21c-.166 0-.248-.04-.248-.12l.248-.12.124.13c0 .08-.04.12-.124.12zm6.2-18.35c0 .25-.124.38-.372.38s-.372-.12-.372-.37.124-.37.372-.37.372.13.372.37zm0 6.08c0 .25-.124.37-.372.37-.166 0-.248-.12-.248-.37s.083-.37.248-.37c.248 0 .372.13.372.37zm-.124 6.08c0 .17-.083.25-.248.25s-.248-.08-.248-.25c0-.16.083-.24.248-.24s.248.09.248.25zm-.124 6.08c0 .09-.042.13-.124.13l-.124-.12.124-.12c.082 0 .124.04.124.13zm5.828.13c-.083 0-.124-.04-.124-.12l.124-.12.124.13c0 .09-.042.13-.124.13zm4.215-31.12v25.79h-2.48V46.92l2.48-3.472zm18.97-34.34L168.14 9h-9.43v26.16l18.97-26.04zM160.45 74.45c0 .082-.04.124-.122.124l-.124-.124.124-.124c.083 0 .124.04.124.124zm6.574-42.53c0 .496-.248.744-.744.744s-.745-.248-.745-.744c0-.58.248-.868.744-.868s.74.29.74.868zm-.124 6.075c0 .413-.208.62-.62.62-.497 0-.745-.207-.745-.62 0-.496.248-.744.744-.744.41 0 .62.25.62.75zm0 6.077c0 .33-.208.495-.62.495-.414 0-.62-.165-.62-.495 0-.414.206-.62.62-.62.412-.002.62.206.62.62zm-.125 6.075c0 .33-.166.496-.496.496s-.5-.165-.5-.495c0-.33.16-.496.49-.496s.49.164.49.495zm-.124 6.075c0 .248-.12.372-.37.372s-.37-.124-.37-.372.13-.372.37-.372.37.124.37.372zm-.12 6.076c0 .248-.08.372-.25.372-.25 0-.37-.124-.37-.372s.13-.372.37-.372c.17 0 .25.124.25.372zm0 6.075c0 .167-.08.25-.25.25-.16 0-.25-.083-.25-.25 0-.164.09-.247.25-.247.17 0 .25.083.25.248zm-.25 6.202c-.08 0-.12-.042-.12-.124l.13-.12.13.13c0 .09-.04.13-.12.13zm6.7-48.854c0 .58-.29.87-.87.87-.49 0-.74-.29-.74-.87 0-.49.25-.74.75-.74.58 0 .87.25.87.75zm-.12 6.2c0 .5-.24.75-.74.75s-.74-.25-.74-.74c0-.58.25-.86.75-.86s.75.29.75.87zm0 6.08c0 .42-.24.62-.74.62-.41 0-.62-.2-.62-.62 0-.49.21-.74.62-.74.5 0 .75.25.75.75zm-.12 6.08c0 .33-.2.5-.62.5-.33 0-.49-.16-.49-.49 0-.41.17-.62.5-.62.42 0 .62.21.62.62zm-.12 6.08c0 .33-.16.5-.49.5s-.49-.16-.49-.49c0-.33.17-.49.5-.49s.5.17.5.5zm0 6.08c0 .25-.16.37-.49.37-.24 0-.37-.12-.37-.37s.13-.37.37-.37c.33 0 .5.13.5.38zm-.12 6.08c0 .25-.12.37-.37.37-.16 0-.25-.12-.25-.37s.08-.37.25-.37c.25 0 .37.13.37.38zm-.12 6.08c0 .17-.08.25-.25.25-.08 0-.12-.08-.12-.25 0-.16.04-.24.13-.24.17 0 .25.09.25.25zm-.12 6.08c0 .09-.04.13-.12.13l-.12-.12.12-.12c.09 0 .13.04.13.13zm6.7-54.8c0 .66-.29 1-.87 1-.66 0-.99-.33-.99-.99 0-.58.33-.87.99-.87.58 0 .87.29.87.87zm0 6.08c0 .58-.29.87-.87.87s-.86-.29-.86-.86c0-.5.29-.74.87-.74s.87.25.87.75zm-.12 6.2c0 .5-.25.75-.74.75s-.75-.24-.75-.74c0-.58.25-.87.74-.87s.75.29.75.87zm-.16 6.04c0 .42-.2.62-.62.62-.41 0-.62-.2-.62-.62 0-.49.21-.74.62-.74.42 0 .62.25.62.75zm0 6.08c0 .33-.2.5-.62.5-.41 0-.62-.17-.62-.5 0-.41.21-.62.62-.62.42 0 .62.21.62.62zm-.12 6.08c0 .33-.17.5-.5.5s-.49-.16-.49-.49c0-.33.17-.49.5-.49s.5.17.5.5zm-.13 6.07c0 .25-.12.37-.37.37s-.37-.12-.37-.37.13-.37.37-.37.38.13.38.38zm-.12 6.08c0 .25-.08.37-.25.37-.24 0-.37-.12-.37-.37s.13-.37.37-.37c.17 0 .25.13.25.37zm0 6.08c0 .17-.08.25-.25.25-.16 0-.24-.08-.24-.25 0-.16.09-.24.25-.24.17 0 .25.09.25.25zm-.12 6.08c0 .08-.05.13-.13.13s-.13-.04-.13-.12l.12-.12c.08 0 .12.04.12.13zM185 7.5c0 .744-.373 1.116-1.117 1.116-.66 0-.994-.372-.994-1.116 0-.744.33-1.116.99-1.116.74 0 1.11.37 1.11 1.115zm0 6.076c0 .744-.373 1.116-1.117 1.116-.66 0-.994-.373-.994-1.117 0-.66.33-.99.99-.99.74 0 1.11.33 1.11.99zm-.125 6.075c0 .66-.33.99-.99.99-.58 0-.87-.33-.87-.99 0-.58.29-.87.87-.87.66 0 .99.29.99.87zm-.123 6.08c0 .58-.29.87-.87.87-.497 0-.745-.29-.745-.86 0-.49.248-.74.744-.74.58 0 .87.25.87.74zm0 6.2c0 .5-.29.75-.87.75-.497 0-.745-.24-.745-.74 0-.58.248-.86.744-.86.58 0 .87.29.87.87zm-.13 6.08c0 .41-.25.62-.745.62-.413 0-.62-.21-.62-.62 0-.49.207-.74.62-.74.496 0 .744.25.744.75zm-.125 6.08c0 .33-.207.5-.62.5-.33 0-.496-.16-.496-.49 0-.41.17-.62.5-.62.42 0 .62.21.62.62zm-.124 6.08c0 .33-.166.5-.496.5s-.496-.16-.496-.49c0-.33.17-.49.5-.49s.5.16.5.49zm0 6.08c0 .25-.166.37-.496.37-.248 0-.372-.12-.372-.37s.124-.37.372-.37c.33 0 .496.13.496.37zm-.124 6.08c0 .25-.13.38-.38.38-.17 0-.25-.12-.25-.37s.08-.37.24-.37c.25 0 .37.13.37.37zm-.13 6.08c0 .17-.09.25-.25.25-.09 0-.13-.08-.13-.25 0-.16.04-.24.12-.24.16 0 .25.09.25.25zm0 6.08c0 .09-.09.13-.25.13l-.13-.12.12-.12c.08 0 .16.04.25.13z"/><path d="M183.516 1.29c0-.412.207-.536.62-.37l24.674 9.795-.496.992-24.55-9.795c-.33-.166-.413-.373-.248-.62zm56.417 67.95h-2.852l-1.24-4.464-4.96-13.02H197.9l-5.457 13.02-1.488 4.464h-2.852L213.77 6.5h2.604l23.56 62.74zm-48.73-61.75c0 .745-.37 1.117-1.115 1.117s-1.116-.372-1.116-1.116c0-.74.372-1.11 1.116-1.11s1.116.37 1.116 1.12zm-.123 6.077c0 .744-.33 1.116-.992 1.116s-.992-.372-.992-1.116c0-.66.33-.992.992-.992s.992.33.992.992zm-.124 6.075c0 .66-.29.992-.868.992-.66 0-.992-.33-.992-.992 0-.58.33-.868.992-.868.58 0 .868.29.868.868zm0 6.076c0 .58-.29.868-.868.868s-.868-.29-.868-.868c0-.496.29-.744.868-.744s.868.248.868.744zm-.124 6.2c0 .496-.248.744-.744.744s-.744-.248-.744-.744c0-.58.248-.868.744-.868s.744.29.744.868zm-.124 6.075c0 .413-.207.62-.62.62-.496 0-.744-.207-.744-.62 0-.496.248-.744.744-.744.413 0 .62.24.62.74zm0 6.077c0 .33-.207.495-.62.495-.414 0-.62-.165-.62-.495 0-.414.207-.62.62-.62.413-.002.62.206.62.62zm-.124 6.075c0 .33-.166.496-.496.496s-.496-.16-.496-.49c0-.33.166-.49.496-.49s.496.17.496.5zm-.496 24.427c-.083 0-.124-.042-.124-.124l.124-.124.124.124c0 .082-.042.124-.124.124zm7.067-61.005c0 .744-.33 1.116-.992 1.116-.662 0-.992-.372-.992-1.116 0-.66.34-.992 1-.992.66 0 .99.33.99.992zm0 6.075c0 .66-.33.992-.992.992-.58 0-.868-.33-.868-.992 0-.58.29-.868.868-.868.662 0 .992.29.992.868zm-.124 6.076c0 .58-.28.868-.86.868s-.87-.29-.87-.868c0-.496.29-.744.87-.744s.87.248.87.744zm-.12 6.2c0 .496-.25.744-.74.744s-.74-.248-.74-.744c0-.58.25-.868.75-.868s.75.29.75.868zm0 6.075c0 .413-.25.62-.74.62-.41 0-.62-.207-.62-.62 0-.496.21-.744.62-.744.5 0 .75.24.75.74zm-.49 30.378c0 .17-.08.25-.25.25-.16 0-.25-.08-.25-.25 0-.16.09-.24.25-.24.17 0 .25.09.25.25zm-.12 6.08c0 .08-.04.13-.12.13l-.12-.12.13-.12c.09 0 .13.04.13.13zm18.85-64.1h-.37L198.9 49.29h31.122L215.14 10.35zm-11.78 3.23c0 .75-.33 1.12-.99 1.12-.74 0-1.11-.37-1.11-1.11 0-.66.37-.99 1.12-.99.66 0 .99.33.99 1zm-.12 6.08c0 .66-.29.99-.86.99-.66 0-.99-.33-.99-.99 0-.58.33-.87 1-.87.58 0 .87.29.87.87zm-.49 36.58c0 .25-.12.38-.37.38-.33 0-.49-.12-.49-.37s.17-.37.5-.37c.25 0 .38.12.38.37zm-.12 6.08c0 .25-.08.37-.24.37-.25 0-.37-.12-.37-.37s.13-.37.38-.37c.17 0 .25.13.25.37zm-.12 6.08c0 .17-.04.25-.12.25-.16 0-.25-.08-.25-.25 0-.16.08-.24.25-.24.08 0 .13.09.13.25zm-.12 6.21c-.16 0-.25-.04-.25-.12l.25-.12.13.13c0 .09-.04.13-.12.13zm6.68-36.6c0 .42-.21.62-.62.62-.41 0-.62-.2-.62-.62 0-.49.21-.74.62-.74.41 0 .62.25.62.75zm0 6.08c0 .33-.21.5-.62.5-.41 0-.62-.16-.62-.49 0-.41.21-.62.62-.62.41 0 .62.21.62.62zm-.25 12.15c0 .25-.12.38-.37.38s-.37-.13-.37-.38.12-.37.37-.37.37.12.37.37zm0 6.08c0 .25-.12.37-.37.37s-.37-.12-.37-.37.12-.37.37-.37.37.13.37.38zm-.12 6.08c0 .17-.08.25-.25.25-.16 0-.25-.08-.25-.25 0-.16.09-.24.25-.24.17 0 .25.09.25.25zm-.12 6.08c0 .09-.04.13-.12.13-.08 0-.12-.04-.12-.12l.12-.12c.08 0 .13.04.13.13zm6.82-48.73c0 .58-.29.87-.87.87-.49 0-.74-.29-.74-.87 0-.49.25-.74.75-.74.58 0 .87.25.87.75zm0 6.2c0 .5-.29.75-.87.75-.49 0-.74-.24-.74-.74 0-.58.25-.86.75-.86.58 0 .87.29.87.87zm-.15 6.05c0 .42-.25.62-.74.62-.41 0-.62-.2-.62-.62 0-.49.21-.74.62-.74.5 0 .75.25.75.75zm-.12 6.08c0 .33-.2.5-.62.5-.33 0-.49-.16-.49-.49 0-.41.16-.62.49-.62.41 0 .62.21.62.62zm-.12 12.15c0 .25-.16.37-.49.37-.25 0-.37-.12-.37-.37s.13-.37.37-.37c.33 0 .5.13.5.38zm-.12 6.08c0 .25-.12.37-.37.37-.16 0-.25-.12-.25-.37s.09-.37.25-.37c.25 0 .37.12.37.37zm-.12 6.08c0 .17-.08.25-.25.25-.08 0-.12-.08-.12-.25 0-.16.04-.24.13-.24.17 0 .25.08.25.24zm0 6.08c0 .09-.08.13-.25.13l-.12-.12.13-.12c.09 0 .17.04.25.13zM221.34 38c0 .412-.21.62-.62.62-.5 0-.747-.208-.747-.62 0-.497.25-.745.75-.745.415 0 .62.247.62.743zm0 6.076c0 .33-.21.495-.62.495-.416 0-.62-.16-.62-.49 0-.41.204-.62.62-.62.41 0 .62.21.62.62zm-.25 12.15c0 .248-.125.372-.37.372s-.375-.124-.375-.372.124-.372.372-.372.372.124.372.372zm-.125 6.076c0 .248-.083.372-.248.372-.248 0-.372-.124-.372-.372s.124-.372.372-.372c.165 0 .248.124.248.372zm0 6.075c0 .167-.083.25-.248.25-.165 0-.248-.083-.248-.25 0-.164.08-.247.24-.247.16 0 .25.083.25.248zm-.248 6.202c-.083 0-.124-.05-.124-.13l.13-.13.126.12c0 .08-.04.12-.13.12zm24.925-48.61c0 .25-.168.37-.498.37l-.123-.13-20.95-8.31-.49-1.37 21.82 8.8c.33 0 .41.2.24.62zm-18.48 30.25c0 .24-.125.37-.373.37s-.38-.13-.38-.37.12-.38.37-.38.37.12.37.37zm0 6.07c0 .25-.125.37-.373.37-.17 0-.25-.13-.25-.37s.08-.37.24-.37c.25 0 .37.12.37.37zm-.125 6.07c0 .17-.083.25-.248.25-.17 0-.25-.08-.25-.25 0-.17.08-.25.24-.25.16 0 .25.08.25.25zm-.124 6.08c0 .08-.04.12-.122.12l-.12-.13.13-.13c.09 0 .13.04.13.12zm6.82-48.73c0 .58-.25.86-.743.86-.58 0-.87-.29-.87-.87 0-.5.29-.75.87-.75.494 0 .742.25.742.74zm0 6.2c0 .49-.25.74-.743.74-.58 0-.87-.25-.87-.75 0-.58.29-.87.87-.87.494 0 .742.29.742.87zm-.123 6.07c0 .41-.21.62-.62.62-.498 0-.746-.21-.746-.62 0-.5.25-.75.75-.75.415 0 .62.25.62.74zm-.498 30.38c0 .16-.04.25-.13.25-.168 0-.25-.09-.25-.25 0-.17.082-.25.25-.25.08 0 .12.08.12.25zm-.13 6.2c-.086 0-.127-.04-.127-.13l.123-.12.123.12c0 .08-.04.12-.12.12zm6.82-42.66c0 .5-.25.74-.747.74s-.745-.25-.745-.75c0-.58.25-.87.744-.87s.744.29.744.87zm-.127 6.07c0 .41-.208.62-.62.62-.414 0-.62-.21-.62-.62 0-.5.206-.75.62-.75.413 0 .62.25.62.74zm0 6.07c0 .33-.208.49-.62.49-.414 0-.62-.17-.62-.5 0-.41.206-.62.62-.62.413 0 .62.21.62.62zm-.125 6.07c0 .33-.166.49-.496.49s-.496-.17-.496-.5c0-.33.164-.5.494-.5s.496.16.496.49zm-.37 24.3c0 .08-.044.12-.126.12s-.124-.04-.124-.12l.125-.13c.084 0 .126.04.126.12zm6.82-42.5c0 .5-.29.74-.87.74-.496 0-.744-.25-.744-.74 0-.58.25-.87.744-.87.58 0 .87.29.87.87zm-.126 6.07c0 .41-.25.62-.744.62-.41 0-.62-.21-.62-.62 0-.5.21-.75.62-.75.497 0 .745.24.745.74zm-.124 6.07c0 .33-.206.49-.62.49-.33 0-.495-.17-.495-.5 0-.41.168-.62.498-.62.416 0 .62.21.62.62zm-.123 6.07c0 .33-.167.49-.497.49s-.49-.16-.49-.49c0-.33.164-.5.494-.5s.496.16.496.49zm0 6.07c0 .25-.167.37-.497.37-.243 0-.37-.13-.37-.37s.127-.37.37-.37c.33 0 .5.12.5.37zm-.125 6.08c0 .24-.125.37-.373.37-.17 0-.25-.13-.25-.37s.08-.38.25-.38c.25 0 .37.12.37.37zm-.125 6.07c0 .17-.085.25-.25.25-.083 0-.124-.08-.124-.25 0-.17.04-.25.124-.25.166 0 .25.08.25.24zm0 6.08c0 .08-.085.12-.25.12l-.124-.13.124-.12c.083 0 .166.04.25.12z"/><path d="M290.896 50.393c-.166.165-.33.248-.496.248l-.248-.12-45.257-24.3c-.248-.16-.29-.41-.124-.74.09-.24.29-.29.62-.12l13.02 6.95V6.5h2.48v27.153l29.76 15.995c.33.166.42.414.25.745zm-38.562-12.4c0 .413-.207.62-.62.62-.496 0-.744-.207-.744-.62 0-.496.248-.744.744-.744.413 0 .62.24.62.74zm-.124 6.077c0 .33-.165.495-.496.495-.414 0-.62-.165-.62-.495 0-.414.207-.62.62-.62.33-.002.496.206.496.62zm0 6.075c0 .33-.165.496-.496.496s-.496-.16-.496-.49c0-.33.166-.49.496-.49s.496.17.496.5zm-.124 6.075c0 .248-.124.372-.372.372-.33 0-.496-.124-.496-.372s.166-.372.496-.372c.248 0 .372.124.372.372zm-.124 6.076c0 .248-.083.372-.248.372-.248 0-.372-.124-.372-.372s.124-.372.372-.372c.165 0 .248.124.248.372zm-.124 6.075c0 .17-.042.25-.124.25-.166 0-.248-.08-.248-.25 0-.16.083-.24.248-.24.083 0 .124.09.124.25zm-.124 6.21c-.166 0-.248-.04-.248-.12l.248-.12.124.13c0 .08-.04.12-.124.12zm6.448 0c-.083 0-.124-.04-.124-.12l.124-.12.124.13c0 .08-.04.12-.124.12zm28.766-7.31l-.372 1.99H258.41V37.87l2.48 1.24v27.65h25.79l.248.495zm-22.32 7.32c-.082 0-.123-.04-.123-.12l.124-.12.12.13c0 .08-.04.12-.13.12zm7.07-30.5c0 .33-.208.5-.62.5-.415 0-.62-.16-.62-.49 0-.41.206-.62.62-.62.412 0 .62.21.62.62zm-.125 6.08c0 .33-.166.5-.496.5s-.496-.16-.496-.49c0-.33.17-.49.5-.49s.5.17.5.5zm-.124 6.08c0 .25-.13.38-.38.38s-.37-.12-.37-.37.12-.37.37-.37.37.13.37.37zm0 6.08c0 .25-.13.38-.38.38s-.37-.12-.37-.37.12-.37.37-.37.37.13.37.37zm-.25 12.16c0 .08-.04.13-.13.13s-.13-.04-.13-.12l.12-.12c.08 0 .12.04.12.12zM278 50.15c0 .33-.17.497-.5.497s-.496-.163-.496-.493c0-.33.166-.496.496-.496s.497.165.497.496zm-.127 6.076c0 .247-.124.37-.372.37s-.37-.123-.37-.37.13-.373.38-.373.37.124.37.372zm0 6.075c0 .25-.124.38-.372.38-.16 0-.24-.12-.24-.37s.09-.37.25-.37c.25 0 .38.13.38.37zm-.248 12.16c0 .08-.046.13-.128.13l-.125-.12.124-.12c.08 0 .123.04.123.13zm6.815-18.23c0 .25-.164.37-.495.37-.248 0-.37-.12-.37-.37s.122-.37.37-.37c.33 0 .496.13.496.38zm-.123 6.08c0 .25-.124.37-.37.37-.166 0-.25-.12-.25-.37s.084-.37.25-.37c.25 0 .373.13.373.38zm-.248 12.15c0 .09-.04.13-.13.13l-.13-.12.12-.12c.08 0 .12.04.12.13zm6.82-18.22c0 .25-.17.37-.5.37-.25 0-.38-.12-.38-.37s.12-.37.37-.37c.33 0 .49.13.49.38zm-.13 6.08c0 .25-.13.37-.37.37-.17 0-.25-.12-.25-.37s.08-.37.25-.37c.24 0 .37.13.37.38zm-.13 12.15c0 .09-.09.13-.25.13l-.13-.12.12-.12c.08 0 .16.04.25.13z"/><path d="M290.65 50.64h-.25c-.247 0-.37-.082-.37-.247-.084-.33 0-.58.247-.744l10.416-4.96v1.11l-10.043 4.84zm6.57 5.58c0 .248-.123.372-.37.372s-.373-.124-.373-.372.124-.372.372-.372.37.124.37.372zm0 6.076c0 .248-.123.372-.37.372s-.373-.124-.373-.372.124-.372.372-.372.37.124.37.372zm-.123 6.075c0 .17-.083.25-.248.25-.17 0-.25-.08-.25-.25 0-.16.08-.24.25-.24.16 0 .24.09.24.25zm-.124 6.08c0 .08-.042.13-.124.13-.09 0-.13-.04-.13-.12l.12-.12c.08 0 .12.04.12.13zm6.447 0c0 .08-.083.13-.248.13l-.124-.12.124-.12c.083 0 .166.04.248.13zm32.487-67.33l-.496 1.99-29.13-.12v27.65h24.18l.25.5-.37 1.99h-24.06V66.9h29.64l.38.37-.49 2.11h-32V6.627h31.74l.38.49zM310.24 44.07c0 .33-.207.495-.62.495-.413 0-.62-.165-.62-.495 0-.414.207-.62.62-.62.414-.002.62.206.62.62zm-.124 6.075c0 .33-.166.496-.496.496s-.496-.16-.496-.49c0-.33.165-.49.496-.49s.496.17.496.5zm-.124 6.075c0 .248-.124.372-.372.372s-.372-.124-.372-.372.124-.372.372-.372.372.124.372.372zm0 6.076c0 .248-.124.372-.372.372s-.372-.124-.372-.372.124-.372.372-.372.372.124.372.372zm-.248 12.152c0 .082-.04.124-.124.124-.083 0-.124-.042-.124-.124l.124-.124c.083 0 .124.04.124.124zm6.82-30.378c0 .33-.207.495-.62.495-.33 0-.496-.165-.496-.495 0-.414.166-.62.496-.62.413-.002.62.206.62.62zm0 0c0 .33-.207.495-.62.495-.33 0-.496-.165-.496-.495 0-.414.166-.62.496-.62.413-.002.62.206.62.62zm-.124 6.075c0 .33-.166.496-.496.496s-.496-.16-.496-.49c0-.33.166-.49.496-.49s.496.17.496.5zm0 0c0 .33-.166.496-.496.496s-.496-.16-.496-.49c0-.33.166-.49.496-.49s.496.17.496.5zm0 6.075c0 .248-.166.372-.496.372-.248 0-.372-.124-.372-.372s.124-.372.372-.372c.33 0 .496.124.496.372zm0 0c0 .248-.166.372-.496.372-.248 0-.372-.124-.372-.372s.124-.372.372-.372c.33 0 .496.124.496.372zm-.124 6.076c0 .248-.124.372-.372.372-.165 0-.248-.124-.248-.372s.083-.372.248-.372c.248 0 .372.124.372.372zm0 0c0 .248-.124.372-.372.372-.165 0-.248-.124-.248-.372s.083-.372.248-.372c.248 0 .372.124.372.372zm-.124 12.152c0 .082-.083.124-.248.124l-.124-.124.124-.124c.082 0 .165.04.248.124zm6.82-30.378c0 .33-.207.495-.62.495-.414 0-.62-.165-.62-.495 0-.414.207-.62.62-.62.413-.002.62.206.62.62zm0 0c0 .33-.207.495-.62.495-.414 0-.62-.165-.62-.495 0-.414.207-.62.62-.62.413-.002.62.206.62.62zm-.124 6.075c0 .33-.166.496-.496.496s-.496-.16-.496-.49c0-.33.166-.49.496-.49s.496.17.496.5zm0 0c0 .33-.166.496-.496.496s-.496-.16-.496-.49c0-.33.166-.49.496-.49s.496.17.496.5zm-.124 6.075c0 .248-.124.372-.372.372s-.372-.124-.372-.372.124-.372.372-.372.372.124.372.372zm0 0c0 .248-.124.372-.372.372s-.372-.124-.372-.372.124-.372.372-.372.372.124.372.372zm0 6.076c0 .248-.124.372-.372.372s-.372-.124-.372-.372.124-.372.372-.372.372.124.372.372zm0 0c0 .248-.124.372-.372.372s-.372-.124-.372-.372.124-.372.372-.372.372.124.372.372zm-.248 12.152c0 .082-.042.124-.124.124s-.124-.042-.124-.124l.124-.124c.082 0 .124.04.124.124zm19.218-48.234l-15.25 7.315h-2.357l17.235-8.19c.248-.17.455-.09.62.25.166.25.083.45-.248.62zm-12.4 17.856c0 .33-.206.495-.62.495-.33 0-.495-.165-.495-.495 0-.414.16-.62.49-.62.41-.002.62.206.62.62zm-.123 6.075c0 .33-.16.496-.49.496s-.49-.16-.49-.49c0-.33.17-.49.5-.49s.5.17.5.5zm0 6.075c0 .248-.16.372-.49.372-.25 0-.37-.124-.37-.372s.13-.372.37-.372c.33 0 .5.124.5.372zm-.12 6.076c0 .248-.12.372-.37.372-.16 0-.25-.124-.25-.372s.09-.372.25-.372c.25 0 .37.124.37.372zm-.12 12.152c0 .082-.08.124-.25.124l-.12-.124.13-.124c.09 0 .17.04.25.124zm6.95-42.53c0 .496-.25.744-.74.744s-.74-.248-.74-.744c0-.58.25-.868.75-.868s.75.29.75.868zm-.12 6.075c0 .413-.2.62-.62.62-.41 0-.62-.207-.62-.62 0-.496.21-.744.62-.744.42 0 .62.24.62.74zm0 6.077c0 .33-.2.495-.62.495-.41 0-.62-.165-.62-.495 0-.414.21-.62.62-.62.42-.002.62.206.62.62zm-.12 6.075c0 .33-.16.496-.49.496-.33 0-.49-.16-.49-.49 0-.33.17-.49.5-.49.33 0 .49.17.49.5zm-.12 6.075c0 .248-.12.372-.37.372s-.37-.124-.37-.372.13-.372.38-.372.37.124.37.372zm0 6.076c0 .248-.12.372-.37.372s-.37-.124-.37-.372.13-.372.38-.372.37.124.37.372zm-.25 12.152c0 .082-.04.124-.12.124-.08 0-.12-.042-.12-.124l.13-.124c.09 0 .13.04.13.124zm7.07-42.53c0 .496-.29.744-.86.744-.49 0-.74-.248-.74-.744 0-.58.25-.868.75-.868.58 0 .87.29.87.868zm-.12 6.075c0 .413-.24.62-.74.62-.41 0-.62-.207-.62-.62 0-.496.21-.744.62-.744.5 0 .75.24.75.74zm-.12 6.077c0 .33-.2.495-.62.495-.33 0-.49-.165-.49-.495 0-.414.17-.62.5-.62.42-.002.62.206.62.62zm-.13 6.075c0 .33-.17.496-.5.496s-.5-.16-.5-.49c0-.33.17-.49.5-.49s.5.17.5.5zm0 6.075c0 .248-.17.372-.5.372-.25 0-.37-.124-.37-.372s.13-.372.37-.372c.33 0 .5.124.5.372zm-.12 6.076c0 .248-.12.372-.37.372-.16 0-.25-.124-.25-.372s.09-.372.25-.372c.25 0 .38.124.38.372zm-.12 6.075c0 .17-.08.25-.25.25-.08 0-.12-.08-.12-.25 0-.16.04-.24.13-.24.17 0 .25.09.25.25zm0 6.08c0 .08-.08.13-.25.13l-.12-.12.13-.12c.08 0 .17.04.25.13z"/><path d="M341.736 25.222l5.083 1.984c-.09.166-.13.33-.13.496s-.04.33-.13.496l-5.21-1.984c-.42 0-.5-.207-.25-.62 0-.248.21-.372.62-.372zm6.2 30.998c0 .248-.124.372-.372.372s-.372-.124-.372-.372.124-.372.372-.372.372.124.372.372zm-.124 6.076c0 .248-.083.372-.248.372-.248 0-.372-.124-.372-.372s.124-.372.372-.372c.165 0 .248.124.248.372zm0 6.075c0 .17-.083.25-.248.25s-.248-.08-.248-.25c0-.16.083-.24.248-.24s.248.09.248.25zm-.25 6.21c-.082 0-.123-.04-.123-.12l.12-.12.12.13c0 .08-.04.12-.13.12zm48.98-23.8v15.5c-2.233.66-4.258 1.2-6.077 1.61-1.818.42-3.534.75-5.146.99s-3.25.44-4.9.56c-1.66.13-3.39.19-5.21.19-8.6 0-15.17-2.68-19.72-8.06s-6.82-13.06-6.82-23.06c0-10.5 2.58-18.51 7.75-24.05 5.16-5.54 12.62-8.31 22.38-8.31 2.89 0 5.93.46 9.11 1.37 3.18.91 6.26 2.19 9.23 3.85l-.75 2.36h-.62c-2.9-1.65-5.79-2.91-8.68-3.78-2.9-.87-5.67-1.3-8.31-1.3-8.93 0-15.75 2.57-20.46 7.69-4.71 5.13-7.07 12.56-7.07 22.32 0 9.26 2.04 16.37 6.14 21.33 4.09 4.96 10.02 7.44 17.79 7.44 1.57 0 3.06-.04 4.46-.12 1.4-.08 2.81-.24 4.21-.49s2.93-.56 4.59-.93 3.51-.81 5.58-1.3v-14.8l2.48.99zm-42.782 17.6c0 .17-.082.25-.247.25s-.248-.08-.248-.25c0-.16.083-.24.248-.24s.248.09.248.25zm-.123 6.08c0 .08-.043.13-.125.13l-.124-.12.125-.12c.083 0 .124.04.124.13zm54.433-24.31l-.13.13c0 .08-.085.2-.25.37h-.37L355 31.3c.083-.168.124-.33.124-.5 0-.164.042-.33.124-.495L407.7 49.65l.124.123c.165 0 .248.124.248.372zM360.21 38c0 .413-.21.62-.62.62-.5 0-.75-.207-.75-.62 0-.496.25-.744.74-.744.415 0 .62.242.62.74zm-.13 6.077c0 .33-.17.496-.5.496-.412 0-.62-.165-.62-.495 0-.413.21-.62.62-.62.33 0 .498.207.498.62zm0 6.076c0 .33-.17.496-.5.496s-.494-.16-.494-.49c0-.33.166-.5.496-.5s.496.16.496.49zm-.127 6.075c0 .25-.125.373-.373.373-.33 0-.494-.12-.494-.37s.165-.37.495-.37c.25 0 .38.13.38.37zm-.373 18.353c-.164 0-.246-.04-.246-.12l.25-.12.124.13c0 .08-.04.13-.124.13zm6.574-30.5c0 .33-.206.5-.62.5-.413 0-.62-.16-.62-.49 0-.41.208-.62.62-.62.414 0 .62.21.62.62zm-.123 6.08c0 .33-.16.5-.49.5s-.49-.16-.49-.49c0-.33.17-.49.5-.49s.5.17.5.5zm-.12 6.08c0 .25-.12.38-.37.38s-.37-.12-.37-.37.13-.37.38-.37.38.13.38.37zm-.25 18.23c0 .08-.04.13-.12.13s-.12-.04-.12-.12l.13-.12c.08 0 .12.04.12.13zm6.45-30.38c0 .33-.2.5-.62.5-.33 0-.49-.16-.49-.49 0-.41.17-.62.5-.62.42 0 .62.21.62.62zm-.12 6.08c0 .33-.16.5-.49.5s-.49-.16-.49-.49c0-.33.17-.49.5-.49s.5.17.5.5zm0 6.08c0 .25-.16.38-.49.38-.24 0-.37-.12-.37-.37s.13-.37.37-.37c.33 0 .5.12.5.37zm-.12 6.08c0 .25-.12.37-.37.37-.16 0-.25-.12-.25-.37s.09-.37.25-.37c.25 0 .38.13.38.38zm-.25 12.15c0 .08-.04.13-.12.13l-.12-.12.13-.12c.09 0 .13.04.13.13zm6.45-30.38c0 .33-.16.5-.49.5-.41 0-.62-.16-.62-.49 0-.41.21-.62.62-.62.33 0 .5.21.5.62zm0 6.08c0 .33-.16.5-.49.5s-.49-.16-.49-.49c0-.33.17-.5.5-.5s.5.17.5.5zm-.12 6.08c0 .25-.12.37-.37.37-.33 0-.49-.12-.49-.37s.17-.37.5-.37c.25 0 .38.13.38.37zm-.12 6.08c0 .25-.08.37-.25.37-.24 0-.37-.12-.37-.37s.13-.37.38-.37c.17 0 .25.12.25.37zm-.25 12.28c-.08 0-.12-.04-.12-.12l.12-.12.13.13c0 .08-.04.13-.12.13zm6.45-24.42c0 .33-.16.5-.49.5s-.5-.16-.5-.49c0-.33.17-.5.5-.5s.5.17.5.5zm-.12 6.08c0 .25-.12.38-.37.38s-.37-.12-.37-.37.13-.37.37-.37.37.12.37.37zm0 6.08c0 .25-.12.38-.37.38s-.37-.13-.37-.37.13-.37.37-.37.37.13.37.37zm-.24 12.16c0 .08-.04.12-.12.12s-.12-.04-.12-.12l.13-.12c.08 0 .12.04.12.13zM390 50.2c0 .33-.162.497-.492.497s-.5-.16-.5-.49c0-.33.17-.493.5-.493s.497.16.497.493zm0 6.076c0 .25-.162.37-.492.37-.25 0-.374-.123-.374-.37s.126-.37.374-.37c.33 0 .5.12.5.37zm-.37 18.23c0 .08-.04.12-.12.12l-.123-.123.127-.13c.08 0 .12.04.12.127zm5.96.12c-.088 0-.13-.04-.13-.123l.126-.13.12.127c0 .08-.04.12-.124.12zm6.32-18.35c0 .25-.127.37-.375.37s-.37-.123-.37-.37.12-.37.37-.37.37.123.37.37zm0 6.076c0 .248-.127.37-.375.37-.17 0-.25-.125-.25-.373s.08-.37.246-.37c.25 0 .38.12.38.37zm-.127 6.075c0 .17-.086.25-.25.25-.167 0-.25-.08-.25-.25 0-.16.085-.24.25-.24.17 0 .25.083.25.248zm-.127 6.08c0 .08-.05.13-.13.13s-.13-.04-.13-.124l.124-.13c.08 0 .12.04.12.124zm6.32-18.23c0 .25-.17.38-.5.38-.25 0-.37-.124-.37-.37s.12-.37.37-.37c.33 0 .495.12.495.37zm-.13 6.08c0 .25-.125.37-.37.37-.167 0-.25-.12-.25-.37s.086-.37.25-.37c.25 0 .374.124.374.37zm-.13 6.074c0 .17-.084.25-.25.25-.08 0-.12-.08-.12-.25 0-.16.04-.24.12-.24.16 0 .25.09.25.25zm0 6.08c0 .09-.084.13-.25.13l-.12-.12.12-.12c.08 0 .16.04.25.13z"/><path d="M465.608 1.787l-57.78 48.73c-.084.08-.208.123-.373.123-.083 0-.207-.083-.372-.248-.248-.248-.207-.455.124-.62l13.64-11.655V6.5l14.754-.125c3.48 0 6.47.58 8.99 1.736 2.52 1.16 4.57 2.82 6.14 4.96l14.26-12.02c.17-.16.41-.16.75 0 .17.33.13.58-.12.75zm-51.83 48.358c0 .33-.165.496-.495.496s-.496-.16-.496-.49c0-.33.166-.49.496-.49s.496.17.496.5zm-.123 6.075c0 .248-.124.372-.372.372s-.372-.124-.372-.372.13-.372.38-.372.37.124.37.372zm0 6.076c0 .248-.124.372-.372.372s-.372-.124-.372-.372.13-.372.38-.372.37.124.37.372zm-.124 6.075c0 .17-.08.25-.24.25s-.25-.08-.25-.25c0-.16.09-.24.25-.24s.25.09.25.25zm-.12 6.08c0 .08-.04.13-.12.13s-.12-.04-.12-.12l.13-.12c.09 0 .13.04.13.13zm5.71.13c-.08 0-.12-.04-.12-.12l.13-.12.13.13c0 .08-.04.12-.12.12zm4.22-32.11v26.78h-2.48V44.57l2.48-2.108zm25.3-27.65c-1.32-1.82-3.01-3.24-5.08-4.28-2.06-1.03-4.54-1.63-7.44-1.8l-12.77.13v27.15l25.3-21.2zm-23.7 59.63c0 .09-.04.13-.12.13l-.12-.12.13-.12c.09 0 .13.04.13.13zM431.27 38c0 .413-.208.62-.62.62-.414 0-.62-.207-.62-.62 0-.496.206-.744.62-.744.413 0 .62.25.62.75zm0 6.077c0 .33-.208.496-.62.496-.414 0-.62-.165-.62-.495 0-.413.206-.62.62-.62.413 0 .62.207.62.62zm-.125 6.076c0 .33-.165.496-.495.496s-.497-.17-.497-.5c0-.33.17-.5.5-.5s.5.16.5.49zm-.123 6.075c0 .25-.13.373-.38.373s-.37-.12-.37-.37.12-.37.37-.37.37.13.37.37zm-.13 6.077c0 .25-.09.374-.25.374-.25 0-.37-.13-.37-.38s.12-.38.37-.38c.16 0 .25.12.25.37zm0 6.077c0 .166-.09.25-.25.25-.17 0-.25-.084-.25-.25 0-.165.08-.248.24-.248.168 0 .25.082.25.247zm-.25 6.2c-.09 0-.13-.042-.13-.124l.124-.124.124.12c0 .08-.04.12-.125.12zm6.57-42.654c0 .496-.29.744-.87.744-.5 0-.75-.25-.75-.745 0-.58.25-.868.745-.868.577 0 .867.29.867.86zM437.08 38c0 .412-.25.62-.745.62-.414 0-.62-.208-.62-.62 0-.497.206-.745.62-.745.495 0 .743.248.743.744zm-.25 18.226c0 .248-.165.372-.496.372-.25 0-.373-.124-.373-.372s.13-.372.38-.372c.33 0 .5.124.5.372zm6.88-4.216c1.365 1.9 2.77 3.74 4.217 5.51 1.446 1.77 2.955 3.55 4.525 5.33 1.57 1.77 3.265 3.61 5.084 5.51l.123.497c-.33.165-.6.33-.81.496s-.48.33-.81.494l-.87-.246c-3.72-3.64-7.11-7.52-10.17-11.65s-6.04-8.47-8.93-13.02l.24-.62c2.39-.58 4.54-1.49 6.44-2.73s3.51-2.71 4.83-4.4c1.32-1.69 2.33-3.57 3.04-5.64s1.05-4.21 1.05-6.44-.29-4.17-.87-5.83l2.23-1.86c.83 2.15 1.24 4.67 1.24 7.56 0 4.71-1.28 8.99-3.84 12.84-2.57 3.84-6.2 6.55-10.91 8.12 1.4 2.15 2.78 4.18 4.15 6.08zm-7 10.29c0 .25-.122.37-.37.37-.165 0-.25-.13-.25-.37s.085-.37.25-.37c.248 0 .37.12.37.37zm-.122 6.07c0 .164-.083.25-.248.25-.09 0-.13-.086-.13-.25 0-.167.04-.25.122-.25.164 0 .247.082.247.247zm0 6.08c0 .08-.083.12-.248.12l-.13-.124.122-.12c.082 0 .164.04.247.12zm6.45-48.73c0 .58-.29.87-.87.87-.58 0-.867-.29-.867-.87 0-.5.29-.747.86-.747s.87.25.87.744zm-.126 6.2c0 .493-.248.74-.744.74s-.743-.25-.743-.744c0-.58.25-.866.75-.866s.743.29.743.87zM442.8 38c0 .413-.208.62-.62.62-.415 0-.62-.207-.62-.62 0-.496.206-.744.62-.744.413 0 .62.247.62.743zm-.25 24.303c0 .247-.123.37-.37.37s-.373-.123-.373-.37.125-.373.373-.373.372.124.372.372zm-.123 6.074c0 .167-.082.25-.247.25-.166 0-.248-.083-.248-.25 0-.164.082-.247.247-.247.16 0 .24.083.24.248zm-.123 6.078c0 .082-.04.124-.123.124-.08 0-.12-.05-.12-.13l.13-.13c.09 0 .13.04.13.12zm6.45-48.73c0 .58-.25.868-.745.868-.58 0-.87-.29-.87-.868 0-.496.29-.744.87-.744.49 0 .74.25.74.75zm-.25 24.427c0 .33-.164.495-.495.495-.33 0-.5-.165-.5-.495 0-.33.16-.496.49-.496.33 0 .49.164.49.495zm-.37 18.225c0 .167-.04.25-.125.25-.17 0-.25-.083-.25-.25 0-.164.08-.247.25-.247.08 0 .12.083.12.248zm-.13 6.198c-.082 0-.123-.042-.123-.124l.13-.12.13.13c0 .08-.04.13-.12.13zm6.45-36.58c0 .414-.25.62-.745.62-.42 0-.62-.206-.62-.62 0-.495.2-.743.62-.743.49 0 .74.247.74.743zm-.125 6.078c0 .33-.21.496-.62.496-.33 0-.5-.17-.5-.5 0-.42.16-.62.49-.62.41 0 .62.2.62.62zm-.13 6.076c0 .33-.17.49-.5.49s-.5-.17-.5-.5c0-.33.16-.5.49-.5s.49.16.49.49zm0 6.07c0 .25-.17.37-.5.37-.25 0-.37-.13-.37-.37s.12-.37.37-.37c.33 0 .49.12.49.37zm-.37 18.23c0 .08-.04.12-.13.12l-.13-.13.12-.13c.08 0 .12.04.12.12zm6.69-60.88c0 .74-.33 1.11-1 1.11-.66 0-.99-.37-.99-1.12 0-.66.33-.99.99-.99.66 0 .99.33.99.99zm-.13 6.07c0 .66-.29.99-.87.99-.67 0-1-.33-1-1 0-.58.33-.87.99-.87.58 0 .86.29.86.86zm0 6.07c0 .58-.29.86-.87.86s-.87-.29-.87-.87c0-.5.29-.75.87-.75s.86.25.86.74zm-.13 6.2c0 .49-.25.74-.75.74s-.75-.25-.75-.75c0-.58.25-.87.74-.87s.74.29.74.87zm-.13 6.07c0 .41-.21.62-.62.62-.42 0-.62-.21-.62-.62 0-.5.2-.75.62-.75.41 0 .62.25.62.74zm0 6.07c0 .33-.21.49-.62.49-.42 0-.62-.17-.62-.5 0-.41.2-.62.62-.62.41 0 .62.21.62.62zm-.13 6.07c0 .33-.17.49-.5.49s-.5-.17-.5-.5c0-.33.16-.5.49-.5s.5.16.5.49zm-.13 6.07c0 .25-.13.37-.37.37s-.38-.12-.38-.37.12-.37.37-.37.37.12.37.37zm-.13 6.08c0 .25-.08.37-.25.37-.25 0-.37-.13-.37-.37s.12-.37.37-.37c.16 0 .25.12.25.37zm0 6.07c0 .16-.08.25-.25.25-.17 0-.25-.09-.25-.25 0-.17.08-.25.25-.25.16 0 .25.08.25.24zm-.25 6.2c-.09 0-.13-.04-.13-.13l.12-.13.13.12c0 .08-.04.12-.13.12zm6.82-67.08c0 .74-.38 1.11-1.12 1.11-.25 0-.5-.11-.74-.31-.25-.21-.37-.48-.37-.81s.12-.6.37-.81c.25-.21.49-.31.74-.31.74 0 1.11.37 1.11 1.11zm0 6.07c0 .74-.38 1.11-1.12 1.11-.66 0-.99-.37-.99-1.12 0-.66.33-1 .99-1 .74 0 1.11.33 1.11.99zm-.13 6.07c0 .66-.33.99-.99.99-.58 0-.87-.33-.87-.99 0-.58.29-.87.86-.87.66 0 .99.29.99.86zm-.13 6.07c0 .58-.29.87-.87.87-.5 0-.75-.29-.75-.87 0-.5.25-.74.74-.74.58 0 .87.25.87.74zm0 6.2c0 .5-.29.74-.87.74-.5 0-.75-.25-.75-.75 0-.58.25-.87.74-.87.58 0 .87.29.87.87zm-.12 6.08c0 .41-.25.62-.75.62-.42 0-.62-.21-.62-.62 0-.5.2-.75.62-.75.49 0 .74.25.74.74zm-.13 6.08c0 .33-.21.49-.62.49-.33 0-.5-.16-.5-.49 0-.42.16-.62.49-.62.41-.01.62.2.62.62zm-.13 6.07c0 .33-.17.5-.5.5s-.49-.17-.49-.5c0-.33.16-.5.49-.5s.49.16.49.49zm0 6.08c0 .24-.17.37-.5.37-.25 0-.37-.13-.37-.37s.13-.38.38-.38c.33 0 .49.12.49.37zm-.13 6.07c0 .24-.128.37-.37.37-.17 0-.25-.13-.25-.37s.083-.38.25-.38c.25 0 .372.12.372.37zm-.128 6.07c0 .16-.08.25-.24.25-.085 0-.126-.09-.126-.25 0-.17.04-.25.125-.25.16 0 .25.08.25.25zm0 6.08c0 .08-.08.12-.24.12l-.126-.12.125-.13c.08 0 .16.04.25.12z"/><path d="M465.114 1.91c-.33-.165-.413-.413-.248-.743.166-.33.372-.413.62-.248l10.044 4.83v1.12l-10.42-4.96zm7.564 11.657c0 .744-.33 1.116-.992 1.116-.662 0-.992-.372-.992-1.116 0-.66.33-.992.992-.992.66 0 .992.33.992.992zm-.124 6.075c0 .66-.29.992-.868.992-.662 0-.992-.33-.992-.992 0-.58.33-.868.992-.868.58 0 .868.29.868.868zm0 6.076c0 .58-.29.868-.868.868s-.868-.29-.868-.868c0-.496.29-.744.868-.744s.868.248.868.744zm-.124 6.2c0 .496-.248.744-.744.744s-.744-.248-.744-.744c0-.58.248-.868.744-.868s.744.29.744.868zm-.124 6.075c0 .413-.207.62-.62.62-.414 0-.62-.207-.62-.62 0-.496.207-.744.62-.744.413 0 .62.24.62.74zm0 6.077c0 .33-.207.495-.62.495-.414 0-.62-.165-.62-.495 0-.414.207-.62.62-.62.413-.002.62.206.62.62zm-.124 6.075c0 .33-.165.496-.496.496s-.496-.16-.496-.49c0-.33.166-.49.496-.49s.496.17.496.5zm-.124 6.075c0 .248-.124.372-.372.372s-.372-.124-.372-.372.124-.372.372-.372.372.124.372.372zm0 6.076c0 .248-.124.372-.372.372s-.372-.124-.372-.372.124-.372.372-.372.372.124.372.372zm-.124 6.075c0 .17-.083.25-.248.25-.166 0-.248-.08-.248-.25 0-.16.083-.24.248-.24.165 0 .248.09.248.25zm-.124 6.08c0 .08-.042.13-.124.13-.083 0-.124-.04-.124-.12l.124-.12c.083 0 .124.04.124.13zm6.448 0c0 .08-.083.13-.248.13l-.124-.12.124-.12c.082 0 .165.04.248.13zM510.744 7l-.496 2.108-29.14-.124V36.51h24.18l.248.496-.372 2.11H481.11v27.65h29.634l.37.496-.494 1.984h-31.99V6.5h31.742l.372.495zM485.2 19.642c0 .66-.288.992-.867.992-.66 0-.992-.33-.992-.992 0-.58.34-.868 1-.868.58 0 .87.29.87.868zm0 6.076c0 .58-.288.868-.867.868-.578 0-.868-.29-.868-.868 0-.496.29-.744.868-.744.58 0 .868.248.868.744zm-.123 6.2c0 .496-.248.744-.744.744s-.744-.248-.744-.744c0-.58.24-.868.74-.868s.74.29.74.868zm-.124 12.152c0 .33-.207.495-.62.495s-.62-.165-.62-.495c0-.414.207-.62.62-.62s.62.206.62.62zm-.124 6.075c0 .33-.17.496-.5.496-.33 0-.5-.16-.5-.49 0-.33.16-.49.49-.49.33 0 .49.17.49.5zm-.13 6.075c0 .248-.13.372-.37.372s-.37-.124-.37-.372.12-.372.37-.372.37.124.37.372zm-.13 6.076c0 .248-.09.372-.25.372-.25 0-.38-.124-.38-.372s.12-.372.37-.372c.16 0 .25.124.25.372zm0 12.152c0 .082-.04.124-.13.124-.08 0-.13-.042-.13-.124l.12-.124c.08 0 .12.04.12.124zm32.24-48.482c0 .248-.17.372-.5.372l-.13-.124-29.76-14.135h2.48l27.65 13.26c.33.16.41.37.25.62zm-25.05-6.324c0 .66-.33.992-.99.992-.58 0-.87-.33-.87-.992 0-.58.29-.868.87-.868.66 0 .99.29.99.868zm-.13 6.076c0 .58-.29.868-.87.868-.5 0-.74-.29-.74-.868 0-.496.25-.744.74-.744.58 0 .86.248.86.744zm0 6.2c0 .496-.29.744-.87.744-.5 0-.74-.248-.74-.744 0-.58.25-.868.74-.868.58 0 .86.29.86.868zm-.24 12.152c0 .33-.21.495-.62.495-.33 0-.5-.165-.5-.495 0-.414.16-.62.49-.62.42-.002.62.206.62.62zm-.13 6.075c0 .33-.17.496-.5.496-.33 0-.49-.16-.49-.49 0-.33.17-.49.5-.49.33 0 .49.17.49.5zm0 6.075c0 .248-.17.372-.5.372-.24 0-.37-.124-.37-.372s.13-.372.37-.372c.33 0 .5.124.5.372zm-.13 6.076c0 .248-.13.372-.37.372-.17 0-.25-.124-.25-.372s.08-.372.25-.372c.24 0 .37.124.37.372zM491 74.448c0 .082-.083.124-.248.124l-.12-.124.13-.124c.08 0 .16.04.243.124zm7.07-48.73c0 .58-.29.868-.87.868-.58 0-.868-.29-.868-.868 0-.496.29-.744.87-.744.58 0 .87.248.87.744zm-.126 6.2c0 .496-.246.744-.74.744s-.75-.248-.75-.744c0-.58.25-.868.74-.868s.743.29.743.868zm-.12 12.152c0 .33-.21.495-.62.495s-.62-.165-.62-.495c0-.414.2-.62.62-.62s.62.206.62.62zm-.13 6.075c0 .33-.17.496-.5.496s-.497-.16-.497-.49c0-.33.166-.49.497-.49s.497.17.497.5zm-.128 6.075c0 .248-.125.372-.37.372s-.375-.124-.375-.372.12-.372.37-.372.37.124.37.372zm0 6.076c0 .248-.125.372-.37.372s-.375-.124-.375-.372.12-.372.37-.372.37.124.37.372zm-.25 12.152c0 .082-.04.124-.13.124s-.124-.042-.124-.124l.122-.124c.08 0 .12.04.12.124zm7.063-48.73c0 .58-.29.868-.87.868-.5 0-.74-.29-.74-.868 0-.496.24-.744.74-.744.58 0 .87.248.87.744zm0 6.2c0 .496-.29.744-.87.744-.5 0-.74-.248-.74-.744 0-.58.24-.868.74-.868.58 0 .87.29.87.868zm-.25 12.152c0 .33-.21.495-.62.495-.33 0-.5-.165-.5-.495 0-.414.16-.62.49-.62.41-.002.62.206.62.62zm-.13 6.075c0 .33-.16.496-.5.496-.33 0-.5-.16-.5-.49 0-.33.16-.49.49-.49.33 0 .5.17.5.5zm0 6.075c0 .248-.16.372-.5.372-.25 0-.37-.124-.37-.372s.12-.372.37-.372c.33 0 .5.124.5.372zm-.12 6.076c0 .248-.13.372-.37.372-.17 0-.25-.124-.25-.372s.08-.372.25-.372c.25 0 .37.124.37.372zm-.13 12.152c0 .082-.09.124-.25.124l-.13-.124.12-.124c.08 0 .16.04.25.124zm6.94-42.53c0 .496-.25.744-.75.744s-.75-.248-.75-.744c0-.58.25-.868.74-.868s.74.29.74.868zm-.13 6.075c0 .413-.21.62-.62.62-.42 0-.62-.207-.62-.62 0-.496.2-.744.62-.744.41 0 .62.24.62.74zm0 6.077c0 .33-.21.495-.62.495-.42 0-.62-.165-.62-.495 0-.414.2-.62.62-.62.41-.002.62.206.62.62zm-.13 6.075c0 .33-.17.496-.5.496-.33 0-.5-.16-.5-.49 0-.33.17-.49.5-.49.33 0 .5.17.5.5zm-.13 6.075c0 .248-.12.372-.37.372s-.37-.124-.37-.372.12-.372.37-.372.37.124.37.372zm0 6.076c0 .248-.12.372-.37.372s-.37-.124-.37-.372.12-.372.37-.372.37.124.37.372zm-.25 12.152c0 .082-.04.124-.13.124-.08 0-.12-.042-.12-.124l.12-.125c.08 0 .12.042.12.125zm7.07-42.53c0 .496-.29.744-.87.744-.5 0-.75-.248-.75-.744 0-.58.25-.868.75-.868.58 0 .86.29.86.868zm-.12 6.075c0 .413-.25.62-.75.62-.42 0-.62-.207-.62-.62 0-.496.2-.744.62-.744.49 0 .74.24.74.74zm-.13 6.077c0 .33-.21.495-.62.495-.33 0-.5-.165-.5-.495 0-.414.16-.62.49-.62.41-.002.62.206.62.62zm-.13 6.075c0 .33-.17.496-.5.496-.33 0-.5-.16-.5-.49 0-.33.162-.49.492-.49.33 0 .49.17.49.5zm0 6.075c0 .248-.17.372-.5.372-.25 0-.37-.124-.37-.372s.13-.372.38-.372c.33 0 .49.124.49.372zm-.13 6.076c0 .248-.13.372-.37.372-.17 0-.25-.124-.25-.372s.08-.372.25-.372c.24 0 .37.124.37.372zm-.13 6.075c0 .17-.08.25-.25.25-.08 0-.13-.08-.13-.25 0-.16.04-.24.126-.24.166 0 .25.09.25.25zm0 6.08c0 .08-.08.13-.25.13l-.13-.12.126-.12c.084 0 .166.04.25.13z"/><path d="M531.7 33.033l-15.5-6.82c-.33-.165-.412-.37-.247-.62.165-.33.372-.412.62-.247l14.26 6.2.867 1.487zm12.648 13.144V69.24h-2.48V46.053L521.286 6.5h3.1l1.116 2.727 17.36 32.982h.495l18.847-32.99 1.24-2.73h3.1L544.35 46.17zm-21.203-8.184c0 .413-.206.62-.62.62-.413 0-.62-.207-.62-.62 0-.496.207-.744.62-.744.413 0 .62.24.62.74zm0 6.077c0 .33-.206.495-.62.495-.413 0-.62-.165-.62-.495 0-.414.207-.62.62-.62.413-.002.62.206.62.62zm-.124 6.075c0 .33-.16.496-.49.496-.33 0-.49-.16-.49-.49 0-.33.17-.49.5-.49.33 0 .5.17.5.5zm-.12 6.075c0 .248-.12.372-.37.372s-.37-.124-.37-.372.12-.372.37-.372.37.124.37.372zm0 6.076c0 .248-.12.372-.37.372-.16 0-.25-.124-.25-.372s.09-.372.25-.372c.25 0 .37.124.37.372zm-.12 6.075c0 .17-.08.25-.25.25-.16 0-.25-.08-.25-.25 0-.16.09-.24.25-.24.17 0 .25.09.25.25zm-.12 6.08c0 .08-.04.13-.12.13-.08 0-.12-.04-.12-.12l.13-.12c.09 0 .13.04.13.13zM529.35 38c0 .413-.208.62-.62.62-.497 0-.745-.207-.745-.62 0-.496.25-.744.745-.744.413 0 .62.248.62.744zm0 6.077c0 .33-.208.496-.62.496s-.62-.165-.62-.495c0-.413.206-.62.62-.62s.62.207.62.62zm-.125 6.076c0 .33-.165.496-.495.496-.33 0-.496-.17-.496-.5 0-.33.166-.5.497-.5.33 0 .5.16.5.49zm-.123 6.075c0 .25-.126.373-.374.373-.33 0-.496-.12-.496-.37s.165-.37.496-.37c.248 0 .372.13.372.37zm-.126 6.077c0 .25-.083.374-.248.374-.248 0-.372-.13-.372-.38s.124-.37.372-.37c.165 0 .248.12.248.37zm0 6.077c0 .166-.083.25-.248.25s-.248-.084-.248-.25c0-.165.082-.248.247-.248s.248.082.248.247zm-.248 6.2c-.083 0-.124-.042-.124-.124l.125-.124.12.124c0 .082-.04.124-.13.124zm6.695-30.502c0 .33-.204.495-.62.495-.33 0-.494-.164-.494-.494 0-.41.16-.62.49-.62.41 0 .62.21.62.62zm-.122 6.075c0 .33-.16.497-.49.497-.33 0-.49-.166-.49-.496 0-.33.17-.495.5-.495.33 0 .5.17.5.5zm0 6.076c0 .25-.16.37-.49.37-.24 0-.37-.12-.37-.37s.13-.37.37-.37c.33 0 .5.13.5.37zm-.12 6.08c0 .25-.12.38-.37.38-.16 0-.24-.12-.24-.37s.09-.37.25-.37c.25 0 .38.13.38.37zm-.12 6.08c0 .17-.08.25-.25.25-.08 0-.12-.08-.12-.25 0-.16.05-.24.13-.24.17 0 .25.09.25.25zm0 6.08c0 .08-.08.13-.25.13l-.12-.12.13-.12c.09 0 .17.04.25.13zm6.08 0c0 .08-.04.13-.12.13l-.12-.12.13-.12c.09 0 .13.05.13.13zm6.08.13c-.08 0-.12-.04-.12-.12l.13-.12.12.13c0 .09-.04.13-.12.13zm25.04-24.31c0 .25-.16.37-.49.37h-.12l-20.95-9.3.5-.86 20.8 9.15c.33.17.42.37.25.62zm-18.47-.12c0 .33-.16.5-.49.5-.33 0-.49-.16-.49-.49 0-.33.17-.49.5-.49.33 0 .5.17.5.5zm0 6.08c0 .25-.16.38-.49.38-.24 0-.37-.12-.37-.37s.13-.37.37-.37c.33 0 .5.13.5.37zm-.12 6.08c0 .25-.12.37-.37.37-.16 0-.25-.12-.25-.37s.08-.37.24-.37c.25 0 .38.13.38.37zm-.12 6.08c0 .17-.08.25-.25.25-.08 0-.12-.08-.12-.25 0-.16.05-.24.13-.24.16 0 .25.08.25.25zm0 6.08c0 .09-.08.13-.25.13l-.12-.12.13-.12c.08 0 .16.04.25.13zm6.45-24.3c0 .33-.16.5-.49.5-.33 0-.5-.16-.5-.49 0-.33.17-.5.5-.5.33 0 .5.17.5.5zm-.12 6.08c0 .25-.12.37-.37.37s-.37-.12-.37-.37.13-.37.37-.37.37.13.37.38zm0 6.08c0 .25-.12.37-.37.37-.16 0-.25-.12-.25-.37s.09-.37.25-.37c.25 0 .37.13.37.38zm-.12 6.07c0 .17-.08.25-.25.25s-.25-.08-.25-.25c0-.16.09-.25.25-.25s.25.09.25.25zm-.12 6.08c0 .09-.04.13-.12.13l-.12-.12.13-.12c.09 0 .13.04.13.12zm6.45-18.22c0 .25-.12.37-.37.37s-.37-.12-.37-.37.12-.37.37-.37.37.13.37.38zm-.12 6.08c0 .25-.08.37-.25.37-.25 0-.37-.12-.37-.37s.12-.37.37-.37c.17 0 .25.13.25.38zm0 6.08c0 .17-.08.25-.25.25-.16 0-.25-.08-.25-.25 0-.16.08-.25.25-.25.16 0 .25.08.25.25zm-.25 6.2c-.08 0-.12-.04-.12-.12l.13-.12.13.12c0 .09-.04.13-.12.13zm6.57-18.35c0 .25-.16.37-.49.37-.25 0-.37-.12-.37-.37s.12-.37.37-.37c.33 0 .5.13.5.38zm-.12 6.08c0 .25-.13.37-.37.37-.16 0-.25-.12-.25-.37s.09-.37.25-.37c.25 0 .38.12.38.37zm-.12 6.07c0 .17-.08.25-.25.25-.08 0-.12-.08-.12-.25 0-.16.04-.25.13-.25.17 0 .25.08.25.25zm0 6.08c0 .08-.08.12-.25.12l-.12-.12.13-.12c.08 0 .17.04.25.13z"/><path d="M604.238 6.5l23.56 62.74h-2.853l-1.24-4.465-4.96-13.02h-32.982l-5.455 13.02-1.488 4.464h-2.728v-.25l8.06-19.72h33.726l-14.88-38.94h-.37l-13.145 32.24 19.59-7.82.373.99L572 50.64h-.248c-.248 0-.372-.123-.372-.37-.165-.25-.083-.456.248-.62l14.88-5.953L601.633 6.5h2.604zM577.95 74.57c-.08 0-.123-.042-.123-.124l.124-.124.13.124c0 .082-.04.124-.12.124zm6.325-6.2c0 .165-.083.247-.248.247s-.248-.083-.248-.25c0-.164.08-.247.24-.247s.25.083.25.248zm-.124 6.076c0 .082-.04.124-.12.124l-.12-.124.13-.124c.09 0 .13.04.13.124zm6.45-18.228c0 .248-.12.372-.37.372-.33 0-.49-.124-.49-.372s.17-.372.5-.372c.25 0 .37.124.37.372zm-.12 6.076c0 .248-.08.372-.25.372-.25 0-.37-.124-.37-.372s.13-.372.37-.372c.17 0 .25.124.25.372zm-.12 6.075c0 .16-.04.25-.12.25-.16 0-.25-.09-.25-.25 0-.17.09-.25.25-.25.08 0 .13.08.13.25zm-.12 6.2c-.16 0-.25-.04-.25-.13l.25-.13.13.12c0 .08-.04.12-.12.12zm6.45-18.35c0 .24-.12.37-.37.37s-.37-.13-.37-.37.13-.38.38-.38.37.12.37.37zm0 6.07c0 .25-.12.37-.37.37s-.37-.13-.37-.37.13-.37.38-.37.37.12.37.37zm-.12 6.07c0 .16-.08.25-.24.25s-.25-.09-.25-.25c0-.17.09-.25.25-.25s.25.08.25.24zm-.12 6.07c0 .08-.04.12-.12.12-.08 0-.12-.04-.12-.13l.13-.12c.08 0 .13.04.13.12zM603 44.07c0 .33-.205.495-.62.495-.33 0-.495-.165-.495-.495 0-.414.166-.62.496-.62.42-.002.62.206.62.62zm-.123 12.15c0 .248-.165.372-.496.372-.24 0-.37-.124-.37-.372s.13-.372.37-.372c.33 0 .5.124.5.372zm-.124 6.076c0 .248-.124.372-.372.372-.16 0-.24-.124-.24-.372s.09-.372.25-.372c.25 0 .38.124.38.372zm-.124 6.075c0 .17-.09.25-.25.25-.08 0-.13-.08-.13-.25 0-.16.04-.24.12-.24.16 0 .25.09.25.25zm0 6.08c0 .08-.09.13-.25.13l-.13-.12.12-.12c.08 0 .16.04.25.13zm6.57-30.38c0 .33-.21.5-.62.5-.42 0-.62-.16-.62-.49 0-.41.2-.62.62-.62.41 0 .62.21.62.62zm-.25 12.15c0 .25-.13.38-.37.38s-.37-.12-.37-.37.12-.37.37-.37.37.13.37.37zm-.13 6.08c0 .25-.09.37-.25.37-.25 0-.37-.12-.37-.37s.12-.37.37-.37c.16 0 .25.13.25.37zm0 6.08c0 .17-.09.25-.25.25-.17 0-.25-.08-.25-.25 0-.16.08-.24.25-.24.16 0 .25.09.25.25zm-.25 6.2c-.08 0-.13-.04-.13-.12l.12-.12.12.13c0 .09-.04.13-.13.13zm6.45-18.35c0 .25-.13.37-.37.37s-.37-.12-.37-.37.12-.37.37-.37.37.13.37.38zm0 6.08c0 .25-.13.37-.37.37-.17 0-.25-.12-.25-.37s.08-.37.25-.37c.25 0 .37.13.37.38zm-.13 6.08c0 .17-.08.25-.25.25s-.25-.08-.25-.25c0-.16.08-.24.24-.24s.24.09.24.25zm-.13 6.08c0 .09-.04.13-.13.13l-.13-.12.12-.12c.08 0 .12.04.12.13zm18.47-48.23l-15.87 6.32-.38-.99 15.87-6.2c.25-.16.45-.08.62.25.17.25.08.46-.25.62zM621.47 38c0 .41-.202.62-.62.62-.49 0-.74-.21-.74-.62 0-.498.25-.746.745-.746.413 0 .62.247.62.743zm-.49 30.376c0 .167-.04.25-.12.25-.16 0-.25-.083-.25-.25 0-.164.08-.247.25-.247.08 0 .13.08.13.24zm-.12 6.202c-.08 0-.12-.042-.12-.124l.12-.124.13.124c0 .082-.04.124-.12.124zm6.82-42.654c0 .496-.25.744-.74.744s-.74-.248-.74-.744c0-.58.25-.868.75-.868s.742.29.742.868zM627.55 38c0 .412-.208.62-.62.62s-.62-.208-.62-.62c0-.497.206-.745.62-.745s.62.247.62.743zm0 6.076c0 .33-.208.495-.62.495s-.62-.16-.62-.49c0-.41.206-.62.62-.62s.62.21.62.62zm-.125 6.075c0 .33-.165.5-.496.5-.33 0-.5-.16-.5-.49 0-.33.16-.49.49-.49.33 0 .49.17.49.5zm-.124 6.08c0 .25-.12.37-.37.37s-.37-.12-.37-.37.13-.37.38-.37.37.13.37.37zm-.24 18.23c0 .08-.04.13-.12.13s-.12-.04-.12-.12l.13-.12c.09 0 .13.04.13.13zm6.82-42.53c0 .5-.29.75-.87.75-.49 0-.74-.25-.74-.74 0-.58.25-.87.75-.87.58 0 .87.29.87.87zm-.13 6.07c0 .42-.24.62-.74.62-.41 0-.62-.2-.62-.62 0-.49.21-.74.62-.74.5 0 .74.25.74.75zm-.12 6.08c0 .33-.2.5-.62.5-.33 0-.49-.16-.49-.49 0-.41.17-.62.5-.62.42 0 .62.21.62.62zm-.12 6.08c0 .33-.16.5-.49.5-.33 0-.5-.16-.5-.49 0-.33.16-.49.49-.49.33 0 .5.17.5.5zm0 6.08c0 .25-.16.37-.49.37-.25 0-.38-.12-.38-.37s.13-.37.37-.37c.33 0 .5.13.5.37zm-.12 6.08c0 .25-.12.38-.37.38-.16 0-.25-.12-.25-.37s.09-.37.25-.37c.25 0 .37.13.37.37zm-.12 6.08c0 .17-.08.25-.25.25-.08 0-.12-.08-.12-.25 0-.16.04-.24.13-.24.17 0 .25.08.25.25zm0 6.08c0 .09-.08.13-.25.13l-.12-.12.13-.12c.08 0 .17.04.25.12z"/></svg>