<svg xmlns="http://www.w3.org/2000/svg" width="946.459" height="77.229"><path d="M0 67.083c0-1.404.972-2.376 2.376-2.376s2.376.972 2.376 2.376c0 1.403-.972 2.376-2.376 2.376S0 68.48 0 67.08zM10.692 18.05c0 1.404-.972 2.376-2.376 2.376S5.94 19.454 5.94 18.05s.972-2.376 2.376-2.376 2.376.972 2.376 2.376zM9.288 73.67c0-1.403.972-2.375 2.376-2.375s2.376.972 2.376 2.376-.972 2.38-2.376 2.38-2.376-.97-2.376-2.37zm1.837-44.712c0-1.404.972-2.376 2.376-2.376 1.41 0 2.38.972 2.38 2.376s-.97 2.376-2.37 2.376-2.37-.97-2.37-2.376zm.323-21.492c0-1.404.972-2.376 2.376-2.376s2.376.972 2.376 2.376-.972 2.376-2.376 2.376-2.376-.972-2.376-2.376zm9.288 29.7c0-1.404.972-2.376 2.376-2.376s2.376.972 2.376 2.376-.972 2.376-2.376 2.376-2.376-.97-2.376-2.376zm.217 37.585c0-1.4.972-2.37 2.376-2.37 1.4 0 2.37.97 2.37 2.38s-.97 2.38-2.38 2.38-2.38-.97-2.38-2.37zm5.832-71.92c0 1.41-.972 2.38-2.376 2.38-1.41 0-2.38-.97-2.38-2.37S23 .45 24.41.45c1.4 0 2.372.972 2.372 2.376zm8.856 42.23c0 1.41-.97 2.38-2.37 2.38-1.4 0-2.37-.97-2.37-2.37s.97-2.37 2.38-2.37 2.38.97 2.38 2.38zM31.22 68.6c0-1.405.972-2.377 2.376-2.377s2.376.97 2.376 2.376-.972 2.37-2.377 2.37c-1.406 0-2.378-.97-2.378-2.38zm4.428-11.88c0-1.405.973-2.377 2.377-2.377s2.376.97 2.376 2.376c0 1.4-.97 2.37-2.37 2.37s-2.38-.97-2.38-2.38zM60.05 3.687c0 1.403-.973 2.375-2.377 2.375s-2.376-.972-2.376-2.376.972-2.376 2.376-2.376 2.376.975 2.376 2.38zm0 11.663c0 1.407-.973 2.38-2.377 2.38s-2.376-.973-2.376-2.377.972-2.375 2.376-2.375 2.376.972 2.376 2.376zm0 11.667c0 1.404-.973 2.376-2.377 2.376s-2.376-.97-2.376-2.375.972-2.376 2.376-2.376 2.376.97 2.376 2.376zM55.296 38.68c0-1.405.972-2.377 2.376-2.377s2.376.972 2.376 2.376-.973 2.37-2.377 2.37-2.37-.97-2.37-2.38zm0 11.664c0-1.404.972-2.376 2.376-2.376s2.376.972 2.376 2.376c0 1.403-.973 2.376-2.377 2.376s-2.37-.975-2.37-2.378zm0 11.664c0-1.404.972-2.376 2.376-2.376s2.376.974 2.376 2.378-.973 2.376-2.377 2.376-2.37-.972-2.37-2.376zm0 11.664c0-1.402.972-2.374 2.376-2.374s2.376.972 2.376 2.376-.973 2.377-2.377 2.377-2.37-.97-2.37-2.37zM71.604 3.688c0 1.404-.972 2.376-2.376 2.376s-2.376-.972-2.376-2.376.972-2.376 2.376-2.376 2.376.973 2.376 2.377zM66.852 38.68c0-1.405.972-2.377 2.376-2.377s2.376.972 2.376 2.376-.972 2.37-2.376 2.37-2.376-.97-2.376-2.38zm.108 34.992c0-1.403.972-2.375 2.376-2.375s2.376.972 2.376 2.376-.972 2.377-2.376 2.377-2.376-.972-2.376-2.376zM83.27 3.687c0 1.404-.973 2.376-2.377 2.376s-2.376-.972-2.376-2.376.972-2.376 2.376-2.376c1.403 0 2.376.98 2.376 2.38zM78.516 38.68c0-1.405.972-2.377 2.376-2.377s2.376.972 2.376 2.376-.972 2.37-2.376 2.37-2.376-.97-2.376-2.38zm.108 34.992c0-1.403.972-2.375 2.376-2.375s2.376.972 2.376 2.376S82.404 76.05 81 76.05s-2.376-.972-2.376-2.376zm11.665 0c0-1.403.97-2.375 2.37-2.375 1.4 0 2.37.972 2.37 2.376s-.97 2.377-2.38 2.377-2.38-.972-2.38-2.376zm21.16-69.986c0 1.404-.98 2.376-2.38 2.376s-2.37-.972-2.37-2.376.97-2.376 2.37-2.376 2.37.972 2.37 2.376zM106.7 15.35c0-1.404.973-2.376 2.377-2.376s2.375.972 2.375 2.376-.972 2.376-2.376 2.376-2.377-.972-2.377-2.376zm0 11.664c0-1.404.973-2.376 2.377-2.376s2.375.972 2.375 2.376-.972 2.376-2.376 2.376-2.377-.972-2.377-2.376zm4.753 11.664c0 1.405-.972 2.376-2.376 2.376s-2.377-.972-2.377-2.376.973-2.376 2.377-2.376 2.375.973 2.375 2.376zM106.7 50.343c0-1.404.973-2.376 2.377-2.376s2.375.972 2.375 2.376c0 1.403-.972 2.376-2.376 2.376s-2.377-.98-2.377-2.38zm0 11.664c0-1.404.973-2.376 2.377-2.376s2.375.98 2.375 2.38-.972 2.38-2.376 2.38-2.377-.97-2.377-2.37zm4.753 11.664c0 1.41-.972 2.38-2.376 2.38s-2.377-.97-2.377-2.37.973-2.37 2.377-2.37 2.375.97 2.375 2.38zm6.912 0c0-1.4.972-2.37 2.376-2.37s2.38.97 2.38 2.38-.97 2.38-2.37 2.38-2.37-.97-2.37-2.37zm11.664 0c0-1.4.97-2.37 2.37-2.37s2.37.97 2.37 2.38-.97 2.38-2.38 2.38-2.38-.97-2.38-2.37zm16.41 0c0 1.41-.97 2.38-2.38 2.38s-2.38-.97-2.38-2.37.97-2.37 2.37-2.37 2.37.97 2.37 2.38zm6.91 0c0-1.4.97-2.37 2.37-2.37s2.37.97 2.37 2.38-.98 2.38-2.38 2.38c-1.41 0-2.38-.97-2.38-2.37zm3.89-11.66c0-1.4.97-2.37 2.37-2.37s2.37.98 2.37 2.38-.98 2.38-2.38 2.38-2.38-.97-2.38-2.37zm3.56-11.66c0-1.4.97-2.37 2.37-2.37s2.37.97 2.37 2.38-.97 2.38-2.38 2.38-2.38-.97-2.38-2.37zm8.42-11.66c0 1.41-.97 2.38-2.38 2.38s-2.38-.97-2.38-2.37.97-2.38 2.37-2.38 2.37.98 2.37 2.38zm3.67-11.66c0 1.41-.98 2.38-2.38 2.38-1.41 0-2.38-.97-2.38-2.37s.97-2.37 2.37-2.37 2.372.97 2.372 2.38zm3.67-11.66c0 1.41-.98 2.38-2.38 2.38s-2.38-.97-2.38-2.37.97-2.37 2.38-2.37 2.37.97 2.37 2.38zm4.75-11.66c0 1.41-.97 2.38-2.38 2.38s-2.38-.97-2.38-2.38.97-2.37 2.37-2.37c1.4 0 2.37.97 2.37 2.38zm0 36.18c0 1.41-.97 2.38-2.38 2.38s-2.38-.97-2.38-2.38.97-2.37 2.37-2.37c1.4 0 2.37.97 2.37 2.38zm0-24.51c0-1.4.97-2.37 2.37-2.37s2.38.97 2.38 2.38-.98 2.38-2.38 2.38-2.38-.97-2.38-2.373zM185 27.02c0-1.405.972-2.377 2.376-2.377 1.4 0 2.372.97 2.372 2.376s-.972 2.37-2.376 2.37c-1.405 0-2.377-.97-2.377-2.38zm3.672 11.663c0-1.404.972-2.376 2.376-2.376s2.38.972 2.38 2.376-.972 2.375-2.376 2.375-2.375-.97-2.375-2.376zm3.672 11.665c0-1.404.972-2.376 2.376-2.376s2.376.97 2.376 2.375c0 1.403-.976 2.376-2.38 2.376s-2.376-.974-2.376-2.377zm3.564 11.664c0-1.405.976-2.377 2.38-2.377s2.376.974 2.376 2.378-.972 2.377-2.376 2.377-2.377-.972-2.377-2.376zm3.89 11.663c0-1.402.97-2.374 2.378-2.374 1.404 0 2.376.97 2.376 2.38s-.97 2.38-2.375 2.38-2.378-.97-2.378-2.37zM212.546 3.69c0 1.403-.972 2.375-2.376 2.375s-2.377-.972-2.377-2.376.974-2.38 2.378-2.38 2.38.97 2.38 2.37zm-.864 11.663c0-1.404.97-2.376 2.375-2.376 1.404 0 2.376.972 2.376 2.376s-.97 2.376-2.374 2.376c-1.41 0-2.38-.98-2.38-2.38zm3.887 11.664c0-1.404.97-2.376 2.37-2.376s2.37.98 2.37 2.38-.98 2.38-2.38 2.38-2.38-.97-2.38-2.37zm3.88 11.664c0-1.4.97-2.37 2.37-2.37 1.4 0 2.38.97 2.38 2.38s-.97 2.38-2.38 2.38c-1.4 0-2.38-.97-2.38-2.37zm3.89 11.67c0-1.4.97-2.37 2.37-2.37s2.37.97 2.37 2.38-.97 2.38-2.38 2.38-2.38-.97-2.38-2.37zm3.67 11.67c0-1.4.97-2.37 2.37-2.37s2.38.98 2.38 2.38-.97 2.38-2.38 2.38-2.38-.97-2.38-2.37zm4.32 11.67c0-1.4.97-2.37 2.37-2.37s2.38.97 2.38 2.38-.97 2.38-2.38 2.38c-1.4 0-2.38-.97-2.38-2.37zm4.21-11.66c0-1.4.97-2.37 2.37-2.37s2.37.98 2.37 2.38-.98 2.38-2.38 2.38-2.38-.97-2.38-2.37zM239 50.36c0-1.404.97-2.376 2.372-2.376s2.374.97 2.374 2.375c0 1.4-.97 2.37-2.37 2.37-1.404 0-2.38-.97-2.38-2.37zm3.78-11.665c0-1.41.97-2.38 2.372-2.38s2.374.97 2.374 2.375-.97 2.374-2.37 2.374c-1.404 0-2.38-.97-2.38-2.38zm3.78-11.67c0-1.404.97-2.376 2.372-2.376s2.374.97 2.374 2.37-.97 2.37-2.37 2.37c-1.404 0-2.38-.97-2.38-2.38zm3.78-11.664c0-1.4.97-2.37 2.372-2.37s2.374.97 2.374 2.38-.97 2.38-2.37 2.38c-1.404 0-2.38-.97-2.38-2.374zm8.53-11.67c0 1.41-.975 2.38-2.38 2.38s-2.377-.97-2.377-2.37.97-2.37 2.37-2.37 2.375.98 2.375 2.38zm13.39 0c0 1.41-.974 2.38-2.378 2.38s-2.376-.97-2.376-2.37.972-2.37 2.376-2.37 2.378.97 2.378 2.38zm2.7 11.67c0-1.4.97-2.38 2.373-2.38s2.38.97 2.38 2.38-.98 2.38-2.38 2.38-2.38-.97-2.38-2.38zm11.88 11.66c0 1.41-.974 2.38-2.378 2.38s-2.376-.97-2.376-2.37.972-2.37 2.376-2.37 2.378.97 2.378 2.38zm2.05 11.67c0-1.4.97-2.37 2.375-2.37s2.38.97 2.38 2.38-.97 2.38-2.37 2.38-2.376-.97-2.376-2.38zm0 11.67c0-1.4.97-2.37 2.375-2.37s2.38.97 2.38 2.37-.97 2.38-2.37 2.38-2.376-.97-2.376-2.37zm0 11.67c0-1.41.97-2.38 2.375-2.38s2.38.98 2.38 2.38-.97 2.38-2.37 2.38-2.376-.97-2.376-2.374zm0 11.66c0-1.4.97-2.37 2.375-2.37s2.38.97 2.38 2.378-.97 2.38-2.37 2.38-2.376-.974-2.376-2.38zm11.56-46.66c0 1.41-.97 2.38-2.375 2.38s-2.377-.97-2.377-2.372.97-2.37 2.373-2.37 2.38.97 2.38 2.38zm2.593-11.66c0-1.4.972-2.372 2.376-2.372s2.38.98 2.38 2.38-.97 2.38-2.37 2.38-2.38-.97-2.38-2.374zm11.99-11.66c0 1.406-.972 2.378-2.376 2.378s-2.38-.97-2.38-2.37.97-2.38 2.37-2.38 2.373.976 2.373 2.38z"/></svg>