<svg xmlns="http://www.w3.org/2000/svg" viewBox="-200 -40 600 400">
  <style>
    .st0{opacity:0.5;} .st1{opacity:0.2;}
  </style>
  <path d="M137.2 30.3c6.4 3.4 11.6 6.2 16.9 9 4.1 2.1 7.8 4.8 11 8.1 5.9 6 9.3 13.4 10.4 21.7 1.2 8.5 2.2 17 3.3 25.4.6 4.3 1.1 8.6 1.7 12.9.7 5.5.5 11-1.1 16.4-1.8 6.3-5.2 11.7-9.8 16.3-4.8 4.9-9.7 9.7-14.6 14.5-4.3 4.4-8.6 8.7-12.9 13.2-8.7 9-19.2 13-31.7 12.3l-27.3-1.5c-3.2-.1-6.4-.3-9.6-.3-5.3-.1-10.3-1-15.2-3.1-5.2-2.2-9.7-5.5-13.3-9.8-1.4-1.6-2.8-3.3-4-5.1-6.4-9.5-12.8-18.9-19.6-28.2-2-2.7-3.7-5.6-5-8.7-3.6-10-2.7-20.2 0-30.1.7-2.5 1.5-4.9 2.3-7.3 7.2-26.9 19.8-53.6 50.7-59 1.8-.7 3.6-1.4 5.4-2.2 3.6-1.5 7.1-3 10.6-4.5 6.6-3 13.6-4.3 20.8-3.7 6.2.6 11.8 2.7 17.1 5.7 5.2 2.9 10.2 5.8 13.9 8z" class="st1"/>
  <path d="M150.7 34.3c7.1 6.4 11.7 14.7 18.8 21.1 1.6 1.7 3 3.5 4.3 5.4 3.6 5.3 5.5 11 6.1 17.1.2 2 .2 4.1.2 6.2.6 3.4 1 6.7 1.3 10.1.3 3.3.4 6.6.4 9.9 4.5 40.7-24 81.2-68.2 67.7-2.9 0-5.8.2-8.6.4-23.1 1.3-47.4 3.3-65.9-10.6-1.9-2-3.5-4.3-4.9-6.7-1.1-1.9-2.1-3.8-2.9-5.8-1.1-2.6-2.3-5.2-3.4-7.9C8.9 115.7 7 75 29.3 53.7c2.2-2.1 4.7-4.1 7.4-5.8 21.8-9.1 44.8-10.9 64.1-27.5 4.6-3.7 10.1-6.4 15.3-5.5 2.2-.1 4.5-.1 6.7.2 2.2.3 4.4.8 6.6 1.5 2.1.6 4.1 1.5 6 2.5 3.8 2.1 7.2 5.1 10 9.2 1.9 2.1 3.8 4.2 5.3 6z" class="st1"/>
  <path d="M184.4 88.7c-1.8 2.2-2.4 4.7-2.8 7.3-.4 2.6-.5 5.5-1.3 8.3-.3 1.9-.6 3.8-.9 5.8.2 2.3.3 4.6.2 6.9s-.3 4.6-.9 6.8c-.6 1.5-1.5 4.3-2.4 6.1-3.9 3.7-7.8 7.1-11.7 10.4-1.9 1.6-3.9 3.3-5.8 4.9-18.4 25.2-44.2 36.3-74.1 31-3.1-.4-6.1-1-9.1-1.5s-6-1.1-9.1-1.6c-2.1-.3-4-.8-5.9-1.4-1.9-.6-3.7-1.3-5.4-2.1-3.1-2.8-6.8-4.7-9.5-8.3-6.9-10.9-12.4-21.5-18.2-32.1-1.2-2.1-2.3-4.3-3.5-6.4C5.1 96.8 25.4 60 40.1 36c3-2.4 6.3-4.3 9.7-5.9 2.3-1.1 4.7-2 7.1-2.8 27.3-7.7 59.5-8.7 85 6.1 2.7 1 5.6 2 8.7 3 18.3 5.2 36.7 23.6 35.2 44.4-.3 2.8-.8 5.5-1.4 7.9z" class="st0"/>
  <path d="M168.9 131.9c-2.1 2-4 4.3-5.9 6.7-1.8 2.4-3.6 4.9-5.3 7.5-11.9 30.7-47.8 30.7-75.7 37.3-3.3-.4-6.3-1.4-9.2-2.7-2.9-1.4-5.6-3.1-8.1-5.1-2.7-2.2-5.3-4.3-8-6.5-12-9-22.4-22.5-29.5-37.6-1.4-3-2.7-6.1-3.9-9.3-10.9-30-4.5-67.7 23.6-85 1.6-1.4 3.3-2.8 4.9-4.2 2.2-1.9 4.3-3.8 6.5-5.7 23.3-16.2 52.4.8 78.7 3.9 2.9.3 5.8.5 8.6.4 25.1 8.1 38.9 35.7 41.3 59.7-.2 2.8-.6 5.6-1.3 8.4-1.2 3.2-2.9 6.4-4.9 9.7-.9 3-1.9 5.9-3.2 8.7-1.2 2.6-2.6 5.2-4 7.6-1.5 2.3-3.1 4.5-4.6 6.2z" class="st1"/>
  <path d="M181.9 106.6c.7 3.3 1.3 6.6 1.5 9.8.2 3.3-.2 6.6-1.5 9.9-5.5 6.6-11.5 12.7-17.7 18.4-2.1 1.9-4.2 3.8-6.3 5.6-11.3 11.8-25 19.2-39.8 24.5-2.5.9-4.9 1.7-7.5 2.4C88 186 56 196 40 170c-8-15-10-31-13.7-47.4-.8-3-1.5-6.1-2-9.2-4.8-27.9 2.1-57.7 19.2-80.1 1.4-1.4 2.9-2.6 4.5-3.7s3.2-2.1 4.9-3c3-1.2 6.1-2.3 9.3-3.4C88 19.5 121.1 15.8 143 33c1.9 1.7 3.9 3.3 6 4.9 18.1 10.2 34.6 29.5 35 51.6-.2 2.8-.6 5.6-1.3 8.4-.5 3.3-.8 6.3-.8 8.7z" class="st0"/>
  <path d="M163 145.4C150 183 109 188 74 185c-3.3-.3-6.5-.8-9.7-1.6-22.4-5.6-42-24.1-39.5-49.5-.1-2.9-.1-5.7-.1-8.6s.2-5.7.3-8.4c0-4-2-8-2.8-11.9-.7-2.7-1.3-5.4-2-8.1-3.7-16.4-5.8-33.2 1.7-49 10-19 33-22 51.5-22.3 3-1.3 5.9-2.4 8.8-3.5 2.9-1.1 5.8-2 8.6-2.9 3.1-.2 6.2-.1 9.3 0 15.4.8 30.7 5.6 42.4 13.8 1.9 1.7 3.8 3.3 5.8 4.8 17.7 9.3 32.4 26.8 34.5 46.8.4 3.1.6 6.2.7 9.4.1 3.2.1 6.3-.1 9.5.2 2.1.4 4.3.6 6.5 2.9 9-.9 18-7.3 24.3-2.1 2.1-4.5 3.9-7 5.3-2.4 2.1-4.7 4.1-6.7 5.8z" class="st1"/>
  <path d="M-88.536 265.36a1.84 1.84 0 0 1-.304.56q-.304.464-.688 1l-.72 1a6.4 6.4 0 0 1-.432.56q-.568.664-1.128 1.384a14.872 14.872 0 0 1-1.176 1.336q-1.368 1.288-2.968 2.616t-3.2 2.56l-1 .64q-.688.432-1.6.896a17.096 17.096 0 0 1-1.72.8 4 4 0 0 1-1.28.304h-1.152a7.144 7.144 0 0 1-2.36-.408 5.336 5.336 0 0 1-2.048-1.28 1.24 1.24 0 0 0-.336.048c-.12 0-.08.136.128.304a7.064 7.064 0 0 1-2.36-2.968q-.568-1.536-.976-2.872a3.584 3.584 0 0 1-.048-1.104q.048-.688.048-1.36a2.048 2.048 0 0 0-.08-.536 1.888 1.888 0 0 1-.08-.488 3.904 3.904 0 0 1 .072-.536q.048-.336.104-.64a1.08 1.08 0 0 0 0-.616 1.488 1.488 0 0 1 0-.616 47.592 47.592 0 0 1 2.128-6.4 46.64 46.64 0 0 1 3.2-6.4v-.44q.72-1.072 1.488-2.328t1.6-2.488a.496.496 0 0 0-.224-.072h-.256q.304-.408.72-.872t.8-.92q.384-.464.744-.848l.56-.592a3.8 3.8 0 0 1 .536-.8 3.592 3.592 0 0 1 .72-.64 5.6 5.6 0 0 0 .688-.536 1.376 1.376 0 0 0 .384-.664 1.6 1.6 0 0 1 1.096-.528 4.432 4.432 0 0 0 1.08-.176.144.144 0 0 0 .08-.176c0-.088.056-.128.232-.128s.224 0 .152.08 0 .08.152.08.232-.04.176-.128 0-.128.176-.128a2.144 2.144 0 0 1 .744.208 4.904 4.904 0 0 1 .8.408.272.272 0 0 0 .112-.2.28.28 0 0 1 .104-.176 11.456 11.456 0 0 1 3.344 1.936 6.68 6.68 0 0 1 1.232 1.384 2.808 2.808 0 0 1 .488 1.6 4.408 4.408 0 0 1-.336 1.6 3.8 3.8 0 0 1-.8 1.304 1.92 1.92 0 0 0-.336.592.56.56 0 0 1-.488.432c-.168 0-.232 0-.176-.08s0-.112-.08-.176q-.304.408-.592.848t-.592.944a.272.272 0 0 1-.168-.112.376.376 0 0 0-.304-.128c-.168 0-.248.04-.232.128a1.216 1.216 0 0 1 0 .232.552.552 0 0 1-.408-.256.392.392 0 0 0-.384.152 1.072 1.072 0 0 0-.08.464l-.192-.312a.8.8 0 0 1-.104-.464 2.328 2.328 0 0 1 .336-1.256q.336-.536.848-1.512.36-.872.664-1.896a6.568 6.568 0 0 0 .304-1.28 1.16 1.16 0 0 0-.232-.72.664.664 0 0 0-.536-.304 1.944 1.944 0 0 0-.664.208l-.8.36a4.8 4.8 0 0 0-2.304 1.536q-.872 1.072-2.104 2.456a3.608 3.608 0 0 0-.536.872 9.776 9.776 0 0 1-.536 1.024 3.496 3.496 0 0 1-.536.8 6.336 6.336 0 0 0-.688 1.024.984.984 0 0 0-.08.304.408.408 0 0 1-.176.304 1.6 1.6 0 0 1-.36.432 1.544 1.544 0 0 0-.36.432l-.896 1.688q-.536 1.024-1.104 2.128t-1.104 2.176q-.536 1.072-.896 1.848a15.08 15.08 0 0 0-.664 1.6q-.36 1-.664 2.024a1.896 1.896 0 0 0-.104.688 2.4 2.4 0 0 1-.104.744l-.208.72a4.992 4.992 0 0 0-.152.8q-.048.464-.152 1.104t-.152 1.304q-.048.664-.104 1.128c0 .304-.048.496-.048.56a5.408 5.408 0 0 0 .384 2.256q.384.8 1.976.8h1.024a.24.24 0 0 0 .28-.128.24.24 0 0 1 .152-.144 16.488 16.488 0 0 1 2.4-1.024 5.744 5.744 0 0 0 2.256-1.432.152.152 0 0 0-.048-.104h.256a.8.8 0 0 0 .512-.384 1.928 1.928 0 0 1 .616-.536v-.104a.152.152 0 0 0-.048-.104.64.64 0 0 1-.344.256 1.144 1.144 0 0 0-.384.152 7.032 7.032 0 0 0 1.28-1.024 13.144 13.144 0 0 1 1.28-1.128 1.936 1.936 0 0 0 1.304-.872q.64-.8 1.104-1.432a.688.688 0 0 0-.36-.048 1.12 1.12 0 0 0-.536.152 3.12 3.12 0 0 1-.64.256 2.888 2.888 0 0 1-.744.152 3.872 3.872 0 0 0-.8.152q-.464.208-1 .408t-1.104.464q-.568.256-.944.408a1.76 1.76 0 0 1-.536.152 2.768 2.768 0 0 1-.848-.464l-1.072-.704a1.352 1.352 0 0 1-.304-.464.752.752 0 0 0 0-.848 1.416 1.416 0 0 0-.56-.688 1.408 1.408 0 0 1 .616-.8l1.536-.72a3.768 3.768 0 0 1 1.112-.376c.136 0 .2.04.176.128s.056.128.232.128a1.8 1.8 0 0 0 .496-.184 8.744 8.744 0 0 0 .848-.488q.432-.28.8-.536a1.128 1.128 0 0 1 .512-.256q.208 0 .152.08t.208.08a2.264 2.264 0 0 0 1-.304 4.064 4.064 0 0 0 .688-.408q.488-.192 1.288-.368a6.16 6.16 0 0 1 1.064-.2.704.704 0 0 1 .336.048.688.688 0 0 0 .336.048l1.336.048a6.248 6.248 0 0 1 1.896.36 2.976 2.976 0 0 0 .536.384q.384.232.592.384a3.448 3.448 0 0 1 .896.944 2.104 2.104 0 0 1 .424.928zm-15.52-19.144l-.104-.152-.304.304.104.152zm.256-.464l-.208-.048-.104.304.208.104zm4.352 25.16l-.104-.104-.464.36.152.152zm.872-.72l-.104-.152-.72.512.152.152zm25.976-7.6a1.752 1.752 0 0 1-.536.664.536.536 0 0 0-.232.664 6.264 6.264 0 0 1-.92-.08 3.496 3.496 0 0 0-1.232.08q-.048-.256-.104-.616t-.152-.872a6.488 6.488 0 0 0-2.792 2.128q-1.256 1.6-2.232 3.048a.208.208 0 0 0-.208-.256.552.552 0 0 0-.104.616.208.208 0 0 0-.152.048l-.152.208a.128.128 0 0 0 .048.176.272.272 0 0 1 .104.232.208.208 0 0 0-.152.048.296.296 0 0 1-.208.048h-.048c-.104 0-.152 0-.152.104a.136.136 0 0 0 .048.232.24.24 0 0 1 .152.128 14.56 14.56 0 0 1-1.232 1.896.312.312 0 0 0 .08.232c.048.048.056.096 0 .128a1.856 1.856 0 0 1-.384.592l-.488.488a1.08 1.08 0 0 0-.232.616 1.76 1.76 0 0 1-.176.664 13.728 13.728 0 0 0-.872 2.232 3.712 3.712 0 0 0 0 2.28 1.728 1.728 0 0 1-.976.304 2.024 2.024 0 0 1-.616-.208l-.8-.36a.664.664 0 0 1-.152-.488q0-.336-.408-.232a9.76 9.76 0 0 0-.56-1.432 2.728 2.728 0 0 1-.312-1.216 4 4 0 0 1 .152-.64q.152-.536.28-1.232t.28-1.384a10.048 10.048 0 0 0 .224-1.216q.36-1.432.616-2.872a27.448 27.448 0 0 0 .36-2.92q.104-.872.256-1.976t.232-2.264q.104-.72.176-1.536a8.456 8.456 0 0 1 .28-1.536h.616a1.872 1.872 0 0 1 1.024.464 2.4 2.4 0 0 1 .8.976 9.6 9.6 0 0 1 .336 1.128 8.744 8.744 0 0 1 .176 1.128 2.232 2.232 0 0 1-.048.8 4 4 0 0 0-.104.976 3.2 3.2 0 0 1 .8-1.072 16.48 16.48 0 0 1 1.28-1.104 7.312 7.312 0 0 1 1.488-.896 3.504 3.504 0 0 1 1.408-.36 6.8 6.8 0 0 1 2.584.616 5.856 5.856 0 0 1 2.328 1.688 1.816 1.816 0 0 1 .256.512 2.568 2.568 0 0 0 .352.624zm21.448 10.144a.944.944 0 0 1-.464.512.992.992 0 0 0-.464.464.536.536 0 0 0-.208.72 7.88 7.88 0 0 1-.848.8q-.536.464-1.104.872a.48.48 0 0 0 .152.208.416.416 0 0 0 .256.152 2.232 2.232 0 0 0-.896.36l-.944.592-.872.536a1.336 1.336 0 0 1-.536.232h-2.152a2.264 2.264 0 0 1-1.52-.632 7.528 7.528 0 0 1-1.28-1.488 10.536 10.536 0 0 1-.872-1.6 4.944 4.944 0 0 1-.336-.872v-1.176a13.784 13.784 0 0 0-.136-1.4q-.408.72-.848 1.336t-.896 1.384l-.744 1.072a18.768 18.768 0 0 1-1.232 1.6 12.336 12.336 0 0 1-1.432 1.408 2.192 2.192 0 0 1-1.304.616 1.904 1.904 0 0 0-.536.104 1.936 1.936 0 0 1-.536.104A2.52 2.52 0 0 1-72.8 278q-.616-.64-1.336-1.256a5.328 5.328 0 0 0-.232-.8 2.592 2.592 0 0 1-.176-.72 8.856 8.856 0 0 1 .664-2.92 31.584 31.584 0 0 1 1.6-3.616q.944-1.816 1.944-3.432t1.664-2.488a7.792 7.792 0 0 1 .896-.976 9.984 9.984 0 0 1 1.152-.976 2.312 2.312 0 0 0 .744-.56 9.504 9.504 0 0 1 .744-.72.2.2 0 0 0 .048-.232.2.2 0 0 1 .072-.288 1.6 1.6 0 0 1 .616-.152.752.752 0 0 0 .448-.16 1.6 1.6 0 0 0 .616-.72h.408a1.44 1.44 0 0 0 .872.464 1.712 1.712 0 0 1 .408.048 1.664 1.664 0 0 0 .408.048 1.112 1.112 0 0 0 .408-.8q-.048-.256.464-.256c.168 0 .248.072.232.208s.056.208.232.208.272 0 .208-.08 0-.08.104-.08a3.144 3.144 0 0 1 1.2.336 3.024 3.024 0 0 1 1.048.688 4.48 4.48 0 0 1 .232.616.56.56 0 0 1 0 .56c0 .104 0 .112.08 0s.08 0 .08.176a4.616 4.616 0 0 1-.152.8q-.152.616-.432 1.464t-.512 1.792q-.232.952-.384 1.664-.208.976-.432 2.36t-.384 2.616q-.152 1.232-.232 2.152t-.08 1.024a5.672 5.672 0 0 0 .08.72 6.032 6.032 0 0 1 .08.872 1.344 1.344 0 0 0 .8.048 3.016 3.016 0 0 1 .72-.104 4.936 4.936 0 0 0 1.336-.408q1-.384 2.192-.904t2.152-.976zm-12.328-8.92l-.304.304a.248.248 0 0 1-.08-.304.6.6 0 0 0 .08-.256 26.592 26.592 0 0 0-2.4 3.48q-1.152 1.944-2.072 3.744l.304.368a21.248 21.248 0 0 0 2.304-3.48q1.04-2 2.168-3.856z" class="cls-1"/>
  <path d="M-35.096 264.952a10.024 10.024 0 0 1-.688 3.456 21.52 21.52 0 0 1-1.768 3.688 20.416 20.416 0 0 1-2.536 3.352 12 12 0 0 1-2.92 2.36 1.6 1.6 0 0 1-.664.104h-.704v-.096a.304.304 0 0 0-.256-.128 1.656 1.656 0 0 1-.36 0h-.408q-.304-.408-.64-.952t-.64-1.072q-.304-.536-.56-.896a1.12 1.12 0 0 1-.256-.512.888.888 0 0 1 .256-.512 2.24 2.24 0 0 1 .616-.512.32.32 0 0 0-.36-.36.536.536 0 0 1 .208.104.624.624 0 0 0 .36.104 1.344 1.344 0 0 0 .736-.464 8.68 8.68 0 0 1 .928-.904 11.376 11.376 0 0 0 3.048-3.768 16.136 16.136 0 0 0 1.408-3.92q-1.488-.208-3.536 1.6a2.4 2.4 0 0 0-.616.664q-.304.464-.616.896t-.592.8a1.32 1.32 0 0 1-.336.36q-.256 0-.128-.08c.088-.048.08-.128 0-.232a6.216 6.216 0 0 1-.616.944 4.144 4.144 0 0 0-.616 1.104 12.136 12.136 0 0 0-.6 1.504q-.336 1-.64 2.176t-.592 2.4q-.264 1.256-.464 2.216a8.512 8.512 0 0 1-.408 1.44q-.304.848-.512 1.512a16.8 16.8 0 0 0-.744 3.072q-.232 1.6-.592 3.2a4.152 4.152 0 0 1-.28.92 3.384 3.384 0 0 1-.568.896h-.328q-.256 0-.128-.152c.088-.104.04-.152-.128-.152s-.32.048-.336.152-.128.152-.336.152a.568.568 0 0 1-.408-.232.84.84 0 0 0-.408-.28.656.656 0 0 0 0-.152.48.48 0 0 1 0-.256l-.664-.68q-.304-.304-.72-.664a2.6 2.6 0 0 0 .256-.448q.128-.28.232-.536a2.128 2.128 0 0 0-.048-.8 3.424 3.424 0 0 1-.048-1.048.44.44 0 0 1 .104-.28 3.56 3.56 0 0 1 .256-.28.944.944 0 0 0 .104-.664 1.864 1.864 0 0 1 .12-.88q.152-.36.488-1.28a1.552 1.552 0 0 1 .848-1.072q.664-2.816 1.336-6.096t1.336-6.456a.952.952 0 0 0 0-.616 1.432 1.432 0 0 1-.048-.664q.208-.8.464-1.6t.56-1.6a1.424 1.424 0 0 0 .088-.616 2.28 2.28 0 0 0-.104-.72q.8-2.256 1.6-4.8t1.36-4.8a.864.864 0 0 0-.152-.8.168.168 0 0 1 .176.08.384.384 0 0 0 .336.08.28.28 0 0 0 .28-.208.32.32 0 0 1 .312-.288 1.52 1.52 0 0 1 .72.488 10.464 10.464 0 0 0 1.072.896 5.36 5.36 0 0 0 .208.848 4.984 4.984 0 0 1 .208 1c0 .344.08.648.128.92a3.688 3.688 0 0 1 .08.56 6.328 6.328 0 0 1-.176.8q-.184.688-.384 1.664t-.464 2.024q-.256 1.048-.512 1.872l.256.208h.464q-.208.256-.56.664a3.912 3.912 0 0 0-.56.8v.104a.144.144 0 0 0 .104.104 7.104 7.104 0 0 1 .872-1.048q.616-.64 1.36-1.28a14.224 14.224 0 0 1 1.488-1.128 2.48 2.48 0 0 1 1.296-.528 6.056 6.056 0 0 1 1.152.208l1.512.36a3.8 3.8 0 0 1 .592.464q.336.304.536.464a2.768 2.768 0 0 1 1.536 1.72 6.96 6.96 0 0 1 .328 2.008zm23.144 7.888a8.152 8.152 0 0 1-1.688 1.176v.104a.144.144 0 0 0 .088.096 1.336 1.336 0 0 1 .64-.232 1.712 1.712 0 0 0 .64-.176.992.992 0 0 0-.464.616 1.808 1.808 0 0 1-.408.72 1.28 1.28 0 0 1-.512.304.8.8 0 0 0-.464.408.52.52 0 0 0-.176.408 1.416 1.416 0 0 1-.128.512 1.928 1.928 0 0 0-.616.536 4.496 4.496 0 0 1-.872.8.568.568 0 0 0 .304.208 9.968 9.968 0 0 0-.896.536 1.912 1.912 0 0 1-.896.384 8.136 8.136 0 0 1-.872-.08 8.152 8.152 0 0 0-.92-.08 1.512 1.512 0 0 1-.36-.176q-.304-.176-.616-.384l-.584-.4a3.72 3.72 0 0 0-.384-.256c-.072-.136-.152-.328-.256-.56a2.688 2.688 0 0 0-.36-.616 2.64 2.64 0 0 0-.384-.688 4.904 4.904 0 0 1-.432-.688 11.608 11.608 0 0 1-.616-3.328q-.048-.8 0-1.6a11.752 11.752 0 0 1 .176-1.664l-.104-.72a12.128 12.128 0 0 0-3.896 4.616 17.896 17.896 0 0 1-3.688 4.968v.048s.048.048.152.048h-.128a.328.328 0 0 0-.232 0 1.088 1.088 0 0 0-.512.176l-.664.384a4.704 4.704 0 0 0-.432-.72q-.232-.304-.488-.72a2.264 2.264 0 0 1-.304-.72 1.672 1.672 0 0 0-.464-.8 7.864 7.864 0 0 0-.128-1.304 7.144 7.144 0 0 1-.128-1.048 28.52 28.52 0 0 1 .408-3.432 29.488 29.488 0 0 1 .92-4.224q.512-1.6.976-2.84t.464-1.28a1.744 1.744 0 0 1 .176-.744 2.752 2.752 0 0 0 .232-.688 2.52 2.52 0 0 0 .304-.36 20.8 20.8 0 0 1 .64-2.36q.432-1.328.848-2.304a.968.968 0 0 0-.048-.8q.256-.8.64-1.768l.8-2.072q.408-1.072.848-2.072t.744-1.816q.56-1.176.944-1.848a1.488 1.488 0 0 1 1.408-.664 1.36 1.36 0 0 1 .664.208 1.352 1.352 0 0 0 .664.208.472.472 0 0 0 .256.304 4 4 0 0 1 .408 1.464q.104.896.104 1.256a5.664 5.664 0 0 1-.104.848 3.656 3.656 0 0 1-.304 1l-7.2 19.624a.904.904 0 0 0 .688-.488 5.328 5.328 0 0 1 .592-.824 6.624 6.624 0 0 1 .848-.8 6.504 6.504 0 0 0 .848-.8 10.4 10.4 0 0 1 .688-.8l1.28-1.408q.688-.8 1.304-1.36a1.928 1.928 0 0 1 .8-.592.496.496 0 0 1 .384.256.696.696 0 0 0 .384.304 3.728 3.728 0 0 0 .8 0 1.52 1.52 0 0 1 .848.176 4.496 4.496 0 0 1 1.744 1.944 5.896 5.896 0 0 1 .36 2.048l-.872 7.2a5.36 5.36 0 0 0 .048.616 2.032 2.032 0 0 0 .256.8.752.752 0 0 1 .536-.08.496.496 0 0 0 .336.08 2.232 2.232 0 0 0 .64-.208l1.088-.416q.616-.28 1.256-.536a5.24 5.24 0 0 1 .944-.304 3.2 3.2 0 0 0 .744-.208z" class="cls-1"/>
  <path d="M-1.696 269.616a.8.8 0 0 0-.256.64v.92a2.96 2.96 0 0 1-.104.944 1.68 1.68 0 0 1-.536.8.568.568 0 0 0 .256.048.304.304 0 0 1 .256.152.912.912 0 0 1-.256.408 2.464 2.464 0 0 1-.36.304 1.336 1.336 0 0 0-.152.872 8.872 8.872 0 0 0-1.384 1.112 12.328 12.328 0 0 0-1.256 1.28v.32a.448.448 0 0 1-.304.384 5.856 5.856 0 0 1-1.128.464 3.848 3.848 0 0 1-.92.208 3.392 3.392 0 0 1-2.28-.56 6.768 6.768 0 0 1-1.6-1.6 7.464 7.464 0 0 1-1.048-2.128 8.608 8.608 0 0 1-.408-1.976 8.8 8.8 0 0 1 .048-1.6 10.792 10.792 0 0 1 .304-1.848q.208-.744.36-1.336l.208-.8a26.4 26.4 0 0 1 1.688-5.376q0-.208.048-.72a.8.8 0 0 0 .256-.384 1.48 1.48 0 0 1 .36-.536 1.696 1.696 0 0 0 .592-.104 3.36 3.36 0 0 1 .592-.152 3.144 3.144 0 0 1 2.072.8 2.808 2.808 0 0 1 1.2 1.848 1.08 1.08 0 0 1-.104.432 2.184 2.184 0 0 0-.152.536 22.896 22.896 0 0 0-.512 2.744 7.632 7.632 0 0 1-.8 2.688 4.352 4.352 0 0 0-.256.92q-.104.568-.208.92-.464 1.6-.72 2.328a2.752 2.752 0 0 0 0 1.664 19.248 19.248 0 0 0 3.512-2.104 27.432 27.432 0 0 0 2.992-2.512zm-1.848-18.344a1.344 1.344 0 0 0-.208 1.024q.104.568.152 1.048a1.28 1.28 0 0 1-.152.8 1.4 1.4 0 0 1-1.128.384 2.072 2.072 0 0 1-1.104-.208l-.944-.464a.408.408 0 0 1-.048-.176.28.28 0 0 0-.104-.176A2.232 2.232 0 0 1-8 252.4a12.368 12.368 0 0 1-.56-1.464 1.72 1.72 0 0 1-.128-.848 1.6 1.6 0 0 0-.176-.896 9.12 9.12 0 0 0 1.384 0 6.336 6.336 0 0 0 .92-.152 5.016 5.016 0 0 0 .72-.232 2.968 2.968 0 0 1 .8-.176 2.648 2.648 0 0 0 .56.592 1.184 1.184 0 0 1 .408.488.736.736 0 0 1 .128.664.944.944 0 0 0 .408.896z" class="cls-1"/>
  <path d="M11.728 257.936a1.096 1.096 0 0 1-.048.384.688.688 0 0 1-.152.232 9.968 9.968 0 0 1 0 1.92 4.952 4.952 0 0 1-.432 1.872 1.176 1.176 0 0 1-.488.256 2.024 2.024 0 0 1-.592.104 1.952 1.952 0 0 1-.688-.232 2.976 2.976 0 0 1-.848-.592.608.608 0 0 0-.408.464 38.904 38.904 0 0 0-.28 5.84 29.6 29.6 0 0 1-.432 5.888q-.104.72-.28 1.848a11.664 11.664 0 0 1-.592 2.232 5.344 5.344 0 0 1-1.152 1.872 2.4 2.4 0 0 1-1.816.8.384.384 0 0 1-.336-.08.256.256 0 0 0-.176-.128c-.072-.072-.104-.08-.104 0s-.104.08-.304.08a1.232 1.232 0 0 1-.72-.256q-.36-.256-.72-.488a3.552 3.552 0 0 1-.592-.464.664.664 0 0 0-.336-.232 5.144 5.144 0 0 1-1.304-1.208 13.744 13.744 0 0 1-1.28-1.872 12.896 12.896 0 0 1-.976-2.104 5.64 5.64 0 0 1-.384-1.848 5.656 5.656 0 0 1 .304-1.464 6.032 6.032 0 0 1 .8-1.664.728.728 0 0 0 .408-.104.848.848 0 0 1-.048.488 3.6 3.6 0 0 0-.152.536.384.384 0 0 0 .208.176.64.64 0 0 1 .256.176c.104 0 .136.08.104.232a2.776 2.776 0 0 0-.048.592 1.04 1.04 0 0 0 .28.232.544.544 0 0 1-.28.384 1.272 1.272 0 0 1 .208.92 3.256 3.256 0 0 0 .432.64.632.632 0 0 1 .08.744l.208.208a.736.736 0 0 1 .56-.304 5.944 5.944 0 0 1 .616 1.6A2.224 2.224 0 0 0 1.2 277a3.36 3.36 0 0 0 .8-1.024 11.2 11.2 0 0 0 .512-1.176 9.968 9.968 0 0 0 .664-2.536q.208-1.464.304-2.944a26.488 26.488 0 0 0 .048-2.816q-.048-1.328-.048-2.2a5.024 5.024 0 0 1 .176-1.256 5.232 5.232 0 0 0 .176-1.304 1.16 1.16 0 0 0-.08-.408 1.16 1.16 0 0 1-.08-.408 5.176 5.176 0 0 1 .104-1.024q.104-.512.208-1.336v-1.048a10.928 10.928 0 0 1 .208-1.768 9.368 9.368 0 0 1 .464-1.6.888.888 0 0 1 .744-.72.688.688 0 0 1 .36.048 1.448 1.448 0 0 0 .208.152 4.184 4.184 0 0 1 2.688.744 12.32 12.32 0 0 1 2.232 1.664.912.912 0 0 1 .048.28v.28a1.848 1.848 0 0 1 .56.688 1.808 1.808 0 0 1 .232.648zM-.52 273.864h-.232v-.8h.208v.8zm45.6-.048a.72.72 0 0 1 0 .72 2.512 2.512 0 0 0-.232.616.352.352 0 0 0 .256.512.896.896 0 0 1-.28.336 2.632 2.632 0 0 0-.336.28.504.504 0 0 1-.104.464q-.568.256-1.152.56a3.368 3.368 0 0 1-.896.36 2.952 2.952 0 0 1-.872-.232 2.96 2.96 0 0 0-.872-.232c-.136 0-.152.08-.048.128s.064.096-.104.128a3.016 3.016 0 0 1-1.024-.592 10.736 10.736 0 0 1-1.336-1.104 4.36 4.36 0 0 1-1.072-2.256q-.256-1.384-.56-2.816a5.392 5.392 0 0 1-.048-.8 2.104 2.104 0 0 0-.256-.92 3.56 3.56 0 0 0-.488.72 5.136 5.136 0 0 1-.488.8 19.008 19.008 0 0 1-1.52 1.84 22.92 22.92 0 0 0-1.872 2.36q-.512.616-1.048 1.304a4.264 4.264 0 0 1-1.256 1.104.216.216 0 0 0-.048.232c0 .048 0 .096-.104.128q-.408.256-.976.536a2.168 2.168 0 0 1-.8.28 2.4 2.4 0 0 1-1.024-.176 5.544 5.544 0 0 1-1.304-.664 7.328 7.328 0 0 1-1.072-.872 1.504 1.504 0 0 1-.488-.8 8 8 0 0 1 .048-2q.152-1.128.408-2.232t.464-2.024a12 12 0 0 0 .272-1.528q.104-.208 0-.256a.16.16 0 0 1-.104-.152l.152-.208a.912.912 0 0 0-.128-.256.504.504 0 0 1-.08-.304 33.728 33.728 0 0 0-2.56 3.048q-1.336 1.768-2.56 3.352a1.552 1.552 0 0 0-.104.304 2.008 2.008 0 0 1-.152.408q-.512.664-1.128 1.336v.408a5.184 5.184 0 0 0-.944 1.176 6.232 6.232 0 0 1-.896 1.176q-.208.152-.688.464a1.6 1.6 0 0 1-.8.304 1.136 1.136 0 0 1-.72-.304 6.128 6.128 0 0 1-.8-.664 1.152 1.152 0 0 1-.512-.8q-.104-.56-.152-1.128a9.512 9.512 0 0 1 .336-3.256q.488-2.024 1.104-4t1.136-3.496a15.136 15.136 0 0 0 .664-2.176q.104-.408.336-1.104a9.304 9.304 0 0 0 .336-1.256l.128-.104a.384.384 0 0 0 .128-.208 7.248 7.248 0 0 1 .232-1.944 18.184 18.184 0 0 1 .896-2.304 3.64 3.64 0 0 0 .592-.176 1.68 1.68 0 0 1 .592-.128 1.28 1.28 0 0 1 .92.256.36.36 0 0 0 .152.256 1.344 1.344 0 0 1 .92.848 3.24 3.24 0 0 1 .36.944 7.56 7.56 0 0 1-.176 1.664 13.768 13.768 0 0 1-.536 2.232 4.528 4.528 0 0 1-.28.944q-.232.592-.464 1.232t-.384 1.152a2.072 2.072 0 0 0-.104.872.304.304 0 0 0 .152-.152.584.584 0 0 1 .408-.208 2.768 2.768 0 0 0 .688-.72q.592-.72 1.304-1.688l1.536-2.072q.8-1.104 1.384-1.92a2.288 2.288 0 0 1 .8-.104 7.072 7.072 0 0 1 1.152.104 8.392 8.392 0 0 1 1.256.488 4.096 4.096 0 0 1 1.36.944 8 8 0 0 1 .464 1.024 5.224 5.224 0 0 1 .304 1.024q0 .152-.08.8t-.208 1.464q-.128.848-.232 1.768t-.152 1.6a.632.632 0 0 0-.464.64q-.048.536-.104 1v.048a.384.384 0 0 0 .048.152 2.248 2.248 0 0 0 .36-.432.624.624 0 0 1 .56-.176l6.664-8.096a.864.864 0 0 0 .432 0 1.6 1.6 0 0 1 .688.048 1.256 1.256 0 0 1 .488.304 4 4 0 0 0 .432.36.4.4 0 0 0 .28 0 .448.448 0 0 1 .384.128 2.016 2.016 0 0 1 .408.28 4.544 4.544 0 0 1 .464.488 1.328 1.328 0 0 1 .304.664.904.904 0 0 0 .408.616c-.072 0-.08.104 0 .208a1.784 1.784 0 0 1 .128.36q0 .104-.08.664t-.136 1.28q-.08.72-.208 1.512a8.504 8.504 0 0 0-.128 1.304q-.048.568-.048 1.6a11.064 11.064 0 0 0 .048 1.384 3.12 3.12 0 0 0 .432 1.488q.336.464 1.664.304a4.696 4.696 0 0 0 1.024-.28 11.088 11.088 0 0 0 1.336-.512zm-10.144-3.28h-.152l-.336.48.256.152z" class="cls-1"/>
  <path d="M58.504 273.864a2.064 2.064 0 0 0-.664.384 1.536 1.536 0 0 1-.616.336.6.6 0 0 0 .56.512 2.232 2.232 0 0 0-.28.536q-.128.336-.28.688a.8.8 0 0 0-1 .488 2.704 2.704 0 0 0-.336 1.256 5.944 5.944 0 0 1-.944.232 6.792 6.792 0 0 1-1.048.08c-.136.072-.16.12-.08.152a.8.8 0 0 0 .28.048 3.576 3.576 0 0 0-.944.28 3.6 3.6 0 0 1-.944.28v.152c0 .064-.072.104-.208.104a1.752 1.752 0 0 1-.592-.152 4.912 4.912 0 0 0-.72-.232 1.512 1.512 0 0 0-.616 0 .416.416 0 0 0-.336.408l-.56-.8a4.408 4.408 0 0 1-1.664-.664A14.272 14.272 0 0 1 46 276.52a4.104 4.104 0 0 1-.488-.304.688.688 0 0 1-.208-.304q-.08-.208-.256-.8t-.488-2.2a6.632 6.632 0 0 1 0-2.4l.384-1.512a15.008 15.008 0 0 1 .664-2.048q.512-1.328 1.072-2.512l.72-1.464q.408-.848.976-1.768.256-.36.664-.872a5.816 5.816 0 0 0 .664-1.024 5.6 5.6 0 0 0 .848-.92 3.384 3.384 0 0 1 1.048-.872l.92-.408a.584.584 0 0 0 .464-.664.144.144 0 0 0-.104.104c0 .104.072.152.208.152s.256 0 .152-.08-.048-.08.152-.08a1.512 1.512 0 0 1 .64.256 3.44 3.44 0 0 0 .8.36 2.448 2.448 0 0 1 .104.664.248.248 0 0 0 .256.304q.304 0 .208-.08t.152-.08a.416.416 0 0 1 .336.152c.088.104.176.208.28.304a3.112 3.112 0 0 0 .128 1.072.752.752 0 0 0 .336.408 3.064 3.064 0 0 1 .384.232.8.8 0 0 1 .176.64 4.576 4.576 0 0 1-.104.592q-.104.488-.232 1.128t-.304 1.28q-.184.64-.336 1.152a14.192 14.192 0 0 1-1 1.6q-.688 1-1.36 1.816-.616.616-1.336 1.488t-1.432 1.6q-.72.744-1.176 1.304a1.768 1.768 0 0 0-.464.8 1.016 1.016 0 0 0 .536.688 5.776 5.776 0 0 0 1 .592 1.456 1.456 0 0 0 .744.152h.744a1.664 1.664 0 0 0 .8-.208 1.16 1.16 0 0 1 1 .048l1.976-.616q.944-.304 1.72-.512a.8.8 0 0 0 .536.184zm63.208-4.248a.8.8 0 0 0-.256.64v.92a2.96 2.96 0 0 1-.104.944 1.68 1.68 0 0 1-.536.8.568.568 0 0 0 .256.048.304.304 0 0 1 .256.152.912.912 0 0 1-.256.408 2.464 2.464 0 0 1-.36.304 1.336 1.336 0 0 0-.152.872 8.872 8.872 0 0 0-1.384 1.112 12.328 12.328 0 0 0-1.256 1.28v.32a.448.448 0 0 1-.304.384 5.856 5.856 0 0 1-1.128.464 3.848 3.848 0 0 1-.92.208 3.392 3.392 0 0 1-2.28-.56 6.768 6.768 0 0 1-1.6-1.6 7.464 7.464 0 0 1-1.048-2.128 8.608 8.608 0 0 1-.408-1.976 8.8 8.8 0 0 1 .048-1.6 10.792 10.792 0 0 1 .304-1.848q.208-.744.36-1.336l.208-.8a26.4 26.4 0 0 1 1.688-5.376q0-.208.048-.72a.8.8 0 0 0 .256-.384 1.48 1.48 0 0 1 .36-.536 1.696 1.696 0 0 0 .592-.104 3.36 3.36 0 0 1 .592-.152 3.144 3.144 0 0 1 2.072.8 2.808 2.808 0 0 1 1.2 1.848 1.08 1.08 0 0 1-.104.432 2.184 2.184 0 0 0-.208.584 22.896 22.896 0 0 0-.512 2.744 7.632 7.632 0 0 1-.8 2.688 4.352 4.352 0 0 0-.256.92q-.104.568-.208.92-.464 1.6-.72 2.328a2.752 2.752 0 0 0 0 1.664 19.248 19.248 0 0 0 3.512-2.104 27.432 27.432 0 0 0 3.048-2.56zm-1.848-18.344a1.344 1.344 0 0 0-.208 1.024q.104.568.152 1.048a1.28 1.28 0 0 1-.152.8 1.4 1.4 0 0 1-1.128.384 2.072 2.072 0 0 1-1.104-.208l-.944-.464a.408.408 0 0 1-.048-.176.28.28 0 0 0-.104-.176 2.232 2.232 0 0 1-.92-1.104 12.368 12.368 0 0 1-.56-1.464 1.72 1.72 0 0 1-.128-.848 1.6 1.6 0 0 0-.176-.896 9.12 9.12 0 0 0 1.384 0 6.336 6.336 0 0 0 .92-.152 5.016 5.016 0 0 0 .72-.232 2.968 2.968 0 0 1 .8-.176 2.648 2.648 0 0 0 .56.592 1.184 1.184 0 0 1 .408.488.736.736 0 0 1 .128.664.944.944 0 0 0 .4.896z" class="cls-1"/>
  <path d="M143.336 272.072a2.504 2.504 0 0 0-.36 1.072.184.184 0 0 0 0 .256c.064.104.088.168.048.208l-.232.208a1.12 1.12 0 0 0-.232.256.728.728 0 0 0 .408.104l-.048.048c-.104.104-.168.136-.208.104a.552.552 0 0 0-.152.408.584.584 0 0 1-.256.464.712.712 0 0 1 .08.408.552.552 0 0 0 .128.408 4.624 4.624 0 0 1-.432.384.744.744 0 0 0-.28.488 1.752 1.752 0 0 1-.744.64 2.832 2.832 0 0 0-.848.64 1.336 1.336 0 0 0-.536.512 5.656 5.656 0 0 0-.384.616 5.328 5.328 0 0 1-1.152 0 8.8 8.8 0 0 0-.896-.08 2.4 2.4 0 0 1-.688-.176 6.896 6.896 0 0 1-1.024-.488 9.152 9.152 0 0 1-.944-.616 1.368 1.368 0 0 1-.464-.464q-.568-1.128-1.048-2.36a10.048 10.048 0 0 1-.64-2.4 9.032 9.032 0 0 1-.232-2.072q0-1.304-.08-2.4c-.072 0-.088-.08-.048-.128s0-.096-.048-.128q-1.024 1.176-2.2 2.768t-2.256 2.872a.56.56 0 0 0 0 .36q-.36.664-.744 1.336a9.144 9.144 0 0 1-.896 1.28 12.432 12.432 0 0 1-1 1.104 2.984 2.984 0 0 1-.848.688.584.584 0 0 1-.464-.256.408.408 0 0 0-.408-.208q-.304 0-.176.08c.088.048.04.08-.128.08a.8.8 0 0 1-.8-.336 3.2 3.2 0 0 1-.488-.848 6.232 6.232 0 0 1-.28-.92 1.832 1.832 0 0 0-.152-.512 1.176 1.176 0 0 1-.304-.336 1.4 1.4 0 0 1-.208-.592 9.6 9.6 0 0 1 .208-1.208 13.48 13.48 0 0 0 .256-1.768 7 7 0 0 0 .384-.8 7.688 7.688 0 0 0 .28-.8 5.488 5.488 0 0 0 .176-1.232 5.472 5.472 0 0 1 .176-1.232q.72-2.104 1.744-4.968t2.048-5.6v-1.08q.36-.304.744-.664a2.032 2.032 0 0 1 .688-.464q.208.256.432.512a7.368 7.368 0 0 1 .488.616.648.648 0 0 0 .176-.408 1.36 1.36 0 0 0 0-.464q.256.208.56.408a2.264 2.264 0 0 0 .72.304 1.376 1.376 0 0 1-.08.432.448.448 0 0 0 .08.432h.048a.2.2 0 0 0 .128 0 .648.648 0 0 1 .176-.08l.048.56a.728.728 0 0 1-.128.536 2.4 2.4 0 0 0-.28.64q-.104.664-.208 1.6t-.296 1.6a.728.728 0 0 1-.104.408l-.208.304a5.28 5.28 0 0 0-.304 2.256 5.6 5.6 0 0 0 .64-.8 9.6 9.6 0 0 1 .8-.976l.8-.92a2.048 2.048 0 0 1 .8-.592 1.928 1.928 0 0 1 .8-.152 1.8 1.8 0 0 0 .872-.256 2.056 2.056 0 0 1 .384.384 3.072 3.072 0 0 1 .232.384 1.872 1.872 0 0 0 .336-.208.896.896 0 0 1 .384-.152 1.16 1.16 0 0 1 .616.384q.408.384.72.64v.096a.288.288 0 0 1-.104.152.168.168 0 0 0 .128.152.576.576 0 0 0 .176.048 11.864 11.864 0 0 0 .64 1.248 1.72 1.72 0 0 1 .28.56 1.864 1.864 0 0 1 .048.384c0 .104 0 .328.048.664a3.432 3.432 0 0 1 0 .872q0 .8-.048 1.744t-.08 2.072a16.8 16.8 0 0 0 0 1.872 4.896 4.896 0 0 0 0 1.336q.08.72.128 1.488a1.024 1.024 0 0 0 .664.104 1.976 1.976 0 0 0 .8-.232q.488-.232.976-.512t1-.616a5.096 5.096 0 0 1 .8-.432h-.048c-.104 0-.136 0-.104.104l-.048.104h.208a2.288 2.288 0 0 0 .8-.488 7.344 7.344 0 0 1 1.064-.768zm-8.512-10.344l-.048-.256-.36.048.032.256z" class="cls-1"/>
  <path d="M161.264 260.44a.32.32 0 0 1-.128.256 3.496 3.496 0 0 0-.28.256.208.208 0 0 0 .256.208.512.512 0 0 1-.304.408q-.208.048.208.408-.408.208-.896.408a7.912 7.912 0 0 0-.848.408.248.248 0 0 0 .128.232l.28.176a1.552 1.552 0 0 1-1.048.92 14.032 14.032 0 0 1-1.6.408 6.304 6.304 0 0 1-.536.72 1.024 1.024 0 0 1-.64.464c-.136 0-.168 0-.104-.08s.048-.112-.048-.176-.208.152-.208.464a11.928 11.928 0 0 0-1.688.488q-.92.336-1.848.64c-.072 0-.088.08-.048.128a.32.32 0 0 1 .048.176c-.072 0-.104 0-.104-.048a.392.392 0 0 0-.304-.048 4.944 4.944 0 0 0-.944.28q-.8.28-1.408.536a2.168 2.168 0 0 0-.176.232 2.88 2.88 0 0 0-.232.384 1.856 1.856 0 0 0-.8.336l-.72.488q-.152.616-.336 1.488t-.304 1.664q-.128.8-.232 1.384a6 6 0 0 0-.104.744 4.088 4.088 0 0 0 .048.512q.048.36.152.8t.208.8a2.336 2.336 0 0 1 .104.464.8.8 0 0 1-.304.536.856.856 0 0 0-.304.64 2.136 2.136 0 0 0-.36.048 2.4 2.4 0 0 1-.464.048.384.384 0 0 1-.36-.336 1.184 1.184 0 0 0-.168-.488 3.448 3.448 0 0 1-1.28-2.048q-.104-.976-.256-1.944a5.792 5.792 0 0 1 0-1.976 21.968 21.968 0 0 0 .128-3.304 1.272 1.272 0 0 0-.256-.464q-.256-.36-.512-.744l-.464-.688a.984.984 0 0 1-.208-.464 5.528 5.528 0 0 1 .128-.848 6.184 6.184 0 0 0 .128-1.208.752.752 0 0 0 .256-.36 1.4 1.4 0 0 0 .28-.128.64.64 0 0 1 .336-.08q.304 0 .232.08t.232.08a.624.624 0 0 0 .432-.256 1.104 1.104 0 0 0 .28-.512 13.04 13.04 0 0 0 .432-1.664q.232-1.104.432-2.36t.48-2.48q.232-1.232.432-2.048.368-1.696.912-3.384t1-3.456q.208-.8.488-1.816t.64-1.976a14.824 14.824 0 0 0 .464-1.816 2.312 2.312 0 0 1 .976-1.6 1.176 1.176 0 0 1 .464-.256 1.68 1.68 0 0 1 .408-.104.8.8 0 0 1 .592.408.744.744 0 0 0 .536.408 1.296 1.296 0 0 0 .336 0 .8.8 0 0 1 .232 0l-.152.048v.224a1.544 1.544 0 0 0 .152.512 6.872 6.872 0 0 0 .36.72 4.616 4.616 0 0 1 .336.72 1.816 1.816 0 0 1 .128.512 5.208 5.208 0 0 1-.176.92 6.064 6.064 0 0 1-.432 1.232 3.128 3.128 0 0 1 .152.872q-.8 2.616-1.6 5.152t-1.6 4.944q-.152 1.024-.432 2.2t-.592 2.304v.248a.728.728 0 0 0 .464.128 4.864 4.864 0 0 1 .56 0 3.12 3.12 0 0 1 1.072-.152c.168 0 .24.04.208.128s.048.128.256.128a1.672 1.672 0 0 0 .592-.128 3.2 3.2 0 0 1 .688-.176q1.744-.304 3.712-.488z" class="cls-1"/>
  <path d="M170.336 273.864a2.064 2.064 0 0 0-.688.352 1.536 1.536 0 0 1-.616.336.6.6 0 0 0 .56.512 2.232 2.232 0 0 0-.28.536q-.128.336-.28.688a.8.8 0 0 0-1 .488 2.704 2.704 0 0 0-.336 1.256 5.944 5.944 0 0 1-.944.232 6.792 6.792 0 0 1-1.048.08c-.136.072-.16.12-.08.152a.8.8 0 0 0 .28.048 3.576 3.576 0 0 0-.944.28 3.6 3.6 0 0 1-.944.28v.152c0 .064-.072.104-.208.104a1.752 1.752 0 0 1-.592-.152 4.912 4.912 0 0 0-.72-.232 1.512 1.512 0 0 0-.616 0 .416.416 0 0 0-.336.408l-.56-.8a4.408 4.408 0 0 1-1.664-.664 14.272 14.272 0 0 1-1.512-1.432 4.104 4.104 0 0 1-.488-.304.688.688 0 0 1-.208-.304q-.08-.208-.256-.8t-.488-2.2a6.632 6.632 0 0 1 0-2.4l.384-1.512a15.008 15.008 0 0 1 .664-2.048q.512-1.328 1.072-2.512l.72-1.464q.408-.848.976-1.768.256-.36.664-.872a5.816 5.816 0 0 0 .664-1.024 5.6 5.6 0 0 0 .936-.936 3.384 3.384 0 0 1 1.048-.872l.92-.408a.584.584 0 0 0 .464-.664.144.144 0 0 0-.104.104c0 .104.072.152.208.152s.256 0 .152-.08-.048-.08.152-.08a1.512 1.512 0 0 1 .64.256 3.44 3.44 0 0 0 .8.36 2.448 2.448 0 0 1 .104.664.248.248 0 0 0 .256.304q.304 0 .208-.08t.152-.08a.416.416 0 0 1 .336.152c.088.104.176.208.28.304a3.112 3.112 0 0 0 .128 1.072.752.752 0 0 0 .336.408 3.064 3.064 0 0 1 .384.232.8.8 0 0 1 .176.64 4.576 4.576 0 0 1-.104.592q-.104.488-.232 1.128t-.304 1.28q-.184.64-.336 1.152a14.192 14.192 0 0 1-1 1.6q-.688 1-1.36 1.816-.616.616-1.336 1.488t-1.432 1.6q-.72.744-1.176 1.304a1.768 1.768 0 0 0-.464.8 1.016 1.016 0 0 0 .536.688 5.776 5.776 0 0 0 1 .592 1.456 1.456 0 0 0 .744.152h.744a1.664 1.664 0 0 0 .8-.208 1.16 1.16 0 0 1 1 .048l1.976-.616q.944-.304 1.72-.512a.8.8 0 0 0 .472.232zm16.184-11.272a1.752 1.752 0 0 1-.536.664.536.536 0 0 0-.232.664 6.264 6.264 0 0 1-.904-.104 3.496 3.496 0 0 0-1.232.08q-.048-.256-.104-.616t-.152-.872a6.488 6.488 0 0 0-2.792 2.128q-1.256 1.6-2.232 3.048a.208.208 0 0 0-.208-.256.552.552 0 0 0-.104.616.208.208 0 0 0-.152.048l-.152.208a.128.128 0 0 0 .048.176.272.272 0 0 1 .104.232.208.208 0 0 0-.152.048.296.296 0 0 1-.208.048h-.048c-.104 0-.152 0-.152.104a.136.136 0 0 0 .048.232.24.24 0 0 1 .152.128 14.56 14.56 0 0 1-1.232 1.896.312.312 0 0 0 .08.232c.048.048.056.096 0 .128a1.856 1.856 0 0 1-.384.592l-.488.488a1.08 1.08 0 0 0-.232.616 1.76 1.76 0 0 1-.176.664 13.728 13.728 0 0 0-.872 2.232 3.712 3.712 0 0 0 0 2.28 1.728 1.728 0 0 1-.976.304 2.024 2.024 0 0 1-.616-.208l-.8-.36a.664.664 0 0 1-.152-.488q0-.336-.408-.232a9.76 9.76 0 0 0-.56-1.432 2.728 2.728 0 0 1-.304-1.232 4 4 0 0 1 .152-.64q.152-.536.28-1.232t.28-1.384a10.048 10.048 0 0 0 .208-1.256q.36-1.432.616-2.872a27.448 27.448 0 0 0 .36-2.92q.104-.872.256-1.976t.256-2.232q.104-.72.176-1.536a8.456 8.456 0 0 1 .28-1.536h.616a1.872 1.872 0 0 1 1.024.464 2.4 2.4 0 0 1 .8.976 9.6 9.6 0 0 1 .336 1.128 8.744 8.744 0 0 1 .176 1.128 2.232 2.232 0 0 1-.048.8 4 4 0 0 0-.104.976 3.2 3.2 0 0 1 .8-1.072 16.48 16.48 0 0 1 1.28-1.104 7.312 7.312 0 0 1 1.488-.896 3.504 3.504 0 0 1 1.408-.36 6.8 6.8 0 0 1 2.584.616 5.856 5.856 0 0 1 2.328 1.688 1.816 1.816 0 0 1 .256.512 2.568 2.568 0 0 0 .32.672zm21.472 10.144a.944.944 0 0 1-.464.512.992.992 0 0 0-.464.464.536.536 0 0 0-.208.72 7.88 7.88 0 0 1-.848.8q-.536.464-1.104.872a.48.48 0 0 0 .152.208.416.416 0 0 0 .256.152 2.232 2.232 0 0 0-.896.36l-.976.616-.872.536a1.336 1.336 0 0 1-.536.232h-2.152a2.264 2.264 0 0 1-1.512-.664 7.528 7.528 0 0 1-1.28-1.488 10.536 10.536 0 0 1-.872-1.6 4.944 4.944 0 0 1-.336-.872v-1.176a13.784 13.784 0 0 0-.128-1.432q-.408.72-.848 1.336t-.896 1.384l-.744 1.072a18.768 18.768 0 0 1-1.232 1.6 12.336 12.336 0 0 1-1.432 1.408 2.192 2.192 0 0 1-1.304.616 1.904 1.904 0 0 0-.536.104 1.936 1.936 0 0 1-.536.104 2.52 2.52 0 0 1-1.896-.64q-.616-.64-1.336-1.256a5.328 5.328 0 0 0-.232-.8 2.592 2.592 0 0 1-.176-.72 8.856 8.856 0 0 1 .664-2.92 31.584 31.584 0 0 1 1.6-3.616q.944-1.816 1.944-3.432t1.656-2.52a7.792 7.792 0 0 1 .896-.976 9.984 9.984 0 0 1 1.152-.976 2.312 2.312 0 0 0 .744-.56 9.504 9.504 0 0 1 .744-.72.2.2 0 0 0 .048-.232.2.2 0 0 1 .048-.232 1.6 1.6 0 0 1 .616-.152.752.752 0 0 0 .464-.152 1.6 1.6 0 0 0 .616-.72h.408a1.44 1.44 0 0 0 .872.464 1.712 1.712 0 0 1 .408.048 1.664 1.664 0 0 0 .408.048 1.112 1.112 0 0 0 .408-.8q-.048-.256.464-.256c.168 0 .248.072.232.208s.056.208.232.208.272 0 .208-.08 0-.08.104-.08a3.144 3.144 0 0 1 1.2.336 3.024 3.024 0 0 1 1.048.688 4.48 4.48 0 0 1 .232.616.56.56 0 0 1 0 .56c0 .104 0 .112.08 0s.08 0 .08.176a4.616 4.616 0 0 1-.152.8q-.152.616-.432 1.464t-.512 1.792q-.232.952-.384 1.664-.208.976-.432 2.36t-.384 2.616q-.152 1.232-.232 2.152t-.08 1.024a5.672 5.672 0 0 0 .08.72 6.032 6.032 0 0 1 .08.872 1.344 1.344 0 0 0 .8.048 3.016 3.016 0 0 1 .72-.104 4.936 4.936 0 0 0 1.336-.408q1.024-.408 2.2-.92t2.152-.976zm-12.352-8.92l-.304.304a.248.248 0 0 1-.088-.304.6.6 0 0 0 .08-.256 26.592 26.592 0 0 0-2.4 3.48q-1.152 1.944-2.072 3.744l.304.36a21.248 21.248 0 0 0 2.304-3.48q1.048-1.992 2.176-3.848z" class="cls-1"/>
  <path d="M222.184 269.152a1.72 1.72 0 0 0-.36.616.512.512 0 0 1-.464.408q-.256 0-.232-.08t-.08.08a.232.232 0 0 1-.08.208c-.048 0 0 .048.128.048a.32.32 0 0 0 .232 0h.128a1.4 1.4 0 0 0-.28.488.544.544 0 0 0 0 .488q-.464.408-1.024.8a8.192 8.192 0 0 0-.976.8.208.208 0 0 0 .256.208v.512q-.92.512-1.976 1.176t-2.4 1.488a1.472 1.472 0 0 0-.28.432 1.104 1.104 0 0 1-.336.432q-.208.104-.8.304t-1.208.408q-.64.208-1.304.36a5.032 5.032 0 0 1-1.072.152 4 4 0 0 1-1.92-.488 6.48 6.48 0 0 1-1.6-1.208 6.072 6.072 0 0 1-1.128-1.6 4.8 4.8 0 0 1-.488-1.744v-1.28a18.4 18.4 0 0 1 .36-3.096 10.272 10.272 0 0 1 1.128-3.304.264.264 0 0 0 .104-.256 1.672 1.672 0 0 1 .048-.408q.36-.8.744-1.488a7.896 7.896 0 0 1 .84-1.392l.664-.664a2.728 2.728 0 0 0 .512-.72.216.216 0 0 0-.048-.152.736.736 0 0 0-.208.256 11.672 11.672 0 0 0 1-1.488 9.072 9.072 0 0 1 1.152-1.6.672.672 0 0 1 .512-.304 2.152 2.152 0 0 0 .664-.208 1.408 1.408 0 0 0 .408-.36.544.544 0 0 1 .464-.208 6.976 6.976 0 0 1 .976.152 4.92 4.92 0 0 1 1.176.36 10.24 10.24 0 0 1 1.072.8 3.2 3.2 0 0 1 .92 1.176 5.112 5.112 0 0 1 .36 1.024 4.208 4.208 0 0 1 .152.92 5.784 5.784 0 0 1-.104.8q-.104.592-.256 1.208a12 12 0 0 1-.36 1.176 1.224 1.224 0 0 1-.408.664 1.36 1.36 0 0 1-.8.152 1.152 1.152 0 0 1-.944-.408 2.6 2.6 0 0 1-.488-.976 4.856 4.856 0 0 0-.384-.8.872.872 0 0 1-.08-.8h-.152a29.136 29.136 0 0 0-2.512 3.664q-1.072 1.872-1.744 3.304-.208.464-.432 1.152t-.408 1.408q-.208.688-.36 1.232a4 4 0 0 0-.152.64v.72a4.592 4.592 0 0 0 .8.256 3.464 3.464 0 0 0 .664.104 3.152 3.152 0 0 0 .92-.336q.72-.336 1.336-.592 1.384-.56 3.096-1.2a32.672 32.672 0 0 0 3.512-1.6l1.512-.848q1.08-.552 2.008-.968z" class="cls-1"/>
  <path d="M240.368 260.44a.32.32 0 0 1-.128.256 3.496 3.496 0 0 0-.28.256.208.208 0 0 0 .256.208.512.512 0 0 1-.304.408q-.208.048.208.408-.408.208-.896.408a7.912 7.912 0 0 0-.848.408.248.248 0 0 0 .128.232l.28.176a1.552 1.552 0 0 1-1.048.92 14.032 14.032 0 0 1-1.6.408 6.304 6.304 0 0 1-.536.72 1.024 1.024 0 0 1-.64.464c-.136 0-.168 0-.104-.08s.048-.112-.048-.176-.208.152-.208.464a11.928 11.928 0 0 0-1.688.488q-.92.336-1.848.64c-.072 0-.088.08-.048.128a.32.32 0 0 1 .048.176c-.072 0-.104 0-.104-.048a.392.392 0 0 0-.304-.048 4.944 4.944 0 0 0-.944.28q-.8.28-1.408.536a2.168 2.168 0 0 0-.176.232 2.88 2.88 0 0 0-.232.384 1.856 1.856 0 0 0-.8.336l-.72.488q-.152.616-.336 1.488t-.304 1.664q-.128.8-.232 1.384a6 6 0 0 0-.104.744 4.088 4.088 0 0 0 .048.512q.048.36.152.8t.208.8a2.336 2.336 0 0 1 .104.464.8.8 0 0 1-.304.536.856.856 0 0 0-.304.64 2.136 2.136 0 0 0-.36.048 2.4 2.4 0 0 1-.464.048.384.384 0 0 1-.36-.336 1.184 1.184 0 0 0-.256-.488 3.448 3.448 0 0 1-1.28-2.048q-.104-.976-.256-1.944a5.792 5.792 0 0 1 .12-2.008 21.968 21.968 0 0 0 .128-3.304 1.272 1.272 0 0 0-.256-.464q-.256-.36-.512-.744l-.464-.688a.984.984 0 0 1-.208-.464 5.528 5.528 0 0 1 .128-.848 6.184 6.184 0 0 0 .128-1.208.752.752 0 0 0 .256-.36 1.4 1.4 0 0 0 .28-.128.64.64 0 0 1 .336-.08q.304 0 .232.08t.232.08a.624.624 0 0 0 .432-.256 1.104 1.104 0 0 0 .28-.512 13.04 13.04 0 0 0 .432-1.664q.232-1.104.432-2.36t.432-2.488q.232-1.232.432-2.048.408-1.688.944-3.408t1-3.456q.208-.8.488-1.816t.64-1.976a14.824 14.824 0 0 0 .464-1.816 2.312 2.312 0 0 1 .976-1.6 1.176 1.176 0 0 1 .464-.256 1.68 1.68 0 0 1 .408-.104.8.8 0 0 1 .592.408.744.744 0 0 0 .536.408 1.296 1.296 0 0 0 .336 0 .8.8 0 0 1 .232 0l-.2.08v.256a1.544 1.544 0 0 0 .152.512 6.872 6.872 0 0 0 .36.72 4.616 4.616 0 0 1 .336.72 1.816 1.816 0 0 1 .128.512 5.208 5.208 0 0 1-.176.912 6.064 6.064 0 0 1-.432 1.232 3.128 3.128 0 0 1 .152.872q-.8 2.616-1.6 5.152t-1.6 4.944q-.152 1.024-.432 2.2t-.592 2.304v.256a.728.728 0 0 0 .464.128 4.864 4.864 0 0 1 .56 0 3.12 3.12 0 0 1 1.072-.152c.168 0 .24.04.208.128s.048.128.256.128a1.672 1.672 0 0 0 .592-.128 3.2 3.2 0 0 1 .688-.176q1.744-.304 3.712-.488z" class="cls-1"/>
  <path d="M246.928 269.616a.8.8 0 0 0-.256.64v.92a2.96 2.96 0 0 1-.104.944 1.68 1.68 0 0 1-.536.8.568.568 0 0 0 .256.048.304.304 0 0 1 .256.152.912.912 0 0 1-.256.408 2.464 2.464 0 0 1-.36.304 1.336 1.336 0 0 0-.152.872 8.872 8.872 0 0 0-1.384 1.112 12.328 12.328 0 0 0-1.256 1.28v.32a.448.448 0 0 1-.304.384 5.856 5.856 0 0 1-1.128.464 3.848 3.848 0 0 1-.92.208 3.392 3.392 0 0 1-2.28-.56 6.768 6.768 0 0 1-1.6-1.6 7.464 7.464 0 0 1-1.048-2.128 8.608 8.608 0 0 1-.408-1.976 8.8 8.8 0 0 1 .048-1.6 10.792 10.792 0 0 1 .304-1.848q.208-.744.36-1.336l.208-.8a26.4 26.4 0 0 1 1.688-5.376q0-.208.048-.72a.8.8 0 0 0 .256-.384 1.48 1.48 0 0 1 .36-.536 1.696 1.696 0 0 0 .592-.104 3.36 3.36 0 0 1 .592-.152 3.144 3.144 0 0 1 2.072.8 2.808 2.808 0 0 1 1.2 1.848 1.08 1.08 0 0 1-.104.432 2.184 2.184 0 0 0-.152.536 22.896 22.896 0 0 0-.512 2.744 7.632 7.632 0 0 1-.8 2.688 4.352 4.352 0 0 0-.256.92q-.104.568-.208.92-.464 1.6-.72 2.328a2.752 2.752 0 0 0 0 1.664 19.248 19.248 0 0 0 3.512-2.104 27.432 27.432 0 0 0 2.992-2.512zm-1.848-18.344a1.344 1.344 0 0 0-.232 1.024q.104.568.152 1.048a1.28 1.28 0 0 1-.152.8 1.4 1.4 0 0 1-1.128.384 2.072 2.072 0 0 1-1.104-.208l-.944-.464a.408.408 0 0 1-.048-.176.28.28 0 0 0-.104-.176 2.232 2.232 0 0 1-.92-1.104 12.368 12.368 0 0 1-.56-1.464 1.72 1.72 0 0 1-.128-.848 1.6 1.6 0 0 0-.176-.896 9.12 9.12 0 0 0 1.384 0 6.336 6.336 0 0 0 .92-.152 5.016 5.016 0 0 0 .72-.232 2.968 2.968 0 0 1 .8-.176 2.648 2.648 0 0 0 .56.592 1.184 1.184 0 0 1 .408.488.736.736 0 0 1 .128.664.944.944 0 0 0 .424.896zm20.856 5.128l-.28.28-.336.336s0 .048.104.048h.152a.264.264 0 0 1-.08.28.712.712 0 0 0-.176.28 1.824 1.824 0 0 0 .616.256q-.408.464-.872 1.024a1.296 1.296 0 0 0-.36 1.072 9.848 9.848 0 0 1-.72.848q-.408.432-.72.8.256.208.36.048-.568.976-1.36 2.232a18.856 18.856 0 0 1-1.304 1.872l-1.048 1.768q-.592 1-1.208 2t-1.104 1.92a9.928 9.928 0 0 1-.848 1.384 1.928 1.928 0 0 0-.488.72l-.512 1.128-.504 1.168a8.504 8.504 0 0 0-.408 1.08 5.088 5.088 0 0 0-.536 1.104q-.232.64-.432 1.256l-.232.176a1.152 1.152 0 0 1-.384.176l-.664.104a1.72 1.72 0 0 1-1.336-.408 7.904 7.904 0 0 1-2.208-2.736 5.424 5.424 0 0 1-.384-.976q0-.104-.048-1.08t-.152-2.36q-.104-1.384-.208-2.872t-.208-2.528q-.048-1.28-.152-2.816a25.408 25.408 0 0 0-.408-3.128 2.248 2.248 0 0 0-.232-.432 1.08 1.08 0 0 1-.176-.592l-.104-.92.664-.048c.168-.064.264-.064.28 0s.112.088.28.048.168 0 .104 0h.104a.648.648 0 0 1 .432.104 5.416 5.416 0 0 1 .72.408q.384.256.8.536a3.136 3.136 0 0 1 .592.536 3.704 3.704 0 0 1 .536 1.232 14.96 14.96 0 0 0 .432 1.432 13.24 13.24 0 0 0 .28 2.584q.28 1.408.8 3.56 1.328-2.104 2.792-4.096a44.648 44.648 0 0 1 2.896-3.584 6.312 6.312 0 0 0 .688-.688q.488-.536 1.048-1.104t1.104-1.024a4.232 4.232 0 0 1 1-.664 1.208 1.208 0 0 0 .232-.304 1.488 1.488 0 0 1 .28-.36l1.128-.64a7.2 7.2 0 0 1 .8-.432.688.688 0 0 1 .512-.176 1.28 1.28 0 0 0 .456.168zm-1.792 4.864l-.304.408-.152-.152.304-.304zm12.496 8.352a.8.8 0 0 0-.256.64v.92a2.96 2.96 0 0 1-.104.944 1.68 1.68 0 0 1-.536.8.568.568 0 0 0 .256.048.304.304 0 0 1 .256.152.912.912 0 0 1-.256.408 2.464 2.464 0 0 1-.36.304 1.336 1.336 0 0 0-.152.872 8.872 8.872 0 0 0-1.384 1.112 12.328 12.328 0 0 0-1.256 1.28v.32a.448.448 0 0 1-.304.384 5.856 5.856 0 0 1-1.128.464 3.848 3.848 0 0 1-.92.208 3.392 3.392 0 0 1-2.28-.56 6.768 6.768 0 0 1-1.6-1.6 7.464 7.464 0 0 1-1.048-2.128 8.608 8.608 0 0 1-.408-1.976 8.8 8.8 0 0 1 .048-1.6 10.792 10.792 0 0 1 .304-1.848q.208-.744.36-1.336l.208-.8a26.4 26.4 0 0 1 1.688-5.376q0-.208.048-.72a.8.8 0 0 0 .256-.384 1.48 1.48 0 0 1 .36-.536 1.696 1.696 0 0 0 .592-.104 3.36 3.36 0 0 1 .592-.152 3.144 3.144 0 0 1 2.072.8 2.808 2.808 0 0 1 1.2 1.848 1.08 1.08 0 0 1-.104.432 2.184 2.184 0 0 0-.152.536 22.896 22.896 0 0 0-.512 2.744 7.632 7.632 0 0 1-.8 2.688 4.352 4.352 0 0 0-.256.92q-.104.568-.208.92-.464 1.6-.72 2.328a2.752 2.752 0 0 0 0 1.664 19.248 19.248 0 0 0 3.512-2.056 27.432 27.432 0 0 0 2.992-2.56zm-1.848-18.344a1.344 1.344 0 0 0-.208 1.024q.104.568.152 1.048a1.28 1.28 0 0 1-.152.8 1.4 1.4 0 0 1-1.128.384 2.072 2.072 0 0 1-1.104-.208l-.944-.464a.408.408 0 0 1-.048-.176.28.28 0 0 0-.104-.176 2.232 2.232 0 0 1-.92-1.104 12.368 12.368 0 0 1-.56-1.464 1.72 1.72 0 0 1-.128-.848 1.6 1.6 0 0 0-.176-.896 9.12 9.12 0 0 0 1.384 0 6.336 6.336 0 0 0 .92-.152 5.016 5.016 0 0 0 .72-.232 2.968 2.968 0 0 1 .8-.176 2.648 2.648 0 0 0 .56.592 1.184 1.184 0 0 1 .408.488.736.736 0 0 1 .128.664.944.944 0 0 0 .408.896zm21.728 9.168a.32.32 0 0 1-.128.256 3.496 3.496 0 0 0-.28.256.208.208 0 0 0 .256.208.512.512 0 0 1-.304.408q-.208.048.208.408-.408.208-.896.408a7.912 7.912 0 0 0-.848.408.248.248 0 0 0 .128.232l.28.176a1.552 1.552 0 0 1-1.048.92 14.032 14.032 0 0 1-1.6.408 6.304 6.304 0 0 1-.536.72 1.024 1.024 0 0 1-.64.464c-.136 0-.168 0-.104-.08s.048-.112-.048-.176-.208.152-.208.464a11.928 11.928 0 0 0-1.688.488q-.92.336-1.848.64c-.072 0-.088.08-.048.128a.32.32 0 0 1 .048.176c-.072 0-.104 0-.104-.048a.392.392 0 0 0-.304-.048 4.944 4.944 0 0 0-.944.28q-.8.28-1.408.536a2.168 2.168 0 0 0-.176.232 2.88 2.88 0 0 0-.232.384 1.856 1.856 0 0 0-.8.336l-.72.488q-.152.616-.336 1.488t-.304 1.664q-.128.8-.232 1.384a6 6 0 0 0-.104.744 4.088 4.088 0 0 0 .048.512q.048.36.152.8t.208.8a2.336 2.336 0 0 1 .104.464.8.8 0 0 1-.304.536.856.856 0 0 0-.304.64 2.136 2.136 0 0 0-.36.048 2.4 2.4 0 0 1-.464.048.384.384 0 0 1-.36-.336 1.184 1.184 0 0 0-.224-.488 3.448 3.448 0 0 1-1.28-2.048q-.104-.976-.256-1.944a5.792 5.792 0 0 1 0-1.976 21.968 21.968 0 0 0 .128-3.304 1.272 1.272 0 0 0-.256-.464q-.256-.36-.512-.744l-.464-.688a.984.984 0 0 1-.208-.464 5.528 5.528 0 0 1 .128-.848 6.184 6.184 0 0 0 .128-1.208.752.752 0 0 0 .256-.36 1.4 1.4 0 0 0 .28-.128.64.64 0 0 1 .336-.08q.304 0 .232.08t.232.08a.624.624 0 0 0 .432-.256 1.104 1.104 0 0 0 .28-.512 13.04 13.04 0 0 0 .432-1.664q.232-1.104.432-2.36t.48-2.48q.232-1.232.432-2.048.408-1.688.944-3.408t1.024-3.456q.208-.8.488-1.816t.64-1.976a14.824 14.824 0 0 0 .472-1.824 2.312 2.312 0 0 1 .976-1.6 1.176 1.176 0 0 1 .464-.256 1.68 1.68 0 0 1 .408-.104.8.8 0 0 1 .592.408.744.744 0 0 0 .536.408 1.296 1.296 0 0 0 .336 0 .8.8 0 0 1 .232 0l-.152.048v.256a1.544 1.544 0 0 0 .152.512 6.872 6.872 0 0 0 .36.72 4.616 4.616 0 0 1 .336.72 1.816 1.816 0 0 1 .128.512 5.208 5.208 0 0 1-.176.92 6.064 6.064 0 0 1-.432 1.232 3.128 3.128 0 0 1 .152.872q-.8 2.616-1.6 5.152t-1.6 4.944q-.152 1.024-.432 2.2t-.592 2.304v.248a.728.728 0 0 0 .464.128 4.864 4.864 0 0 1 .56 0 3.12 3.12 0 0 1 1.072-.152c.168 0 .24.04.208.128s.048.128.256.128a1.672 1.672 0 0 0 .592-.128 3.2 3.2 0 0 1 .688-.176q1.744-.304 3.712-.488z" class="cls-1"/>
  <path d="M305.584 273.864a2.064 2.064 0 0 0-.664.384 1.536 1.536 0 0 1-.616.336.6.6 0 0 0 .56.512 2.232 2.232 0 0 0-.28.536q-.128.336-.28.688a.8.8 0 0 0-1 .488 2.704 2.704 0 0 0-.336 1.256 5.944 5.944 0 0 1-.944.232 6.792 6.792 0 0 1-1.048.08c-.136.072-.16.12-.08.152a.8.8 0 0 0 .28.048 3.576 3.576 0 0 0-.944.28 3.6 3.6 0 0 1-.944.28v.152c0 .064-.072.104-.208.104a1.752 1.752 0 0 1-.592-.152 4.912 4.912 0 0 0-.72-.232 1.512 1.512 0 0 0-.616 0 .416.416 0 0 0-.336.408l-.56-.8a4.408 4.408 0 0 1-1.664-.664 14.272 14.272 0 0 1-1.512-1.432 4.104 4.104 0 0 1-.488-.304.688.688 0 0 1-.208-.304q-.08-.208-.256-.8t-.488-2.2a6.632 6.632 0 0 1 0-2.4l.408-1.56a15.008 15.008 0 0 1 .664-2.048q.512-1.328 1.072-2.512l.72-1.464q.408-.848.976-1.768.256-.36.664-.872a5.816 5.816 0 0 0 .664-1.024 5.6 5.6 0 0 0 .84-.92 3.384 3.384 0 0 1 1.048-.872l.92-.408a.584.584 0 0 0 .464-.664.144.144 0 0 0-.104.104c0 .104.072.152.208.152s.256 0 .152-.08-.048-.08.152-.08a1.512 1.512 0 0 1 .64.256 3.44 3.44 0 0 0 .8.36 2.448 2.448 0 0 1 .104.664.248.248 0 0 0 .256.304q.304 0 .208-.08t.152-.08a.416.416 0 0 1 .336.152c.088.104.176.208.28.304a3.112 3.112 0 0 0 .128 1.072.752.752 0 0 0 .336.408 3.064 3.064 0 0 1 .384.232.8.8 0 0 1 .176.64 4.576 4.576 0 0 1-.104.592q-.104.488-.232 1.128t-.304 1.28q-.184.64-.336 1.152a14.192 14.192 0 0 1-1 1.6q-.688 1-1.36 1.816-.616.616-1.336 1.488t-1.432 1.6q-.72.744-1.176 1.304a1.768 1.768 0 0 0-.464.8 1.016 1.016 0 0 0 .536.688 5.776 5.776 0 0 0 1 .592 1.456 1.456 0 0 0 .744.152h.744a1.664 1.664 0 0 0 .8-.208 1.16 1.16 0 0 1 1 .048l1.976-.616q.944-.304 1.72-.512a.8.8 0 0 0 .52.232zm.416-22.312a6.448 6.448 0 0 1-1.488 1.48l-2.032 1.6a1.464 1.464 0 0 1-.728.328 1.056 1.056 0 0 0-.72.512l-1.072-.224a1.768 1.768 0 0 0-1.528.392.8.8 0 0 0 .128-.584 1.016 1.016 0 0 0-.864.304l.128-.192q.04-.064-.216-.232a.8.8 0 0 0-.864.12 1.328 1.328 0 0 1-.096-.368.536.536 0 0 0-.288-.36.496.496 0 0 0-.36-.104.288.288 0 0 1-.184 0 4.288 4.288 0 0 1 .704-.528q0-.416-.488-.376a.272.272 0 0 0 0-.248.408.408 0 0 1 .096-.336 2.016 2.016 0 0 1 .448-.232q.424-.184.936-.376l1.048-.36a3.008 3.008 0 0 0 .8-.336 11.368 11.368 0 0 0 2.6-1.744 18.944 18.944 0 0 1 1.696-1.472.448.448 0 0 1 .248-.056.96.96 0 0 0 .448-.176 1.088 1.088 0 0 0 .424-.424c.088-.168.192-.352.32-.552a3.896 3.896 0 0 1 .696.144l.712.216a.392.392 0 0 1-.112.32 3.856 3.856 0 0 0-.256.352q.072.168 0 .168c-.064 0 0 .048.12.136s.24.128.216.048 0-.072.168 0a.8.8 0 0 1 .232.88 3.896 3.896 0 0 1-.4 1.384q-.36.72-.472.896zM89.728 256.92q-.152.408-.24.736a6.08 6.08 0 0 1-.24.688 2.936 2.936 0 0 0-.224.56 2.992 2.992 0 0 1-.224.56l-.232.456a1.16 1.16 0 0 1-.272.352 5.504 5.504 0 0 0-.8.736q-.328.384-.632.8a5.2 5.2 0 0 1-.416.408l-1.6 1.424a1.44 1.44 0 0 0-.584.8 4.424 4.424 0 0 0 .16.992.472.472 0 0 0 .256.456.528.528 0 0 1 .368.352l.144.504c.072.272.152.536.24.8s.184.512.288.8a.312.312 0 0 0 .096.072.24.24 0 0 1 .088.128q.128.2.264.376a1.6 1.6 0 0 1 .208.384q.168.304.304.632a3.2 3.2 0 0 0 .312.584q.296.504.8 0l.728-.912q.48-.56.936-1.144t.984-1.144q.648-.712 1.32-1.344t1.312-1.296l.44-.48a6.272 6.272 0 0 1 .496-.48l.224-.176.28-.176a1.168 1.168 0 0 1 .176 1.112 8.608 8.608 0 0 0-.264 1.088 8.888 8.888 0 0 1-.264 1.088q-.304.8-.624 1.6a8.072 8.072 0 0 1-.8 1.472q-.736 1.016-1.456 2.08t-1.416 2.128a6.816 6.816 0 0 1-.528.56.888.888 0 0 0-.176 1.016 1.152 1.152 0 0 0 .216.352l.272.304c.184.168.352.336.504.504a.8.8 0 0 1 .176.656.856.856 0 0 1 .12.888q-.16.48-.264.936a.8.8 0 0 1-.752.712 3.296 3.296 0 0 0-.528.104 2.4 2.4 0 0 1-.448-.56 5.048 5.048 0 0 0-.896-1.064l-.8-.8a.608.608 0 0 0-.408-.256.8.8 0 0 0-.464.256 11.888 11.888 0 0 1-1.288.912q-.664.408-1.432.8a6.4 6.4 0 0 1-5.168.352 3.328 3.328 0 0 1-1.768-1.472.472.472 0 0 0-.176-.256 1.224 1.224 0 0 1-.656-.48 3.2 3.2 0 0 1-.368-.8 1.904 1.904 0 0 0-.24-.584 5.832 5.832 0 0 1-.296-.536 5.44 5.44 0 0 1-.472-1.368q-.144-.712-.264-1.424a1.272 1.272 0 0 1 .088-.712q.104-.408.168-.8c.048-.232.08-.472.112-.712l.208-.888a3.896 3.896 0 0 1 .304-.8.608.608 0 0 0 .104-.408.592.592 0 0 1 .104-.408 1.2 1.2 0 0 1 .296-.328.712.712 0 0 0 .248-.328 3.088 3.088 0 0 1 .576-1.144q.392-.48.8-1.04l.96-1.144.96-1.144a7.872 7.872 0 0 0 .8-1.424.96.96 0 0 0 0-.504 9.728 9.728 0 0 1-.424-3.296q0-.608-.08-1.216t-.08-1.216a8.184 8.184 0 0 1 .184-1.696 9.6 9.6 0 0 1 .536-1.696q.376-.96.8-1.88a18.464 18.464 0 0 1 .936-1.776 8.92 8.92 0 0 1 1.008-1.32 16.144 16.144 0 0 1 1.192-1.168 5.6 5.6 0 0 1 .744-.632l.84-.584a3.36 3.36 0 0 1 .96-.536q.512-.176 1.04-.328a1.376 1.376 0 0 1 1.304.256 3.528 3.528 0 0 0 .8.408 4.8 4.8 0 0 1 .872.408 1.448 1.448 0 0 1 .544.608 6.4 6.4 0 0 1 .504 1.368l.344 1.424c0 .24.08.464.12.688a2.4 2.4 0 0 1 0 .736 6.76 6.76 0 0 1 0 .96 4 4 0 0 1-.192.96.296.296 0 0 0-.048.2.8.8 0 0 1 0 .2 4.216 4.216 0 0 1-.224 1.824l-.312.912a7.296 7.296 0 0 1-.36.864.896.896 0 0 0-.144.352 1.664 1.664 0 0 1-.624 1.192zm-11 17.544a3.424 3.424 0 0 0 .984 1.168q.608.456 1.28.864a.896.896 0 0 0 .92 0 7.392 7.392 0 0 0 2.568-1.728.8.8 0 0 0 .2-.8 1.344 1.344 0 0 0-.208-.432 1.288 1.288 0 0 1-.208-.432q-.328-.712-.672-1.424a7.144 7.144 0 0 0-.8-1.32.8.8 0 0 1-.152-.256.8.8 0 0 0-.152-.256q-.4-.912-.8-1.728-.12-.144-.2-.304a.472.472 0 0 0-.384-.224.456.456 0 0 1-.144.152.456.456 0 0 0-.144.152 4.504 4.504 0 0 0-.592.8q-.232.432-.44.888a6.4 6.4 0 0 0-.688 2.736q0 .56-.056 1.064a2.912 2.912 0 0 1-.312 1.08zm4.24-15.112a3.92 3.92 0 0 0 .472-.48 3.424 3.424 0 0 1 .408-.432 10.088 10.088 0 0 0 1.536-1.672 5.848 5.848 0 0 0 .416-.688q.168-.328.368-.688a13.256 13.256 0 0 0 .88-1.752 11.792 11.792 0 0 0 .584-1.848 4.976 4.976 0 0 0 .208-1.728q-.12-1.112-.336-2.28a3.568 3.568 0 0 0-.536-1.064.68.68 0 0 0-.944-.256 4.256 4.256 0 0 0-1.192.712 11.448 11.448 0 0 0-1.016.96 5.6 5.6 0 0 0-.944 1.424q-.352.8-.648 1.52a4.208 4.208 0 0 0-.2 1.016 7.032 7.032 0 0 1-.152 1.016 1.856 1.856 0 0 0-.104.864q.056.408.08.8t0 .888l.04.504a.8.8 0 0 0 .2.456.616.616 0 0 1 .144.504 1.648 1.648 0 0 0 0 1.016 7.328 7.328 0 0 1 .24.96.256.256 0 0 0 .08.2.544.544 0 0 1 .248.048h.104a.048.048 0 0 0 .072 0z" class="cls-1"/>
</svg>
