<svg xmlns="http://www.w3.org/2000/svg" style="background-color:#000" viewBox="0 0 600 400">
  <g fill="none" stroke="#00f" stroke-width="9">
    <path d="M172.3394 362.8207l-355.2572 29.2074L-30.5836 69.763z"/>
    <path d="M140.2815 348.0348l-309.499 25.4455L-36.5042 92.7237z"/>
    <path d="M107.958 332.9352l-265.224 21.8054 113.728-240.5934z"/>
    <path d="M75.7776 318.0518l-221.269 18.1916 94.88-200.7203z"/>
  </g>
  <g fill="none" stroke-width="5.7492">
    <g stroke="red" stroke-width="5.2155" transform="translate(-35.054 -77.41) scale(1.72562)">
      <circle cx="22.6766" cy="128.9963" r="89.5911"/>
      <circle cx="22.3048" cy="128.855" r="80.1653"/>
      <circle cx="22.3048" cy="128.6245" r="69.8033"/>
      <circle cx="22.0315" cy="128.5207" r="59.716"/>
    </g>
    <path stroke="#ff0" stroke-width="9" d="M-154.9814 172.067H184.64m-339.6214 18.5873H184.64m-339.6214 18.959H184.64m-339.6214 18.5875H184.64"/>
  </g>
  <path fill="#fff" d="M235.622 226.7244q0 5.9583-5.9583 5.9583h-20.5q-5.7917 0-5.7917-5.9583v-53.25q0-6 5.9167-6h20.375q5.9583 0 5.9583 6v13.9167h-9.7917v-11.5413H213.122v48.4583h12.7083v-18.25h-7.25v-8.2917h17.0417zm52.7017 5.9583h-9.6667l-1.9583-12.375h-12.2084l-1.9583 12.375h-9.625v-.1666l12.625-65.125h10.25zm-13-20.75l-4.75-29.4166-4.7917 29.417zm55.9933 20.75h-25.625v-65.2083h9.75v56.5h15.875zm50.8267 0h-9.6667l-1.9583-12.375h-12.2084l-1.9583 12.375h-9.625v-.1666l12.625-65.125h10.25zm-13-20.75l-4.75-29.4166-4.7917 29.417zm62.8683 20.75h-10.5417l-7.1666-22.9583-7.2084 22.9583h-10.375v-.3333l12.1667-33.0417q-11.4583-31.6666-11.4167-31.8333h10.4167l6.5 21.25 6.5417-21.25h10.3333v.375l-11.4167 31.2083zm26.8267 0h-9.75v-65.2083h9.75zm47.035 0H478.832v-65.2083h26.7917v8.625H488.582v19.0417h14.6667v8.4587H488.582v20.4583h17.2917z" style="-inkscape-font-specification:'Agency FB Bold Condensed'" font-size="85.3333" font-family="Agency FB" letter-spacing="11.91" word-spacing="0" font-weight="bold" font-stretch="condensed"/>
</svg>
