<svg xmlns="http://www.w3.org/2000/svg" style="background-color:#bb1c80" viewBox="3400 3700 4000 7000"><g fill="#fefdfe"><path d="M3977 9324c-4-4-7-23-7-41 0-29-3-33-19-28-15 4-19-1-25-34-6-40-33-62-47-39-6 10-11 9-21-3-10-13-37-18-123-22-145-7-210-31-285-107-76-76-95-132-94-270 1-262 133-510 429-805 117-117 329-295 352-295 5 0 15-102 21-227 7-126 15-253 18-283l6-55-41 78c-136 257-330 508-476 612-68 49-151 85-195 85-16 0-31 4-34 9-3 4-28 8-56 7-35-2-50 2-50 11 0 16-12 17-28 1-9-9-12-1-12 39 0 77-12 173-21 173-5 0-8-52-6-115 2-98 0-115-13-113-12 3-17 28-23 117-7 109-11 130-22 120-2-3-8-83-11-177-6-134-10-172-21-172-7 0-13 5-13 10 0 6-4 10-10 10s-10-26-10-59c0-40-8-76-24-112-32-74-53-150-65-242-20-145-14-259 34-602 43-310 66-616 49-659-15-38-86-12-150 56-76 79-120 196-131 348-6 80-9 91-17 68-19-53-26-27-23 82 3 102-3 132-17 95-3-9-9-51-12-95-8-91-24-108-24-25 0 30-4 55-9 55-15 0-44-165-38-216 6-60 89-228 155-314 71-94 188-200 257-234 38-19 82-31 117-34 56-4 59-3 97 34 30 31 41 52 51 99 15 73 8 260-21 560-25 261-36 677-20 795 28 215 140 306 288 235 122-59 313-301 451-573 99-194 118-249 131-397 48-514 104-994 121-1025 25-47 195-172 261-191 33-10 42-10 57 5 30 26 42 85 42 202 0 139-21 281-64 447-135 514-142 558-166 1002-17 325-17 345-8 345 5 0 36-12 70-26s92-34 129-43l68-17 5-200c5-230 28-438 55-498 19-45 72-92 156-142 106-63 156-68 176-16 22 58-17 279-76 426-26 65-27 73-21 185 19 334 72 524 154 558 77 32 203-27 280-132 71-96 112-186 167-363 3-7-22-25-60-44-82-39-146-101-184-175-96-191-47-447 104-536 41-25 62-30 117-31 58-1 70 2 93 24 35 33 60 81 80 161 14 52 16 94 12 224-3 88-8 170-12 181-6 20-1 22 58 34 64 12 120 8 184-11 28-9 34-17 53-81 84-277 268-451 517-490 178-28 325 28 385 146 28 56 34 153 14 239-9 38-16 83-16 102s-6 35-14 38c-7 3-16 22-20 41-7 37-26 50-26 17 0-13-19 0-68 48-74 72-147 119-242 158-75 30-179 53-243 53-60 0-65 12-43 93 26 92 73 172 133 227 67 62 104 74 209 68 70-4 94-10 157-41 123-61 259-223 391-468l46-86-22-49c-20-42-23-65-22-164 0-95 4-125 24-175 51-133 141-231 270-294 66-32 85-36 165-39 79-3 95-1 135 20 28 15 58 43 79 74 33 49 33 50 27 134-8 110-17 160-27 160-4 0-9-17-11-37-2-21-7-38-13-38-5-1-20-4-32-9-20-6-23-14-23-64 0-31-4-62-8-69-15-24-62-34-105-22-76 20-181 156-201 257-9 48 11 166 35 215 28 55 131 196 144 196 9 1 48-27 129-93 42-33 66-29 66 11 0 28-33 88-48 88-4 0-28 16-52 36l-43 36 22 36c59 96 83 235 57 336-9 34-16 75-16 91s-7 30-15 34c-9 3-15 19-16 38 0 27-2 29-9 13-7-19-9-18-19 8-6 16-11 35-11 44s-6 13-14 10c-18-7-22 4-31 86-8 78-23 88-27 20-2-32-7-47-15-46-7 2-13-4-13-12 0-30-19-14-36 30-17 46-33 58-35 28-1-10-1-22 0-26s-7-10-16-14c-10-4-21-10-24-15s-48-10-100-11c-79-2-99-6-125-24-34-25-64-86-64-132 0-74 68-187 192-317 37-39 68-75 68-79 0-5-24-33-53-64s-62-69-73-85l-21-30-21 47c-33 74-141 256-197 332-162 219-361 335-577 335-43 0-78 4-78 9s-15 9-32 8c-18 0-41 3-51 7-12 6-17 5-15-4 2-7-2-14-9-17-6-2-13 6-16 19l-4 23-2-22c-2-40-20-24-27 25-7 41-9 44-15 22-4-14-7-44-8-67-1-41-2-42-31-39-24 3-30-1-30-15 0-21-19-36-21-17-4 37-6 58-7 111-2 54-13 74-25 42-4-8-9-59-13-115-5-69-11-100-19-100-15 0-25-31-25-77 0-19-7-36-17-41-10-6-19-29-23-58-4-27-15-85-25-129-14-63-16-106-12-198 6-109 5-118-11-112-52 22-165 45-219 45-55 0-63 2-63 19 0 30-58 188-101 275-79 157-200 303-286 344-28 13-36 26-49 69-17 59-30 67-40 26-10-46-13-53-24-53-5 0-10 19-10 43 0 52-15 80-30 57-5-8-10-30-10-47 0-21-5-33-14-33-13 0-26 100-26 215 0 50-13 85-26 73-6-7-22-183-23-255-1-25-5-33-19-33-10 0-40-7-66-16-94-32-188-160-236-324-13-41-24-76-25-78-8-9-223 91-276 129l-26 18-6 303c-7 379-30 597-82 804-38 150-79 224-179 324-47 47-93 85-102 85-11 0-21 14-29 40-10 37-12 38-18 15-9-34-19-18-24 38-5 62-16 105-26 96zm-7-93c0-6-4-13-10-16-5-3-10 1-10 9 0 9 5 16 10 16 6 0 10-4 10-9zm-54-233c114-78 173-346 208-938 7-118 11-217 10-219-6-7-99 73-179 154-138 140-261 345-305 508-19 69-22 101-18 197 3 99 8 123 32 175 56 123 171 179 252 123zm3632-1228c45-28 65-79 60-155-4-65-49-175-72-175-16 0-107 113-134 165-51 102-19 185 70 185 25 0 57-8 76-20zm-1107-606c85-27 180-84 223-135 71-84 107-220 91-341-6-41-15-60-41-86-33-33-38-34-90-30-103 9-189 100-254 270-34 87-70 252-70 318 0 39 0 39 33 33 17-3 66-16 108-29zm-765-369c-9-163-41-245-94-245-24 0-32 34-32 137 0 81 14 119 78 207l36 49 9-29c4-16 6-69 3-119z"/><path d="M2806 6888c-9-34-7-68 3-68s21 34 21 68c0 12-4 22-9 22s-11-10-15-22z"/></g></svg>
